<svg width="20" height="20" viewBox="0 0 20 20" fill="none" xmlns="http://www.w3.org/2000/svg">
<g id="icon-arb-sel">
<g id="Group">
<path id="Vector" d="M1.81091 6.07894V13.921C1.81091 14.4201 2.07682 14.8824 2.51044 15.1319L9.3012 19.0509C9.73482 19.3005 10.2666 19.3005 10.7003 19.0509L17.491 15.1319C17.9246 14.8824 18.1905 14.4201 18.1905 13.921V6.07894C18.1905 5.57986 17.9246 5.1176 17.491 4.86806L10.7003 0.949057C10.2666 0.699517 9.73482 0.699517 9.3012 0.949057L2.51044 4.86806C2.08091 5.1176 1.81091 5.57986 1.81091 6.07894Z" fill="#213147"/>
<g id="Group_2">
<g id="Group_3">
<g id="Group_4">
<path id="Vector_2" d="M11.4856 11.5197L10.5161 14.1746C10.4875 14.2483 10.4875 14.3301 10.5161 14.4037L12.1811 18.9732L14.1078 17.8605L11.7965 11.5197C11.7434 11.3724 11.5388 11.3724 11.4856 11.5197Z" fill="#12AAFF"/>
</g>
<g id="Group_5">
<path id="Vector_3" d="M13.4246 7.05253C13.3714 6.90526 13.1669 6.90526 13.1137 7.05253L12.1442 9.70747C12.1155 9.7811 12.1155 9.86292 12.1442 9.93655L14.8727 17.4187L16.7995 16.306L13.4246 7.05253Z" fill="#12AAFF"/>
</g>
</g>
</g>
<path id="Vector_4" d="M10.0007 1.23952C10.0498 1.23952 10.0948 1.25179 10.1398 1.27633L17.4869 5.51851C17.5728 5.5676 17.626 5.6576 17.626 5.75578V14.2401C17.626 14.3383 17.5728 14.4283 17.4869 14.4774L10.1398 18.7237C10.0989 18.7482 10.0498 18.7605 10.0007 18.7605C9.95163 18.7605 9.90663 18.7482 9.86163 18.7237L2.51862 14.4815C2.43271 14.4324 2.37953 14.3424 2.37953 14.2442V5.75578C2.37953 5.6576 2.43271 5.5676 2.51862 5.51851L9.86573 1.27633C9.90663 1.25179 9.95572 1.23952 10.0007 1.23952ZM10.0007 0C9.73891 0 9.4771 0.0695439 9.24392 0.204541L1.89682 4.44672C1.43046 4.71671 1.14001 5.21579 1.14001 5.75578V14.2401C1.14001 14.7801 1.43046 15.2833 1.89682 15.5533L9.24392 19.7955C9.4771 19.9305 9.73891 20 10.0007 20C10.2625 20 10.5243 19.9305 10.7575 19.7955L18.1046 15.5533C18.5751 15.2833 18.8614 14.7842 18.8614 14.2401V5.75578C18.8614 5.21579 18.571 4.71262 18.1046 4.44263L10.7616 0.204541C10.5243 0.0695439 10.2625 0 10.0007 0Z" fill="#9DCCED"/>
<path id="Vector_5" d="M5.14502 17.4269L5.82 15.5778L7.17816 16.7069L5.91 17.8687L5.14502 17.4269Z" fill="#213147"/>
<g id="Group_6">
<path id="Vector_6" d="M9.383 5.15033H7.52168C7.38259 5.15033 7.25577 5.23624 7.21078 5.36714L3.21814 16.3142L5.14491 17.4269L9.54254 5.37123C9.57936 5.26487 9.50163 5.15033 9.383 5.15033Z" fill="white"/>
<path id="Vector_7" d="M12.6435 5.15033H10.7822C10.6431 5.15033 10.5163 5.23624 10.4713 5.36714L5.91003 17.8687L7.83681 18.9814L12.799 5.37532C12.8399 5.26487 12.7581 5.15033 12.6435 5.15033Z" fill="white"/>
</g>
</g>
</g>
</svg>
