<svg width="20" height="20" viewBox="0 0 20 20" fill="none" xmlns="http://www.w3.org/2000/svg">
<g id="icon-arb-unsel" opacity="0.3">
<g id="Group">
<g id="Group_2">
<g id="Group_3">
<g id="Group_4">
<path id="Vector" d="M11.4856 11.5197L10.5161 14.1747C10.4875 14.2483 10.4875 14.3301 10.5161 14.4037L12.1811 18.9732L14.1078 17.8605L11.7965 11.5197C11.7434 11.3725 11.5388 11.3725 11.4856 11.5197Z" fill="white"/>
</g>
<g id="Group_5">
<path id="Vector_2" d="M13.4246 7.05256C13.3714 6.90529 13.1669 6.90529 13.1137 7.05256L12.1442 9.7075C12.1155 9.78113 12.1155 9.86295 12.1442 9.93659L14.8727 17.4187L16.7995 16.306L13.4246 7.05256Z" fill="white"/>
</g>
</g>
</g>
<path id="Subtract" fill-rule="evenodd" clip-rule="evenodd" d="M10.1398 1.27633C10.0948 1.25179 10.0498 1.23952 10.0007 1.23952C9.95572 1.23952 9.90663 1.25179 9.86573 1.27633L2.51862 5.51851C2.43271 5.5676 2.37953 5.6576 2.37953 5.75578V14.2442C2.37953 14.3424 2.43271 14.4324 2.51862 14.4815L5.57544 16.2475L5.1449 17.4269L5.90988 17.8687L6.86581 16.9929L9.86163 18.7237C9.90663 18.7482 9.95163 18.7605 10.0007 18.7605C10.0498 18.7605 10.0989 18.7482 10.1398 18.7237L17.4869 14.4774C17.5728 14.4283 17.626 14.3383 17.626 14.2401V5.75578C17.626 5.6576 17.5728 5.5676 17.4869 5.51851L10.1398 1.27633ZM9.24392 0.204541C9.4771 0.0695439 9.73891 0 10.0007 0C10.2625 0 10.5243 0.0695439 10.7616 0.204541L18.1046 4.44263C18.571 4.71262 18.8614 5.21579 18.8614 5.75578V14.2401C18.8614 14.7842 18.5751 15.2833 18.1046 15.5533L10.7575 19.7955C10.5243 19.9305 10.2625 20 10.0007 20C9.73891 20 9.4771 19.9305 9.24392 19.7955L1.89682 15.5533C1.43046 15.2833 1.14001 14.7801 1.14001 14.2401V5.75578C1.14001 5.21579 1.43046 4.71671 1.89682 4.44672L9.24392 0.204541Z" fill="white"/>
<g id="Group_6">
<path id="Vector_3" d="M9.383 5.15034H7.52168C7.38259 5.15034 7.25577 5.23625 7.21078 5.36716L3.21814 16.3142L5.14491 17.4269L9.54254 5.37125C9.57936 5.26489 9.50163 5.15034 9.383 5.15034Z" fill="white"/>
<path id="Vector_4" d="M12.6435 5.15033H10.7822C10.6431 5.15033 10.5163 5.23624 10.4713 5.36714L5.91003 17.8687L7.83681 18.9814L12.799 5.37532C12.8399 5.26487 12.7581 5.15033 12.6435 5.15033Z" fill="white"/>
</g>
</g>
</g>
</svg>
