<svg width="384" height="204" viewBox="0 0 384 204" fill="none" xmlns="http://www.w3.org/2000/svg">
<rect width="384" height="204" rx="6" fill="#171717"/>
<path d="M113.703 177H112.263V169.032H115.791C117.723 169.032 118.719 169.896 118.719 171.564C118.719 172.848 118.119 173.652 116.955 173.952L118.959 177H117.255L115.479 174.084H113.703V177ZM113.703 172.8H115.743C116.775 172.8 117.267 172.392 117.267 171.564C117.267 170.724 116.775 170.316 115.743 170.316H113.703V172.8ZM125.489 174.576H121.013C121.169 175.476 121.937 176.004 123.053 176.004C123.881 176.004 124.577 175.752 125.081 175.272H125.141V176.532C124.661 176.904 123.893 177.12 123.005 177.12C121.037 177.12 119.717 175.944 119.717 174.192C119.717 172.464 120.929 171.252 122.645 171.252C124.385 171.252 125.489 172.308 125.489 173.952V174.576ZM122.681 172.368C121.877 172.368 121.169 172.872 121.013 173.628H124.313C124.205 172.86 123.557 172.368 122.681 172.368ZM132.894 177H131.646L130.35 173.208H130.326L129.018 177H127.794L125.85 171.372H127.206L128.442 175.368H128.466L129.858 171.372H130.878L132.27 175.368H132.294L133.53 171.372H134.826L132.894 177ZM141.102 177H140.046L140.01 176.196H139.986C139.578 176.772 138.87 177.12 137.958 177.12C136.35 177.12 135.174 175.896 135.174 174.192C135.174 172.488 136.35 171.252 137.958 171.252C138.87 171.252 139.566 171.6 139.974 172.176H139.998L140.046 171.372H141.102V177ZM138.162 175.98C139.17 175.98 139.866 175.236 139.866 174.192C139.866 173.124 139.17 172.392 138.162 172.392C137.154 172.392 136.458 173.124 136.458 174.192C136.458 175.236 137.154 175.98 138.162 175.98ZM145.468 171.252C145.828 171.252 146.128 171.348 146.308 171.468V172.728H146.248C146.008 172.56 145.708 172.464 145.36 172.464C144.352 172.464 143.86 173.136 143.86 174.504V177H142.588V171.372H143.656L143.704 172.236H143.728C144.052 171.588 144.628 171.252 145.468 171.252ZM152.68 177H151.624L151.588 176.196H151.564C151.156 176.772 150.448 177.12 149.536 177.12C147.928 177.12 146.752 175.896 146.752 174.192C146.752 172.488 147.928 171.252 149.536 171.252C150.34 171.252 150.964 171.516 151.384 171.96H151.408V168.6H152.68V177ZM149.74 175.98C150.748 175.98 151.444 175.236 151.444 174.192C151.444 173.124 150.748 172.392 149.74 172.392C148.732 172.392 148.036 173.124 148.036 174.192C148.036 175.236 148.732 175.98 149.74 175.98ZM156.146 171.252C156.878 171.252 157.538 171.396 157.946 171.66V172.968H157.886C157.502 172.572 156.914 172.368 156.182 172.368C155.57 172.368 155.138 172.644 155.138 173.04C155.138 173.364 155.39 173.508 156.218 173.556C157.718 173.64 158.306 174.192 158.306 175.332C158.306 176.436 157.454 177.12 156.05 177.12C155.114 177.12 154.382 176.928 153.914 176.568V175.236H153.974C154.442 175.74 155.126 176.004 155.99 176.004C156.65 176.004 157.058 175.74 157.058 175.332C157.058 174.96 156.806 174.792 155.894 174.72C154.43 174.6 153.89 174.144 153.89 173.076C153.89 171.972 154.79 171.252 156.146 171.252Z" fill="#E6FC8D"/>
<path d="M208.645 172.476H212.233V173.76H208.645V177H207.205V169.032H213.097V170.316H208.645V172.476ZM219.153 174.576H214.677C214.833 175.476 215.601 176.004 216.717 176.004C217.545 176.004 218.241 175.752 218.745 175.272H218.805V176.532C218.325 176.904 217.557 177.12 216.669 177.12C214.701 177.12 213.381 175.944 213.381 174.192C213.381 172.464 214.593 171.252 216.309 171.252C218.049 171.252 219.153 172.308 219.153 173.952V174.576ZM216.345 172.368C215.541 172.368 214.833 172.872 214.677 173.628H217.977C217.869 172.86 217.221 172.368 216.345 172.368ZM225.727 174.576H221.251C221.407 175.476 222.175 176.004 223.291 176.004C224.119 176.004 224.815 175.752 225.319 175.272H225.379V176.532C224.899 176.904 224.131 177.12 223.243 177.12C221.275 177.12 219.955 175.944 219.955 174.192C219.955 172.464 221.167 171.252 222.883 171.252C224.623 171.252 225.727 172.308 225.727 173.952V174.576ZM222.919 172.368C222.115 172.368 221.407 172.872 221.251 173.628H224.551C224.443 172.86 223.795 172.368 222.919 172.368ZM228.845 171.252C229.577 171.252 230.237 171.396 230.645 171.66V172.968H230.585C230.201 172.572 229.613 172.368 228.881 172.368C228.269 172.368 227.837 172.644 227.837 173.04C227.837 173.364 228.089 173.508 228.917 173.556C230.417 173.64 231.005 174.192 231.005 175.332C231.005 176.436 230.153 177.12 228.749 177.12C227.813 177.12 227.081 176.928 226.613 176.568V175.236H226.673C227.141 175.74 227.825 176.004 228.689 176.004C229.349 176.004 229.757 175.74 229.757 175.332C229.757 174.96 229.505 174.792 228.593 174.72C227.129 174.6 226.589 174.144 226.589 173.076C226.589 171.972 227.489 171.252 228.845 171.252ZM239.769 177L239.301 176.484C238.677 176.892 237.909 177.12 237.093 177.12C235.461 177.12 234.477 176.304 234.477 174.936C234.477 173.964 234.933 173.256 235.917 172.716C235.317 172.056 235.065 171.516 235.065 170.904C235.065 169.68 235.941 168.912 237.321 168.912C238.713 168.912 239.577 169.62 239.577 170.772C239.577 171.72 239.049 172.404 237.777 172.992L239.433 174.804C239.697 174.372 239.829 173.832 239.829 173.22C239.829 173.076 239.817 172.932 239.805 172.788H241.029C241.041 172.92 241.053 173.052 241.053 173.184C241.053 174.156 240.765 175.008 240.213 175.656L241.437 177H239.769ZM236.937 172.08L237.033 172.188C238.077 171.732 238.425 171.372 238.425 170.856C238.425 170.388 238.005 170.052 237.405 170.052C236.769 170.052 236.337 170.4 236.337 170.904C236.337 171.288 236.493 171.6 236.937 172.08ZM237.177 175.992C237.717 175.992 238.185 175.884 238.557 175.656L236.661 173.544C236.037 173.892 235.773 174.264 235.773 174.804C235.773 175.56 236.277 175.992 237.177 175.992ZM245.197 169.032H248.665C250.597 169.032 251.593 169.908 251.593 171.612C251.593 173.304 250.597 174.18 248.665 174.18H246.637V177H245.197V169.032ZM246.637 172.896H248.605C249.649 172.896 250.141 172.476 250.141 171.612C250.141 170.736 249.649 170.316 248.605 170.316H246.637V172.896ZM255.562 171.252C255.922 171.252 256.222 171.348 256.402 171.468V172.728H256.342C256.102 172.56 255.802 172.464 255.454 172.464C254.446 172.464 253.954 173.136 253.954 174.504V177H252.682V171.372H253.75L253.798 172.236H253.822C254.146 171.588 254.722 171.252 255.562 171.252ZM262.618 174.576H258.142C258.298 175.476 259.066 176.004 260.182 176.004C261.01 176.004 261.706 175.752 262.21 175.272H262.27V176.532C261.79 176.904 261.022 177.12 260.134 177.12C258.166 177.12 256.846 175.944 256.846 174.192C256.846 172.464 258.058 171.252 259.774 171.252C261.514 171.252 262.618 172.308 262.618 173.952V174.576ZM259.81 172.368C259.006 172.368 258.298 172.872 258.142 173.628H261.442C261.334 172.86 260.686 172.368 259.81 172.368ZM270.404 171.252C271.76 171.252 272.516 172.128 272.516 173.676V177H271.244V173.808C271.244 172.884 270.836 172.392 270.08 172.392C269.228 172.392 268.784 172.956 268.784 174.096V177H267.512V173.808C267.512 172.884 267.104 172.392 266.336 172.392C265.496 172.392 265.052 172.956 265.052 174V177H263.78V171.372H264.836L264.872 172.188H264.896C265.232 171.576 265.82 171.252 266.66 171.252C267.452 171.252 268.076 171.6 268.412 172.26H268.436C268.784 171.588 269.408 171.252 270.404 171.252ZM274.517 168.804C275.009 168.804 275.333 169.14 275.333 169.62C275.333 170.1 275.009 170.424 274.517 170.424C274.037 170.424 273.713 170.1 273.713 169.62C273.713 169.14 274.037 168.804 274.517 168.804ZM273.881 171.372H275.153V177H273.881V171.372ZM281.818 177H280.75L280.702 176.148H280.678C280.318 176.772 279.682 177.12 278.794 177.12C277.378 177.12 276.538 176.208 276.538 174.672V171.372H277.81V174.528C277.81 175.44 278.29 175.98 279.118 175.98C280.018 175.98 280.546 175.356 280.546 174.324V171.372H281.818V177ZM289.962 171.252C291.318 171.252 292.074 172.128 292.074 173.676V177H290.802V173.808C290.802 172.884 290.394 172.392 289.638 172.392C288.786 172.392 288.342 172.956 288.342 174.096V177H287.07V173.808C287.07 172.884 286.662 172.392 285.894 172.392C285.054 172.392 284.61 172.956 284.61 174V177H283.338V171.372H284.394L284.43 172.188H284.454C284.79 171.576 285.378 171.252 286.218 171.252C287.01 171.252 287.634 171.6 287.97 172.26H287.994C288.342 171.588 288.966 171.252 289.962 171.252Z" fill="#E6FC8D"/>
<path d="M124.261 34L123.625 32.5H119.545L118.909 34H117.409L120.913 26.032H122.293L125.809 34H124.261ZM121.597 27.664H121.573L120.073 31.24H123.097L121.597 27.664ZM128.847 28.252C129.579 28.252 130.239 28.396 130.647 28.66V29.968H130.587C130.203 29.572 129.615 29.368 128.883 29.368C128.271 29.368 127.839 29.644 127.839 30.04C127.839 30.364 128.091 30.508 128.919 30.556C130.419 30.64 131.007 31.192 131.007 32.332C131.007 33.436 130.155 34.12 128.751 34.12C127.815 34.12 127.083 33.928 126.615 33.568V32.236H126.675C127.143 32.74 127.827 33.004 128.691 33.004C129.351 33.004 129.759 32.74 129.759 32.332C129.759 31.96 129.507 31.792 128.595 31.72C127.131 31.6 126.591 31.144 126.591 30.076C126.591 28.972 127.491 28.252 128.847 28.252ZM134.015 28.252C134.747 28.252 135.407 28.396 135.815 28.66V29.968H135.755C135.371 29.572 134.783 29.368 134.051 29.368C133.439 29.368 133.007 29.644 133.007 30.04C133.007 30.364 133.259 30.508 134.087 30.556C135.587 30.64 136.175 31.192 136.175 32.332C136.175 33.436 135.323 34.12 133.919 34.12C132.983 34.12 132.251 33.928 131.783 33.568V32.236H131.843C132.311 32.74 132.995 33.004 133.859 33.004C134.519 33.004 134.927 32.74 134.927 32.332C134.927 31.96 134.675 31.792 133.763 31.72C132.299 31.6 131.759 31.144 131.759 30.076C131.759 28.972 132.659 28.252 134.015 28.252ZM142.686 31.576H138.21C138.366 32.476 139.134 33.004 140.25 33.004C141.078 33.004 141.774 32.752 142.278 32.272H142.338V33.532C141.858 33.904 141.09 34.12 140.202 34.12C138.234 34.12 136.914 32.944 136.914 31.192C136.914 29.464 138.126 28.252 139.842 28.252C141.582 28.252 142.686 29.308 142.686 30.952V31.576ZM139.878 29.368C139.074 29.368 138.366 29.872 138.21 30.628H141.51C141.402 29.86 140.754 29.368 139.878 29.368ZM147.197 32.656V33.916C146.933 34.048 146.585 34.12 146.141 34.12C144.869 34.12 144.185 33.4 144.185 32.068V29.476H143.189V28.372H144.221L144.401 26.824H145.457V28.372H147.173V29.476H145.457V32.02C145.457 32.632 145.781 32.992 146.333 32.992C146.633 32.992 146.909 32.908 147.137 32.656H147.197ZM150.292 28.252C151.024 28.252 151.684 28.396 152.092 28.66V29.968H152.032C151.648 29.572 151.06 29.368 150.328 29.368C149.716 29.368 149.284 29.644 149.284 30.04C149.284 30.364 149.536 30.508 150.364 30.556C151.864 30.64 152.452 31.192 152.452 32.332C152.452 33.436 151.6 34.12 150.196 34.12C149.26 34.12 148.528 33.928 148.06 33.568V32.236H148.12C148.588 32.74 149.272 33.004 150.136 33.004C150.796 33.004 151.204 32.74 151.204 32.332C151.204 31.96 150.952 31.792 150.04 31.72C148.576 31.6 148.036 31.144 148.036 30.076C148.036 28.972 148.936 28.252 150.292 28.252Z" fill="#E6FC8D"/>
<path d="M207.025 25.912C209.473 25.912 211.189 27.616 211.189 30.016C211.189 32.416 209.473 34.12 207.025 34.12C204.577 34.12 202.861 32.416 202.861 30.016C202.861 27.616 204.577 25.912 207.025 25.912ZM207.025 27.196C205.417 27.196 204.313 28.348 204.313 30.016C204.313 31.684 205.417 32.836 207.025 32.836C208.633 32.836 209.737 31.684 209.737 30.016C209.737 28.348 208.633 27.196 207.025 27.196ZM215.494 28.252C217.102 28.252 218.278 29.488 218.278 31.192C218.278 32.896 217.102 34.12 215.494 34.12C214.678 34.12 214.054 33.856 213.634 33.4H213.61V36.28H212.338V28.372H213.406L213.442 29.176H213.466C213.874 28.6 214.57 28.252 215.494 28.252ZM215.29 32.98C216.286 32.98 216.994 32.236 216.994 31.192C216.994 30.124 216.286 29.392 215.29 29.392C214.282 29.392 213.574 30.124 213.574 31.192C213.574 32.236 214.282 32.98 215.29 32.98ZM222.718 32.656V33.916C222.454 34.048 222.106 34.12 221.662 34.12C220.39 34.12 219.706 33.4 219.706 32.068V29.476H218.71V28.372H219.742L219.922 26.824H220.978V28.372H222.694V29.476H220.978V32.02C220.978 32.632 221.302 32.992 221.854 32.992C222.154 32.992 222.43 32.908 222.658 32.656H222.718ZM224.505 25.804C224.997 25.804 225.321 26.14 225.321 26.62C225.321 27.1 224.997 27.424 224.505 27.424C224.025 27.424 223.701 27.1 223.701 26.62C223.701 26.14 224.025 25.804 224.505 25.804ZM223.869 28.372H225.141V34H223.869V28.372ZM229.298 28.252C231.05 28.252 232.298 29.464 232.298 31.192C232.298 32.908 231.05 34.12 229.298 34.12C227.546 34.12 226.31 32.908 226.31 31.192C226.31 29.464 227.546 28.252 229.298 28.252ZM229.298 29.392C228.29 29.392 227.594 30.124 227.594 31.192C227.594 32.236 228.29 32.98 229.298 32.98C230.318 32.98 231.014 32.236 231.014 31.192C231.014 30.124 230.318 29.392 229.298 29.392ZM236.491 28.252C237.895 28.252 238.747 29.164 238.747 30.7V34H237.475V30.844C237.475 29.92 236.983 29.392 236.167 29.392C235.267 29.392 234.727 30.004 234.727 31.048V34H233.455V28.372H234.523L234.571 29.236H234.595C234.955 28.6 235.603 28.252 236.491 28.252ZM242.091 28.252C242.823 28.252 243.483 28.396 243.891 28.66V29.968H243.831C243.447 29.572 242.859 29.368 242.127 29.368C241.515 29.368 241.083 29.644 241.083 30.04C241.083 30.364 241.335 30.508 242.163 30.556C243.663 30.64 244.251 31.192 244.251 32.332C244.251 33.436 243.399 34.12 241.995 34.12C241.059 34.12 240.327 33.928 239.859 33.568V32.236H239.919C240.387 32.74 241.071 33.004 241.935 33.004C242.595 33.004 243.003 32.74 243.003 32.332C243.003 31.96 242.751 31.792 241.839 31.72C240.375 31.6 239.835 31.144 239.835 30.076C239.835 28.972 240.735 28.252 242.091 28.252ZM248.119 26.032H251.587C253.519 26.032 254.515 26.908 254.515 28.612C254.515 30.304 253.519 31.18 251.587 31.18H249.559V34H248.119V26.032ZM249.559 29.896H251.527C252.571 29.896 253.063 29.476 253.063 28.612C253.063 27.736 252.571 27.316 251.527 27.316H249.559V29.896ZM258.126 28.252C259.878 28.252 261.126 29.464 261.126 31.192C261.126 32.908 259.878 34.12 258.126 34.12C256.374 34.12 255.138 32.908 255.138 31.192C255.138 29.464 256.374 28.252 258.126 28.252ZM258.126 29.392C257.118 29.392 256.422 30.124 256.422 31.192C256.422 32.236 257.118 32.98 258.126 32.98C259.146 32.98 259.842 32.236 259.842 31.192C259.842 30.124 259.146 29.392 258.126 29.392ZM264.263 28.252C264.995 28.252 265.655 28.396 266.063 28.66V29.968H266.003C265.619 29.572 265.031 29.368 264.299 29.368C263.687 29.368 263.255 29.644 263.255 30.04C263.255 30.364 263.507 30.508 264.335 30.556C265.835 30.64 266.423 31.192 266.423 32.332C266.423 33.436 265.571 34.12 264.167 34.12C263.231 34.12 262.499 33.928 262.031 33.568V32.236H262.091C262.559 32.74 263.243 33.004 264.107 33.004C264.767 33.004 265.175 32.74 265.175 32.332C265.175 31.96 264.923 31.792 264.011 31.72C262.547 31.6 262.007 31.144 262.007 30.076C262.007 28.972 262.907 28.252 264.263 28.252ZM268.134 25.804C268.626 25.804 268.95 26.14 268.95 26.62C268.95 27.1 268.626 27.424 268.134 27.424C267.654 27.424 267.33 27.1 267.33 26.62C267.33 26.14 267.654 25.804 268.134 25.804ZM267.498 28.372H268.77V34H267.498V28.372ZM273.683 32.656V33.916C273.419 34.048 273.071 34.12 272.627 34.12C271.355 34.12 270.671 33.4 270.671 32.068V29.476H269.675V28.372H270.707L270.887 26.824H271.943V28.372H273.659V29.476H271.943V32.02C271.943 32.632 272.267 32.992 272.819 32.992C273.119 32.992 273.395 32.908 273.623 32.656H273.683ZM275.47 25.804C275.962 25.804 276.286 26.14 276.286 26.62C276.286 27.1 275.962 27.424 275.47 27.424C274.99 27.424 274.666 27.1 274.666 26.62C274.666 26.14 274.99 25.804 275.47 25.804ZM274.834 28.372H276.106V34H274.834V28.372ZM280.263 28.252C282.015 28.252 283.263 29.464 283.263 31.192C283.263 32.908 282.015 34.12 280.263 34.12C278.511 34.12 277.275 32.908 277.275 31.192C277.275 29.464 278.511 28.252 280.263 28.252ZM280.263 29.392C279.255 29.392 278.559 30.124 278.559 31.192C278.559 32.236 279.255 32.98 280.263 32.98C281.283 32.98 281.979 32.236 281.979 31.192C281.979 30.124 281.283 29.392 280.263 29.392ZM287.456 28.252C288.86 28.252 289.712 29.164 289.712 30.7V34H288.44V30.844C288.44 29.92 287.948 29.392 287.132 29.392C286.232 29.392 285.692 30.004 285.692 31.048V34H284.42V28.372H285.488L285.536 29.236H285.56C285.92 28.6 286.568 28.252 287.456 28.252ZM293.056 28.252C293.788 28.252 294.448 28.396 294.856 28.66V29.968H294.796C294.412 29.572 293.824 29.368 293.092 29.368C292.48 29.368 292.048 29.644 292.048 30.04C292.048 30.364 292.3 30.508 293.128 30.556C294.628 30.64 295.216 31.192 295.216 32.332C295.216 33.436 294.364 34.12 292.96 34.12C292.024 34.12 291.292 33.928 290.824 33.568V32.236H290.884C291.352 32.74 292.036 33.004 292.9 33.004C293.56 33.004 293.968 32.74 293.968 32.332C293.968 31.96 293.716 31.792 292.804 31.72C291.34 31.6 290.8 31.144 290.8 30.076C290.8 28.972 291.7 28.252 293.056 28.252Z" fill="#E6FC8D"/>
<circle opacity="0.8" cx="249" cy="102" r="57" stroke="#E6FC8D" stroke-width="0.7125" stroke-dasharray="2.38 2.38"/>
<circle opacity="0.8" cx="135" cy="102" r="57" stroke="#E6FC8D" stroke-width="0.7125" stroke-dasharray="2.38 2.38"/>
<circle cx="306" cy="102" r="50" fill="#252621"/>
<circle cx="305.225" cy="81.0141" r="8.31408" stroke="#E0E0E0" stroke-width="1.4"/>
<path d="M289 104C289 99 296.439 94.0845 305.615 94.0845C309.159 94.0845 312.444 94.6891 315.141 95.7193" stroke="#E0E0E0" stroke-width="1.4"/>
<mask id="path-11-inside-1_56_441" fill="white">
<path fill-rule="evenodd" clip-rule="evenodd" d="M323.858 98.9608L320.718 92.7434L317.516 99.0701C317.258 99.535 317.113 100.063 317.113 100.623C317.113 102.488 318.727 104 320.718 104C322.71 104 324.324 102.488 324.324 100.623C324.324 100.019 324.154 99.4515 323.858 98.9608Z"/>
</mask>
<path d="M320.718 92.7434L321.968 92.1124L320.72 89.6405L319.469 92.1111L320.718 92.7434ZM323.858 98.9608L322.608 99.5918L322.632 99.6396L322.66 99.6854L323.858 98.9608ZM317.516 99.0701L318.74 99.7485L318.753 99.7257L318.765 99.7024L317.516 99.0701ZM319.469 93.3744L322.608 99.5918L325.107 98.3298L321.968 92.1124L319.469 93.3744ZM318.765 99.7024L321.967 93.3757L319.469 92.1111L316.267 98.4378L318.765 99.7024ZM318.513 100.623C318.513 100.31 318.593 100.014 318.74 99.7485L316.291 98.3918C315.923 99.0561 315.713 99.8166 315.713 100.623H318.513ZM320.718 102.6C319.412 102.6 318.513 101.63 318.513 100.623H315.713C315.713 103.346 318.042 105.4 320.718 105.4V102.6ZM322.924 100.623C322.924 101.63 322.024 102.6 320.718 102.6V105.4C323.395 105.4 325.724 103.346 325.724 100.623H322.924ZM322.66 99.6854C322.83 99.9672 322.924 100.285 322.924 100.623H325.724C325.724 99.7522 325.479 98.9358 325.056 98.2362L322.66 99.6854Z" fill="#E0E0E0" mask="url(#path-11-inside-1_56_441)"/>
<path d="M290.886 128H289.566V121.873H287.267V120.696H293.174V121.873H290.886V128ZM296.222 122.731C296.552 122.731 296.827 122.819 296.992 122.929V124.084H296.937C296.717 123.93 296.442 123.842 296.123 123.842C295.199 123.842 294.748 124.458 294.748 125.712V128H293.582V122.841H294.561L294.605 123.633H294.627C294.924 123.039 295.452 122.731 296.222 122.731ZM302.833 128H301.865L301.832 127.263H301.81C301.436 127.791 300.787 128.11 299.951 128.11C298.477 128.11 297.399 126.988 297.399 125.426C297.399 123.864 298.477 122.731 299.951 122.731C300.787 122.731 301.425 123.05 301.799 123.578H301.821L301.865 122.841H302.833V128ZM300.138 127.065C301.062 127.065 301.7 126.383 301.7 125.426C301.7 124.447 301.062 123.776 300.138 123.776C299.214 123.776 298.576 124.447 298.576 125.426C298.576 126.383 299.214 127.065 300.138 127.065ZM309.321 128H308.353L308.32 127.263H308.298C307.924 127.791 307.275 128.11 306.439 128.11C304.965 128.11 303.887 126.988 303.887 125.426C303.887 123.864 304.965 122.731 306.439 122.731C307.176 122.731 307.748 122.973 308.133 123.38H308.155V120.3H309.321V128ZM306.626 127.065C307.55 127.065 308.188 126.383 308.188 125.426C308.188 124.447 307.55 123.776 306.626 123.776C305.702 123.776 305.064 124.447 305.064 125.426C305.064 126.383 305.702 127.065 306.626 127.065ZM315.666 125.778H311.563C311.706 126.603 312.41 127.087 313.433 127.087C314.192 127.087 314.83 126.856 315.292 126.416H315.347V127.571C314.907 127.912 314.203 128.11 313.389 128.11C311.585 128.11 310.375 127.032 310.375 125.426C310.375 123.842 311.486 122.731 313.059 122.731C314.654 122.731 315.666 123.699 315.666 125.206V125.778ZM313.092 123.754C312.355 123.754 311.706 124.216 311.563 124.909H314.588C314.489 124.205 313.895 123.754 313.092 123.754ZM319.35 122.731C319.68 122.731 319.955 122.819 320.12 122.929V124.084H320.065C319.845 123.93 319.57 123.842 319.251 123.842C318.327 123.842 317.876 124.458 317.876 125.712V128H316.71V122.841H317.689L317.733 123.633H317.755C318.052 123.039 318.58 122.731 319.35 122.731ZM322.736 122.731C323.407 122.731 324.012 122.863 324.386 123.105V124.304H324.331C323.979 123.941 323.44 123.754 322.769 123.754C322.208 123.754 321.812 124.007 321.812 124.37C321.812 124.667 322.043 124.799 322.802 124.843C324.177 124.92 324.716 125.426 324.716 126.471C324.716 127.483 323.935 128.11 322.648 128.11C321.79 128.11 321.119 127.934 320.69 127.604V126.383H320.745C321.174 126.845 321.801 127.087 322.593 127.087C323.198 127.087 323.572 126.845 323.572 126.471C323.572 126.13 323.341 125.976 322.505 125.91C321.163 125.8 320.668 125.382 320.668 124.403C320.668 123.391 321.493 122.731 322.736 122.731Z" fill="#E0E0E0"/>
<circle cx="78" cy="102" r="50" fill="#252621"/>
<path d="M62.6843 122H57.4373V114.696H58.7573V120.823H62.6843V122ZM64.2367 114.487C64.6877 114.487 64.9847 114.795 64.9847 115.235C64.9847 115.675 64.6877 115.972 64.2367 115.972C63.7967 115.972 63.4997 115.675 63.4997 115.235C63.4997 114.795 63.7967 114.487 64.2367 114.487ZM63.6537 116.841H64.8197V122H63.6537V116.841ZM71.3256 124.09H70.1596V121.461H70.1376C69.7526 121.868 69.1806 122.11 68.4436 122.11C66.9696 122.11 65.8916 120.988 65.8916 119.426C65.8916 117.864 66.9696 116.731 68.4436 116.731C69.2796 116.731 69.9286 117.05 70.3026 117.578H70.3246L70.3576 116.841H71.3256V124.09ZM68.6306 121.065C69.5546 121.065 70.1926 120.383 70.1926 119.426C70.1926 118.447 69.5546 117.776 68.6306 117.776C67.7066 117.776 67.0686 118.447 67.0686 119.426C67.0686 120.383 67.7066 121.065 68.6306 121.065ZM77.4179 122H76.4389L76.3949 121.219H76.3729C76.0429 121.791 75.4599 122.11 74.6459 122.11C73.3479 122.11 72.5779 121.274 72.5779 119.866V116.841H73.7439V119.734C73.7439 120.57 74.1839 121.065 74.9429 121.065C75.7679 121.065 76.2519 120.493 76.2519 119.547V116.841H77.4179V122ZM79.3724 114.487C79.8234 114.487 80.1204 114.795 80.1204 115.235C80.1204 115.675 79.8234 115.972 79.3724 115.972C78.9324 115.972 78.6354 115.675 78.6354 115.235C78.6354 114.795 78.9324 114.487 79.3724 114.487ZM78.7894 116.841H79.9554V122H78.7894V116.841ZM86.4613 122H85.4933L85.4603 121.263H85.4383C85.0643 121.791 84.4153 122.11 83.5793 122.11C82.1053 122.11 81.0273 120.988 81.0273 119.426C81.0273 117.864 82.1053 116.731 83.5793 116.731C84.3163 116.731 84.8883 116.973 85.2733 117.38H85.2953V114.3H86.4613V122ZM83.7663 121.065C84.6903 121.065 85.3283 120.383 85.3283 119.426C85.3283 118.447 84.6903 117.776 83.7663 117.776C82.8423 117.776 82.2043 118.447 82.2043 119.426C82.2043 120.383 82.8423 121.065 83.7663 121.065ZM88.4066 114.487C88.8576 114.487 89.1546 114.795 89.1546 115.235C89.1546 115.675 88.8576 115.972 88.4066 115.972C87.9666 115.972 87.6696 115.675 87.6696 115.235C87.6696 114.795 87.9666 114.487 88.4066 114.487ZM87.8236 116.841H88.9896V122H87.8236V116.841ZM93.4935 120.768V121.923C93.2515 122.044 92.9325 122.11 92.5255 122.11C91.3595 122.11 90.7325 121.45 90.7325 120.229V117.853H89.8195V116.841H90.7655L90.9305 115.422H91.8985V116.841H93.4715V117.853H91.8985V120.185C91.8985 120.746 92.1955 121.076 92.7015 121.076C92.9765 121.076 93.2295 120.999 93.4385 120.768H93.4935ZM96.2202 124.09H95.0212L96.0222 121.835L93.9432 116.841H95.1972L96.6382 120.581H96.6602L98.1122 116.841H99.3112L96.2202 124.09ZM55.4446 126.696H58.6236C60.3946 126.696 61.3076 127.499 61.3076 129.061C61.3076 130.612 60.3946 131.415 58.6236 131.415H56.7646V134H55.4446V126.696ZM56.7646 130.238H58.5686C59.5256 130.238 59.9766 129.853 59.9766 129.061C59.9766 128.258 59.5256 127.873 58.5686 127.873H56.7646V130.238ZM64.9455 128.731C65.2755 128.731 65.5505 128.819 65.7155 128.929V130.084H65.6605C65.4405 129.93 65.1655 129.842 64.8465 129.842C63.9225 129.842 63.4715 130.458 63.4715 131.712V134H62.3055V128.841H63.2845L63.3285 129.633H63.3505C63.6475 129.039 64.1755 128.731 64.9455 128.731ZM68.8615 128.731C70.4675 128.731 71.6115 129.842 71.6115 131.426C71.6115 132.999 70.4675 134.11 68.8615 134.11C67.2555 134.11 66.1225 132.999 66.1225 131.426C66.1225 129.842 67.2555 128.731 68.8615 128.731ZM68.8615 129.776C67.9375 129.776 67.2995 130.447 67.2995 131.426C67.2995 132.383 67.9375 133.065 68.8615 133.065C69.7965 133.065 70.4345 132.383 70.4345 131.426C70.4345 130.447 69.7965 129.776 68.8615 129.776ZM75.1621 134H73.9741L71.8841 128.841H73.1381L74.5791 132.735H74.6011L76.0531 128.841H77.2521L75.1621 134ZM78.5936 126.487C79.0446 126.487 79.3416 126.795 79.3416 127.235C79.3416 127.675 79.0446 127.972 78.5936 127.972C78.1536 127.972 77.8566 127.675 77.8566 127.235C77.8566 126.795 78.1536 126.487 78.5936 126.487ZM78.0106 128.841H79.1766V134H78.0106V128.841ZM85.6825 134H84.7145L84.6815 133.263H84.6595C84.2855 133.791 83.6365 134.11 82.8005 134.11C81.3265 134.11 80.2485 132.988 80.2485 131.426C80.2485 129.864 81.3265 128.731 82.8005 128.731C83.5375 128.731 84.1095 128.973 84.4945 129.38H84.5165V126.3H85.6825V134ZM82.9875 133.065C83.9115 133.065 84.5495 132.383 84.5495 131.426C84.5495 130.447 83.9115 129.776 82.9875 129.776C82.0635 129.776 81.4255 130.447 81.4255 131.426C81.4255 132.383 82.0635 133.065 82.9875 133.065ZM92.0278 131.778H87.9248C88.0678 132.603 88.7718 133.087 89.7948 133.087C90.5538 133.087 91.1918 132.856 91.6538 132.416H91.7088V133.571C91.2688 133.912 90.5648 134.11 89.7508 134.11C87.9468 134.11 86.7368 133.032 86.7368 131.426C86.7368 129.842 87.8478 128.731 89.4208 128.731C91.0158 128.731 92.0278 129.699 92.0278 131.206V131.778ZM89.4538 129.754C88.7168 129.754 88.0678 130.216 87.9248 130.909H90.9498C90.8508 130.205 90.2568 129.754 89.4538 129.754ZM95.7112 128.731C96.0412 128.731 96.3162 128.819 96.4812 128.929V130.084H96.4262C96.2062 129.93 95.9312 129.842 95.6122 129.842C94.6882 129.842 94.2372 130.458 94.2372 131.712V134H93.0712V128.841H94.0502L94.0942 129.633H94.1162C94.4132 129.039 94.9412 128.731 95.7112 128.731ZM99.0971 128.731C99.7681 128.731 100.373 128.863 100.747 129.105V130.304H100.692C100.34 129.941 99.8011 129.754 99.1301 129.754C98.5691 129.754 98.1731 130.007 98.1731 130.37C98.1731 130.667 98.4041 130.799 99.1631 130.843C100.538 130.92 101.077 131.426 101.077 132.471C101.077 133.483 100.296 134.11 99.0091 134.11C98.1511 134.11 97.4801 133.934 97.0511 133.604V132.383H97.1061C97.5351 132.845 98.1621 133.087 98.9541 133.087C99.5591 133.087 99.9331 132.845 99.9331 132.471C99.9331 132.13 99.7021 131.976 98.8661 131.91C97.5241 131.8 97.0291 131.382 97.0291 130.403C97.0291 129.391 97.8541 128.731 99.0971 128.731Z" fill="#E0E0E0"/>
<circle cx="77.2251" cy="81.0141" r="8.31409" stroke="#E0E0E0" stroke-width="1.4"/>
<line x1="90.0943" y1="99.4929" x2="90.0943" y2="104" stroke="#E0E0E0" stroke-width="1.4"/>
<line x1="94.1506" y1="93.1831" x2="94.1506" y2="104" stroke="#E0E0E0" stroke-width="1.4"/>
<line x1="98.2068" y1="96.7888" x2="98.2068" y2="104" stroke="#E0E0E0" stroke-width="1.4"/>
<path d="M61 104C61 99 68.4388 94.0845 77.6149 94.0845C81.1589 94.0845 84.4436 94.6891 87.1408 95.7193" stroke="#E0E0E0" stroke-width="1.4"/>
<mask id="path-21-outside-2_56_441" maskUnits="userSpaceOnUse" x="167" y="61" width="50" height="56" fill="black">
<rect fill="white" x="167" y="61" width="50" height="56"/>
<path fill-rule="evenodd" clip-rule="evenodd" d="M168 71.2308C168 71.2308 168 71.2308 168 71.2308C168 66.1327 178.745 62 192 62C205.255 62 216 66.1328 216 71.2308V106.769C216 111.867 205.255 116 192 116C178.745 116 168 111.867 168 106.769V71.2308Z"/>
</mask>
<path fill-rule="evenodd" clip-rule="evenodd" d="M168 71.2308C168 71.2308 168 71.2308 168 71.2308C168 66.1327 178.745 62 192 62C205.255 62 216 66.1328 216 71.2308V106.769C216 111.867 205.255 116 192 116C178.745 116 168 111.867 168 106.769V71.2308Z" fill="#21211F"/>
<path d="M168 71.2308L167 71.2307V71.2308H168ZM167 71.2308C167 71.2308 167 71.2308 167 71.2308C167 71.2308 167 71.2308 167 71.2308C167 71.2308 167 71.2308 167 71.2308V71.2308C167 71.2308 167 71.2308 167 71.2308C167 71.2308 167 71.2308 167 71.2308C167 71.2308 167 71.2308 167 71.2308C167 71.2308 167 71.2308 167 71.2308C167 71.2308 167 71.2308 167 71.2308C167 71.2308 167 71.2308 167 71.2308C167 71.2308 167 71.2308 167 71.2308C167 71.2308 167 71.2308 167 71.2308C167 71.2308 167 71.2308 167 71.2308V71.2308C167 71.2308 167 71.2308 167 71.2308C167 71.2308 167 71.2308 167 71.2308C167 71.2308 167 71.2308 167 71.2308H169C169 71.2308 169 71.2308 169 71.2308C169 71.2308 169 71.2308 169 71.2308C169 71.2308 169 71.2308 169 71.2308V71.2308C169 71.2308 169 71.2308 169 71.2308C169 71.2308 169 71.2308 169 71.2308C169 71.2308 169 71.2308 169 71.2308C169 71.2308 169 71.2308 169 71.2308C169 71.2308 169 71.2308 169 71.2308C169 71.2308 169 71.2308 169 71.2308C169 71.2308 169 71.2308 169 71.2308C169 71.2308 169 71.2308 169 71.2308C169 71.2308 169 71.2308 169 71.2308V71.2308C169 71.2308 169 71.2308 169 71.2308C169 71.2308 169 71.2308 169 71.2308C169 71.2308 169 71.2308 169 71.2308H167ZM192 61C185.282 61 179.155 62.0456 174.67 63.7703C172.432 64.6314 170.551 65.6812 169.213 66.8979C167.875 68.1148 167 69.5776 167 71.2307L169 71.2308C169 70.3349 169.468 69.3693 170.559 68.3776C171.65 67.3856 173.284 66.4463 175.388 65.637C179.59 64.0208 185.463 63 192 63V61ZM217 71.2308C217 69.5776 216.125 68.1149 214.787 66.8979C213.449 65.6812 211.568 64.6314 209.33 63.7703C204.845 62.0456 198.718 61 192 61V63C198.537 63 204.41 64.0208 208.612 65.637C210.716 66.4463 212.35 67.3856 213.441 68.3776C214.532 69.3693 215 70.3349 215 71.2308H217ZM215 71.2308V106.769H217V71.2308H215ZM192 117C198.718 117 204.845 115.954 209.33 114.23C211.568 113.369 213.449 112.319 214.787 111.102C216.125 109.885 217 108.422 217 106.769H215C215 107.665 214.532 108.631 213.441 109.622C212.35 110.614 210.716 111.554 208.612 112.363C204.41 113.979 198.537 115 192 115V117ZM167 106.769C167 108.422 167.875 109.885 169.213 111.102C170.551 112.319 172.432 113.369 174.67 114.23C179.155 115.954 185.282 117 192 117V115C185.463 115 179.59 113.979 175.388 112.363C173.284 111.554 171.65 110.614 170.559 109.622C169.468 108.631 169 107.665 169 106.769H167ZM169 106.769V71.2308H167V106.769H169Z" fill="white" mask="url(#path-21-outside-2_56_441)"/>
<path fill-rule="evenodd" clip-rule="evenodd" d="M175.699 76.9112C179.857 78.4202 185.62 79.3592 192 79.3592C198.38 79.3592 204.143 78.4202 208.301 76.9112C210.381 76.1564 212.046 75.2637 213.188 74.2843C214.328 73.3058 215.201 72.2546 215.201 71.1731H215.471C215.471 72.4167 214.775 73.5806 213.567 74.6168C212.361 75.6521 210.628 76.5737 208.51 77.3427C204.271 78.881 198.434 79.8269 192 79.8269C185.566 79.8269 179.729 78.881 175.49 77.3427C173.372 76.5737 171.639 75.6521 170.433 74.6168C169.225 73.5806 168.529 72.4167 168.529 71.1731H168.799C168.799 72.2546 169.672 73.3058 170.812 74.2843C171.954 75.2637 173.619 76.1564 175.699 76.9112Z" fill="url(#paint0_linear_56_441)"/>
<path fill-rule="evenodd" clip-rule="evenodd" d="M175.699 101.781C179.857 100.272 185.62 99.3332 192 99.3332C198.38 99.3332 204.143 100.272 208.301 101.781C210.381 102.536 212.046 103.429 213.188 104.408C214.328 105.387 215.201 106.438 215.201 107.519H215.471C215.471 106.276 214.775 105.112 213.567 104.076C212.361 103.04 210.628 102.119 208.51 101.35C204.271 99.8113 198.434 98.8654 192 98.8654C185.566 98.8654 179.729 99.8113 175.49 101.35C173.372 102.119 171.639 103.04 170.433 104.076C169.225 105.112 168.529 106.276 168.529 107.519H168.799C168.799 106.438 169.672 105.387 170.812 104.408C171.954 103.429 173.619 102.536 175.699 101.781Z" fill="url(#paint1_linear_56_441)" fill-opacity="0.5"/>
<rect x="168" y="118" width="48" height="28" fill="#171717"/>
<path d="M176.684 132H171.437V124.696H172.757V130.823H176.684V132ZM178.237 124.487C178.688 124.487 178.985 124.795 178.985 125.235C178.985 125.675 178.688 125.972 178.237 125.972C177.797 125.972 177.5 125.675 177.5 125.235C177.5 124.795 177.797 124.487 178.237 124.487ZM177.654 126.841H178.82V132H177.654V126.841ZM185.326 134.09H184.16V131.461H184.138C183.753 131.868 183.181 132.11 182.444 132.11C180.97 132.11 179.892 130.988 179.892 129.426C179.892 127.864 180.97 126.731 182.444 126.731C183.28 126.731 183.929 127.05 184.303 127.578H184.325L184.358 126.841H185.326V134.09ZM182.631 131.065C183.555 131.065 184.193 130.383 184.193 129.426C184.193 128.447 183.555 127.776 182.631 127.776C181.707 127.776 181.069 128.447 181.069 129.426C181.069 130.383 181.707 131.065 182.631 131.065ZM191.418 132H190.439L190.395 131.219H190.373C190.043 131.791 189.46 132.11 188.646 132.11C187.348 132.11 186.578 131.274 186.578 129.866V126.841H187.744V129.734C187.744 130.57 188.184 131.065 188.943 131.065C189.768 131.065 190.252 130.493 190.252 129.547V126.841H191.418V132ZM193.372 124.487C193.823 124.487 194.12 124.795 194.12 125.235C194.12 125.675 193.823 125.972 193.372 125.972C192.932 125.972 192.635 125.675 192.635 125.235C192.635 124.795 192.932 124.487 193.372 124.487ZM192.789 126.841H193.955V132H192.789V126.841ZM200.461 132H199.493L199.46 131.263H199.438C199.064 131.791 198.415 132.11 197.579 132.11C196.105 132.11 195.027 130.988 195.027 129.426C195.027 127.864 196.105 126.731 197.579 126.731C198.316 126.731 198.888 126.973 199.273 127.38H199.295V124.3H200.461V132ZM197.766 131.065C198.69 131.065 199.328 130.383 199.328 129.426C199.328 128.447 198.69 127.776 197.766 127.776C196.842 127.776 196.204 128.447 196.204 129.426C196.204 130.383 196.842 131.065 197.766 131.065ZM202.407 124.487C202.858 124.487 203.155 124.795 203.155 125.235C203.155 125.675 202.858 125.972 202.407 125.972C201.967 125.972 201.67 125.675 201.67 125.235C201.67 124.795 201.967 124.487 202.407 124.487ZM201.824 126.841H202.99V132H201.824V126.841ZM207.494 130.768V131.923C207.252 132.044 206.933 132.11 206.526 132.11C205.36 132.11 204.733 131.45 204.733 130.229V127.853H203.82V126.841H204.766L204.931 125.422H205.899V126.841H207.472V127.853H205.899V130.185C205.899 130.746 206.196 131.076 206.702 131.076C206.977 131.076 207.23 130.999 207.439 130.768H207.494ZM210.22 134.09H209.021L210.022 131.835L207.943 126.841H209.197L210.638 130.581H210.66L212.112 126.841H213.311L210.22 134.09ZM181.873 136.696H185.052C186.823 136.696 187.736 137.499 187.736 139.061C187.736 140.612 186.823 141.415 185.052 141.415H183.193V144H181.873V136.696ZM183.193 140.238H184.997C185.954 140.238 186.405 139.853 186.405 139.061C186.405 138.258 185.954 137.873 184.997 137.873H183.193V140.238ZM191.047 138.731C192.653 138.731 193.797 139.842 193.797 141.426C193.797 142.999 192.653 144.11 191.047 144.11C189.441 144.11 188.308 142.999 188.308 141.426C188.308 139.842 189.441 138.731 191.047 138.731ZM191.047 139.776C190.123 139.776 189.485 140.447 189.485 141.426C189.485 142.383 190.123 143.065 191.047 143.065C191.982 143.065 192.62 142.383 192.62 141.426C192.62 140.447 191.982 139.776 191.047 139.776ZM197.288 138.731C198.894 138.731 200.038 139.842 200.038 141.426C200.038 142.999 198.894 144.11 197.288 144.11C195.682 144.11 194.549 142.999 194.549 141.426C194.549 139.842 195.682 138.731 197.288 138.731ZM197.288 139.776C196.364 139.776 195.726 140.447 195.726 141.426C195.726 142.383 196.364 143.065 197.288 143.065C198.223 143.065 198.861 142.383 198.861 141.426C198.861 140.447 198.223 139.776 197.288 139.776ZM201.099 144V136.3H202.265V144H201.099Z" fill="#E0E0E0"/>
<path d="M132 159L138 155.536V162.464L132 159Z" fill="#D7EC85"/>
<path d="M246 159L252 155.536V162.464L246 159Z" fill="#D7EC85"/>
<path d="M254 45L248 48.4641L248 41.5359L254 45Z" fill="#D7EC85"/>
<path d="M140 45L134 48.4641L134 41.5359L140 45Z" fill="#D7EC85"/>
<defs>
<linearGradient id="paint0_linear_56_441" x1="168.529" y1="75.5" x2="215.471" y2="75.5" gradientUnits="userSpaceOnUse">
<stop stop-color="white" stop-opacity="0"/>
<stop offset="0.2" stop-color="white" stop-opacity="0.4"/>
<stop offset="0.8" stop-color="white" stop-opacity="0.4"/>
<stop offset="1" stop-color="white" stop-opacity="0"/>
</linearGradient>
<linearGradient id="paint1_linear_56_441" x1="168.529" y1="103.192" x2="215.471" y2="103.192" gradientUnits="userSpaceOnUse">
<stop stop-color="white" stop-opacity="0"/>
<stop offset="0.2" stop-color="white" stop-opacity="0.2"/>
<stop offset="0.8" stop-color="white" stop-opacity="0.2"/>
<stop offset="1" stop-color="white" stop-opacity="0"/>
</linearGradient>
</defs>
</svg>
