<svg width="384" height="204" viewBox="0 0 384 204" fill="none" xmlns="http://www.w3.org/2000/svg">
<rect width="384" height="204" rx="6" fill="#171717"/>
<path d="M22 48C22 44.6863 24.6863 42 28 42H208.675C210.401 42 212.043 42.7429 213.182 44.039L234.259 68.0195C235.255 69.1522 235.255 70.8478 234.259 71.9805L213.182 95.961C212.043 97.2571 210.401 98 208.675 98H28C24.6863 98 22 95.3137 22 92V48Z" fill="#252621"/>
<path d="M22 112C22 108.686 24.6863 106 28 106H208.675C210.401 106 212.043 106.743 213.182 108.039L234.259 132.019C235.255 133.152 235.255 134.848 234.259 135.981L213.182 159.961C212.043 161.257 210.401 162 208.675 162H28C24.6863 162 22 159.314 22 156V112Z" fill="#252621"/>
<rect x="260" y="42" width="100" height="120" rx="6" fill="#252621"/>
<path d="M294.684 122H289.437V114.696H290.757V120.823H294.684V122ZM296.237 114.487C296.688 114.487 296.985 114.795 296.985 115.235C296.985 115.675 296.688 115.972 296.237 115.972C295.797 115.972 295.5 115.675 295.5 115.235C295.5 114.795 295.797 114.487 296.237 114.487ZM295.654 116.841H296.82V122H295.654V116.841ZM303.326 124.09H302.16V121.461H302.138C301.753 121.868 301.181 122.11 300.444 122.11C298.97 122.11 297.892 120.988 297.892 119.426C297.892 117.864 298.97 116.731 300.444 116.731C301.28 116.731 301.929 117.05 302.303 117.578H302.325L302.358 116.841H303.326V124.09ZM300.631 121.065C301.555 121.065 302.193 120.383 302.193 119.426C302.193 118.447 301.555 117.776 300.631 117.776C299.707 117.776 299.069 118.447 299.069 119.426C299.069 120.383 299.707 121.065 300.631 121.065ZM309.418 122H308.439L308.395 121.219H308.373C308.043 121.791 307.46 122.11 306.646 122.11C305.348 122.11 304.578 121.274 304.578 119.866V116.841H305.744V119.734C305.744 120.57 306.184 121.065 306.943 121.065C307.768 121.065 308.252 120.493 308.252 119.547V116.841H309.418V122ZM311.372 114.487C311.823 114.487 312.12 114.795 312.12 115.235C312.12 115.675 311.823 115.972 311.372 115.972C310.932 115.972 310.635 115.675 310.635 115.235C310.635 114.795 310.932 114.487 311.372 114.487ZM310.789 116.841H311.955V122H310.789V116.841ZM318.461 122H317.493L317.46 121.263H317.438C317.064 121.791 316.415 122.11 315.579 122.11C314.105 122.11 313.027 120.988 313.027 119.426C313.027 117.864 314.105 116.731 315.579 116.731C316.316 116.731 316.888 116.973 317.273 117.38H317.295V114.3H318.461V122ZM315.766 121.065C316.69 121.065 317.328 120.383 317.328 119.426C317.328 118.447 316.69 117.776 315.766 117.776C314.842 117.776 314.204 118.447 314.204 119.426C314.204 120.383 314.842 121.065 315.766 121.065ZM320.407 114.487C320.858 114.487 321.155 114.795 321.155 115.235C321.155 115.675 320.858 115.972 320.407 115.972C319.967 115.972 319.67 115.675 319.67 115.235C319.67 114.795 319.967 114.487 320.407 114.487ZM319.824 116.841H320.99V122H319.824V116.841ZM325.494 120.768V121.923C325.252 122.044 324.933 122.11 324.526 122.11C323.36 122.11 322.733 121.45 322.733 120.229V117.853H321.82V116.841H322.766L322.931 115.422H323.899V116.841H325.472V117.853H323.899V120.185C323.899 120.746 324.196 121.076 324.702 121.076C324.977 121.076 325.23 120.999 325.439 120.768H325.494ZM328.22 124.09H327.021L328.022 121.835L325.943 116.841H327.197L328.638 120.581H328.66L330.112 116.841H331.311L328.22 124.09ZM287.445 126.696H290.624C292.395 126.696 293.308 127.499 293.308 129.061C293.308 130.612 292.395 131.415 290.624 131.415H288.765V134H287.445V126.696ZM288.765 130.238H290.569C291.526 130.238 291.977 129.853 291.977 129.061C291.977 128.258 291.526 127.873 290.569 127.873H288.765V130.238ZM296.946 128.731C297.276 128.731 297.551 128.819 297.716 128.929V130.084H297.661C297.441 129.93 297.166 129.842 296.847 129.842C295.923 129.842 295.472 130.458 295.472 131.712V134H294.306V128.841H295.285L295.329 129.633H295.351C295.648 129.039 296.176 128.731 296.946 128.731ZM300.862 128.731C302.468 128.731 303.612 129.842 303.612 131.426C303.612 132.999 302.468 134.11 300.862 134.11C299.256 134.11 298.123 132.999 298.123 131.426C298.123 129.842 299.256 128.731 300.862 128.731ZM300.862 129.776C299.938 129.776 299.3 130.447 299.3 131.426C299.3 132.383 299.938 133.065 300.862 133.065C301.797 133.065 302.435 132.383 302.435 131.426C302.435 130.447 301.797 129.776 300.862 129.776ZM307.162 134H305.974L303.884 128.841H305.138L306.579 132.735H306.601L308.053 128.841H309.252L307.162 134ZM310.594 126.487C311.045 126.487 311.342 126.795 311.342 127.235C311.342 127.675 311.045 127.972 310.594 127.972C310.154 127.972 309.857 127.675 309.857 127.235C309.857 126.795 310.154 126.487 310.594 126.487ZM310.011 128.841H311.177V134H310.011V128.841ZM317.683 134H316.715L316.682 133.263H316.66C316.286 133.791 315.637 134.11 314.801 134.11C313.327 134.11 312.249 132.988 312.249 131.426C312.249 129.864 313.327 128.731 314.801 128.731C315.538 128.731 316.11 128.973 316.495 129.38H316.517V126.3H317.683V134ZM314.988 133.065C315.912 133.065 316.55 132.383 316.55 131.426C316.55 130.447 315.912 129.776 314.988 129.776C314.064 129.776 313.426 130.447 313.426 131.426C313.426 132.383 314.064 133.065 314.988 133.065ZM324.028 131.778H319.925C320.068 132.603 320.772 133.087 321.795 133.087C322.554 133.087 323.192 132.856 323.654 132.416H323.709V133.571C323.269 133.912 322.565 134.11 321.751 134.11C319.947 134.11 318.737 133.032 318.737 131.426C318.737 129.842 319.848 128.731 321.421 128.731C323.016 128.731 324.028 129.699 324.028 131.206V131.778ZM321.454 129.754C320.717 129.754 320.068 130.216 319.925 130.909H322.95C322.851 130.205 322.257 129.754 321.454 129.754ZM327.711 128.731C328.041 128.731 328.316 128.819 328.481 128.929V130.084H328.426C328.206 129.93 327.931 129.842 327.612 129.842C326.688 129.842 326.237 130.458 326.237 131.712V134H325.071V128.841H326.05L326.094 129.633H326.116C326.413 129.039 326.941 128.731 327.711 128.731ZM331.097 128.731C331.768 128.731 332.373 128.863 332.747 129.105V130.304H332.692C332.34 129.941 331.801 129.754 331.13 129.754C330.569 129.754 330.173 130.007 330.173 130.37C330.173 130.667 330.404 130.799 331.163 130.843C332.538 130.92 333.077 131.426 333.077 132.471C333.077 133.483 332.296 134.11 331.009 134.11C330.151 134.11 329.48 133.934 329.051 133.604V132.383H329.106C329.535 132.845 330.162 133.087 330.954 133.087C331.559 133.087 331.933 132.845 331.933 132.471C331.933 132.13 331.702 131.976 330.866 131.91C329.524 131.8 329.029 131.382 329.029 130.403C329.029 129.391 329.854 128.731 331.097 128.731Z" fill="#E0E0E0"/>
<circle cx="309.225" cy="81.0141" r="8.31409" stroke="#E0E0E0" stroke-width="1.4"/>
<line x1="322.094" y1="99.4929" x2="322.094" y2="104" stroke="#E0E0E0" stroke-width="1.4"/>
<line x1="326.151" y1="93.1831" x2="326.151" y2="104" stroke="#E0E0E0" stroke-width="1.4"/>
<line x1="330.207" y1="96.7888" x2="330.207" y2="104" stroke="#E0E0E0" stroke-width="1.4"/>
<path d="M293 104C293 99 300.439 94.0845 309.615 94.0845C313.159 94.0845 316.444 94.6891 319.141 95.7193" stroke="#E0E0E0" stroke-width="1.4"/>
<path d="M44.688 61.436C46.69 61.436 47.886 62.476 47.886 64.231C47.886 66.051 46.586 67.13 44.415 67.13C43.141 67.13 42.036 66.831 41.412 66.337V64.842H41.49C42.101 65.466 43.128 65.817 44.35 65.817C45.663 65.817 46.404 65.245 46.404 64.244C46.404 63.217 45.65 62.71 44.09 62.71C43.271 62.71 42.413 62.892 41.763 63.191H41.685V58.368H47.314V59.681H42.985V61.631C43.505 61.475 44.103 61.436 44.688 61.436ZM53.0131 58.238C55.2751 58.238 56.5751 59.863 56.5751 62.684C56.5751 65.505 55.2751 67.13 53.0131 67.13C50.7511 67.13 49.4511 65.505 49.4511 62.684C49.4511 59.863 50.7511 58.238 53.0131 58.238ZM53.0131 59.551C51.6741 59.551 50.9201 60.682 50.9201 62.684C50.9201 64.686 51.6741 65.817 53.0131 65.817C54.3521 65.817 55.1061 64.686 55.1061 62.684C55.1061 60.682 54.3521 59.551 53.0131 59.551ZM59.6482 58.238C60.8832 58.238 61.5982 59.096 61.5982 60.383C61.5982 61.657 60.8832 62.515 59.6482 62.515C58.4132 62.515 57.6982 61.657 57.6982 60.383C57.6982 59.096 58.4132 58.238 59.6482 58.238ZM58.8422 67L64.3672 58.368H65.5112L59.9862 67H58.8422ZM59.6482 59.135C59.0632 59.135 58.6992 59.59 58.6992 60.383C58.6992 61.163 59.0632 61.618 59.6482 61.618C60.2332 61.618 60.5972 61.163 60.5972 60.383C60.5972 59.59 60.2332 59.135 59.6482 59.135ZM64.7052 62.853C65.9402 62.853 66.6552 63.711 66.6552 64.998C66.6552 66.272 65.9402 67.13 64.7052 67.13C63.4702 67.13 62.7552 66.272 62.7552 64.998C62.7552 63.711 63.4702 62.853 64.7052 62.853ZM64.7052 63.75C64.1202 63.75 63.7562 64.205 63.7562 64.998C63.7562 65.778 64.1202 66.233 64.7052 66.233C65.2902 66.233 65.6542 65.778 65.6542 64.998C65.6542 64.205 65.2902 63.75 64.7052 63.75ZM73.6429 60.773C75.5409 60.773 76.8929 62.086 76.8929 63.958C76.8929 65.817 75.5409 67.13 73.6429 67.13C71.7449 67.13 70.4059 65.817 70.4059 63.958C70.4059 62.086 71.7449 60.773 73.6429 60.773ZM73.6429 62.008C72.5509 62.008 71.7969 62.801 71.7969 63.958C71.7969 65.089 72.5509 65.895 73.6429 65.895C74.7479 65.895 75.5019 65.089 75.5019 63.958C75.5019 62.801 74.7479 62.008 73.6429 62.008ZM80.6443 57.77C81.1773 57.77 81.5933 57.848 81.8793 57.991V59.278H81.8143C81.5543 59.096 81.1903 59.005 80.8523 59.005C80.2023 59.005 79.8513 59.395 79.8513 60.097V60.903H81.7103V62.099H79.8513V67H78.4733V62.099H77.3943V60.903H78.4733V60.032C78.4733 58.589 79.2403 57.77 80.6443 57.77ZM89.6942 58.238C92.3462 58.238 94.2052 60.084 94.2052 62.684C94.2052 65.284 92.3462 67.13 89.6942 67.13C87.0422 67.13 85.1832 65.284 85.1832 62.684C85.1832 60.084 87.0422 58.238 89.6942 58.238ZM89.6942 59.629C87.9522 59.629 86.7562 60.877 86.7562 62.684C86.7562 64.491 87.9522 65.739 89.6942 65.739C91.4362 65.739 92.6322 64.491 92.6322 62.684C92.6322 60.877 91.4362 59.629 89.6942 59.629ZM101.82 67H95.6186V58.368H97.1786V65.609H101.82V67ZM103.134 58.368H106.891C108.984 58.368 110.063 59.317 110.063 61.163C110.063 62.996 108.984 63.945 106.891 63.945H104.694V67H103.134V58.368ZM104.694 62.554H106.826C107.957 62.554 108.49 62.099 108.49 61.163C108.49 60.214 107.957 59.759 106.826 59.759H104.694V62.554ZM114.675 64.14H111.009V62.749H114.675V64.14ZM122.214 60.903V66.506C122.214 68.43 120.966 69.6 118.886 69.6C117.833 69.6 116.936 69.327 116.377 68.859V67.429H116.442C116.923 68.014 117.755 68.365 118.717 68.365C120.082 68.365 120.836 67.663 120.836 66.428V66.285H120.81C120.355 66.766 119.679 67.052 118.808 67.052C117.066 67.052 115.792 65.765 115.792 63.919C115.792 62.073 117.066 60.773 118.808 60.773C119.796 60.773 120.563 61.15 121.005 61.774H121.031L121.07 60.903H122.214ZM119.029 65.817C120.121 65.817 120.875 65.063 120.875 63.919C120.875 62.762 120.121 62.008 119.029 62.008C117.937 62.008 117.183 62.762 117.183 63.919C117.183 65.063 117.937 65.817 119.029 65.817ZM129.713 64.374H124.864C125.033 65.349 125.865 65.921 127.074 65.921C127.971 65.921 128.725 65.648 129.271 65.128H129.336V66.493C128.816 66.896 127.984 67.13 127.022 67.13C124.89 67.13 123.46 65.856 123.46 63.958C123.46 62.086 124.773 60.773 126.632 60.773C128.517 60.773 129.713 61.917 129.713 63.698V64.374ZM126.671 61.982C125.8 61.982 125.033 62.528 124.864 63.347H128.439C128.322 62.515 127.62 61.982 126.671 61.982ZM134.235 60.773C135.756 60.773 136.679 61.761 136.679 63.425V67H135.301V63.581C135.301 62.58 134.768 62.008 133.884 62.008C132.909 62.008 132.324 62.671 132.324 63.802V67H130.946V60.903H132.103L132.155 61.839H132.181C132.571 61.15 133.273 60.773 134.235 60.773ZM144.046 64.374H139.197C139.366 65.349 140.198 65.921 141.407 65.921C142.304 65.921 143.058 65.648 143.604 65.128H143.669V66.493C143.149 66.896 142.317 67.13 141.355 67.13C139.223 67.13 137.793 65.856 137.793 63.958C137.793 62.086 139.106 60.773 140.965 60.773C142.85 60.773 144.046 61.917 144.046 63.698V64.374ZM141.004 61.982C140.133 61.982 139.366 62.528 139.197 63.347H142.772C142.655 62.515 141.953 61.982 141.004 61.982ZM148.399 60.773C148.789 60.773 149.114 60.877 149.309 61.007V62.372H149.244C148.984 62.19 148.659 62.086 148.282 62.086C147.19 62.086 146.657 62.814 146.657 64.296V67H145.279V60.903H146.436L146.488 61.839H146.514C146.865 61.137 147.489 60.773 148.399 60.773ZM156.212 67H155.068L155.029 66.129H155.003C154.561 66.753 153.794 67.13 152.806 67.13C151.064 67.13 149.79 65.804 149.79 63.958C149.79 62.112 151.064 60.773 152.806 60.773C153.794 60.773 154.548 61.15 154.99 61.774H155.016L155.068 60.903H156.212V67ZM153.027 65.895C154.119 65.895 154.873 65.089 154.873 63.958C154.873 62.801 154.119 62.008 153.027 62.008C151.935 62.008 151.181 62.801 151.181 63.958C151.181 65.089 151.935 65.895 153.027 65.895ZM161.514 65.544V66.909C161.228 67.052 160.851 67.13 160.37 67.13C158.992 67.13 158.251 66.35 158.251 64.907V62.099H157.172V60.903H158.29L158.485 59.226H159.629V60.903H161.488V62.099H159.629V64.855C159.629 65.518 159.98 65.908 160.578 65.908C160.903 65.908 161.202 65.817 161.449 65.544H161.514ZM168.598 64.374H163.749C163.918 65.349 164.75 65.921 165.959 65.921C166.856 65.921 167.61 65.648 168.156 65.128H168.221V66.493C167.701 66.896 166.869 67.13 165.907 67.13C163.775 67.13 162.345 65.856 162.345 63.958C162.345 62.086 163.658 60.773 165.517 60.773C167.402 60.773 168.598 61.917 168.598 63.698V64.374ZM165.556 61.982C164.685 61.982 163.918 62.528 163.749 63.347H167.324C167.207 62.515 166.505 61.982 165.556 61.982ZM175.889 67H174.745L174.706 66.129H174.68C174.238 66.753 173.471 67.13 172.483 67.13C170.741 67.13 169.467 65.804 169.467 63.958C169.467 62.112 170.741 60.773 172.483 60.773C173.354 60.773 174.03 61.059 174.485 61.54H174.511V57.9H175.889V67ZM172.704 65.895C173.796 65.895 174.55 65.089 174.55 63.958C174.55 62.801 173.796 62.008 172.704 62.008C171.612 62.008 170.858 62.801 170.858 63.958C170.858 65.089 171.612 65.895 172.704 65.895ZM182.085 62.099H185.972V63.49H182.085V67H180.525V58.368H186.908V59.759H182.085V62.099ZM193.468 64.374H188.619C188.788 65.349 189.62 65.921 190.829 65.921C191.726 65.921 192.48 65.648 193.026 65.128H193.091V66.493C192.571 66.896 191.739 67.13 190.777 67.13C188.645 67.13 187.215 65.856 187.215 63.958C187.215 62.086 188.528 60.773 190.387 60.773C192.272 60.773 193.468 61.917 193.468 63.698V64.374ZM190.426 61.982C189.555 61.982 188.788 62.528 188.619 63.347H192.194C192.077 62.515 191.375 61.982 190.426 61.982ZM200.591 64.374H195.742C195.911 65.349 196.743 65.921 197.952 65.921C198.849 65.921 199.603 65.648 200.149 65.128H200.214V66.493C199.694 66.896 198.862 67.13 197.9 67.13C195.768 67.13 194.338 65.856 194.338 63.958C194.338 62.086 195.651 60.773 197.51 60.773C199.395 60.773 200.591 61.917 200.591 63.698V64.374ZM197.549 61.982C196.678 61.982 195.911 62.528 195.742 63.347H199.317C199.2 62.515 198.498 61.982 197.549 61.982ZM203.969 60.773C204.762 60.773 205.477 60.929 205.919 61.215V62.632H205.854C205.438 62.203 204.801 61.982 204.008 61.982C203.345 61.982 202.877 62.281 202.877 62.71C202.877 63.061 203.15 63.217 204.047 63.269C205.672 63.36 206.309 63.958 206.309 65.193C206.309 66.389 205.386 67.13 203.865 67.13C202.851 67.13 202.058 66.922 201.551 66.532V65.089H201.616C202.123 65.635 202.864 65.921 203.8 65.921C204.515 65.921 204.957 65.635 204.957 65.193C204.957 64.79 204.684 64.608 203.696 64.53C202.11 64.4 201.525 63.906 201.525 62.749C201.525 61.553 202.5 60.773 203.969 60.773Z" fill="#E6FC8D"/>
<path d="M63.6603 131H62.2043V124.032L59.3703 125.579V124.071L62.4773 122.368H63.6603V131ZM70.1264 122.238C72.3884 122.238 73.6884 123.863 73.6884 126.684C73.6884 129.505 72.3884 131.13 70.1264 131.13C67.8644 131.13 66.5644 129.505 66.5644 126.684C66.5644 123.863 67.8644 122.238 70.1264 122.238ZM70.1264 123.551C68.7874 123.551 68.0334 124.682 68.0334 126.684C68.0334 128.686 68.7874 129.817 70.1264 129.817C71.4654 129.817 72.2194 128.686 72.2194 126.684C72.2194 124.682 71.4654 123.551 70.1264 123.551ZM78.5814 122.238C80.8434 122.238 82.1434 123.863 82.1434 126.684C82.1434 129.505 80.8434 131.13 78.5814 131.13C76.3194 131.13 75.0194 129.505 75.0194 126.684C75.0194 123.863 76.3194 122.238 78.5814 122.238ZM78.5814 123.551C77.2424 123.551 76.4884 124.682 76.4884 126.684C76.4884 128.686 77.2424 129.817 78.5814 129.817C79.9204 129.817 80.6744 128.686 80.6744 126.684C80.6744 124.682 79.9204 123.551 78.5814 123.551ZM85.2165 122.238C86.4515 122.238 87.1665 123.096 87.1665 124.383C87.1665 125.657 86.4515 126.515 85.2165 126.515C83.9815 126.515 83.2665 125.657 83.2665 124.383C83.2665 123.096 83.9815 122.238 85.2165 122.238ZM84.4105 131L89.9355 122.368H91.0795L85.5545 131H84.4105ZM85.2165 123.135C84.6315 123.135 84.2675 123.59 84.2675 124.383C84.2675 125.163 84.6315 125.618 85.2165 125.618C85.8015 125.618 86.1655 125.163 86.1655 124.383C86.1655 123.59 85.8015 123.135 85.2165 123.135ZM90.2735 126.853C91.5085 126.853 92.2235 127.711 92.2235 128.998C92.2235 130.272 91.5085 131.13 90.2735 131.13C89.0385 131.13 88.3235 130.272 88.3235 128.998C88.3235 127.711 89.0385 126.853 90.2735 126.853ZM90.2735 127.75C89.6885 127.75 89.3245 128.205 89.3245 128.998C89.3245 129.778 89.6885 130.233 90.2735 130.233C90.8585 130.233 91.2225 129.778 91.2225 128.998C91.2225 128.205 90.8585 127.75 90.2735 127.75ZM99.2112 124.773C101.109 124.773 102.461 126.086 102.461 127.958C102.461 129.817 101.109 131.13 99.2112 131.13C97.3132 131.13 95.9742 129.817 95.9742 127.958C95.9742 126.086 97.3132 124.773 99.2112 124.773ZM99.2112 126.008C98.1192 126.008 97.3652 126.801 97.3652 127.958C97.3652 129.089 98.1192 129.895 99.2112 129.895C100.316 129.895 101.07 129.089 101.07 127.958C101.07 126.801 100.316 126.008 99.2112 126.008ZM106.213 121.77C106.746 121.77 107.162 121.848 107.448 121.991V123.278H107.383C107.123 123.096 106.759 123.005 106.421 123.005C105.771 123.005 105.42 123.395 105.42 124.097V124.903H107.279V126.099H105.42V131H104.042V126.099H102.963V124.903H104.042V124.032C104.042 122.589 104.809 121.77 106.213 121.77ZM112.845 131H111.285V122.368H115.107C117.2 122.368 118.279 123.304 118.279 125.111C118.279 126.502 117.629 127.373 116.368 127.698L118.539 131H116.693L114.769 127.841H112.845V131ZM112.845 126.45H115.055C116.173 126.45 116.706 126.008 116.706 125.111C116.706 124.201 116.173 123.759 115.055 123.759H112.845V126.45ZM120.437 122.121C120.97 122.121 121.321 122.485 121.321 123.005C121.321 123.525 120.97 123.876 120.437 123.876C119.917 123.876 119.566 123.525 119.566 123.005C119.566 122.485 119.917 122.121 120.437 122.121ZM119.748 124.903H121.126V131H119.748V124.903ZM124.902 124.773C125.695 124.773 126.41 124.929 126.852 125.215V126.632H126.787C126.371 126.203 125.734 125.982 124.941 125.982C124.278 125.982 123.81 126.281 123.81 126.71C123.81 127.061 124.083 127.217 124.98 127.269C126.605 127.36 127.242 127.958 127.242 129.193C127.242 130.389 126.319 131.13 124.798 131.13C123.784 131.13 122.991 130.922 122.484 130.532V129.089H122.549C123.056 129.635 123.797 129.921 124.733 129.921C125.448 129.921 125.89 129.635 125.89 129.193C125.89 128.79 125.617 128.608 124.629 128.53C123.043 128.4 122.458 127.906 122.458 126.749C122.458 125.553 123.433 124.773 124.902 124.773ZM129.785 128.335V131H128.407V121.9H129.785V127.516L132.255 124.903H133.984L131.085 127.88L134.114 131H132.294L129.785 128.335ZM138.097 122.368H141.854C143.947 122.368 145.026 123.317 145.026 125.163C145.026 126.996 143.947 127.945 141.854 127.945H139.657V131H138.097V122.368ZM139.657 126.554H141.789C142.92 126.554 143.453 126.099 143.453 125.163C143.453 124.214 142.92 123.759 141.789 123.759H139.657V126.554ZM149.325 124.773C149.715 124.773 150.04 124.877 150.235 125.007V126.372H150.17C149.91 126.19 149.585 126.086 149.208 126.086C148.116 126.086 147.583 126.814 147.583 128.296V131H146.205V124.903H147.362L147.414 125.839H147.44C147.791 125.137 148.415 124.773 149.325 124.773ZM156.969 128.374H152.12C152.289 129.349 153.121 129.921 154.33 129.921C155.227 129.921 155.981 129.648 156.527 129.128H156.592V130.493C156.072 130.896 155.24 131.13 154.278 131.13C152.146 131.13 150.716 129.856 150.716 127.958C150.716 126.086 152.029 124.773 153.888 124.773C155.773 124.773 156.969 125.917 156.969 127.698V128.374ZM153.927 125.982C153.056 125.982 152.289 126.528 152.12 127.347H155.695C155.578 126.515 154.876 125.982 153.927 125.982ZM165.404 124.773C166.873 124.773 167.692 125.722 167.692 127.399V131H166.314V127.542C166.314 126.541 165.872 126.008 165.053 126.008C164.13 126.008 163.649 126.619 163.649 127.854V131H162.271V127.542C162.271 126.541 161.829 126.008 160.997 126.008C160.087 126.008 159.606 126.619 159.606 127.75V131H158.228V124.903H159.372L159.411 125.787H159.437C159.801 125.124 160.438 124.773 161.348 124.773C162.206 124.773 162.882 125.15 163.246 125.865H163.272C163.649 125.137 164.325 124.773 165.404 124.773ZM169.86 122.121C170.393 122.121 170.744 122.485 170.744 123.005C170.744 123.525 170.393 123.876 169.86 123.876C169.34 123.876 168.989 123.525 168.989 123.005C168.989 122.485 169.34 122.121 169.86 122.121ZM169.171 124.903H170.549V131H169.171V124.903ZM177.77 131H176.613L176.561 130.077H176.535C176.145 130.753 175.456 131.13 174.494 131.13C172.96 131.13 172.05 130.142 172.05 128.478V124.903H173.428V128.322C173.428 129.31 173.948 129.895 174.845 129.895C175.82 129.895 176.392 129.219 176.392 128.101V124.903H177.77V131ZM186.593 124.773C188.062 124.773 188.881 125.722 188.881 127.399V131H187.503V127.542C187.503 126.541 187.061 126.008 186.242 126.008C185.319 126.008 184.838 126.619 184.838 127.854V131H183.46V127.542C183.46 126.541 183.018 126.008 182.186 126.008C181.276 126.008 180.795 126.619 180.795 127.75V131H179.417V124.903H180.561L180.6 125.787H180.626C180.99 125.124 181.627 124.773 182.537 124.773C183.395 124.773 184.071 125.15 184.435 125.865H184.461C184.838 125.137 185.514 124.773 186.593 124.773Z" fill="#E6FC8D"/>
<path d="M48.1087 146V138.696H49.4287V146H48.1087ZM53.7135 140.731C55.0005 140.731 55.7815 141.567 55.7815 142.975V146H54.6155V143.107C54.6155 142.26 54.1645 141.776 53.4165 141.776C52.5915 141.776 52.0965 142.337 52.0965 143.294V146H50.9305V140.841H51.9095L51.9535 141.633H51.9755C52.3055 141.05 52.8995 140.731 53.7135 140.731ZM59.5181 140.731C60.2331 140.731 60.7611 140.885 61.1681 141.182V142.447H61.1131C60.7501 141.985 60.2551 141.776 59.6281 141.776C58.5611 141.776 57.9011 142.436 57.9011 143.426C57.9011 144.394 58.5611 145.065 59.6281 145.065C60.2661 145.065 60.7611 144.834 61.1131 144.383H61.1681V145.67C60.7831 145.967 60.2331 146.11 59.5181 146.11C57.8351 146.11 56.7241 144.999 56.7241 143.426C56.7241 141.842 57.8351 140.731 59.5181 140.731ZM64.9787 140.731C65.3087 140.731 65.5837 140.819 65.7487 140.929V142.084H65.6937C65.4737 141.93 65.1987 141.842 64.8797 141.842C63.9557 141.842 63.5047 142.458 63.5047 143.712V146H62.3387V140.841H63.3177L63.3617 141.633H63.3837C63.6807 141.039 64.2087 140.731 64.9787 140.731ZM71.4467 143.778H67.3437C67.4867 144.603 68.1907 145.087 69.2137 145.087C69.9727 145.087 70.6107 144.856 71.0727 144.416H71.1277V145.571C70.6877 145.912 69.9837 146.11 69.1697 146.11C67.3657 146.11 66.1557 145.032 66.1557 143.426C66.1557 141.842 67.2667 140.731 68.8397 140.731C70.4347 140.731 71.4467 141.699 71.4467 143.206V143.778ZM68.8727 141.754C68.1357 141.754 67.4867 142.216 67.3437 142.909H70.3687C70.2697 142.205 69.6757 141.754 68.8727 141.754ZM77.6161 146H76.6481L76.6151 145.263H76.5931C76.2191 145.791 75.5701 146.11 74.7341 146.11C73.2601 146.11 72.1821 144.988 72.1821 143.426C72.1821 141.864 73.2601 140.731 74.7341 140.731C75.5701 140.731 76.2081 141.05 76.5821 141.578H76.6041L76.6481 140.841H77.6161V146ZM74.9211 145.065C75.8451 145.065 76.4831 144.383 76.4831 143.426C76.4831 142.447 75.8451 141.776 74.9211 141.776C73.9971 141.776 73.3591 142.447 73.3591 143.426C73.3591 144.383 73.9971 145.065 74.9211 145.065ZM80.7934 140.731C81.4644 140.731 82.0694 140.863 82.4434 141.105V142.304H82.3884C82.0364 141.941 81.4974 141.754 80.8264 141.754C80.2654 141.754 79.8694 142.007 79.8694 142.37C79.8694 142.667 80.1004 142.799 80.8594 142.843C82.2344 142.92 82.7734 143.426 82.7734 144.471C82.7734 145.483 81.9924 146.11 80.7054 146.11C79.8474 146.11 79.1764 145.934 78.7474 145.604V144.383H78.8024C79.2314 144.845 79.8584 145.087 80.6504 145.087C81.2554 145.087 81.6294 144.845 81.6294 144.471C81.6294 144.13 81.3984 143.976 80.5624 143.91C79.2204 143.8 78.7254 143.382 78.7254 142.403C78.7254 141.391 79.5504 140.731 80.7934 140.731ZM84.3417 138.487C84.7927 138.487 85.0897 138.795 85.0897 139.235C85.0897 139.675 84.7927 139.972 84.3417 139.972C83.9017 139.972 83.6047 139.675 83.6047 139.235C83.6047 138.795 83.9017 138.487 84.3417 138.487ZM83.7587 140.841H84.9247V146H83.7587V140.841ZM89.0876 140.731C90.3746 140.731 91.1556 141.567 91.1556 142.975V146H89.9896V143.107C89.9896 142.26 89.5386 141.776 88.7906 141.776C87.9656 141.776 87.4706 142.337 87.4706 143.294V146H86.3046V140.841H87.2836L87.3276 141.633H87.3496C87.6796 141.05 88.2736 140.731 89.0876 140.731ZM97.5321 140.841V145.582C97.5321 147.21 96.4761 148.2 94.7161 148.2C93.8251 148.2 93.0661 147.969 92.5931 147.573V146.363H92.6481C93.0551 146.858 93.7591 147.155 94.5731 147.155C95.7281 147.155 96.3661 146.561 96.3661 145.516V145.395H96.3441C95.9591 145.802 95.3871 146.044 94.6501 146.044C93.1761 146.044 92.0981 144.955 92.0981 143.393C92.0981 141.831 93.1761 140.731 94.6501 140.731C95.4861 140.731 96.1351 141.05 96.5091 141.578H96.5311L96.5641 140.841H97.5321ZM94.8371 144.999C95.7611 144.999 96.3991 144.361 96.3991 143.393C96.3991 142.414 95.7611 141.776 94.8371 141.776C93.9131 141.776 93.2751 142.414 93.2751 143.393C93.2751 144.361 93.9131 144.999 94.8371 144.999ZM103.984 146H102.796L100.706 140.841H101.96L103.401 144.735H103.423L104.875 140.841H106.074L103.984 146ZM111.776 146H110.808L110.775 145.263H110.753C110.379 145.791 109.73 146.11 108.894 146.11C107.42 146.11 106.342 144.988 106.342 143.426C106.342 141.864 107.42 140.731 108.894 140.731C109.73 140.731 110.368 141.05 110.742 141.578H110.764L110.808 140.841H111.776V146ZM109.081 145.065C110.005 145.065 110.643 144.383 110.643 143.426C110.643 142.447 110.005 141.776 109.081 141.776C108.157 141.776 107.519 142.447 107.519 143.426C107.519 144.383 108.157 145.065 109.081 145.065ZM113.139 146V138.3H114.305V146H113.139ZM120.404 146H119.425L119.381 145.219H119.359C119.029 145.791 118.446 146.11 117.632 146.11C116.334 146.11 115.564 145.274 115.564 143.866V140.841H116.73V143.734C116.73 144.57 117.17 145.065 117.929 145.065C118.754 145.065 119.238 144.493 119.238 143.547V140.841H120.404V146ZM126.758 143.778H122.655C122.798 144.603 123.502 145.087 124.525 145.087C125.284 145.087 125.922 144.856 126.384 144.416H126.439V145.571C125.999 145.912 125.295 146.11 124.481 146.11C122.677 146.11 121.467 145.032 121.467 143.426C121.467 141.842 122.578 140.731 124.151 140.731C125.746 140.731 126.758 141.699 126.758 143.206V143.778ZM124.184 141.754C123.447 141.754 122.798 142.216 122.655 142.909H125.68C125.581 142.205 124.987 141.754 124.184 141.754ZM132.65 140.731C134.256 140.731 135.4 141.842 135.4 143.426C135.4 144.999 134.256 146.11 132.65 146.11C131.044 146.11 129.911 144.999 129.911 143.426C129.911 141.842 131.044 140.731 132.65 140.731ZM132.65 141.776C131.726 141.776 131.088 142.447 131.088 143.426C131.088 144.383 131.726 145.065 132.65 145.065C133.585 145.065 134.223 144.383 134.223 143.426C134.223 142.447 133.585 141.776 132.65 141.776ZM138.574 138.19C139.025 138.19 139.377 138.256 139.619 138.377V139.466H139.564C139.344 139.312 139.036 139.235 138.75 139.235C138.2 139.235 137.903 139.565 137.903 140.159V140.841H139.476V141.853H137.903V146H136.737V141.853H135.824V140.841H136.737V140.104C136.737 138.883 137.386 138.19 138.574 138.19ZM146.232 138.586C148.476 138.586 150.049 140.148 150.049 142.348C150.049 144.548 148.476 146.11 146.232 146.11C143.988 146.11 142.415 144.548 142.415 142.348C142.415 140.148 143.988 138.586 146.232 138.586ZM146.232 139.763C144.758 139.763 143.746 140.819 143.746 142.348C143.746 143.877 144.758 144.933 146.232 144.933C147.706 144.933 148.718 143.877 148.718 142.348C148.718 140.819 147.706 139.763 146.232 139.763ZM156.491 146H151.244V138.696H152.564V144.823H156.491V146ZM157.604 138.696H160.783C162.554 138.696 163.467 139.499 163.467 141.061C163.467 142.612 162.554 143.415 160.783 143.415H158.924V146H157.604V138.696ZM158.924 142.238H160.728C161.685 142.238 162.136 141.853 162.136 141.061C162.136 140.258 161.685 139.873 160.728 139.873H158.924V142.238ZM170.006 144.768V145.923C169.764 146.044 169.445 146.11 169.038 146.11C167.872 146.11 167.245 145.45 167.245 144.229V141.853H166.332V140.841H167.278L167.443 139.422H168.411V140.841H169.984V141.853H168.411V144.185C168.411 144.746 168.708 145.076 169.214 145.076C169.489 145.076 169.742 144.999 169.951 144.768H170.006ZM173.448 140.731C175.054 140.731 176.198 141.842 176.198 143.426C176.198 144.999 175.054 146.11 173.448 146.11C171.842 146.11 170.709 144.999 170.709 143.426C170.709 141.842 171.842 140.731 173.448 140.731ZM173.448 141.776C172.524 141.776 171.886 142.447 171.886 143.426C171.886 144.383 172.524 145.065 173.448 145.065C174.383 145.065 175.021 144.383 175.021 143.426C175.021 142.447 174.383 141.776 173.448 141.776ZM178.425 143.745V146H177.259V138.3H178.425V143.052L180.515 140.841H181.978L179.525 143.36L182.088 146H180.548L178.425 143.745ZM187.473 143.778H183.37C183.513 144.603 184.217 145.087 185.24 145.087C185.999 145.087 186.637 144.856 187.099 144.416H187.154V145.571C186.714 145.912 186.01 146.11 185.196 146.11C183.392 146.11 182.182 145.032 182.182 143.426C182.182 141.842 183.293 140.731 184.866 140.731C186.461 140.731 187.473 141.699 187.473 143.206V143.778ZM184.899 141.754C184.162 141.754 183.513 142.216 183.37 142.909H186.395C186.296 142.205 185.702 141.754 184.899 141.754ZM191.299 140.731C192.586 140.731 193.367 141.567 193.367 142.975V146H192.201V143.107C192.201 142.26 191.75 141.776 191.002 141.776C190.177 141.776 189.682 142.337 189.682 143.294V146H188.516V140.841H189.495L189.539 141.633H189.561C189.891 141.05 190.485 140.731 191.299 140.731ZM196.433 140.731C197.104 140.731 197.709 140.863 198.083 141.105V142.304H198.028C197.676 141.941 197.137 141.754 196.466 141.754C195.905 141.754 195.509 142.007 195.509 142.37C195.509 142.667 195.74 142.799 196.499 142.843C197.874 142.92 198.413 143.426 198.413 144.471C198.413 145.483 197.632 146.11 196.345 146.11C195.487 146.11 194.816 145.934 194.387 145.604V144.383H194.442C194.871 144.845 195.498 145.087 196.29 145.087C196.895 145.087 197.269 144.845 197.269 144.471C197.269 144.13 197.038 143.976 196.202 143.91C194.86 143.8 194.365 143.382 194.365 142.403C194.365 141.391 195.19 140.731 196.433 140.731Z" fill="#B3B3B3"/>
<path d="M73.1917 74.696H76.0737C78.5377 74.696 79.9567 76.049 79.9567 78.348C79.9567 80.647 78.5377 82 76.0737 82H73.1917V74.696ZM74.5117 80.823H76.0077C77.6907 80.823 78.6257 79.932 78.6257 78.348C78.6257 76.764 77.6907 75.873 76.0077 75.873H74.5117V80.823ZM81.5917 74.487C82.0427 74.487 82.3397 74.795 82.3397 75.235C82.3397 75.675 82.0427 75.972 81.5917 75.972C81.1517 75.972 80.8547 75.675 80.8547 75.235C80.8547 74.795 81.1517 74.487 81.5917 74.487ZM81.0087 76.841H82.1747V82H81.0087V76.841ZM85.3696 76.731C86.0406 76.731 86.6456 76.863 87.0196 77.105V78.304H86.9646C86.6126 77.941 86.0736 77.754 85.4026 77.754C84.8416 77.754 84.4456 78.007 84.4456 78.37C84.4456 78.667 84.6766 78.799 85.4356 78.843C86.8106 78.92 87.3496 79.426 87.3496 80.471C87.3496 81.483 86.5686 82.11 85.2816 82.11C84.4236 82.11 83.7526 81.934 83.3236 81.604V80.383H83.3786C83.8076 80.845 84.4346 81.087 85.2266 81.087C85.8316 81.087 86.2056 80.845 86.2056 80.471C86.2056 80.13 85.9746 79.976 85.1386 79.91C83.7966 79.8 83.3016 79.382 83.3016 78.403C83.3016 77.391 84.1266 76.731 85.3696 76.731ZM91.3729 80.768V81.923C91.1309 82.044 90.8119 82.11 90.4049 82.11C89.2389 82.11 88.6119 81.45 88.6119 80.229V77.853H87.6989V76.841H88.6449L88.8099 75.422H89.7779V76.841H91.3509V77.853H89.7779V80.185C89.7779 80.746 90.0749 81.076 90.5809 81.076C90.8559 81.076 91.1089 80.999 91.3179 80.768H91.3729ZM95.0676 76.731C95.3976 76.731 95.6726 76.819 95.8376 76.929V78.084H95.7826C95.5626 77.93 95.2876 77.842 94.9686 77.842C94.0446 77.842 93.5936 78.458 93.5936 79.712V82H92.4276V76.841H93.4066L93.4506 77.633H93.4726C93.7696 77.039 94.2976 76.731 95.0676 76.731ZM97.2215 74.487C97.6725 74.487 97.9695 74.795 97.9695 75.235C97.9695 75.675 97.6725 75.972 97.2215 75.972C96.7815 75.972 96.4845 75.675 96.4845 75.235C96.4845 74.795 96.7815 74.487 97.2215 74.487ZM96.6385 76.841H97.8045V82H96.6385V76.841ZM102.077 76.731C103.551 76.731 104.629 77.864 104.629 79.426C104.629 80.988 103.551 82.11 102.077 82.11C101.23 82.11 100.592 81.791 100.218 81.263H100.196L100.163 82H99.1844V74.3H100.35V77.391H100.372C100.757 76.973 101.329 76.731 102.077 76.731ZM101.89 81.065C102.803 81.065 103.452 80.383 103.452 79.426C103.452 78.447 102.803 77.776 101.89 77.776C100.966 77.776 100.317 78.447 100.317 79.426C100.317 80.383 100.966 81.065 101.89 81.065ZM110.413 82H109.434L109.39 81.219H109.368C109.038 81.791 108.455 82.11 107.641 82.11C106.343 82.11 105.573 81.274 105.573 79.866V76.841H106.739V79.734C106.739 80.57 107.179 81.065 107.938 81.065C108.763 81.065 109.247 80.493 109.247 79.547V76.841H110.413V82ZM114.909 80.768V81.923C114.667 82.044 114.348 82.11 113.941 82.11C112.775 82.11 112.148 81.45 112.148 80.229V77.853H111.235V76.841H112.181L112.346 75.422H113.314V76.841H114.887V77.853H113.314V80.185C113.314 80.746 113.611 81.076 114.117 81.076C114.392 81.076 114.645 80.999 114.854 80.768H114.909ZM120.904 79.778H116.801C116.944 80.603 117.648 81.087 118.671 81.087C119.43 81.087 120.068 80.856 120.53 80.416H120.585V81.571C120.145 81.912 119.441 82.11 118.627 82.11C116.823 82.11 115.613 81.032 115.613 79.426C115.613 77.842 116.724 76.731 118.297 76.731C119.892 76.731 120.904 77.699 120.904 79.206V79.778ZM118.33 77.754C117.593 77.754 116.944 78.216 116.801 78.909H119.826C119.727 78.205 119.133 77.754 118.33 77.754ZM127.073 82H126.105L126.072 81.263H126.05C125.676 81.791 125.027 82.11 124.191 82.11C122.717 82.11 121.639 80.988 121.639 79.426C121.639 77.864 122.717 76.731 124.191 76.731C124.928 76.731 125.5 76.973 125.885 77.38H125.907V74.3H127.073V82ZM124.378 81.065C125.302 81.065 125.94 80.383 125.94 79.426C125.94 78.447 125.302 77.776 124.378 77.776C123.454 77.776 122.816 78.447 122.816 79.426C122.816 80.383 123.454 81.065 124.378 81.065ZM131.435 74.487C131.886 74.487 132.183 74.795 132.183 75.235C132.183 75.675 131.886 75.972 131.435 75.972C130.995 75.972 130.698 75.675 130.698 75.235C130.698 74.795 130.995 74.487 131.435 74.487ZM130.852 76.841H132.018V82H130.852V76.841ZM136.181 76.731C137.468 76.731 138.249 77.567 138.249 78.975V82H137.083V79.107C137.083 78.26 136.632 77.776 135.884 77.776C135.059 77.776 134.564 78.337 134.564 79.294V82H133.398V76.841H134.377L134.421 77.633H134.443C134.773 77.05 135.367 76.731 136.181 76.731ZM152.103 74.696L149.771 82H148.44L146.779 76.885H146.757L145.085 82H143.765L141.444 74.696H142.83L144.458 80.02H144.48L146.218 74.696H147.362L149.089 80.031H149.111L150.75 74.696H152.103ZM154.455 77.754H157.744V78.898H154.455V80.823H158.536V82H153.135V74.696H158.536V75.873H154.455V77.754ZM162.972 82H161.652V75.873H159.353V74.696H165.26V75.873H162.972V82ZM172.804 82H171.484V78.898H167.689V82H166.369V74.696H167.689V77.721H171.484V74.696H172.804V82Z" fill="#B3B3B3"/>
</svg>
