<svg width="16" height="16" viewBox="0 0 16 16" fill="none" xmlns="http://www.w3.org/2000/svg">
<path d="M14.8797 8C14.8797 4.20028 11.7997 1.12031 8 1.12031C4.20028 1.12031 1.12031 4.20028 1.12031 8C1.12031 11.7997 4.20028 14.8797 8 14.8797V16C3.58172 16 0 12.4183 0 8C0 3.58172 3.58172 0 8 0C12.4183 0 16 3.58172 16 8C16 12.4183 12.4183 16 8 16V14.8797C11.7997 14.8797 14.8797 11.7997 14.8797 8Z" fill="#8C8C8C"/>
<path d="M8.6001 12.16L7.4001 12.16L7.4001 7.04004L8.6001 7.04004L8.6001 12.16Z" fill="#8C8C8C"/>
<circle cx="8.0002" cy="4.63997" r="1.05" fill="#8C8C8C"/>
</svg>
