<svg width="45" height="24" viewBox="0 0 45 24" fill="none" xmlns="http://www.w3.org/2000/svg">
<path d="M34.6117 13.331H31.0682C31.1917 14.0435 31.7997 14.4615 32.6832 14.4615C33.3387 14.4615 33.8897 14.262 34.2887 13.882H34.3362V14.8795C33.9562 15.174 33.3482 15.345 32.6452 15.345C31.0872 15.345 30.0422 14.414 30.0422 13.027C30.0422 11.659 31.0017 10.6995 32.3602 10.6995C33.7377 10.6995 34.6117 11.5355 34.6117 12.837V13.331ZM32.3887 11.583C31.7522 11.583 31.1917 11.982 31.0682 12.5805H33.6807C33.5952 11.9725 33.0822 11.583 32.3887 11.583Z" fill="#C1D182"/>
<path d="M29.1317 15.25H28.2957L28.2672 14.6135H28.2482C27.9252 15.0695 27.3647 15.345 26.6427 15.345C25.3697 15.345 24.4387 14.376 24.4387 13.027C24.4387 11.678 25.3697 10.6995 26.6427 10.6995C27.2792 10.6995 27.7732 10.9085 28.1057 11.26H28.1247V8.59998H29.1317V15.25ZM26.8042 14.4425C27.6022 14.4425 28.1532 13.8535 28.1532 13.027C28.1532 12.1815 27.6022 11.602 26.8042 11.602C26.0062 11.602 25.4552 12.1815 25.4552 13.027C25.4552 13.8535 26.0062 14.4425 26.8042 14.4425Z" fill="#C1D182"/>
<path d="M23.0094 8.76147C23.3989 8.76147 23.6554 9.02747 23.6554 9.40747C23.6554 9.78747 23.3989 10.044 23.0094 10.044C22.6294 10.044 22.3729 9.78747 22.3729 9.40747C22.3729 9.02747 22.6294 8.76147 23.0094 8.76147ZM22.5059 10.7945H23.5129V15.25H22.5059V10.7945Z" fill="#C1D182"/>
<path d="M21.3214 15.2499H20.4759L20.4379 14.5754H20.4189C20.1339 15.0694 19.6304 15.3449 18.9274 15.3449C17.8064 15.3449 17.1414 14.6229 17.1414 13.4069V10.7944H18.1484V13.2929C18.1484 14.0149 18.5284 14.4424 19.1839 14.4424C19.8964 14.4424 20.3144 13.9484 20.3144 13.1314V10.7944H21.3214V15.2499Z" fill="#C1D182"/>
<path d="M13.8055 9.86342C12.3805 9.86342 11.4495 10.7374 11.4495 12.0959C11.4495 13.4544 12.3805 14.3284 13.8055 14.3284C14.2235 14.3284 14.594 14.2714 14.936 14.1669V12.8844H13.3115V11.8964H16.038V14.7844C15.4395 15.1739 14.727 15.3449 13.7675 15.3449C11.6585 15.3449 10.3 14.0719 10.3 12.0959C10.3 10.1199 11.6585 8.84692 13.7675 8.84692C14.727 8.84692 15.4395 9.01792 16.038 9.40742V10.6519H15.981C15.411 10.1104 14.708 9.86342 13.8055 9.86342Z" fill="#C1D182"/>
<rect x="4.5" y="4.5" width="36" height="15" rx="1.5" stroke="#525252"/>
</svg>
