<svg width="24" height="24" viewBox="0 0 24 24" fill="none" xmlns="http://www.w3.org/2000/svg">
<path fill-rule="evenodd" clip-rule="evenodd" d="M12 24C18.6274 24 24 18.6274 24 12C24 5.37258 18.6274 0 12 0C5.37258 0 0 5.37258 0 12C0 18.6274 5.37258 24 12 24ZM14.3855 7.90775C15.8733 8.42023 16.9614 9.18844 16.7476 10.6175C16.5929 11.6636 16.0129 12.17 15.243 12.3476C16.3002 12.898 16.8382 13.742 16.3257 15.2053C15.6897 17.0226 14.1788 17.176 12.1695 16.7958L11.6818 18.75L10.5035 18.4564L10.9848 16.5283C10.6794 16.4524 10.3673 16.3719 10.0457 16.2846L9.56279 18.2218L8.3858 17.9281L8.87345 15.9702C8.76345 15.942 8.65275 15.9131 8.54128 15.884C8.37385 15.8404 8.20466 15.7963 8.03341 15.7533L6.5 15.3711L7.08497 14.0223C7.08497 14.0223 7.9532 14.2532 7.94145 14.236C8.27505 14.3186 8.42306 14.1011 8.48145 13.9561C8.92273 12.187 9.36281 10.4221 9.80376 8.65314C9.81819 8.40277 9.73194 8.08696 9.2547 7.96782C9.27316 7.9554 8.39889 7.75504 8.39889 7.75504L8.71235 6.4965C8.94803 6.55535 9.18339 6.61525 9.41871 6.67514C9.97426 6.81653 10.5296 6.95788 11.0885 7.08516L11.5714 5.15002L12.7491 5.44369L12.2759 7.3409C12.592 7.41306 12.9102 7.48588 13.22 7.56307L13.6898 5.67828L14.8681 5.97194L14.3855 7.90775ZM10.6584 14.9263C11.6199 15.1802 13.7212 15.7353 14.0553 14.3928C14.3976 13.0201 12.3597 12.5628 11.3652 12.3397C11.2541 12.3148 11.156 12.2928 11.0757 12.2727L10.4287 14.8667C10.4946 14.883 10.5719 14.9034 10.6584 14.9263ZM11.565 11.1359C12.3667 11.3499 14.1152 11.8165 14.4198 10.5963C14.7308 9.3483 13.0313 8.97208 12.2014 8.78835C12.108 8.76768 12.0257 8.74944 11.9584 8.73268L11.3717 11.0853C11.4272 11.0991 11.4922 11.1165 11.565 11.1359Z" fill="#F7931A"/>
</svg>
