<svg width="24" height="24" viewBox="0 0 24 24" fill="none" xmlns="http://www.w3.org/2000/svg">
<path fill-rule="evenodd" clip-rule="evenodd" d="M24 12C24 18.6274 18.6274 24 12 24C5.37258 24 0 18.6274 0 12C0 5.37258 5.37258 0 12 0C18.6274 0 24 5.37258 24 12ZM14.5597 13.3571C14.5597 11.9997 13.7452 11.5343 12.1163 11.3404C10.9528 11.1853 10.7201 10.875 10.7201 10.332C10.7201 9.78895 11.108 9.43999 11.8836 9.43999C12.5817 9.43999 12.9696 9.67269 13.1635 10.2544C13.2023 10.3708 13.3187 10.4483 13.435 10.4483H14.0555C14.2106 10.4483 14.327 10.332 14.327 10.1769V10.1381C14.1718 9.28483 13.4737 8.62553 12.5817 8.548V7.61719C12.5817 7.46202 12.4654 7.34567 12.2715 7.30686H11.6897C11.5346 7.30686 11.4182 7.42321 11.3794 7.61719V8.50918C10.2159 8.66435 9.47907 9.43999 9.47907 10.4096C9.47907 11.6895 10.2547 12.1936 11.8836 12.3876C12.9696 12.5815 13.3187 12.8142 13.3187 13.4347C13.3187 14.0553 12.7756 14.4819 12.0388 14.4819C11.0304 14.4819 10.6813 14.0552 10.5649 13.4735C10.5262 13.3184 10.4099 13.2408 10.2935 13.2408H9.63414C9.47907 13.2408 9.36271 13.3571 9.36271 13.5123V13.5511C9.51779 14.5206 10.1384 15.2187 11.4182 15.4127V16.3435C11.4182 16.4986 11.5346 16.6149 11.7285 16.6538H12.3102C12.4654 16.6538 12.5817 16.5374 12.6205 16.3435V15.4127C13.7841 15.2187 14.5597 14.4043 14.5597 13.3571ZM10.022 17.4293C6.9969 16.3434 5.44553 12.9692 6.57031 9.9828C7.15207 8.35389 8.43193 7.11284 10.022 6.53109C10.1772 6.45355 10.2547 6.3372 10.2547 6.14322V5.60028C10.2547 5.44511 10.1772 5.32876 10.022 5.29004C9.98322 5.29004 9.90568 5.29004 9.86687 5.32876C6.18245 6.49227 4.16566 10.4095 5.32917 14.0939C6.02728 16.2658 7.69501 17.9335 9.86687 18.6316C10.022 18.7091 10.1772 18.6316 10.2159 18.4764C10.2547 18.4377 10.2547 18.3989 10.2547 18.3214V17.7783C10.2547 17.662 10.1384 17.5069 10.022 17.4293ZM14.1331 5.32876C13.9779 5.25123 13.8227 5.32876 13.784 5.48393C13.7452 5.52274 13.7452 5.56146 13.7452 5.63909V6.18203C13.7452 6.3372 13.8616 6.49227 13.9779 6.5699C17.003 7.65578 18.5544 11.03 17.4296 14.0164C16.8479 15.6453 15.568 16.8863 13.9779 17.4681C13.8227 17.5456 13.7452 17.662 13.7452 17.856V18.3989C13.7452 18.5541 13.8227 18.6704 13.9779 18.7091C14.0167 18.7091 14.0943 18.7091 14.1331 18.6704C17.8175 17.5069 19.8343 13.5897 18.6708 9.90527C17.9727 7.6946 16.2661 6.02687 14.1331 5.32876Z" fill="#2775C9"/>
</svg>
