<svg width="16" height="16" viewBox="0 0 16 16" fill="none" xmlns="http://www.w3.org/2000/svg">
<path fill-rule="evenodd" clip-rule="evenodd" d="M14.6667 8.00004C14.6667 11.682 11.682 14.6667 8 14.6667C4.318 14.6667 1.33333 11.682 1.33333 8.00004C1.33333 4.31804 4.318 1.33337 8 1.33337C11.682 1.33337 14.6667 4.31804 14.6667 8.00004ZM8.66666 5.33337C8.66666 5.51018 8.59643 5.67975 8.4714 5.80478C8.34638 5.9298 8.17681 6.00004 8 6.00004C7.82319 6.00004 7.65362 5.9298 7.52859 5.80478C7.40357 5.67975 7.33333 5.51018 7.33333 5.33337C7.33333 5.15656 7.40357 4.98699 7.52859 4.86197C7.65362 4.73694 7.82319 4.66671 8 4.66671C8.17681 4.66671 8.34638 4.73694 8.4714 4.86197C8.59643 4.98699 8.66666 5.15656 8.66666 5.33337ZM8 6.66671C7.82319 6.66671 7.65362 6.73694 7.52859 6.86197C7.40357 6.98699 7.33333 7.15656 7.33333 7.33337V10.6667C7.33333 10.8435 7.40357 11.0131 7.52859 11.1381C7.65362 11.2631 7.82319 11.3334 8 11.3334C8.17681 11.3334 8.34638 11.2631 8.4714 11.1381C8.59643 11.0131 8.66666 10.8435 8.66666 10.6667V7.33337C8.66666 7.15656 8.59643 6.98699 8.4714 6.86197C8.34638 6.73694 8.17681 6.66671 8 6.66671Z" fill="url(#paint0_linear_841_8012)"/>
<defs>
<linearGradient id="paint0_linear_841_8012" x1="8" y1="1.33337" x2="8" y2="14.6667" gradientUnits="userSpaceOnUse">
<stop stop-color="#D8FEE5"/>
<stop offset="1" stop-color="#C0E4CD"/>
</linearGradient>
</defs>
</svg>
