<svg xmlns="http://www.w3.org/2000/svg" width="36" height="36" viewBox="0 0 36 36" fill="none">
<path d="M15.75 18C15.75 19.2426 16.7574 20.25 18 20.25C19.2426 20.25 20.25 19.2426 20.25 18C20.25 16.7574 19.2426 15.75 18 15.75C16.7574 15.75 15.75 16.7574 15.75 18Z" fill="#F0EBE5"/>
<path d="M15.75 25.875C15.75 27.1176 16.7574 28.125 18 28.125C19.2426 28.125 20.25 27.1176 20.25 25.875C20.25 24.6324 19.2426 23.625 18 23.625C16.7574 23.625 15.75 24.6324 15.75 25.875Z" fill="#F0EBE5"/>
<path d="M15.75 10.125C15.75 11.3676 16.7574 12.375 18 12.375C19.2426 12.375 20.25 11.3676 20.25 10.125C20.25 8.88236 19.2426 7.875 18 7.875C16.7574 7.875 15.75 8.88236 15.75 10.125Z" fill="#F0EBE5"/>
</svg>