<svg xmlns="http://www.w3.org/2000/svg" width="16" height="16" viewBox="0 0 16 16" fill="none">
<path fill-rule="evenodd" clip-rule="evenodd" d="M1.33282 4.66616C1.33282 2.82521 2.82521 1.33282 4.66616 1.33282H11.3328C13.1738 1.33282 14.6662 2.82521 14.6662 4.66616V11.3328C14.6662 13.1738 13.1738 14.6662 11.3328 14.6662H4.66616C2.82521 14.6662 1.33282 13.1738 1.33282 11.3328V4.66616ZM11.0762 6.99668L7.90949 10.1633C7.79616 10.2767 7.64949 10.33 7.49616 10.33C7.34949 10.33 7.20283 10.2767 7.08949 10.1633L5.50282 8.58335C5.27616 8.35001 5.27616 7.98335 5.50282 7.75668C5.72949 7.53001 6.10282 7.53001 6.32949 7.75668L7.49616 8.92335L10.2495 6.17001C10.4762 5.94335 10.8495 5.94335 11.0762 6.17001C11.3028 6.40335 11.3028 6.77001 11.0762 6.99668Z" fill="#F0EBE5"/>
</svg>