<svg width="64" height="64" viewBox="0 0 64 64" xmlns="http://www.w3.org/2000/svg">
    <g fill="none" fill-rule="evenodd">
        <path d="M0 0h64v64H0z"/>
        <path d="M40.33 24.507A20.003 20.003 0 0 0 35.38 23c-.234.414-.446.84-.634 1.276a18.631 18.631 0 0 0-5.495 0A13.46 13.46 0 0 0 28.615 23a20.143 20.143 0 0 0-4.955 1.511c-3.133 4.588-3.983 9.062-3.558 13.472A20.04 20.04 0 0 0 26.175 41a14.49 14.49 0 0 0 1.3-2.075 12.976 12.976 0 0 1-2.048-.968c.172-.123.34-.25.502-.374a14.401 14.401 0 0 0 12.142 0c.164.133.332.26.502.374-.654.382-1.34.706-2.052.97.373.726.808 1.42 1.3 2.073a19.95 19.95 0 0 0 6.077-3.015c.498-5.115-.851-9.547-3.568-13.478zM28.013 35.271c-1.183 0-2.161-1.063-2.161-2.37 0-1.308.944-2.38 2.157-2.38 1.214 0 2.184 1.072 2.164 2.38-.021 1.307-.954 2.37-2.16 2.37zm7.974 0c-1.186 0-2.16-1.063-2.16-2.37 0-1.308.944-2.38 2.16-2.38 1.215 0 2.178 1.072 2.157 2.38-.02 1.307-.951 2.37-2.157 2.37z" fill="#E0E0E0" fill-rule="nonzero"/>
    </g>
</svg>
