<svg width="21" height="20" viewBox="0 0 21 20" fill="none" xmlns="http://www.w3.org/2000/svg">
<path d="M14.0726 16.0463C16.123 16.0463 17.7852 14.2938 17.7852 12.132C17.7852 9.97016 16.123 8.21765 14.0726 8.21765C12.0223 8.21765 10.3601 9.97016 10.3601 12.132C10.3601 14.2938 12.0223 16.0463 14.0726 16.0463Z" stroke="#E6FC8D" stroke-width="1.5"/>
<path fill-rule="evenodd" clip-rule="evenodd" d="M15.9922 14.4135C16.3956 13.9882 17.0496 13.9882 17.453 14.4135L19.091 16.1406C19.4944 16.5659 19.4944 17.2555 19.091 17.6807C18.6876 18.106 18.0336 18.106 17.6302 17.6807L15.9922 15.9536C15.5889 15.5283 15.5889 14.8387 15.9922 14.4135Z" fill="#E6FC8D"/>
<path fill-rule="evenodd" clip-rule="evenodd" d="M11.526 6.13781L7.96987 3.97306L4.37159 6.16346V10.5443L7.94181 12.7176V14.7075C7.62811 14.7026 7.31532 14.6145 7.0342 14.4433L3.43591 12.2529C2.85692 11.9005 2.50024 11.2492 2.50024 10.5443V6.16346C2.50024 5.45855 2.85692 4.80719 3.43591 4.45474L7.0342 2.26434C7.6132 1.91189 8.32655 1.91189 8.90554 2.26434L12.5039 4.45474C12.7719 4.61796 12.9924 4.84529 13.1518 5.11236C13.0947 5.14149 13.0384 5.17365 12.9833 5.20881L11.526 6.13781Z" fill="#E6FC8D"/>
</svg>
