<svg width="18" height="18" viewBox="0 0 18 18" fill="none" xmlns="http://www.w3.org/2000/svg">
<g clip-path="url(#clip0_4214_2134)">
<path fill-rule="evenodd" clip-rule="evenodd" d="M12.8224 6.70699C13.0099 6.89452 13.1152 7.14883 13.1152 7.41399C13.1152 7.67915 13.0099 7.93346 12.8224 8.12099L9.69939 11.243C9.60648 11.3358 9.49619 11.4095 9.37482 11.4597C9.25346 11.5099 9.12338 11.5357 8.99204 11.5357C8.86069 11.5356 8.73064 11.5097 8.6093 11.4594C8.48797 11.4091 8.37773 11.3354 8.28489 11.2425C8.19205 11.1496 8.11841 11.0393 8.06819 10.9179C8.01797 10.7966 7.99214 10.6665 7.99219 10.5351C7.99223 10.4038 8.01815 10.2737 8.06846 10.1524C8.11877 10.0311 8.19248 9.92083 8.28539 9.82799L11.4064 6.70799C11.4993 6.61501 11.6096 6.54125 11.7309 6.49093C11.8523 6.44061 11.9825 6.4147 12.1139 6.4147C12.2453 6.4147 12.3754 6.44061 12.4968 6.49093C12.6182 6.54125 12.7285 6.61501 12.8214 6.70799L12.8224 6.70699Z" fill="#F0EBE5"/>
<path fill-rule="evenodd" clip-rule="evenodd" d="M5.17658 6.70698C4.9891 6.89451 4.88379 7.14881 4.88379 7.41398C4.88379 7.67914 4.9891 7.93345 5.17658 8.12098L8.29758 11.243C8.39049 11.3359 8.50079 11.4096 8.62218 11.4599C8.74357 11.5102 8.87368 11.536 9.00508 11.536C9.13647 11.536 9.26658 11.5102 9.38797 11.4599C9.50937 11.4096 9.61967 11.3359 9.71258 11.243C9.80549 11.1501 9.87919 11.0398 9.92947 10.9184C9.97975 10.797 10.0056 10.6669 10.0056 10.5355C10.0056 10.4041 9.97975 10.274 9.92947 10.1526C9.87919 10.0312 9.80549 9.92089 9.71258 9.82798L6.58958 6.70798C6.40205 6.52051 6.14774 6.41519 5.88258 6.41519C5.61741 6.41519 5.3631 6.52051 5.17558 6.70798L5.17658 6.70698Z" fill="#F0EBE5"/>
</g>
<defs>
<clipPath id="clip0_4214_2134">
<rect width="18" height="18" fill="white"/>
</clipPath>
</defs>
</svg>
