<svg width="14" height="15" viewBox="0 0 14 15" fill="none" xmlns="http://www.w3.org/2000/svg">
<path d="M7 14.5C10.866 14.5 14 11.366 14 7.5C14 3.63401 10.866 0.5 7 0.5C3.13401 0.5 0 3.63401 0 7.5C0 11.366 3.13401 14.5 7 14.5Z" fill="white" fill-opacity="0.1"/>
<path fill-rule="evenodd" clip-rule="evenodd" d="M7 4.5C7.13261 4.5 7.25979 4.55268 7.35355 4.64645C7.44732 4.74021 7.5 4.86739 7.5 5V7H9.5C9.63261 7 9.75979 7.05268 9.85355 7.14645C9.94732 7.24021 10 7.36739 10 7.5C10 7.63261 9.94732 7.75979 9.85355 7.85355C9.75979 7.94732 9.63261 8 9.5 8H7.5V10C7.5 10.1326 7.44732 10.2598 7.35355 10.3536C7.25979 10.4473 7.13261 10.5 7 10.5C6.86739 10.5 6.74021 10.4473 6.64645 10.3536C6.55268 10.2598 6.5 10.1326 6.5 10V8H4.5C4.36739 8 4.24021 7.94732 4.14645 7.85355C4.05268 7.75979 4 7.63261 4 7.5C4 7.36739 4.05268 7.24021 4.14645 7.14645C4.24021 7.05268 4.36739 7 4.5 7H6.5V5C6.5 4.86739 6.55268 4.74021 6.64645 4.64645C6.74021 4.55268 6.86739 4.5 7 4.5Z" fill="#F0EBE5"/>
</svg>
