<svg xmlns="http://www.w3.org/2000/svg" width="18" height="16" viewBox="0 0 18 16" fill="none">
<g clip-path="url(#clip0_1042_8986)">
<path d="M16.0229 7.30818V8.00359C16.022 9.61619 15.4981 11.1853 14.5292 12.4769C13.5603 13.7685 12.1984 14.7133 10.6467 15.1706C9.09492 15.6278 7.43642 15.5729 5.91854 15.014C4.40065 14.4552 3.10471 13.4223 2.22398 12.0695C1.34325 10.7167 0.924929 9.11639 1.0314 7.50729C1.13788 5.89818 1.76345 4.36649 2.81481 3.14064C3.86617 1.91479 5.28699 1.06047 6.86537 0.705093C8.44375 0.349716 10.0951 0.512323 11.5732 1.16866" stroke="#E6FC8D" stroke-miterlimit="10" stroke-linecap="round" stroke-linejoin="round"/>
<path d="M16.7734 1.27319L8.51924 9.49894L6.26807 7.25568" stroke="#E6FC8D" stroke-miterlimit="10" stroke-linecap="round" stroke-linejoin="round"/>
</g>
<defs>
<clipPath id="clip0_1042_8986">
<rect width="17" height="16" fill="white" transform="translate(0.5)"/>
</clipPath>
</defs>
</svg>