<svg xmlns="http://www.w3.org/2000/svg" width="35" height="34" viewBox="0 0 35 34" fill="none">
<path fill-rule="evenodd" clip-rule="evenodd" d="M6.34375 8.26875C6.34375 8.10306 6.47806 7.96875 6.64375 7.96875H12.7188C13.846 7.96875 14.927 8.41146 15.724 9.19951C16.5211 9.98755 16.9688 11.0563 16.9688 12.1708C16.9688 12.1708 16.9688 21.2044 16.9688 25.7212C16.9688 26.1068 16.8956 26.136 16.7667 25.7903C16.6087 25.3666 16.3645 24.9751 16.0352 24.6496C15.4375 24.0585 14.6267 23.7265 13.7813 23.7265H6.64375C6.47806 23.7265 6.34375 23.5922 6.34375 23.4265V8.26875Z" fill="#F0EBE5"/>
<path fill-rule="evenodd" clip-rule="evenodd" d="M28.6562 8.26875C28.6562 8.10306 28.5219 7.96875 28.3563 7.96875H22.2812C21.154 7.96875 20.073 8.41146 19.276 9.19951C18.4789 9.98755 18.0312 11.0563 18.0312 12.1708C18.0312 12.1708 18.0312 21.2044 18.0312 25.7212C18.0312 26.1068 18.1044 26.136 18.2333 25.7903C18.3913 25.3666 18.6355 24.9751 18.9648 24.6496C19.5625 24.0585 20.3733 23.7265 21.2187 23.7265H28.3562C28.5219 23.7265 28.6562 23.5922 28.6562 23.4265V8.26875Z" fill="#F0EBE5"/>
</svg>