<svg xmlns="http://www.w3.org/2000/svg" width="35" height="34" viewBox="0 0 35 34" fill="none">
<path fill-rule="evenodd" clip-rule="evenodd" d="M25.2446 9.92372C23.7786 9.24903 22.231 8.77038 20.6413 8.5C20.4238 8.89093 20.227 9.29314 20.0517 9.70496C18.3583 9.44845 16.6363 9.44845 14.943 9.70496C14.7676 9.29319 14.5708 8.89098 14.3533 8.5C12.7626 8.77266 11.214 9.25245 9.74658 9.92725C6.83336 14.2602 6.04364 18.4855 6.4385 22.6508C8.14456 23.918 10.0541 24.8817 12.0842 25.5C12.5413 24.882 12.9458 24.2263 13.2933 23.54C12.6332 23.2921 11.996 22.9863 11.3892 22.6261C11.5489 22.5097 11.7051 22.3897 11.856 22.2732C15.4309 23.9633 19.5691 23.9633 23.1439 22.2732C23.2966 22.3985 23.4528 22.5185 23.6107 22.6261C23.0027 22.9869 22.3644 23.2933 21.7031 23.5417C22.0502 24.2277 22.4547 24.8829 22.9122 25.5C24.944 24.8841 26.8551 23.9209 28.5614 22.6526C29.0247 17.8221 27.7699 13.6356 25.2446 9.92372ZM13.7935 20.0891C12.6931 20.0891 11.7841 19.0853 11.7841 17.8504C11.7841 16.6154 12.6616 15.6027 13.79 15.6027C14.9184 15.6027 15.8205 16.6154 15.8012 17.8504C15.7819 19.0853 14.9149 20.0891 13.7935 20.0891ZM19.1988 17.8504C19.1988 19.0853 20.1043 20.0891 21.2064 20.0891C22.3278 20.0891 23.193 19.0853 23.2123 17.8504C23.2316 16.6154 22.3366 15.6027 21.2064 15.6027C20.0762 15.6027 19.1988 16.6154 19.1988 17.8504Z" fill="#F0EBE5"/>
</svg>