<svg xmlns="http://www.w3.org/2000/svg" width="18" height="19" viewBox="0 0 18 19" fill="none">
<g clip-path="url(#clip0_4130_11280)">
<path fill-rule="evenodd" clip-rule="evenodd" d="M12.8231 7.20701C13.0106 7.39453 13.1159 7.64884 13.1159 7.91401C13.1159 8.17917 13.0106 8.43348 12.8231 8.62101L9.70012 11.743C9.60721 11.8358 9.49692 11.9095 9.37556 11.9597C9.25419 12.0099 9.12412 12.0358 8.99277 12.0357C8.86142 12.0357 8.73137 12.0097 8.61004 11.9594C8.4887 11.9091 8.37847 11.8354 8.28562 11.7425C8.19278 11.6496 8.11914 11.5393 8.06892 11.4179C8.0187 11.2966 7.99287 11.1665 7.99292 11.0352C7.99297 10.9038 8.01888 10.7738 8.06919 10.6524C8.1195 10.5311 8.19321 10.4208 8.28612 10.328L11.4071 7.20801C11.5 7.11503 11.6103 7.04127 11.7317 6.99095C11.8531 6.94062 11.9832 6.91472 12.1146 6.91472C12.246 6.91472 12.3762 6.94062 12.4976 6.99095C12.619 7.04127 12.7292 7.11503 12.8221 7.20801L12.8231 7.20701Z" fill="#9D9B98"/>
<path fill-rule="evenodd" clip-rule="evenodd" d="M5.17706 7.20701C4.98959 7.39454 4.88428 7.64884 4.88428 7.91401C4.88428 8.17917 4.98959 8.43348 5.17706 8.62101L8.29806 11.743C8.39097 11.8359 8.50127 11.9096 8.62267 11.9599C8.74406 12.0102 8.87417 12.0361 9.00556 12.0361C9.13696 12.0361 9.26707 12.0102 9.38846 11.9599C9.50985 11.9096 9.62015 11.8359 9.71306 11.743C9.80597 11.6501 9.87967 11.5398 9.92996 11.4184C9.98024 11.297 10.0061 11.1669 10.0061 11.0355C10.0061 10.9041 9.98024 10.774 9.92996 10.6526C9.87967 10.5312 9.80597 10.4209 9.71306 10.328L6.59006 7.20801C6.40254 7.02054 6.14823 6.91522 5.88306 6.91522C5.6179 6.91522 5.36359 7.02054 5.17606 7.20801L5.17706 7.20701Z" fill="#9D9B98"/>
</g>
<defs>
<clipPath id="clip0_4130_11280">
<rect width="18" height="18" fill="white" transform="translate(0 0.5)"/>
</clipPath>
</defs>
</svg>