<svg width="21" height="20" viewBox="0 0 21 20" fill="none" xmlns="http://www.w3.org/2000/svg">
<path d="M9.89413 17.6496H5.36474C4.36413 17.6496 3.55298 16.7934 3.55298 15.7372V9.99999V4.26275C3.55298 3.20656 4.36413 2.35034 5.36474 2.35034H9.89413" stroke="url(#paint0_linear_706_7752)" stroke-width="1.5" stroke-linecap="round"/>
<path fill-rule="evenodd" clip-rule="evenodd" d="M9.515 11.0388C8.97398 11.0388 8.5354 10.5758 8.5354 10.0047C8.5354 9.43366 8.97398 8.97071 9.515 8.97071H15.1079L13.1835 6.93937C12.8009 6.53557 12.8009 5.88086 13.1835 5.47705C13.566 5.07324 14.1863 5.07324 14.5688 5.47705L17.9492 9.04523C18.0374 9.09309 18.1201 9.15601 18.1941 9.234C18.2744 9.31885 18.3379 9.41477 18.3845 9.51711C18.4582 9.66238 18.5001 9.82841 18.5001 10.0047C18.5001 10.2232 18.4358 10.4258 18.3263 10.5928C18.289 10.6542 18.2449 10.7123 18.1941 10.766C18.1201 10.8439 18.0374 10.9069 17.9492 10.9547L14.5688 14.5229C14.1863 14.9267 13.566 14.9267 13.1835 14.5229C12.8009 14.1191 12.8009 13.4644 13.1835 13.0606L15.0989 11.0388H9.515Z" fill="url(#paint1_linear_706_7752)"/>
<defs>
<linearGradient id="paint0_linear_706_7752" x1="3.55298" y1="9.99999" x2="9.89413" y2="9.99999" gradientUnits="userSpaceOnUse">
<stop offset="0.52" stop-color="#FD604B"/>
<stop offset="1" stop-color="#FF8E80"/>
</linearGradient>
<linearGradient id="paint1_linear_706_7752" x1="8.5354" y1="9.99999" x2="18.5001" y2="9.99999" gradientUnits="userSpaceOnUse">
<stop offset="0.52" stop-color="#FD604B"/>
<stop offset="1" stop-color="#FF8E80"/>
</linearGradient>
</defs>
</svg>
