<svg width="72" height="72" viewBox="0 0 72 72" xmlns="http://www.w3.org/2000/svg">
    <g fill="none" fill-rule="evenodd">
        <path d="M0 0h72v72H0z"/>
        <path d="M45.2 27H26.8c-1.268 0-2.3 1.01-2.3 2.25v13.5c0 1.24 1.032 2.25 2.3 2.25h18.4c1.268 0 2.3-1.01 2.3-2.25v-13.5c0-1.24-1.032-2.25-2.3-2.25zm0 2.25v.575l-9.2 7-9.2-6.999v-.576h18.4zm-18.4 13.5V32.675l8.494 6.463c.207.158.456.237.706.237.25 0 .5-.079.706-.237l8.494-6.463.002 10.075H26.8z" fill="#E0E0E0" fill-rule="nonzero"/>
    </g>
</svg>
