<svg xmlns="http://www.w3.org/2000/svg" width="35" height="34" viewBox="0 0 35 34" fill="none">
<path fill-rule="evenodd" clip-rule="evenodd" d="M16 16.9998C18.206 16.9998 20 15.2058 20 12.9998C20 10.7938 18.206 8.99982 16 8.99982C13.794 8.99982 12 10.7938 12 12.9998C12 15.2058 13.794 16.9998 16 16.9998ZM27 11.9998H26V10.9998C26 10.4498 25.55 9.99982 25 9.99982C24.45 9.99982 24 10.4498 24 10.9998V11.9998H23C22.45 11.9998 22 12.4498 22 12.9998C22 13.5498 22.45 13.9998 23 13.9998H24V14.9998C24 15.5498 24.45 15.9998 25 15.9998C25.55 15.9998 26 15.5498 26 14.9998V13.9998H27C27.55 13.9998 28 13.5498 28 12.9998C28 12.4498 27.55 11.9998 27 11.9998ZM23 24.9998C23 25.5518 22.553 25.9998 22 25.9998H10C9.447 25.9998 9 25.5518 9 24.9998C9 21.1398 12.141 17.9998 16 17.9998C19.859 17.9998 23 21.1398 23 24.9998Z" fill="#F0EBE5"/>
</svg>