<svg xmlns="http://www.w3.org/2000/svg" width="9" height="7" viewBox="0 0 9 7" fill="none">
<path fill-rule="evenodd" clip-rule="evenodd" d="M6.89227 1.21309C7.28022 0.81927 7.90923 0.81927 8.29719 1.21309C8.68514 1.60691 8.68514 2.24542 8.29719 2.63924L5.19638 5.7869C4.80842 6.18072 4.17942 6.18072 3.79146 5.7869C3.4035 5.39308 3.4035 4.75457 3.79146 4.36075L6.89227 1.21309Z" fill="#E0E0E0"/>
<path fill-rule="evenodd" clip-rule="evenodd" d="M2.10725 1.21309C1.71929 0.81927 1.09028 0.81927 0.702325 1.21309C0.314367 1.60691 0.314367 2.24542 0.702325 2.63924L3.80313 5.7869C4.19109 6.18072 4.8201 6.18072 5.20805 5.7869C5.59601 5.39308 5.59601 4.75457 5.20805 4.36075L2.10725 1.21309Z" fill="#E0E0E0"/>
</svg>