<svg xmlns="http://www.w3.org/2000/svg" width="16" height="16" viewBox="0 0 16 16" fill="none">
<path d="M4.66616 0.832825C2.54907 0.832825 0.832825 2.54907 0.832825 4.66616H1.83282C1.83282 3.10135 3.10135 1.83282 4.66616 1.83282V0.832825ZM0.832825 4.66616V11.3328H1.83282V4.66616H0.832825ZM0.832825 11.3328C0.832825 13.4499 2.54907 15.1662 4.66616 15.1662V14.1662C3.10135 14.1662 1.83282 12.8976 1.83282 11.3328H0.832825ZM4.66616 15.1662H11.3328V14.1662H4.66616V15.1662ZM11.3328 15.1662C13.4499 15.1662 15.1662 13.4499 15.1662 11.3328H14.1662C14.1662 12.8976 12.8976 14.1662 11.3328 14.1662V15.1662ZM15.1662 11.3328V4.66616H14.1662V11.3328H15.1662ZM15.1662 4.66616C15.1662 2.54907 13.4499 0.832825 11.3328 0.832825V1.83282C12.8976 1.83282 14.1662 3.10135 14.1662 4.66616H15.1662ZM11.3328 0.832825H4.66616V1.83282H11.3328V0.832825Z" fill="#9D9B98"/>
</svg>