<svg width="25" height="24" viewBox="0 0 25 24" fill="none" xmlns="http://www.w3.org/2000/svg">
<g opacity="0.4">
<path d="M20.1229 16.63L20.0619 16.691C19.9332 16.8076 19.7656 16.8718 19.5919 16.871H14.5799C14.3942 16.871 14.2162 16.7973 14.0849 16.666C13.9537 16.5347 13.8799 16.3567 13.8799 16.171C13.8799 15.9853 13.9537 15.8073 14.0849 15.676C14.2162 15.5448 14.3942 15.471 14.5799 15.471H17.9279L12.8169 10.36L12.4629 10.713L9.7749 13.399C9.7099 13.464 9.63273 13.5156 9.5478 13.5508C9.46286 13.5859 9.37183 13.6041 9.2799 13.6041C9.18797 13.6041 9.09694 13.5859 9.01201 13.5508C8.92707 13.5156 8.8499 13.464 8.7849 13.399L4.1169 8.733C3.98562 8.60172 3.91187 8.42366 3.91187 8.238C3.91187 8.05234 3.98562 7.87428 4.1169 7.743C4.24818 7.61172 4.42624 7.53796 4.6119 7.53796C4.79756 7.53796 4.97562 7.61172 5.1069 7.743L9.2799 11.915L9.6339 11.562L12.3199 8.874C12.386 8.80786 12.4647 8.75563 12.5513 8.72039C12.6379 8.68515 12.7307 8.66762 12.8241 8.66884C12.9176 8.67005 13.0099 8.68998 13.0956 8.72745C13.1813 8.76492 13.2585 8.81917 13.3229 8.887L13.3309 8.895L18.9029 14.467V11.147C18.9029 10.9613 18.9767 10.7833 19.1079 10.652C19.2392 10.5207 19.4172 10.447 19.6029 10.447C19.7886 10.447 19.9666 10.5207 20.0979 10.652C20.2292 10.7833 20.3029 10.9613 20.3029 11.147V16.161C20.3029 16.337 20.2379 16.502 20.1229 16.631V16.63Z" fill="url(#paint0_linear_853_2632)"/>
</g>
<defs>
<linearGradient id="paint0_linear_853_2632" x1="12.1074" y1="7.53796" x2="12.1074" y2="16.871" gradientUnits="userSpaceOnUse">
<stop stop-color="#D8FEE5"/>
<stop offset="1" stop-color="#C0E4CD"/>
</linearGradient>
</defs>
</svg>
