<svg width="18" height="18" viewBox="0 0 18 18" fill="none" xmlns="http://www.w3.org/2000/svg">
<g clip-path="url(#clip0_4222_2231)">
<g clip-path="url(#clip1_4222_2231)">
<path fill-rule="evenodd" clip-rule="evenodd" d="M12.8229 6.70702C13.0103 6.89455 13.1157 7.14886 13.1157 7.41402C13.1157 7.67918 13.0103 7.93349 12.8229 8.12102L9.69988 11.243C9.60697 11.3359 9.49668 11.4095 9.37531 11.4597C9.25394 11.5099 9.12387 11.5358 8.99252 11.5357C8.86118 11.5357 8.73112 11.5098 8.60979 11.4595C8.48846 11.4091 8.37822 11.3354 8.28538 11.2425C8.19253 11.1496 8.1189 11.0393 8.06868 10.918C8.01845 10.7966 7.99263 10.6665 7.99268 10.5352C7.99272 10.4038 8.01864 10.2738 8.06895 10.1524C8.11926 10.0311 8.19297 9.92087 8.28588 9.82802L11.4069 6.70802C11.4998 6.61504 11.61 6.54128 11.7314 6.49096C11.8528 6.44064 11.983 6.41473 12.1144 6.41473C12.2458 6.41473 12.3759 6.44064 12.4973 6.49096C12.6187 6.54128 12.729 6.61504 12.8219 6.70802L12.8229 6.70702Z" fill="#9D9B98"/>
<path fill-rule="evenodd" clip-rule="evenodd" d="M5.17706 6.70701C4.98959 6.89454 4.88428 7.14884 4.88428 7.41401C4.88428 7.67917 4.98959 7.93348 5.17706 8.12101L8.29806 11.243C8.39097 11.3359 8.50127 11.4096 8.62267 11.4599C8.74406 11.5102 8.87417 11.5361 9.00556 11.5361C9.13696 11.5361 9.26707 11.5102 9.38846 11.4599C9.50985 11.4096 9.62015 11.3359 9.71306 11.243C9.80597 11.1501 9.87967 11.0398 9.92996 10.9184C9.98024 10.797 10.0061 10.6669 10.0061 10.5355C10.0061 10.4041 9.98024 10.274 9.92996 10.1526C9.87967 10.0312 9.80597 9.92092 9.71306 9.82801L6.59006 6.70801C6.40254 6.52054 6.14823 6.41522 5.88306 6.41522C5.6179 6.41522 5.36359 6.52054 5.17606 6.70801L5.17706 6.70701Z" fill="#9D9B98"/>
</g>
</g>
<defs>
<clipPath id="clip0_4222_2231">
<rect width="18" height="18" fill="white"/>
</clipPath>
<clipPath id="clip1_4222_2231">
<rect width="18" height="18" fill="white"/>
</clipPath>
</defs>
</svg>
