<svg width="25" height="24" viewBox="0 0 25 24" fill="none" xmlns="http://www.w3.org/2000/svg">
<path opacity="0.4" d="M19.623 7.262L19.562 7.201C19.4333 7.08439 19.2657 7.02018 19.092 7.021H14.08C13.8944 7.021 13.7163 7.09475 13.585 7.22603C13.4538 7.3573 13.38 7.53535 13.38 7.721C13.38 7.90666 13.4538 8.0847 13.585 8.21598C13.7163 8.34725 13.8944 8.421 14.08 8.421H17.428L12.317 13.532L11.963 13.179L9.27502 10.492C9.21002 10.427 9.13285 10.3754 9.04792 10.3402C8.96299 10.3051 8.87195 10.287 8.78002 10.287C8.68809 10.287 8.59706 10.3051 8.51213 10.3402C8.4272 10.3754 8.35002 10.427 8.28502 10.492L3.61702 15.16C3.48574 15.2913 3.41199 15.4693 3.41199 15.655C3.41199 15.8407 3.48574 16.0187 3.61702 16.15C3.74831 16.2813 3.92636 16.355 4.11202 16.355C4.29768 16.355 4.47574 16.2813 4.60702 16.15L8.78002 11.978L9.13402 12.331L11.82 15.019C11.885 15.084 11.9622 15.1356 12.0471 15.1708C12.1321 15.2059 12.2231 15.2241 12.315 15.2241C12.407 15.2241 12.498 15.2059 12.5829 15.1708C12.6679 15.1356 12.745 15.084 12.81 15.019L12.823 15.006L12.831 14.998L18.403 9.426V12.745C18.403 12.9307 18.4768 13.1087 18.608 13.24C18.7393 13.3713 18.9174 13.445 19.103 13.445C19.2887 13.445 19.4667 13.3713 19.598 13.24C19.7293 13.1087 19.803 12.9307 19.803 12.745V7.73C19.8038 7.55635 19.7396 7.38868 19.623 7.26V7.262Z" fill="url(#paint0_linear_841_10699)"/>
<defs>
<linearGradient id="paint0_linear_841_10699" x1="11.6075" y1="7.021" x2="11.6075" y2="16.355" gradientUnits="userSpaceOnUse">
<stop stop-color="#D8FEE5"/>
<stop offset="1" stop-color="#C0E4CD"/>
</linearGradient>
</defs>
</svg>
