<svg width="32" height="32" viewBox="0 0 32 32" fill="none" xmlns="http://www.w3.org/2000/svg">
<path fill-rule="evenodd" clip-rule="evenodd" d="M32.0001 21.8951C32.0001 27.4762 27.4758 32.0005 21.8947 32.0005C16.3136 32.0005 11.7893 27.4762 11.7893 21.8951C11.7893 16.314 16.3136 11.7897 21.8947 11.7897C27.4758 11.7897 32.0001 16.314 32.0001 21.8951ZM18.5265 21.6556L21.895 16.3623L25.2635 21.6556L21.895 23.5804L18.5265 21.6556ZM21.8949 24.543L18.5264 22.6182L21.8949 27.4303L25.2634 22.6182L21.8949 24.543Z" fill="#7B8DE8"/>
<g clip-path="url(#clip0_4202_5291)">
<path fill-rule="evenodd" clip-rule="evenodd" d="M10 20C15.5228 20 20 15.5228 20 10C20 4.47715 15.5228 0 10 0C4.47715 0 0 4.47715 0 10C0 15.5228 4.47715 20 10 20ZM11.9879 6.58979C13.2277 7.01686 14.1345 7.65703 13.9563 8.84792C13.8274 9.71967 13.3441 10.1417 12.7025 10.2897C13.5835 10.7483 14.0318 11.4517 13.6048 12.6711C13.0748 14.1855 11.8157 14.3133 10.1413 13.9965L9.73483 15.625L8.75292 15.3803L9.154 13.7736C8.8995 13.7103 8.63942 13.6432 8.37142 13.5705L7.96899 15.1848L6.98817 14.9401L7.39454 13.3085C7.30288 13.285 7.21062 13.2609 7.11773 13.2367C6.97821 13.2003 6.83722 13.1636 6.69451 13.1277L5.41667 12.8093L5.90414 11.6852C5.90414 11.6852 6.62767 11.8777 6.61787 11.8633C6.89587 11.9322 7.01922 11.7509 7.06787 11.6301C7.43561 10.1558 7.80234 8.68508 8.1698 7.21095C8.18182 7.00231 8.10995 6.73913 7.71225 6.63985C7.72763 6.6295 6.99907 6.46253 6.99907 6.46253L7.26029 5.41375C7.45669 5.46279 7.65282 5.51271 7.84892 5.56262C8.31188 5.68044 8.77467 5.79823 9.24042 5.9043L9.64283 4.29168L10.6242 4.53641L10.2299 6.11742C10.4933 6.17755 10.7585 6.23823 11.0167 6.30256L11.4082 4.7319L12.3901 4.97662L11.9879 6.58979ZM8.882 12.4386C9.68325 12.6502 11.4343 13.1127 11.7127 11.994C11.998 10.8501 10.2997 10.469 9.471 10.2831C9.37842 10.2623 9.29667 10.244 9.22975 10.2273L8.69058 12.3889C8.7455 12.4025 8.80992 12.4195 8.882 12.4386ZM9.6375 9.27992C10.3056 9.45825 11.7627 9.84708 12.0165 8.83025C12.2757 7.79025 10.8594 7.47673 10.1678 7.32362C10.09 7.3064 10.0214 7.2912 9.96533 7.27723L9.47642 9.23775C9.52267 9.24925 9.57683 9.26375 9.6375 9.27992Z" fill="#F7931A"/>
</g>
<defs>
<clipPath id="clip0_4202_5291">
<rect width="20" height="20" fill="white"/>
</clipPath>
</defs>
</svg>
