<svg xmlns="http://www.w3.org/2000/svg" width="20" height="20" viewBox="0 0 20 20" fill="none">
<g clip-path="url(#clip0_1175_19967)">
<rect width="20" height="20" rx="4" fill="#0284C7"/>
<path d="M16.2619 8.32775H15.6937V7.08182C15.6937 4.10911 13.2674 1.68285 10.2947 1.68285C7.32197 1.68285 4.89571 4.10911 4.89571 7.08182V20C3.72229 20 7.32197 20 7.32197 20V7.08182C7.32197 5.44246 8.65532 4.13096 10.2728 4.13096C11.8903 4.13096 13.2237 5.46432 13.2237 7.08182V8.32775H12.6336C12.2838 8.32775 11.9996 8.6119 11.9996 8.96163V10.142C11.9996 10.4917 12.2838 10.7759 12.6336 10.7759H16.2401C16.5898 10.7759 16.8741 10.4917 16.8741 10.142V8.96163C16.8958 8.6119 16.6117 8.32775 16.2619 8.32775Z" fill="#B9E2F8"/>
<path d="M14.8629 12.653C14.7972 12.5 14.6224 12.4126 14.4694 12.4126C14.2945 12.4126 14.1415 12.5 14.076 12.653C14.076 12.653 13.1579 14.4235 12.9612 14.8389C12.7207 15.3416 12.7207 15.8661 12.9612 16.3689C13.2454 16.9373 13.8355 17.3088 14.4694 17.3088C14.7317 17.3088 14.994 17.2433 15.2345 17.134C15.6279 16.9373 15.9339 16.5875 16.0869 16.1504C16.2181 15.7131 16.1962 15.2541 15.9995 14.8606L14.8629 12.653Z" fill="#B9E2F8"/>
</g>
<defs>
<clipPath id="clip0_1175_19967">
<rect width="20" height="20" fill="white"/>
</clipPath>
</defs>
</svg>