<svg width="25" height="24" viewBox="0 0 25 24" fill="none" xmlns="http://www.w3.org/2000/svg">
<g clip-path="url(#clip0_853_2626)">
<path d="M19.6229 7.262L19.5619 7.201C19.4332 7.08439 19.2656 7.02018 19.0919 7.021H14.0799C13.8942 7.021 13.7162 7.09475 13.5849 7.22603C13.4537 7.3573 13.3799 7.53535 13.3799 7.721C13.3799 7.90666 13.4537 8.0847 13.5849 8.21598C13.7162 8.34725 13.8942 8.421 14.0799 8.421H17.4279L12.3169 13.532L11.9629 13.179L9.2749 10.492C9.2099 10.427 9.13273 10.3754 9.0478 10.3402C8.96286 10.3051 8.87183 10.287 8.7799 10.287C8.68797 10.287 8.59694 10.3051 8.51201 10.3402C8.42707 10.3754 8.3499 10.427 8.2849 10.492L3.6169 15.16C3.48562 15.2913 3.41187 15.4693 3.41187 15.655C3.41187 15.8407 3.48562 16.0187 3.6169 16.15C3.74818 16.2813 3.92624 16.355 4.1119 16.355C4.29756 16.355 4.47562 16.2813 4.6069 16.15L8.7799 11.978L9.1339 12.331L11.8199 15.019C11.8849 15.084 11.9621 15.1356 12.047 15.1708C12.1319 15.2059 12.223 15.2241 12.3149 15.2241C12.4068 15.2241 12.4979 15.2059 12.5828 15.1708C12.6677 15.1356 12.7449 15.084 12.8099 15.019L12.8229 15.006L12.8309 14.998L18.4029 9.426V12.745C18.4029 12.9307 18.4767 13.1087 18.6079 13.24C18.7392 13.3713 18.9172 13.445 19.1029 13.445C19.2886 13.445 19.4666 13.3713 19.5979 13.24C19.7292 13.1087 19.8029 12.9307 19.8029 12.745V7.73C19.8037 7.55635 19.7395 7.38868 19.6229 7.26V7.262Z" fill="#E6FC8D"/>
</g>
<defs>
<clipPath id="clip0_853_2626">
<rect width="24" height="24" fill="white" transform="translate(0.389893)"/>
</clipPath>
</defs>
</svg>
