<svg width="18" height="18" viewBox="0 0 18 18" fill="none" xmlns="http://www.w3.org/2000/svg">
<path fill-rule="evenodd" clip-rule="evenodd" d="M12.823 6.70696C13.0105 6.89449 13.1158 7.1488 13.1158 7.41396C13.1158 7.67912 13.0105 7.93343 12.823 8.12096L9.7 11.243C9.60709 11.3358 9.4968 11.4094 9.37543 11.4597C9.25407 11.5099 9.124 11.5357 8.99265 11.5357C8.8613 11.5356 8.73125 11.5097 8.60991 11.4594C8.48858 11.4091 8.37834 11.3354 8.2855 11.2425C8.19266 11.1495 8.11902 11.0393 8.0688 10.9179C8.01858 10.7965 7.99275 10.6665 7.9928 10.5351C7.99284 10.4038 8.01876 10.2737 8.06907 10.1524C8.11938 10.031 8.19309 9.9208 8.286 9.82796L11.407 6.70796C11.4999 6.61498 11.6102 6.54122 11.7316 6.4909C11.853 6.44058 11.9831 6.41467 12.1145 6.41467C12.2459 6.41467 12.376 6.44058 12.4974 6.4909C12.6188 6.54122 12.7291 6.61498 12.822 6.70796L12.823 6.70696Z" fill="#F0EBE5"/>
<path fill-rule="evenodd" clip-rule="evenodd" d="M5.17694 6.70695C4.98947 6.89448 4.88416 7.14878 4.88416 7.41395C4.88416 7.67911 4.98947 7.93342 5.17694 8.12095L8.29794 11.2429C8.39085 11.3359 8.50115 11.4096 8.62255 11.4598C8.74394 11.5101 8.87405 11.536 9.00544 11.536C9.13684 11.536 9.26694 11.5101 9.38834 11.4598C9.50973 11.4096 9.62003 11.3359 9.71294 11.2429C9.80585 11.15 9.87955 11.0397 9.92984 10.9183C9.98012 10.797 10.006 10.6668 10.006 10.5354C10.006 10.4041 9.98012 10.2739 9.92984 10.1526C9.87955 10.0312 9.80585 9.92086 9.71294 9.82795L6.58994 6.70795C6.40241 6.52048 6.14811 6.41516 5.88294 6.41516C5.61778 6.41516 5.36347 6.52048 5.17594 6.70795L5.17694 6.70695Z" fill="#F0EBE5"/>
</svg>
