<svg width="14" height="14" viewBox="0 0 14 14" fill="none" xmlns="http://www.w3.org/2000/svg">
<path fill-rule="evenodd" clip-rule="evenodd" d="M1.9111 9.75594C1.6834 9.52809 1.55549 9.21909 1.55549 8.89691C1.55549 8.57472 1.6834 8.26573 1.9111 8.03787L5.7042 4.24451C5.81704 4.1317 5.95099 4.04223 6.0984 3.98121C6.24581 3.92018 6.40379 3.8888 6.56332 3.88886C6.72286 3.88892 6.88081 3.92041 7.02818 3.98153C7.17555 4.04266 7.30944 4.13223 7.4222 4.24511C7.53497 4.358 7.6244 4.49201 7.6854 4.63948C7.7464 4.78694 7.77777 4.94499 7.77771 5.10458C7.77765 5.26417 7.74618 5.42219 7.68507 5.56962C7.62397 5.71704 7.53444 5.85098 7.42159 5.96379L3.63093 9.75473C3.51813 9.8677 3.38417 9.95732 3.23673 10.0185C3.08928 10.0796 2.93123 10.1111 2.77162 10.1111C2.61201 10.1111 2.45396 10.0796 2.30651 10.0185C2.15907 9.95732 2.02511 9.8677 1.91231 9.75473L1.9111 9.75594Z" fill="#F0EBE5"/>
<path fill-rule="evenodd" clip-rule="evenodd" d="M11.3109 9.75654C11.5387 9.52868 11.6666 9.21968 11.6666 8.89748C11.6666 8.57529 11.5387 8.26628 11.3109 8.03842L7.51942 4.24495C7.40655 4.13205 7.27255 4.0425 7.12508 3.98141C6.9776 3.92031 6.81954 3.88886 6.65992 3.88886C6.5003 3.88886 6.34223 3.92031 6.19476 3.98141C6.04729 4.0425 5.91329 4.13205 5.80042 4.24495C5.68755 4.35784 5.59801 4.49187 5.53693 4.63937C5.47584 4.78687 5.4444 4.94496 5.4444 5.10462C5.4444 5.26427 5.47584 5.42236 5.53693 5.56986C5.59801 5.71737 5.68755 5.85139 5.80042 5.96428L9.59437 9.75533C9.82218 9.98312 10.1311 10.1111 10.4533 10.1111C10.7754 10.1111 11.0843 9.98312 11.3122 9.75533L11.3109 9.75654Z" fill="#F0EBE5"/>
</svg>
