<svg xmlns="http://www.w3.org/2000/svg" width="77" height="20" viewBox="0 0 77 20" fill="none">
<g clip-path="url(#clip0_4130_17034)">
<path fill-rule="evenodd" clip-rule="evenodd" d="M25.5434 15.2921V18.3507H19.61V18.3473L17.5907 15.2921H15.8203L18.852 19.88H27.0587V15.2921H25.5434Z" fill="#E6FC8D"/>
<path fill-rule="evenodd" clip-rule="evenodd" d="M0 15.2921V19.88H8.22895L11.2607 15.2921H0Z" fill="#E6FC8D"/>
<path fill-rule="evenodd" clip-rule="evenodd" d="M21.4505 3.05859L14.3765 13.7636H27.0588V3.05859H21.4505Z" fill="#E6FC8D"/>
<path fill-rule="evenodd" clip-rule="evenodd" d="M19.5979 0L13.5405 9.16471L7.48326 0L7.47107 0.0246384V0H0V10.7116H1.5153V1.53599L6.72532 1.52928L12.6556 10.5036L11.5096 12.2376H0V13.7669L12.2712 13.7635L20.3558 1.52928H27.0589V0H19.5979Z" fill="#E6FC8D"/>
<path d="M77 7.36426H74.7121L72.8648 12.6053H72.8313L70.9664 7.36426H68.5938L71.6613 15.0568C71.6613 15.0568 71.3533 15.7693 71.2483 16.006C71.1434 16.2426 71.0225 16.4481 70.8214 16.5897C70.6734 16.6962 70.4968 16.746 70.2916 16.7388C70.0896 16.7318 69.8626 16.6873 69.6102 16.6058L69.1257 18.2988C69.2805 18.3661 69.4757 18.4213 69.7111 18.4637C69.8526 18.491 70.0004 18.51 70.1538 18.5213L70.1531 18.5226L70.155 18.5215C70.26 18.5292 70.3677 18.5331 70.4781 18.5331C71.0098 18.5331 71.4639 18.4425 71.841 18.2615C72.2175 18.084 72.529 17.8303 72.775 17.5003C73.0652 17.0433 73.1472 16.787 73.3283 16.3514L77 7.36426Z" fill="#F5F5F5"/>
<path d="M64.4882 7.17102C66.7434 7.17102 68.3882 8.9208 68.3882 11.3332C68.3882 13.7454 66.7434 15.4953 64.4882 15.4953C63.3181 15.4953 62.4024 15.0366 61.8937 14.2721H61.8598L61.775 15.3254H59.9268V3.43359H62.1481V8.03744H62.182C62.7246 7.4768 63.5046 7.17102 64.4882 7.17102ZM64.1151 13.5247C65.336 13.5247 66.1499 12.6242 66.1499 11.3332C66.1499 10.042 65.336 9.14166 64.1151 9.14166C62.9111 9.14166 62.0972 10.042 62.0972 11.3332C62.0972 12.6242 62.9111 13.5247 64.1151 13.5247Z" fill="#F5F5F5"/>
<path d="M54.4802 7.17102C56.9728 7.17102 58.7363 8.88688 58.7363 11.3332C58.7363 13.7624 56.9728 15.4953 54.4802 15.4953C51.9705 15.4953 50.207 13.7624 50.207 11.3332C50.207 8.88688 51.9705 7.17102 54.4802 7.17102ZM54.4802 9.14166C53.2762 9.14166 52.4453 10.042 52.4453 11.3332C52.4453 12.6242 53.2762 13.5247 54.4802 13.5247C55.6671 13.5247 56.498 12.6242 56.498 11.3332C56.498 10.042 55.6671 9.14166 54.4802 9.14166Z" fill="#F5F5F5"/>
<path d="M48.8605 15.3254H46.3508V6.83124H46.3169L43.0612 15.3254H40.789L37.635 7.06907H37.6011V15.3254H35.1763V4.04517H38.9407L41.959 11.9108H41.9929L45.0112 4.04517H48.8605V15.3254Z" fill="#F5F5F5"/>
</g>
<defs>
<clipPath id="clip0_4130_17034">
<rect width="77" height="20" fill="white"/>
</clipPath>
</defs>
</svg>