<svg width="347" height="80" viewBox="0 0 347 80" xmlns="http://www.w3.org/2000/svg">
    <g fill="none" fill-rule="evenodd">
        <g fill="#FFF" fill-rule="nonzero">
            <path d="M218.139 63.071V13.333h-17.283l-13.552 34.682h-.153L173.6 13.333h-16.902v49.738h10.887V26.667h.153l14.161 36.404H192.1l14.618-37.453h.153V63.07zM244.496 27.116c-11.268 0-19.186 7.566-19.186 18.352 0 10.712 7.918 18.352 19.186 18.352 11.192 0 19.11-7.64 19.11-18.352 0-10.786-7.918-18.352-19.11-18.352zm0 8.69c5.33 0 9.06 3.97 9.06 9.662 0 5.693-3.73 9.663-9.06 9.663-5.405 0-9.136-3.97-9.136-9.663s3.73-9.663 9.136-9.663zM290.133 27.116c-4.416 0-7.919 1.348-10.355 3.82h-.152V13.333h-9.974v49.738h8.299l.38-4.644h.153c2.284 3.37 6.395 5.393 11.649 5.393 10.126 0 17.51-7.715 17.51-18.352s-7.384-18.352-17.51-18.352zm-1.675 28.015c-5.406 0-9.06-3.97-9.06-9.663s3.654-9.663 9.06-9.663c5.481 0 9.136 3.97 9.136 9.663s-3.655 9.663-9.136 9.663zM326.496 77.438 347 28h-10.66l-8.494 23.22h-.153L319.318 28H308.66l13.781 34.082-6.776 15.356z"/>
        </g>
        <g fill="#C1D182">
            <path d="M103.909 61.538v12.308h-24.4v-.014l-8.142-12.294h-7.139L76.453 80h33.568V61.538zM0 61.538V80h33.618l12.224-18.462zM86.93 12.308 58.406 55.385h51.615V12.308z"/>
            <path d="M79.46 0 55.035 36.879 30.611 0l-.05.1V0H0v43.104h6.112V6.18l21.443-.027 23.912 36.113-4.621 6.977H0v6.154l49.917-.013L82.516 6.154h27.505V0z"/>
        </g>
    </g>
</svg>
