<svg xmlns="http://www.w3.org/2000/svg" width="16" height="16" viewBox="0 0 16 16" fill="none">
<g opacity="0.5">
<g clip-path="url(#clip0_4170_1198)">
<g clip-path="url(#clip1_4170_1198)">
<g clip-path="url(#clip2_4170_1198)">
<path opacity="0.1" d="M1.85303 5.05919V10.9408C1.85303 11.3151 2.05245 11.6618 2.37768 11.8489L7.47073 14.7882C7.79598 14.9754 8.1948 14.9754 8.52005 14.7882L13.6131 11.8489C13.9383 11.6618 14.1377 11.3151 14.1377 10.9408V5.05919C14.1377 4.68488 13.9383 4.33818 13.6131 4.15103L8.52005 1.21178C8.1948 1.02462 7.79598 1.02462 7.47073 1.21178L2.37768 4.15103C2.05552 4.33818 1.85303 4.68488 1.85303 5.05919Z" fill="#E0E0E0"/>
<path d="M9.10946 9.13976L8.38234 11.1309C8.36084 11.1861 8.36084 11.2475 8.38234 11.3028L9.63102 14.7298L11.0761 13.8953L9.34265 9.13976C9.30277 9.02926 9.14934 9.02926 9.10946 9.13976Z" fill="#E0E0E0"/>
<path d="M10.5638 5.78939C10.5239 5.67893 10.3705 5.67893 10.3307 5.78939L9.60353 7.7806C9.58203 7.83579 9.58203 7.89716 9.60353 7.95241L11.6499 13.564L13.095 12.7295L10.5638 5.78939Z" fill="#E0E0E0"/>
<path d="M7.99566 1.42964C8.03247 1.42964 8.06622 1.43884 8.09997 1.45725L13.6103 4.63888C13.6747 4.6757 13.7146 4.7432 13.7146 4.81683V11.1801C13.7146 11.2537 13.6747 11.3212 13.6103 11.3581L8.09997 14.5427C8.06928 14.5612 8.03247 14.5704 7.99566 14.5704C7.95878 14.5704 7.92503 14.5612 7.89128 14.5427L2.38405 11.3611C2.31962 11.3243 2.27974 11.2568 2.27974 11.1832V4.81683C2.27974 4.7432 2.31962 4.6757 2.38405 4.63888L7.89441 1.45725C7.92503 1.43884 7.96191 1.42964 7.99566 1.42964ZM7.99566 0.5C7.79928 0.5 7.60291 0.552158 7.42803 0.653406L1.9177 3.83504C1.56794 4.03753 1.3501 4.41184 1.3501 4.81683V11.1801C1.3501 11.5851 1.56794 11.9624 1.9177 12.1649L7.42803 15.3466C7.60291 15.4478 7.79928 15.5 7.99566 15.5C8.19197 15.5 8.38835 15.4478 8.56322 15.3466L14.0735 12.1649C14.4264 11.9624 14.6412 11.5882 14.6412 11.1801V4.81683C14.6412 4.41184 14.4233 4.03446 14.0735 3.83197L8.56628 0.653406C8.38835 0.552158 8.19197 0.5 7.99566 0.5Z" fill="#E0E0E0"/>
<path d="M4.354 13.5701L4.86025 12.1833L5.87886 13.0302L4.92774 13.9015L4.354 13.5701Z" fill="#E0E0E0"/>
<path d="M7.53235 4.36279H6.13635C6.03203 4.36279 5.93692 4.42722 5.90317 4.52541L2.90869 12.7357L4.35377 13.5702L7.65197 4.52847C7.6796 4.44871 7.62128 4.36279 7.53235 4.36279Z" fill="#E0E0E0"/>
<path d="M9.97783 4.36279H8.58183C8.47752 4.36279 8.38245 4.42722 8.3487 4.52541L4.92773 13.9015L6.37282 14.736L10.0945 4.53154C10.1251 4.4487 10.0638 4.36279 9.97783 4.36279Z" fill="#E0E0E0"/>
</g>
</g>
</g>
</g>
<defs>
<clipPath id="clip0_4170_1198">
<rect width="15" height="15" fill="white" transform="translate(0.5 0.5)"/>
</clipPath>
<clipPath id="clip1_4170_1198">
<rect width="15" height="15" fill="white" transform="translate(0.5 0.5)"/>
</clipPath>
<clipPath id="clip2_4170_1198">
<rect width="15" height="15" fill="white" transform="translate(0.5 0.5)"/>
</clipPath>
</defs>
</svg>