<svg width="25" height="24" viewBox="0 0 25 24" fill="none" xmlns="http://www.w3.org/2000/svg">
<path d="M17.5 18.43H13.5L9.04999 21.39C8.38999 21.83 7.5 21.36 7.5 20.56V18.43C4.5 18.43 2.5 16.43 2.5 13.43V7.42993C2.5 4.42993 4.5 2.42993 7.5 2.42993H17.5C20.5 2.42993 22.5 4.42993 22.5 7.42993V13.43C22.5 16.43 20.5 18.43 17.5 18.43Z" fill="url(#paint0_linear_1013_7220)"/>
<path d="M12.5 11.3599V11.1499C12.5 10.4699 12.92 10.1099 13.34 9.81989C13.75 9.53989 14.16 9.1799 14.16 8.5199C14.16 7.5999 13.42 6.85986 12.5 6.85986C11.58 6.85986 10.84 7.5999 10.84 8.5199" stroke="#1C3023" stroke-width="1.5" stroke-linecap="round" stroke-linejoin="round"/>
<path d="M12.4955 13.75H12.5045" stroke="#1C3023" stroke-width="1.5" stroke-linecap="round" stroke-linejoin="round"/>
<defs>
<linearGradient id="paint0_linear_1013_7220" x1="12.5" y1="2.42993" x2="12.5" y2="21.5588" gradientUnits="userSpaceOnUse">
<stop stop-color="#D8FEE5"/>
<stop offset="1" stop-color="#C0E4CD"/>
</linearGradient>
</defs>
</svg>
