<svg width="28" height="28" viewBox="0 0 28 28" xmlns="http://www.w3.org/2000/svg">
    <g fill="none" fill-rule="evenodd">
        <path d="M0 0h28v28H0z"/>
        <g fill="#e0e0e0">
            <path d="M5.075 6.563h4.988a3.52 3.52 0 0 1 2.474 1.013 3.44 3.44 0 0 1 1.026 2.447v11.16c0 .317-.06.34-.167.056a2.587 2.587 0 0 0-.602-.94 2.64 2.64 0 0 0-1.856-.76H5.075a.262.262 0 0 1-.263-.262V6.825c0-.145.118-.263.263-.263zM22.925 6.563h-4.988a3.52 3.52 0 0 0-2.474 1.013 3.44 3.44 0 0 0-1.026 2.447v11.16c0 .317.06.34.167.056.13-.349.331-.671.602-.94a2.64 2.64 0 0 1 1.856-.76h5.863a.262.262 0 0 0 .262-.262V6.825a.263.263 0 0 0-.262-.263z"/>
        </g>
    </g>
</svg>
