<svg width="28" height="28" viewBox="0 0 28 28" xmlns="http://www.w3.org/2000/svg">
    <g fill="none" fill-rule="evenodd">
        <path d="M0 0h28v28H0z"/>
        <path d="M20.378 8.172A15.138 15.138 0 0 0 16.587 7c-.18.322-.341.653-.486.992a14.044 14.044 0 0 0-4.207 0c-.144-.339-.306-.67-.485-.992-1.31.225-2.586.62-3.794 1.175-2.4 3.569-3.05 7.048-2.724 10.479A15.25 15.25 0 0 0 9.54 21c.376-.509.71-1.049.996-1.614a9.866 9.866 0 0 1-1.568-.753c.131-.096.26-.194.384-.29a10.87 10.87 0 0 0 9.296 0c.126.103.254.202.384.29-.5.297-1.026.55-1.57.754.285.565.618 1.105.995 1.613a15.18 15.18 0 0 0 4.652-2.345c.382-3.978-.651-7.426-2.731-10.483zm-9.43 8.372c-.907 0-1.655-.827-1.655-1.844 0-1.017.722-1.85 1.652-1.85.929 0 1.672.833 1.656 1.85-.016 1.017-.73 1.844-1.653 1.844zm6.104 0c-.907 0-1.653-.827-1.653-1.844 0-1.017.723-1.85 1.653-1.85.931 0 1.668.833 1.652 1.85-.016 1.017-.728 1.844-1.652 1.844z" fill="#989995" fill-rule="nonzero"/>
    </g>
</svg>
