<svg width="18" height="19" viewBox="0 0 18 19" fill="none" xmlns="http://www.w3.org/2000/svg">
<g clip-path="url(#clip0_707_7816)">
<path opacity="0.2" d="M9 18.5C13.9706 18.5 18 14.4706 18 9.5C18 4.52944 13.9706 0.5 9 0.5C4.02944 0.5 0 4.52944 0 9.5C0 14.4706 4.02944 18.5 9 18.5Z" fill="white"/>
<path d="M9.28003 2.75V7.73938L13.4971 9.62375L9.28003 2.75Z" fill="white" fill-opacity="0.5"/>
<path d="M9.28012 2.75L5.0625 9.62375L9.28012 7.73938V2.75Z" fill="white"/>
<path d="M9.28003 12.8571V16.2472L13.4999 10.4091L9.28003 12.8571Z" fill="white" fill-opacity="0.5"/>
<path d="M9.28012 16.2472V12.8565L5.0625 10.4091L9.28012 16.2472Z" fill="white"/>
<path d="M9.28027 12.072L13.4973 9.62348L9.28027 7.74023V12.072Z" fill="white" fill-opacity="0.81"/>
<path d="M5.0625 9.62348L9.28012 12.072V7.74023L5.0625 9.62348Z" fill="white" fill-opacity="0.5"/>
</g>
<defs>
<clipPath id="clip0_707_7816">
<rect width="18" height="18" fill="white" transform="translate(0 0.5)"/>
</clipPath>
</defs>
</svg>
