<svg width="18" height="19" viewBox="0 0 18 19" fill="none" xmlns="http://www.w3.org/2000/svg">
<g clip-path="url(#clip0_707_7812)">
<path opacity="0.2" d="M17.7345 11.6775C16.5323 16.4995 11.6485 19.4341 6.82592 18.2316C2.00534 17.0295 -0.929251 12.1453 0.273502 7.32361C1.47513 2.50106 6.35899 -0.433815 11.1801 0.768376C16.0024 1.97057 18.9367 6.85527 17.7345 11.6775Z" fill="white"/>
<path d="M12.9724 8.21807C13.1516 7.02038 12.2397 6.37653 10.9927 5.94702L11.3972 4.3246L10.4097 4.07848L10.0159 5.65815C9.75624 5.59345 9.48958 5.53241 9.22462 5.47194L9.62122 3.88186L8.63421 3.63574L8.22945 5.2576C8.01455 5.20866 7.80359 5.16028 7.59882 5.10937L7.59994 5.10431L6.23799 4.76424L5.97527 5.81904C5.97527 5.81904 6.70801 5.98696 6.69254 5.99737C7.09252 6.09722 7.1648 6.36191 7.15271 6.57174L6.69197 8.42003C6.71954 8.42707 6.75526 8.43719 6.79464 8.45294C6.76173 8.44479 6.72657 8.43579 6.69028 8.42707L6.04447 11.0162C5.99552 11.1378 5.87148 11.32 5.59189 11.2508C5.60173 11.2652 4.87406 11.0717 4.87406 11.0717L4.38379 12.2021L5.66896 12.5225C5.90805 12.5824 6.14235 12.6451 6.373 12.7042L5.9643 14.3452L6.95075 14.5913L7.35551 12.9678C7.62498 13.0409 7.88657 13.1084 8.14253 13.172L7.73918 14.7879L8.72675 15.0341L9.13545 13.3962C10.8195 13.7148 12.0858 13.5863 12.6188 12.0632C13.0483 10.8368 12.5974 10.1294 11.7114 9.66807C12.3567 9.51928 12.8427 9.09482 12.9724 8.21807ZM10.716 11.3822C10.4108 12.6086 8.3459 11.9456 7.67645 11.7794L8.21876 9.60535C8.88821 9.77243 11.0349 10.1032 10.716 11.3822ZM11.0214 8.20035C10.743 9.31591 9.02435 8.74913 8.46685 8.61018L8.95853 6.63841C9.51602 6.77736 11.3114 7.0367 11.0214 8.20035Z" fill="white"/>
</g>
<defs>
<clipPath id="clip0_707_7812">
<rect width="18" height="18" fill="white" transform="translate(0 0.5)"/>
</clipPath>
</defs>
</svg>
