<svg width="16" height="16" viewBox="0 0 16 16" fill="none" xmlns="http://www.w3.org/2000/svg">
<path fill-rule="evenodd" clip-rule="evenodd" d="M13 8.00489C13 8.21073 12.9047 8.39405 12.7542 8.51369L12.7358 8.52834L8.95429 12.3098C8.7007 12.5634 8.28953 12.5634 8.03594 12.3098C7.78234 12.0562 7.78234 11.645 8.03593 11.3914L10.7731 8.65426H3.65C3.29136 8.65426 3 8.36353 3 8.00489C3 7.64624 3.29136 7.35551 3.65 7.35551L10.7829 7.35551L8.03593 4.60856C7.78234 4.35496 7.78234 3.9438 8.03594 3.6902C8.28953 3.4366 8.7007 3.4366 8.95429 3.6902L12.7947 7.5306L12.7993 7.5353L12.8051 7.54116C12.9258 7.6595 13 7.82313 13 8.00489Z" fill="#B3B3B3"/>
</svg>
