<svg width="16" height="16" viewBox="0 0 16 16" fill="none" xmlns="http://www.w3.org/2000/svg">
<path fill-rule="evenodd" clip-rule="evenodd" d="M3 8.00489C3 8.21073 3.0953 8.39405 3.24582 8.51369L3.26424 8.52834L7.04571 12.3098C7.2993 12.5634 7.71047 12.5634 7.96406 12.3098C8.21766 12.0562 8.21766 11.645 7.96407 11.3914L5.22688 8.65426H12.35C12.7086 8.65426 13 8.36353 13 8.00489C13 7.64624 12.7086 7.35551 12.35 7.35551L5.21711 7.35551L7.96407 4.60856C8.21766 4.35496 8.21766 3.9438 7.96406 3.6902C7.71047 3.4366 7.2993 3.4366 7.04571 3.6902L3.2053 7.5306L3.20065 7.5353L3.19491 7.54116C3.07418 7.6595 3 7.82313 3 8.00489Z" fill="#B3B3B3"/>
</svg>
