<svg width="87" height="23" viewBox="0 0 87 23" fill="none" xmlns="http://www.w3.org/2000/svg">
<rect width="87" height="23" rx="3" fill="#292929"/>
<path d="M74.7844 9.29401C76.6604 9.29401 78.0324 10.736 78.0324 12.724C78.0324 14.712 76.6604 16.14 74.7844 16.14C73.7064 16.14 72.8944 15.734 72.4184 15.062H72.3904L72.3484 16H71.1024V6.20001H72.5864V10.134H72.6144C73.1044 9.60201 73.8324 9.29401 74.7844 9.29401ZM74.5464 14.81C75.7084 14.81 76.5344 13.942 76.5344 12.724C76.5344 11.478 75.7084 10.624 74.5464 10.624C73.3704 10.624 72.5444 11.478 72.5444 12.724C72.5444 13.942 73.3704 14.81 74.5464 14.81Z" fill="#D1BE60"/>
<path d="M69.3567 16H68.1107L68.0547 15.006H68.0267C67.6067 15.734 66.8647 16.14 65.8287 16.14C64.1767 16.14 63.1967 15.076 63.1967 13.284V9.43402H64.6807V13.116C64.6807 14.18 65.2407 14.81 66.2067 14.81C67.2567 14.81 67.8727 14.082 67.8727 12.878V9.43402H69.3567V16Z" fill="#D1BE60"/>
<path d="M61.4138 16H59.7338V12.052H54.9038V16H53.2238V6.70401H54.9038V10.554H59.7338V6.70401H61.4138V16Z" fill="#D1BE60"/>
<path d="M51.308 16H50.076L50.034 15.062H50.006C49.53 15.734 48.704 16.14 47.64 16.14C45.764 16.14 44.392 14.712 44.392 12.724C44.392 10.736 45.764 9.29401 47.64 9.29401C48.704 9.29401 49.516 9.70001 49.992 10.372H50.02L50.076 9.43401H51.308V16ZM47.878 14.81C49.054 14.81 49.866 13.942 49.866 12.724C49.866 11.478 49.054 10.624 47.878 10.624C46.702 10.624 45.89 11.478 45.89 12.724C45.89 13.942 46.702 14.81 47.878 14.81Z" fill="#D1BE60"/>
<path d="M42.894 9.29401C43.314 9.29401 43.664 9.40601 43.874 9.54601V11.016H43.804C43.524 10.82 43.174 10.708 42.768 10.708C41.592 10.708 41.018 11.492 41.018 13.088V16H39.534V9.43401H40.78L40.836 10.442H40.864C41.242 9.68601 41.914 9.29401 42.894 9.29401Z" fill="#D1BE60"/>
<path d="M38.2061 13.172H32.9841C33.1661 14.222 34.0621 14.838 35.3641 14.838C36.3301 14.838 37.1421 14.544 37.7301 13.984H37.8001V15.454C37.2401 15.888 36.3441 16.14 35.3081 16.14C33.0121 16.14 31.4721 14.768 31.4721 12.724C31.4721 10.708 32.8861 9.29401 34.8881 9.29401C36.9181 9.29401 38.2061 10.526 38.2061 12.444V13.172ZM34.9301 10.596C33.9921 10.596 33.1661 11.184 32.9841 12.066H36.8341C36.7081 11.17 35.9521 10.596 34.9301 10.596Z" fill="#D1BE60"/>
<path d="M28.958 11.24V11.268C30.008 11.59 30.554 12.318 30.554 13.438C30.554 15.132 29.434 16 27.292 16H23.05V6.70401H26.942C29.098 6.70401 30.218 7.55801 30.218 9.22401C30.218 10.19 29.798 10.876 28.958 11.24ZM24.73 10.582H26.816C27.978 10.582 28.538 10.19 28.538 9.37801C28.538 8.58001 28.006 8.20201 26.928 8.20201H24.73V10.582ZM24.73 14.502H27.25C28.314 14.502 28.86 14.11 28.86 13.284C28.86 12.458 28.3 12.038 27.152 12.038H24.73V14.502Z" fill="#D1BE60"/>
<path d="M16.638 13.4274C17.1717 14.1405 17.2836 14.9156 16.9737 15.7527C16.6637 16.5898 16.0488 17.139 15.1287 17.4001C14.6887 17.5249 14.2398 17.5298 13.7822 17.4148C13.3244 17.2997 12.9493 17.082 12.6567 16.7616C11.5954 17.2357 10.5982 17.2125 9.66534 16.692C8.7324 16.1715 8.17177 15.3257 7.98351 14.1544C7.51917 14.0413 7.1245 13.8183 6.79954 13.4855C6.47457 13.1526 6.24019 12.7329 6.0964 12.2262C5.86559 11.4128 6.04925 10.6512 6.6474 9.94108C7.24554 9.23107 7.9396 8.92248 8.72953 9.01528L10.1172 9.18341C10.2665 8.69437 10.5243 8.2574 10.8906 7.87251C11.2568 7.48766 11.6895 7.20999 12.1887 7.0395L11.8935 5.99947C11.8443 5.82613 11.8603 5.66671 11.9415 5.5212C12.0226 5.3757 12.1499 5.27835 12.3233 5.22916C12.4966 5.17998 12.656 5.19597 12.8015 5.27714C12.947 5.35832 13.0444 5.48558 13.0936 5.65892L13.4341 6.85899C13.9691 6.86567 14.441 6.98024 14.85 7.2028C15.2589 7.42532 15.6562 7.78443 16.0418 8.28015L17.2019 7.95097C17.3752 7.90178 17.5346 7.91775 17.6801 7.99894C17.8256 8.08013 17.923 8.20738 17.9722 8.3807C18.0214 8.55407 18.0053 8.71347 17.9242 8.85901C17.843 9.0045 17.7158 9.10181 17.5424 9.15101L16.5024 9.44619C16.6195 9.96044 16.6171 10.4726 16.4953 10.9826C16.3735 11.4926 16.1438 11.9396 15.8061 12.3236L16.638 13.4274ZM11.814 15.3151C11.7118 14.9551 11.6425 14.5965 11.606 14.2395C11.5695 13.8824 11.5658 13.5269 11.5951 13.1728C11.33 13.4065 11.0293 13.6035 10.693 13.7637C10.3567 13.924 10.0114 14.04 9.65713 14.1118C9.80467 14.6318 10.071 14.9992 10.4562 15.2141C10.8413 15.429 11.2939 15.4626 11.814 15.3151ZM9.40303 12.4549C9.82973 12.3338 10.1913 12.1736 10.4877 11.9742C10.7841 11.7748 11.1469 11.4414 11.5762 10.9738L8.89221 10.6548C8.46012 10.6045 8.13105 10.7015 7.90499 10.9458C7.67898 11.19 7.617 11.4921 7.71919 11.8522C7.81759 12.1988 8.00282 12.42 8.27489 12.5157C8.54696 12.6114 8.92303 12.5911 9.40303 12.4549ZM14.6746 15.8C15.008 15.7054 15.2449 15.5121 15.3854 15.2201C15.5258 14.9281 15.5068 14.6706 15.3282 14.4475L13.4762 12.0338C13.344 12.5324 13.2684 13.0149 13.2495 13.4814C13.2305 13.9477 13.2703 14.3543 13.3686 14.701C13.4935 15.141 13.6657 15.456 13.8853 15.6458C14.1048 15.8356 14.368 15.887 14.6746 15.8ZM14.7347 10.9852C14.8302 10.8139 14.8867 10.607 14.9043 10.3643C14.9219 10.1216 14.8966 9.88023 14.8285 9.6402C14.7074 9.2135 14.4652 8.89326 14.1019 8.67938C13.7387 8.46549 13.3504 8.41716 12.937 8.53446C12.697 8.6026 12.4817 8.7069 12.2911 8.84746C12.1004 8.98801 11.9526 9.15239 11.8475 9.34071L13.6119 9.61802L14.7347 10.9852Z" fill="#D1BE60"/>
</svg>
