<svg width="76" height="23" viewBox="0 0 76 23" fill="none" xmlns="http://www.w3.org/2000/svg">
<rect width="76" height="23" rx="3" fill="#292929"/>
<path d="M64.0486 6.564C65.2666 6.564 66.4006 6.85799 67.0026 7.30599V9.084H66.9186C66.3166 8.44 65.2526 8.062 64.0206 8.062C62.8446 8.062 62.0886 8.566 62.0886 9.35C62.0886 10.008 62.5786 10.344 64.1466 10.498C66.6246 10.75 67.5346 11.604 67.5346 13.312C67.5346 15.09 66.1906 16.14 63.8946 16.14C62.3686 16.14 61.1646 15.832 60.4086 15.258V13.466H60.4926C61.3326 14.236 62.4946 14.642 63.8526 14.642C65.1406 14.642 65.8686 14.18 65.8686 13.354C65.8686 12.64 65.3646 12.304 63.7126 12.122C61.2906 11.856 60.4226 11.072 60.4226 9.448C60.4226 7.656 61.8086 6.564 64.0486 6.564Z" fill="#D1BE60"/>
<path d="M51.9426 6.70401H55.9886C58.2426 6.70401 59.4046 7.72601 59.4046 9.71401C59.4046 11.688 58.2426 12.71 55.9886 12.71H53.6226V16H51.9426V6.70401ZM53.6226 11.212H55.9186C57.1366 11.212 57.7106 10.722 57.7106 9.71401C57.7106 8.69201 57.1366 8.20201 55.9186 8.20201H53.6226V11.212Z" fill="#D1BE60"/>
<path d="M44.3257 16H42.6457V6.70401H46.7617C49.0157 6.70401 50.1777 7.71201 50.1777 9.65801C50.1777 11.156 49.4777 12.094 48.1197 12.444L50.4577 16H48.4697L46.3977 12.598H44.3257V16ZM44.3257 11.1H46.7057C47.9097 11.1 48.4837 10.624 48.4837 9.65801C48.4837 8.67801 47.9097 8.20201 46.7057 8.20201H44.3257V11.1Z" fill="#D1BE60"/>
<path d="M35.7261 10.596H39.9121V12.052H35.7261V14.502H40.9201V16H34.0461V6.70401H40.9201V8.20201H35.7261V10.596Z" fill="#D1BE60"/>
<path d="M30.958 11.24V11.268C32.008 11.59 32.554 12.318 32.554 13.438C32.554 15.132 31.434 16 29.292 16H25.05V6.70401H28.942C31.098 6.70401 32.218 7.55801 32.218 9.22401C32.218 10.19 31.798 10.876 30.958 11.24ZM26.73 10.582H28.816C29.978 10.582 30.538 10.19 30.538 9.37801C30.538 8.58001 30.006 8.20201 28.928 8.20201H26.73V10.582ZM26.73 14.502H29.25C30.314 14.502 30.86 14.11 30.86 13.284C30.86 12.458 30.3 12.038 29.152 12.038H26.73V14.502Z" fill="#D1BE60"/>
<path d="M17.9999 9.5L12.9254 14.5746L9.9403 11.5895L8 13.5298" stroke="#D1BE60" stroke-width="1.87" stroke-linecap="round" stroke-linejoin="round"/>
<path d="M14.4179 9.5H18V13.0821" stroke="#D1BE60" stroke-width="1.87" stroke-linecap="round" stroke-linejoin="round"/>
</svg>
