<svg width="86" height="23" viewBox="0 0 86 23" fill="none" xmlns="http://www.w3.org/2000/svg">
<rect width="86" height="23" rx="3" fill="#292929"/>
<path d="M76.3627 16H75.1307L75.0887 15.062H75.0607C74.5847 15.734 73.7587 16.14 72.6947 16.14C70.8187 16.14 69.4467 14.712 69.4467 12.724C69.4467 10.736 70.8187 9.29401 72.6947 9.29401C73.6327 9.29401 74.3607 9.60201 74.8507 10.12H74.8787V6.20001H76.3627V16ZM72.9327 14.81C74.1087 14.81 74.9207 13.942 74.9207 12.724C74.9207 11.478 74.1087 10.624 72.9327 10.624C71.7567 10.624 70.9447 11.478 70.9447 12.724C70.9447 13.942 71.7567 14.81 72.9327 14.81Z" fill="#D1BE60"/>
<path d="M68.5108 13.172H63.2888C63.4708 14.222 64.3668 14.838 65.6688 14.838C66.6348 14.838 67.4468 14.544 68.0348 13.984H68.1048V15.454C67.5448 15.888 66.6488 16.14 65.6128 16.14C63.3168 16.14 61.7768 14.768 61.7768 12.724C61.7768 10.708 63.1908 9.29401 65.1928 9.29401C67.2228 9.29401 68.5108 10.526 68.5108 12.444V13.172ZM65.2348 10.596C64.2968 10.596 63.4708 11.184 63.2888 12.066H67.1388C67.0128 11.17 66.2568 10.596 65.2348 10.596Z" fill="#D1BE60"/>
<path d="M60.2788 9.29401C60.6988 9.29401 61.0488 9.40601 61.2588 9.54601V11.016H61.1888C60.9088 10.82 60.5588 10.708 60.1528 10.708C58.9768 10.708 58.4028 11.492 58.4028 13.088V16H56.9188V9.43401H58.1648L58.2208 10.442H58.2488C58.6268 9.68601 59.2988 9.29401 60.2788 9.29401Z" fill="#D1BE60"/>
<path d="M55.185 16H53.953L53.911 15.062H53.883C53.407 15.734 52.581 16.14 51.517 16.14C49.641 16.14 48.269 14.712 48.269 12.724C48.269 10.736 49.641 9.29401 51.517 9.29401C52.581 9.29401 53.393 9.70001 53.869 10.372H53.897L53.953 9.43401H55.185V16ZM51.755 14.81C52.931 14.81 53.743 13.942 53.743 12.724C53.743 11.478 52.931 10.624 51.755 10.624C50.579 10.624 49.767 11.478 49.767 12.724C49.767 13.942 50.579 14.81 51.755 14.81Z" fill="#D1BE60"/>
<path d="M46.771 9.29401C47.191 9.29401 47.541 9.40601 47.751 9.54601V11.016H47.681C47.401 10.82 47.051 10.708 46.645 10.708C45.469 10.708 44.895 11.492 44.895 13.088V16H43.411V9.43401H44.657L44.713 10.442H44.741C45.119 9.68601 45.791 9.29401 46.771 9.29401Z" fill="#D1BE60"/>
<path d="M41.2071 6.06C41.7811 6.06 42.2291 6.144 42.5371 6.298V7.684H42.4671C42.1871 7.488 41.7951 7.39 41.4311 7.39C40.7311 7.39 40.3531 7.81 40.3531 8.566V9.434H42.3551V10.722H40.3531V16H38.8691V10.722H37.7071V9.434H38.8691V8.496C38.8691 6.942 39.6951 6.06 41.2071 6.06Z" fill="#D1BE60"/>
<path d="M34.1834 9.29401C35.8214 9.29401 36.8154 10.358 36.8154 12.15V16H35.3314V12.318C35.3314 11.24 34.7574 10.624 33.8054 10.624C32.7554 10.624 32.1254 11.338 32.1254 12.556V16H30.6414V9.43401H31.8874L31.9434 10.442H31.9714C32.3914 9.70001 33.1474 9.29401 34.1834 9.29401Z" fill="#D1BE60"/>
<path d="M27.05 16V6.70401H28.73V16H27.05Z" fill="#D1BE60"/>
<path d="M14 5.5C9.058 5.5 8 6.558 8 11.5C8 16.442 9.058 17.5 14 17.5C18.942 17.5 20 16.442 20 11.5C20 6.558 18.942 5.5 14 5.5ZM11.404 7.168C11.404 6.9292 11.5984 6.7348 11.8368 6.7348H12.706C12.9448 6.7348 13.1392 6.9292 13.1392 7.168V8.0312C13.1392 8.27 13.3336 8.4644 13.572 8.4644H14.4328C14.6716 8.4644 14.866 8.27 14.866 8.0312V7.168C14.866 6.9292 15.0604 6.7348 15.2988 6.7348H16.1684C16.4072 6.7348 16.602 6.9292 16.602 7.168V8.0372C16.602 8.276 16.4072 8.4704 16.1684 8.4704H15.3048C15.0664 8.4704 14.872 8.6652 14.872 8.9036V9.7672C14.872 10.006 14.6776 10.2004 14.4392 10.2004H13.5696C13.4548 10.2002 13.3448 10.1545 13.2637 10.0733C13.1825 9.99205 13.1369 9.88199 13.1368 9.7672V8.9036C13.1368 8.6652 12.942 8.4704 12.7028 8.4704H11.84C11.7252 8.47019 11.6152 8.42447 11.5341 8.34326C11.4529 8.26205 11.4073 8.15199 11.4072 8.0372V7.168H11.404ZM10.9704 12.8056V13.6688C10.9704 13.9076 10.7756 14.102 10.5372 14.102H9.668C9.55314 14.1019 9.44302 14.0562 9.3618 13.975C9.28058 13.8938 9.23491 13.7837 9.2348 13.6688V12.7992C9.2348 12.5608 9.4296 12.3664 9.668 12.3664H10.5312C10.7704 12.3664 10.964 12.1716 10.964 11.9328V11.0724C10.964 10.8336 10.7704 10.6392 10.5312 10.6392H9.668C9.55317 10.639 9.44311 10.5933 9.36191 10.5121C9.28072 10.4309 9.23501 10.3208 9.2348 10.206V9.336C9.2348 9.0976 9.4296 8.9028 9.668 8.9028H10.5372C10.776 8.9028 10.9704 9.0976 10.9704 9.336V10.1996C10.9704 10.438 11.1648 10.6328 11.404 10.6328H12.2672C12.506 10.6328 12.7004 10.8272 12.7004 11.066V11.9352C12.7004 12.174 12.5056 12.3684 12.2672 12.3684H11.404C11.1648 12.3684 10.9704 12.5632 10.9704 12.8016V12.8056ZM16.6048 15.8372C16.6048 16.076 16.41 16.2708 16.1716 16.2708H15.3024C15.1876 16.2705 15.0777 16.2247 14.9966 16.1435C14.9155 16.0624 14.8698 15.9524 14.8696 15.8376V14.974C14.8696 14.7356 14.6748 14.5408 14.4356 14.5408H13.5756C13.3368 14.5408 13.1428 14.7356 13.1428 14.974V15.8376C13.1428 16.076 12.948 16.2708 12.7092 16.2708H11.8396C11.7248 16.2705 11.6149 16.2247 11.5338 16.1435C11.4527 16.0624 11.407 15.9524 11.4068 15.8376V14.968C11.4068 14.7296 11.6012 14.5348 11.8396 14.5348H12.7028C12.942 14.5348 13.1368 14.3404 13.1368 14.1016V13.2384C13.1368 12.9996 13.3312 12.8052 13.5696 12.8052H14.4392C14.6776 12.8052 14.872 12.9996 14.872 13.2384V14.1016C14.872 14.3404 15.0664 14.5348 15.3048 14.5348H16.1684C16.4072 14.5348 16.602 14.7296 16.602 14.968V15.8376L16.6048 15.8372ZM18.7736 10.2028C18.7736 10.4416 18.5792 10.6364 18.3408 10.6364H17.4772C17.2384 10.6364 17.0436 10.8308 17.0436 11.0692V11.93C17.0436 12.1688 17.2384 12.3632 17.4772 12.3632H18.3408C18.5792 12.3632 18.7736 12.5576 18.7736 12.7964V13.666C18.7736 13.9044 18.5792 14.0992 18.3408 14.0992H17.4712C17.3563 14.0991 17.2461 14.0534 17.1649 13.9722C17.0836 13.891 17.0378 13.7809 17.0376 13.666V12.8024C17.0376 12.564 16.8432 12.3692 16.6048 12.3692H15.7412C15.6264 12.3689 15.5165 12.3231 15.4354 12.2419C15.3543 12.1608 15.3086 12.0508 15.3084 11.936V11.0668C15.3084 10.828 15.5028 10.6336 15.7412 10.6336H16.6048C16.8432 10.6336 17.0376 10.4388 17.0376 10.2V9.3376C17.0376 9.0988 17.2324 8.9044 17.4712 8.9044H18.3408C18.5792 8.9044 18.7736 9.0988 18.7736 9.3376V10.2072V10.2028Z" fill="#D1BE60"/>
</svg>
