<svg width="78" height="23" viewBox="0 0 78 23" fill="none" xmlns="http://www.w3.org/2000/svg">
<rect width="78" height="23" rx="3" fill="#292929"/>
<path d="M66.0752 9.29401C67.6572 9.29401 68.5392 10.316 68.5392 12.122V16H67.0552V12.276C67.0552 11.198 66.5792 10.624 65.6972 10.624C64.7032 10.624 64.1852 11.282 64.1852 12.612V16H62.7012V12.276C62.7012 11.198 62.2252 10.624 61.3292 10.624C60.3492 10.624 59.8312 11.282 59.8312 12.5V16H58.3472V9.43401H59.5792L59.6212 10.386H59.6492C60.0412 9.67201 60.7272 9.29401 61.7072 9.29401C62.6312 9.29401 63.3592 9.70001 63.7512 10.47H63.7792C64.1852 9.68601 64.9132 9.29401 66.0752 9.29401Z" fill="#D1BE60"/>
<path d="M56.3198 9.29401C56.7398 9.29401 57.0898 9.40601 57.2998 9.54601V11.016H57.2298C56.9498 10.82 56.5998 10.708 56.1938 10.708C55.0178 10.708 54.4438 11.492 54.4438 13.088V16H52.9598V9.43401H54.2058L54.2618 10.442H54.2898C54.6678 9.68601 55.3398 9.29401 56.3198 9.29401Z" fill="#D1BE60"/>
<path d="M51.226 16H49.994L49.952 15.062H49.924C49.448 15.734 48.622 16.14 47.558 16.14C45.682 16.14 44.31 14.712 44.31 12.724C44.31 10.736 45.682 9.29401 47.558 9.29401C48.622 9.29401 49.434 9.70001 49.91 10.372H49.938L49.994 9.43401H51.226V16ZM47.796 14.81C48.972 14.81 49.784 13.942 49.784 12.724C49.784 11.478 48.972 10.624 47.796 10.624C46.62 10.624 45.808 11.478 45.808 12.724C45.808 13.942 46.62 14.81 47.796 14.81Z" fill="#D1BE60"/>
<path d="M42.7715 6.06C43.3455 6.06 43.7935 6.144 44.1015 6.298V7.684H44.0315C43.7515 7.488 43.3595 7.39 42.9955 7.39C42.2955 7.39 41.9175 7.81 41.9175 8.566V9.434H43.9195V10.722H41.9175V16H40.4335V10.722H39.2715V9.434H40.4335V8.496C40.4335 6.942 41.2595 6.06 42.7715 6.06Z" fill="#D1BE60"/>
<path d="M35.2315 9.29401C37.2755 9.29401 38.7315 10.708 38.7315 12.724C38.7315 14.726 37.2755 16.14 35.2315 16.14C33.1875 16.14 31.7455 14.726 31.7455 12.724C31.7455 10.708 33.1875 9.29401 35.2315 9.29401ZM35.2315 10.624C34.0555 10.624 33.2435 11.478 33.2435 12.724C33.2435 13.942 34.0555 14.81 35.2315 14.81C36.4215 14.81 37.2335 13.942 37.2335 12.724C37.2335 11.478 36.4215 10.624 35.2315 10.624Z" fill="#D1BE60"/>
<path d="M30.8499 14.432V15.902C30.5419 16.056 30.1359 16.14 29.6179 16.14C28.1339 16.14 27.3359 15.3 27.3359 13.746V10.722H26.1739V9.43399H27.3779L27.5879 7.62799H28.8199V9.43399H30.8219V10.722H28.8199V13.69C28.8199 14.404 29.1979 14.824 29.8419 14.824C30.1919 14.824 30.5139 14.726 30.7799 14.432H30.8499Z" fill="#D1BE60"/>
<path d="M25.1282 16H23.8822L23.8262 15.006H23.7982C23.3782 15.734 22.6362 16.14 21.6002 16.14C19.9482 16.14 18.9682 15.076 18.9682 13.284V9.43399H20.4522V13.116C20.4522 14.18 21.0122 14.81 21.9782 14.81C23.0282 14.81 23.6442 14.082 23.6442 12.878V9.43399H25.1282V16Z" fill="#D1BE60"/>
<path d="M16.218 16L15.476 14.25H10.716L9.974 16H8.224L12.312 6.70401H13.922L18.024 16H16.218ZM13.11 8.60801H13.082L11.332 12.78H14.86L13.11 8.60801Z" fill="#D1BE60"/>
</svg>
