<svg width="352" height="200" viewBox="0 0 352 200" fill="none" xmlns="http://www.w3.org/2000/svg">
              <rect width="352" height="200" rx="6" fill="#171717" />
              <path d="M27.455 74.9V74.93C28.58 75.275 29.165 76.055 29.165 77.255C29.165 79.07 27.965 80 25.67 80H21.125V70.04H25.295C27.605 70.04 28.805 70.955 28.805 72.74C28.805 73.775 28.355 74.51 27.455 74.9ZM22.925 74.195H25.16C26.405 74.195 27.005 73.775 27.005 72.905C27.005 72.05 26.435 71.645 25.28 71.645H22.925V74.195ZM22.925 78.395H25.625C26.765 78.395 27.35 77.975 27.35 77.09C27.35 76.205 26.75 75.755 25.52 75.755H22.925V78.395ZM32.5637 74.21H37.0487V75.77H32.5637V78.395H38.1287V80H30.7637V70.04H38.1287V71.645H32.5637V74.21ZM41.7775 80H39.9775V70.04H44.3875C46.8025 70.04 48.0475 71.12 48.0475 73.205C48.0475 74.81 47.2975 75.815 45.8425 76.19L48.3475 80H46.2175L43.9975 76.355H41.7775V80ZM41.7775 74.75H44.3275C45.6175 74.75 46.2325 74.24 46.2325 73.205C46.2325 72.155 45.6175 71.645 44.3275 71.645H41.7775V74.75ZM49.9385 70.04H54.2735C56.6885 70.04 57.9335 71.135 57.9335 73.265C57.9335 75.38 56.6885 76.475 54.2735 76.475H51.7385V80H49.9385V70.04ZM51.7385 74.87H54.1985C55.5035 74.87 56.1185 74.345 56.1185 73.265C56.1185 72.17 55.5035 71.645 54.1985 71.645H51.7385V74.87ZM62.9093 69.89C64.2143 69.89 65.4293 70.205 66.0743 70.685V72.59H65.9843C65.3393 71.9 64.1993 71.495 62.8793 71.495C61.6193 71.495 60.8093 72.035 60.8093 72.875C60.8093 73.58 61.3343 73.94 63.0143 74.105C65.6693 74.375 66.6443 75.29 66.6443 77.12C66.6443 79.025 65.2043 80.15 62.7443 80.15C61.1093 80.15 59.8193 79.82 59.0093 79.205V77.285H59.0993C59.9993 78.11 61.2443 78.545 62.6993 78.545C64.0793 78.545 64.8593 78.05 64.8593 77.165C64.8593 76.4 64.3193 76.04 62.5493 75.845C59.9543 75.56 59.0243 74.72 59.0243 72.98C59.0243 71.06 60.5093 69.89 62.9093 69.89ZM72.7187 76.205V79.745H71.3087V76.205H67.7687V74.795H71.3087V71.255H72.7187V74.795H76.2587V76.205H72.7187ZM78.0195 80V70.04H79.8195V80H78.0195ZM85.6625 72.815C87.4175 72.815 88.4825 73.955 88.4825 75.875V80H86.8925V76.055C86.8925 74.9 86.2775 74.24 85.2575 74.24C84.1325 74.24 83.4575 75.005 83.4575 76.31V80H81.8675V72.965H83.2025L83.2625 74.045H83.2925C83.7425 73.25 84.5525 72.815 85.6625 72.815ZM93.1878 69.35C93.8028 69.35 94.2828 69.44 94.6128 69.605V71.09H94.5378C94.2378 70.88 93.8178 70.775 93.4278 70.775C92.6778 70.775 92.2728 71.225 92.2728 72.035V72.965H94.4178V74.345H92.2728V80H90.6828V74.345H89.4378V72.965H90.6828V71.96C90.6828 70.295 91.5678 69.35 93.1878 69.35ZM99.1491 72.815C99.5991 72.815 99.9741 72.935 100.199 73.085V74.66H100.124C99.8241 74.45 99.4491 74.33 99.0141 74.33C97.7541 74.33 97.1391 75.17 97.1391 76.88V80H95.5491V72.965H96.8841L96.9441 74.045H96.9741C97.3791 73.235 98.0991 72.815 99.1491 72.815ZM108.164 80H106.844L106.799 78.995H106.769C106.259 79.715 105.374 80.15 104.234 80.15C102.224 80.15 100.754 78.62 100.754 76.49C100.754 74.36 102.224 72.815 104.234 72.815C105.374 72.815 106.244 73.25 106.754 73.97H106.784L106.844 72.965H108.164V80ZM104.489 78.725C105.749 78.725 106.619 77.795 106.619 76.49C106.619 75.155 105.749 74.24 104.489 74.24C103.229 74.24 102.359 75.155 102.359 76.49C102.359 77.795 103.229 78.725 104.489 78.725ZM113.622 72.815C114.072 72.815 114.447 72.935 114.672 73.085V74.66H114.597C114.297 74.45 113.922 74.33 113.487 74.33C112.227 74.33 111.612 75.17 111.612 76.88V80H110.022V72.965H111.357L111.417 74.045H111.447C111.852 73.235 112.572 72.815 113.622 72.815ZM122.442 76.97H116.847C117.042 78.095 118.002 78.755 119.397 78.755C120.432 78.755 121.302 78.44 121.932 77.84H122.007V79.415C121.407 79.88 120.447 80.15 119.337 80.15C116.877 80.15 115.227 78.68 115.227 76.49C115.227 74.33 116.742 72.815 118.887 72.815C121.062 72.815 122.442 74.135 122.442 76.19V76.97ZM118.932 74.21C117.927 74.21 117.042 74.84 116.847 75.785H120.972C120.837 74.825 120.027 74.21 118.932 74.21ZM130.855 80H129.535L129.49 78.995H129.46C128.95 79.715 128.065 80.15 126.925 80.15C124.915 80.15 123.445 78.62 123.445 76.49C123.445 74.36 124.915 72.815 126.925 72.815C127.93 72.815 128.71 73.145 129.235 73.7H129.265V69.5H130.855V80ZM127.18 78.725C128.44 78.725 129.31 77.795 129.31 76.49C129.31 75.155 128.44 74.24 127.18 74.24C125.92 74.24 125.05 75.155 125.05 76.49C125.05 77.795 125.92 78.725 127.18 78.725Z" fill="#B3B3B3" />
              <path d="M139.515 69.89C142.23 69.89 143.82 71.66 143.82 74.75C143.82 78.11 142.095 80.15 139.26 80.15C138.105 80.15 137.175 79.91 136.59 79.475V77.765H136.68C137.265 78.335 138.105 78.635 139.095 78.635C140.865 78.635 141.93 77.525 142.095 75.56H142.065C141.405 76.19 140.43 76.55 139.23 76.55C137.145 76.55 135.81 75.245 135.81 73.31C135.81 71.255 137.295 69.89 139.515 69.89ZM139.515 75.095C140.58 75.095 141.525 74.645 142.05 73.775C141.915 72.29 140.985 71.405 139.56 71.405C138.33 71.405 137.52 72.155 137.52 73.28C137.52 74.405 138.3 75.095 139.515 75.095ZM148.446 80H146.466L151.971 71.555H145.761V70.04H153.831V71.63L148.446 80ZM157.287 69.89C158.712 69.89 159.537 70.88 159.537 72.365C159.537 73.835 158.712 74.825 157.287 74.825C155.862 74.825 155.037 73.835 155.037 72.365C155.037 70.88 155.862 69.89 157.287 69.89ZM156.357 80L162.732 70.04H164.052L157.677 80H156.357ZM157.287 70.925C156.612 70.925 156.192 71.45 156.192 72.365C156.192 73.265 156.612 73.79 157.287 73.79C157.962 73.79 158.382 73.265 158.382 72.365C158.382 71.45 157.962 70.925 157.287 70.925ZM163.122 75.215C164.547 75.215 165.372 76.205 165.372 77.69C165.372 79.16 164.547 80.15 163.122 80.15C161.697 80.15 160.872 79.16 160.872 77.69C160.872 76.205 161.697 75.215 163.122 75.215ZM163.122 76.25C162.447 76.25 162.027 76.775 162.027 77.69C162.027 78.59 162.447 79.115 163.122 79.115C163.797 79.115 164.217 78.59 164.217 77.69C164.217 76.775 163.797 76.25 163.122 76.25Z" fill="#E0E0E0" />
              <path d="M317.987 74.9V74.93C319.007 75.365 319.577 76.175 319.577 77.3C319.577 79.1 318.092 80.15 315.632 80.15C314.207 80.15 312.917 79.76 312.227 79.13V77.33H312.317C312.992 78.14 314.252 78.635 315.602 78.635C317.042 78.635 317.867 78.08 317.867 77.06C317.867 76.115 317.177 75.695 315.617 75.695H314.162V74.225H315.422C316.997 74.225 317.687 73.82 317.687 72.92C317.687 71.93 316.907 71.405 315.527 71.405C314.402 71.405 313.247 71.87 312.527 72.635H312.437V70.835C313.202 70.235 314.432 69.89 315.692 69.89C317.987 69.89 319.382 70.925 319.382 72.665C319.382 73.7 318.887 74.465 317.987 74.9ZM323.393 69.89C324.818 69.89 325.643 70.88 325.643 72.365C325.643 73.835 324.818 74.825 323.393 74.825C321.968 74.825 321.143 73.835 321.143 72.365C321.143 70.88 321.968 69.89 323.393 69.89ZM322.463 80L328.838 70.04H330.158L323.783 80H322.463ZM323.393 70.925C322.718 70.925 322.298 71.45 322.298 72.365C322.298 73.265 322.718 73.79 323.393 73.79C324.068 73.79 324.488 73.265 324.488 72.365C324.488 71.45 324.068 70.925 323.393 70.925ZM329.228 75.215C330.653 75.215 331.478 76.205 331.478 77.69C331.478 79.16 330.653 80.15 329.228 80.15C327.803 80.15 326.978 79.16 326.978 77.69C326.978 76.205 327.803 75.215 329.228 75.215ZM329.228 76.25C328.553 76.25 328.133 76.775 328.133 77.69C328.133 78.59 328.553 79.115 329.228 79.115C329.903 79.115 330.323 78.59 330.323 77.69C330.323 76.775 329.903 76.25 329.228 76.25Z" fill="#E0E0E0" />
              <path d="M281.216 80H279.416V71.975H279.386L276.026 80H274.391L271.106 72.125H271.076V80H269.336V70.04H272.036L275.231 77.645H275.261L278.456 70.04H281.216V80ZM286.592 72.815C288.782 72.815 290.342 74.33 290.342 76.49C290.342 78.635 288.782 80.15 286.592 80.15C284.402 80.15 282.857 78.635 282.857 76.49C282.857 74.33 284.402 72.815 286.592 72.815ZM286.592 74.24C285.332 74.24 284.462 75.155 284.462 76.49C284.462 77.795 285.332 78.725 286.592 78.725C287.867 78.725 288.737 77.795 288.737 76.49C288.737 75.155 287.867 74.24 286.592 74.24ZM295.732 72.815C297.742 72.815 299.212 74.36 299.212 76.49C299.212 78.62 297.742 80.15 295.732 80.15C294.577 80.15 293.707 79.715 293.197 78.995H293.167L293.122 80H291.787V69.5H293.377V73.715H293.407C293.932 73.145 294.712 72.815 295.732 72.815ZM295.477 78.725C296.722 78.725 297.607 77.795 297.607 76.49C297.607 75.155 296.722 74.24 295.477 74.24C294.217 74.24 293.332 75.155 293.332 76.49C293.332 77.795 294.217 78.725 295.477 78.725ZM302.681 82.85H301.046L302.411 79.775L299.576 72.965H301.286L303.251 78.065H303.281L305.261 72.965H306.896L302.681 82.85Z" fill="#B3B3B3" />
              <rect x="20" y="40" width="312" height="18" rx="9" fill="#292929" />
              <path d="M317 46H323C324.657 46 326 47.3431 326 49C326 50.6569 324.657 52 323 52H317V46Z" fill="#E6FC8D" />
              <path d="M26 49C26 47.3431 27.3431 46 29 46H317V52H29C27.3431 52 26 50.6569 26 49Z" fill="#DA5D19" />
              <path d="M34.0778 126H32.6378V119.58H32.6138L29.9258 126H28.6178L25.9898 119.7H25.9658V126H24.5738V118.032H26.7338L29.2898 124.116H29.3138L31.8698 118.032H34.0778V126ZM38.3784 120.252C40.1304 120.252 41.3784 121.464 41.3784 123.192C41.3784 124.908 40.1304 126.12 38.3784 126.12C36.6264 126.12 35.3904 124.908 35.3904 123.192C35.3904 121.464 36.6264 120.252 38.3784 120.252ZM38.3784 121.392C37.3704 121.392 36.6744 122.124 36.6744 123.192C36.6744 124.236 37.3704 124.98 38.3784 124.98C39.3984 124.98 40.0944 124.236 40.0944 123.192C40.0944 122.124 39.3984 121.392 38.3784 121.392ZM45.691 120.252C47.299 120.252 48.475 121.488 48.475 123.192C48.475 124.896 47.299 126.12 45.691 126.12C44.767 126.12 44.071 125.772 43.663 125.196H43.639L43.603 126H42.535V117.6H43.807V120.972H43.831C44.251 120.516 44.875 120.252 45.691 120.252ZM45.487 124.98C46.483 124.98 47.191 124.236 47.191 123.192C47.191 122.124 46.483 121.392 45.487 121.392C44.479 121.392 43.771 122.124 43.771 123.192C43.771 124.236 44.479 124.98 45.487 124.98ZM51.2496 128.28H49.9416L51.0336 125.82L48.7656 120.372H50.1336L51.7056 124.452H51.7296L53.3136 120.372H54.6216L51.2496 128.28ZM55.2063 120.852L56.2263 118.032H57.5343L56.2503 120.852H55.2063ZM59.9486 120.252C60.6806 120.252 61.3406 120.396 61.7486 120.66V121.968H61.6886C61.3046 121.572 60.7166 121.368 59.9846 121.368C59.3726 121.368 58.9406 121.644 58.9406 122.04C58.9406 122.364 59.1926 122.508 60.0206 122.556C61.5206 122.64 62.1086 123.192 62.1086 124.332C62.1086 125.436 61.2566 126.12 59.8526 126.12C58.9166 126.12 58.1846 125.928 57.7166 125.568V124.236H57.7766C58.2446 124.74 58.9286 125.004 59.7926 125.004C60.4526 125.004 60.8606 124.74 60.8606 124.332C60.8606 123.96 60.6086 123.792 59.6966 123.72C58.2326 123.6 57.6926 123.144 57.6926 122.076C57.6926 120.972 58.5926 120.252 59.9486 120.252ZM68.5322 120.252C69.3122 120.252 69.8882 120.42 70.3322 120.744V122.124H70.2722C69.8762 121.62 69.3362 121.392 68.6522 121.392C67.4882 121.392 66.7682 122.112 66.7682 123.192C66.7682 124.248 67.4882 124.98 68.6522 124.98C69.3482 124.98 69.8882 124.728 70.2722 124.236H70.3322V125.64C69.9122 125.964 69.3122 126.12 68.5322 126.12C66.6962 126.12 65.4842 124.908 65.4842 123.192C65.4842 121.464 66.6962 120.252 68.5322 120.252ZM77.2012 126H76.1452L76.1092 125.196H76.0852C75.6772 125.772 74.9692 126.12 74.0572 126.12C72.4492 126.12 71.2732 124.896 71.2732 123.192C71.2732 121.488 72.4492 120.252 74.0572 120.252C74.9692 120.252 75.6652 120.6 76.0732 121.176H76.0972L76.1452 120.372H77.2012V126ZM74.2612 124.98C75.2692 124.98 75.9652 124.236 75.9652 123.192C75.9652 122.124 75.2692 121.392 74.2612 121.392C73.2532 121.392 72.5572 122.124 72.5572 123.192C72.5572 124.236 73.2532 124.98 74.2612 124.98ZM81.8434 120.252C83.4514 120.252 84.6274 121.488 84.6274 123.192C84.6274 124.896 83.4514 126.12 81.8434 126.12C81.0274 126.12 80.4034 125.856 79.9834 125.4H79.9594V128.28H78.6874V120.372H79.7554L79.7914 121.176H79.8154C80.2234 120.6 80.9194 120.252 81.8434 120.252ZM81.6394 124.98C82.6354 124.98 83.3434 124.236 83.3434 123.192C83.3434 122.124 82.6354 121.392 81.6394 121.392C80.6314 121.392 79.9234 122.124 79.9234 123.192C79.9234 124.236 80.6314 124.98 81.6394 124.98ZM86.4132 117.804C86.9052 117.804 87.2292 118.14 87.2292 118.62C87.2292 119.1 86.9052 119.424 86.4132 119.424C85.9332 119.424 85.6092 119.1 85.6092 118.62C85.6092 118.14 85.9332 117.804 86.4132 117.804ZM85.7772 120.372H87.0492V126H85.7772V120.372ZM91.9625 124.656V125.916C91.6985 126.048 91.3505 126.12 90.9065 126.12C89.6345 126.12 88.9505 125.4 88.9505 124.068V121.476H87.9545V120.372H88.9865L89.1665 118.824H90.2225V120.372H91.9385V121.476H90.2225V124.02C90.2225 124.632 90.5465 124.992 91.0985 124.992C91.3985 124.992 91.6745 124.908 91.9025 124.656H91.9625ZM98.6583 126H97.6023L97.5663 125.196H97.5423C97.1343 125.772 96.4263 126.12 95.5143 126.12C93.9063 126.12 92.7303 124.896 92.7303 123.192C92.7303 121.488 93.9063 120.252 95.5143 120.252C96.4263 120.252 97.1223 120.6 97.5303 121.176H97.5543L97.6023 120.372H98.6583V126ZM95.7183 124.98C96.7263 124.98 97.4223 124.236 97.4223 123.192C97.4223 122.124 96.7263 121.392 95.7183 121.392C94.7103 121.392 94.0143 122.124 94.0143 123.192C94.0143 124.236 94.7103 124.98 95.7183 124.98ZM100.144 126V117.6H101.416V126H100.144ZM106.078 123.36H102.694V122.076H106.078V123.36ZM112.881 123.576H108.405C108.561 124.476 109.329 125.004 110.445 125.004C111.273 125.004 111.969 124.752 112.473 124.272H112.533V125.532C112.053 125.904 111.285 126.12 110.397 126.12C108.429 126.12 107.109 124.944 107.109 123.192C107.109 121.464 108.321 120.252 110.037 120.252C111.777 120.252 112.881 121.308 112.881 122.952V123.576ZM110.073 121.368C109.269 121.368 108.561 121.872 108.405 122.628H111.705C111.597 121.86 110.949 121.368 110.073 121.368ZM123.164 120.372V126H121.892V121.476H119.396V126H118.124V121.476H115.664V126H114.392V121.476H113.396V120.372H114.392V119.688C114.392 118.356 115.1 117.6 116.396 117.6C116.888 117.6 117.272 117.672 117.536 117.804V118.992H117.476C117.236 118.824 116.9 118.74 116.588 118.74C115.988 118.74 115.664 119.1 115.664 119.736V120.372H118.124V119.568C118.124 118.236 118.832 117.48 120.068 117.48C120.5 117.48 120.884 117.552 121.148 117.684V118.872H121.088C120.848 118.704 120.512 118.62 120.26 118.62C119.72 118.62 119.396 118.98 119.396 119.616V120.372H123.164ZM122.528 119.424C122.048 119.424 121.724 119.1 121.724 118.62C121.724 118.14 122.048 117.804 122.528 117.804C123.02 117.804 123.344 118.14 123.344 118.62C123.344 119.1 123.02 119.424 122.528 119.424ZM127.372 120.252C128.152 120.252 128.728 120.42 129.172 120.744V122.124H129.112C128.716 121.62 128.176 121.392 127.492 121.392C126.328 121.392 125.608 122.112 125.608 123.192C125.608 124.248 126.328 124.98 127.492 124.98C128.188 124.98 128.728 124.728 129.112 124.236H129.172V125.64C128.752 125.964 128.152 126.12 127.372 126.12C125.536 126.12 124.324 124.908 124.324 123.192C124.324 121.464 125.536 120.252 127.372 120.252ZM131.085 117.804C131.577 117.804 131.901 118.14 131.901 118.62C131.901 119.1 131.577 119.424 131.085 119.424C130.605 119.424 130.281 119.1 130.281 118.62C130.281 118.14 130.605 117.804 131.085 117.804ZM130.449 120.372H131.721V126H130.449V120.372ZM138.662 123.576H134.186C134.342 124.476 135.11 125.004 136.226 125.004C137.054 125.004 137.75 124.752 138.254 124.272H138.314V125.532C137.834 125.904 137.066 126.12 136.178 126.12C134.21 126.12 132.89 124.944 132.89 123.192C132.89 121.464 134.102 120.252 135.818 120.252C137.558 120.252 138.662 121.308 138.662 122.952V123.576ZM135.854 121.368C135.05 121.368 134.342 121.872 134.186 122.628H137.486C137.378 121.86 136.73 121.368 135.854 121.368ZM142.837 120.252C144.241 120.252 145.093 121.164 145.093 122.7V126H143.821V122.844C143.821 121.92 143.329 121.392 142.513 121.392C141.613 121.392 141.073 122.004 141.073 123.048V126H139.801V120.372H140.869L140.917 121.236H140.941C141.301 120.6 141.949 120.252 142.837 120.252ZM149.865 124.656V125.916C149.601 126.048 149.253 126.12 148.809 126.12C147.537 126.12 146.853 125.4 146.853 124.068V121.476H145.857V120.372H146.889L147.069 118.824H148.125V120.372H149.841V121.476H148.125V124.02C148.125 124.632 148.449 124.992 149.001 124.992C149.301 124.992 149.577 124.908 149.805 124.656H149.865ZM155.632 120.252C156.364 120.252 157.024 120.396 157.432 120.66V121.968H157.372C156.988 121.572 156.4 121.368 155.668 121.368C155.056 121.368 154.624 121.644 154.624 122.04C154.624 122.364 154.876 122.508 155.704 122.556C157.204 122.64 157.792 123.192 157.792 124.332C157.792 125.436 156.94 126.12 155.536 126.12C154.6 126.12 153.868 125.928 153.4 125.568V124.236H153.46C153.928 124.74 154.612 125.004 155.476 125.004C156.136 125.004 156.544 124.74 156.544 124.332C156.544 123.96 156.292 123.792 155.38 123.72C153.916 123.6 153.376 123.144 153.376 122.076C153.376 120.972 154.276 120.252 155.632 120.252ZM162.181 124.656V125.916C161.917 126.048 161.569 126.12 161.125 126.12C159.853 126.12 159.169 125.4 159.169 124.068V121.476H158.173V120.372H159.205L159.385 118.824H160.441V120.372H162.157V121.476H160.441V124.02C160.441 124.632 160.765 124.992 161.317 124.992C161.617 124.992 161.893 124.908 162.121 124.656H162.181ZM166.212 120.252C166.572 120.252 166.872 120.348 167.052 120.468V121.728H166.992C166.752 121.56 166.452 121.464 166.104 121.464C165.096 121.464 164.604 122.136 164.604 123.504V126H163.332V120.372H164.4L164.448 121.236H164.472C164.796 120.588 165.372 120.252 166.212 120.252ZM173.086 126H172.018L171.97 125.148H171.946C171.586 125.772 170.95 126.12 170.062 126.12C168.646 126.12 167.806 125.208 167.806 123.672V120.372H169.078V123.528C169.078 124.44 169.558 124.98 170.386 124.98C171.286 124.98 171.814 124.356 171.814 123.324V120.372H173.086V126ZM177.294 120.252C178.074 120.252 178.65 120.42 179.094 120.744V122.124H179.034C178.638 121.62 178.098 121.392 177.414 121.392C176.25 121.392 175.53 122.112 175.53 123.192C175.53 124.248 176.25 124.98 177.414 124.98C178.11 124.98 178.65 124.728 179.034 124.236H179.094V125.64C178.674 125.964 178.074 126.12 177.294 126.12C175.458 126.12 174.246 124.908 174.246 123.192C174.246 121.464 175.458 120.252 177.294 120.252ZM183.779 124.656V125.916C183.515 126.048 183.167 126.12 182.723 126.12C181.451 126.12 180.767 125.4 180.767 124.068V121.476H179.771V120.372H180.803L180.983 118.824H182.039V120.372H183.755V121.476H182.039V124.02C182.039 124.632 182.363 124.992 182.915 124.992C183.215 124.992 183.491 124.908 183.719 124.656H183.779ZM190.09 126H189.022L188.974 125.148H188.95C188.59 125.772 187.954 126.12 187.066 126.12C185.65 126.12 184.81 125.208 184.81 123.672V120.372H186.082V123.528C186.082 124.44 186.562 124.98 187.39 124.98C188.29 124.98 188.818 124.356 188.818 123.324V120.372H190.09V126ZM194.466 120.252C194.826 120.252 195.126 120.348 195.306 120.468V121.728H195.246C195.006 121.56 194.706 121.464 194.358 121.464C193.35 121.464 192.858 122.136 192.858 123.504V126H191.586V120.372H192.654L192.702 121.236H192.726C193.05 120.588 193.626 120.252 194.466 120.252ZM201.522 123.576H197.046C197.202 124.476 197.97 125.004 199.086 125.004C199.914 125.004 200.61 124.752 201.114 124.272H201.174V125.532C200.694 125.904 199.926 126.12 199.038 126.12C197.07 126.12 195.75 124.944 195.75 123.192C195.75 121.464 196.962 120.252 198.678 120.252C200.418 120.252 201.522 121.308 201.522 122.952V123.576ZM198.714 121.368C197.91 121.368 197.202 121.872 197.046 122.628H200.346C200.238 121.86 199.59 121.368 198.714 121.368ZM210.733 123.576H206.257C206.413 124.476 207.181 125.004 208.297 125.004C209.125 125.004 209.821 124.752 210.325 124.272H210.385V125.532C209.905 125.904 209.137 126.12 208.249 126.12C206.281 126.12 204.961 124.944 204.961 123.192C204.961 121.464 206.173 120.252 207.889 120.252C209.629 120.252 210.733 121.308 210.733 122.952V123.576ZM207.925 121.368C207.121 121.368 206.413 121.872 206.257 122.628H209.557C209.449 121.86 208.801 121.368 207.925 121.368ZM214.907 120.252C216.311 120.252 217.163 121.164 217.163 122.7V126H215.891V122.844C215.891 121.92 215.399 121.392 214.583 121.392C213.683 121.392 213.143 122.004 213.143 123.048V126H211.871V120.372H212.939L212.987 121.236H213.011C213.371 120.6 214.019 120.252 214.907 120.252ZM221.563 120.252C222.967 120.252 223.819 121.164 223.819 122.7V126H222.547V122.844C222.547 121.92 222.055 121.392 221.239 121.392C220.339 121.392 219.799 122.004 219.799 123.048V126H218.527V117.6H219.799V120.984H219.823C220.207 120.516 220.807 120.252 221.563 120.252ZM230.775 126H229.719L229.683 125.196H229.659C229.251 125.772 228.543 126.12 227.631 126.12C226.023 126.12 224.847 124.896 224.847 123.192C224.847 121.488 226.023 120.252 227.631 120.252C228.543 120.252 229.239 120.6 229.647 121.176H229.671L229.719 120.372H230.775V126ZM227.835 124.98C228.843 124.98 229.539 124.236 229.539 123.192C229.539 122.124 228.843 121.392 227.835 121.392C226.827 121.392 226.131 122.124 226.131 123.192C226.131 124.236 226.827 124.98 227.835 124.98ZM235.298 120.252C236.702 120.252 237.554 121.164 237.554 122.7V126H236.282V122.844C236.282 121.92 235.79 121.392 234.974 121.392C234.074 121.392 233.534 122.004 233.534 123.048V126H232.262V120.372H233.33L233.378 121.236H233.402C233.762 120.6 234.41 120.252 235.298 120.252ZM241.63 120.252C242.41 120.252 242.986 120.42 243.43 120.744V122.124H243.37C242.974 121.62 242.434 121.392 241.75 121.392C240.586 121.392 239.866 122.112 239.866 123.192C239.866 124.248 240.586 124.98 241.75 124.98C242.446 124.98 242.986 124.728 243.37 124.236H243.43V125.64C243.01 125.964 242.41 126.12 241.63 126.12C239.794 126.12 238.582 124.908 238.582 123.192C238.582 121.464 239.794 120.252 241.63 120.252ZM250.143 123.576H245.667C245.823 124.476 246.591 125.004 247.707 125.004C248.535 125.004 249.231 124.752 249.735 124.272H249.795V125.532C249.315 125.904 248.547 126.12 247.659 126.12C245.691 126.12 244.371 124.944 244.371 123.192C244.371 121.464 245.583 120.252 247.299 120.252C249.039 120.252 250.143 121.308 250.143 122.952V123.576ZM247.335 121.368C246.531 121.368 245.823 121.872 245.667 122.628H248.967C248.859 121.86 248.211 121.368 247.335 121.368ZM253.261 120.252C253.993 120.252 254.653 120.396 255.061 120.66V121.968H255.001C254.617 121.572 254.029 121.368 253.297 121.368C252.685 121.368 252.253 121.644 252.253 122.04C252.253 122.364 252.505 122.508 253.333 122.556C254.833 122.64 255.421 123.192 255.421 124.332C255.421 125.436 254.569 126.12 253.165 126.12C252.229 126.12 251.497 125.928 251.029 125.568V124.236H251.089C251.557 124.74 252.241 125.004 253.105 125.004C253.765 125.004 254.173 124.74 254.173 124.332C254.173 123.96 253.921 123.792 253.009 123.72C251.545 123.6 251.005 123.144 251.005 122.076C251.005 120.972 251.905 120.252 253.261 120.252ZM262.289 120.252C263.897 120.252 265.073 121.488 265.073 123.192C265.073 124.896 263.897 126.12 262.289 126.12C261.473 126.12 260.849 125.856 260.429 125.4H260.405V128.28H259.133V120.372H260.201L260.237 121.176H260.261C260.669 120.6 261.365 120.252 262.289 120.252ZM262.085 124.98C263.081 124.98 263.789 124.236 263.789 123.192C263.789 122.124 263.081 121.392 262.085 121.392C261.077 121.392 260.369 122.124 260.369 123.192C260.369 124.236 261.077 124.98 262.085 124.98ZM271.659 123.576H267.183C267.339 124.476 268.107 125.004 269.223 125.004C270.051 125.004 270.747 124.752 271.251 124.272H271.311V125.532C270.831 125.904 270.063 126.12 269.175 126.12C267.207 126.12 265.887 124.944 265.887 123.192C265.887 121.464 267.099 120.252 268.815 120.252C270.555 120.252 271.659 121.308 271.659 122.952V123.576ZM268.851 121.368C268.047 121.368 267.339 121.872 267.183 122.628H270.483C270.375 121.86 269.727 121.368 268.851 121.368ZM275.677 120.252C276.037 120.252 276.337 120.348 276.517 120.468V121.728H276.457C276.217 121.56 275.917 121.464 275.569 121.464C274.561 121.464 274.069 122.136 274.069 123.504V126H272.797V120.372H273.865L273.913 121.236H273.937C274.261 120.588 274.837 120.252 275.677 120.252ZM279.79 117.48C280.282 117.48 280.666 117.552 280.93 117.684V118.872H280.87C280.63 118.704 280.294 118.62 279.982 118.62C279.382 118.62 279.058 118.98 279.058 119.628V120.372H280.774V121.476H279.058V126H277.786V121.476H276.79V120.372H277.786V119.568C277.786 118.236 278.494 117.48 279.79 117.48ZM284.097 120.252C285.849 120.252 287.097 121.464 287.097 123.192C287.097 124.908 285.849 126.12 284.097 126.12C282.345 126.12 281.109 124.908 281.109 123.192C281.109 121.464 282.345 120.252 284.097 120.252ZM284.097 121.392C283.089 121.392 282.393 122.124 282.393 123.192C282.393 124.236 283.089 124.98 284.097 124.98C285.117 124.98 285.813 124.236 285.813 123.192C285.813 122.124 285.117 121.392 284.097 121.392ZM291.134 120.252C291.494 120.252 291.794 120.348 291.974 120.468V121.728H291.914C291.674 121.56 291.374 121.464 291.026 121.464C290.018 121.464 289.526 122.136 289.526 123.504V126H288.254V120.372H289.322L289.37 121.236H289.394C289.718 120.588 290.294 120.252 291.134 120.252ZM299.496 120.252C300.852 120.252 301.608 121.128 301.608 122.676V126H300.336V122.808C300.336 121.884 299.928 121.392 299.172 121.392C298.32 121.392 297.876 121.956 297.876 123.096V126H296.604V122.808C296.604 121.884 296.196 121.392 295.428 121.392C294.588 121.392 294.144 121.956 294.144 123V126H292.872V120.372H293.928L293.964 121.188H293.988C294.324 120.576 294.912 120.252 295.752 120.252C296.544 120.252 297.168 120.6 297.504 121.26H297.528C297.876 120.588 298.5 120.252 299.496 120.252ZM308.565 126H307.509L307.473 125.196H307.449C307.041 125.772 306.333 126.12 305.421 126.12C303.813 126.12 302.637 124.896 302.637 123.192C302.637 121.488 303.813 120.252 305.421 120.252C306.333 120.252 307.029 120.6 307.437 121.176H307.461L307.509 120.372H308.565V126ZM305.625 124.98C306.633 124.98 307.329 124.236 307.329 123.192C307.329 122.124 306.633 121.392 305.625 121.392C304.617 121.392 303.921 122.124 303.921 123.192C303.921 124.236 304.617 124.98 305.625 124.98ZM313.087 120.252C314.491 120.252 315.343 121.164 315.343 122.7V126H314.071V122.844C314.071 121.92 313.579 121.392 312.763 121.392C311.863 121.392 311.323 122.004 311.323 123.048V126H310.051V120.372H311.119L311.167 121.236H311.191C311.551 120.6 312.199 120.252 313.087 120.252ZM319.419 120.252C320.199 120.252 320.775 120.42 321.219 120.744V122.124H321.159C320.763 121.62 320.223 121.392 319.539 121.392C318.375 121.392 317.655 122.112 317.655 123.192C317.655 124.248 318.375 124.98 319.539 124.98C320.235 124.98 320.775 124.728 321.159 124.236H321.219V125.64C320.799 125.964 320.199 126.12 319.419 126.12C317.583 126.12 316.371 124.908 316.371 123.192C316.371 121.464 317.583 120.252 319.419 120.252ZM327.932 123.576H323.456C323.612 124.476 324.38 125.004 325.496 125.004C326.324 125.004 327.02 124.752 327.524 124.272H327.584V125.532C327.104 125.904 326.336 126.12 325.448 126.12C323.48 126.12 322.16 124.944 322.16 123.192C322.16 121.464 323.372 120.252 325.088 120.252C326.828 120.252 327.932 121.308 327.932 122.952V123.576ZM325.124 121.368C324.32 121.368 323.612 121.872 323.456 122.628H326.756C326.648 121.86 326 121.368 325.124 121.368ZM40.4365 135.252C41.2165 135.252 41.7925 135.42 42.2365 135.744V137.124H42.1765C41.7805 136.62 41.2405 136.392 40.5565 136.392C39.3925 136.392 38.6725 137.112 38.6725 138.192C38.6725 139.248 39.3925 139.98 40.5565 139.98C41.2525 139.98 41.7925 139.728 42.1765 139.236H42.2365V140.64C41.8165 140.964 41.2165 141.12 40.4365 141.12C38.6005 141.12 37.3885 139.908 37.3885 138.192C37.3885 136.464 38.6005 135.252 40.4365 135.252ZM46.1655 135.252C47.9175 135.252 49.1655 136.464 49.1655 138.192C49.1655 139.908 47.9175 141.12 46.1655 141.12C44.4135 141.12 43.1775 139.908 43.1775 138.192C43.1775 136.464 44.4135 135.252 46.1655 135.252ZM46.1655 136.392C45.1575 136.392 44.4615 137.124 44.4615 138.192C44.4615 139.236 45.1575 139.98 46.1655 139.98C47.1855 139.98 47.8815 139.236 47.8815 138.192C47.8815 137.124 47.1855 136.392 46.1655 136.392ZM56.9701 135.252C58.3261 135.252 59.0821 136.128 59.0821 137.676V141H57.8101V137.808C57.8101 136.884 57.4021 136.392 56.6461 136.392C55.7941 136.392 55.3501 136.956 55.3501 138.096V141H54.0781V137.808C54.0781 136.884 53.6701 136.392 52.9021 136.392C52.0621 136.392 51.6181 136.956 51.6181 138V141H50.3461V135.372H51.4021L51.4381 136.188H51.4621C51.7981 135.576 52.3861 135.252 53.2261 135.252C54.0181 135.252 54.6421 135.6 54.9781 136.26H55.0021C55.3501 135.588 55.9741 135.252 56.9701 135.252ZM63.6031 135.252C65.2111 135.252 66.3871 136.488 66.3871 138.192C66.3871 139.896 65.2111 141.12 63.6031 141.12C62.7871 141.12 62.1631 140.856 61.7431 140.4H61.7191V143.28H60.4471V135.372H61.5151L61.5511 136.176H61.5751C61.9831 135.6 62.6791 135.252 63.6031 135.252ZM63.3991 139.98C64.3951 139.98 65.1031 139.236 65.1031 138.192C65.1031 137.124 64.3951 136.392 63.3991 136.392C62.3911 136.392 61.6831 137.124 61.6831 138.192C61.6831 139.236 62.3911 139.98 63.3991 139.98ZM73.129 141H72.073L72.037 140.196H72.013C71.605 140.772 70.897 141.12 69.985 141.12C68.377 141.12 67.201 139.896 67.201 138.192C67.201 136.488 68.377 135.252 69.985 135.252C70.897 135.252 71.593 135.6 72.001 136.176H72.025L72.073 135.372H73.129V141ZM70.189 139.98C71.197 139.98 71.893 139.236 71.893 138.192C71.893 137.124 71.197 136.392 70.189 136.392C69.181 136.392 68.485 137.124 68.485 138.192C68.485 139.236 69.181 139.98 70.189 139.98ZM77.4951 135.252C77.8551 135.252 78.1551 135.348 78.3351 135.468V136.728H78.2751C78.0351 136.56 77.7351 136.464 77.3871 136.464C76.3791 136.464 75.8871 137.136 75.8871 138.504V141H74.6151V135.372H75.6831L75.7311 136.236H75.7551C76.0791 135.588 76.6551 135.252 77.4951 135.252ZM84.5511 138.576H80.0751C80.2311 139.476 80.9991 140.004 82.1151 140.004C82.9431 140.004 83.6391 139.752 84.1431 139.272H84.2031V140.532C83.7231 140.904 82.9551 141.12 82.0671 141.12C80.0991 141.12 78.7791 139.944 78.7791 138.192C78.7791 136.464 79.9911 135.252 81.7071 135.252C83.4471 135.252 84.5511 136.308 84.5511 137.952V138.576ZM81.7431 136.368C80.9391 136.368 80.2311 136.872 80.0751 137.628H83.3751C83.2671 136.86 82.6191 136.368 81.7431 136.368ZM91.2813 141H90.2253L90.1893 140.196H90.1653C89.7573 140.772 89.0493 141.12 88.1373 141.12C86.5293 141.12 85.3533 139.896 85.3533 138.192C85.3533 136.488 86.5293 135.252 88.1373 135.252C88.9413 135.252 89.5653 135.516 89.9853 135.96H90.0093V132.6H91.2813V141ZM88.3413 139.98C89.3493 139.98 90.0453 139.236 90.0453 138.192C90.0453 137.124 89.3493 136.392 88.3413 136.392C87.3333 136.392 86.6373 137.124 86.6373 138.192C86.6373 139.236 87.3333 139.98 88.3413 139.98ZM98.8122 139.656V140.916C98.5482 141.048 98.2002 141.12 97.7562 141.12C96.4842 141.12 95.8002 140.4 95.8002 139.068V136.476H94.8042V135.372H95.8362L96.0162 133.824H97.0722V135.372H98.7882V136.476H97.0722V139.02C97.0722 139.632 97.3962 139.992 97.9482 139.992C98.2482 139.992 98.5242 139.908 98.7522 139.656H98.8122ZM102.568 135.252C104.32 135.252 105.568 136.464 105.568 138.192C105.568 139.908 104.32 141.12 102.568 141.12C100.816 141.12 99.5799 139.908 99.5799 138.192C99.5799 136.464 100.816 135.252 102.568 135.252ZM102.568 136.392C101.56 136.392 100.864 137.124 100.864 138.192C100.864 139.236 101.56 139.98 102.568 139.98C103.588 139.98 104.284 139.236 104.284 138.192C104.284 137.124 103.588 136.392 102.568 136.392ZM112.769 139.656V140.916C112.505 141.048 112.157 141.12 111.713 141.12C110.441 141.12 109.757 140.4 109.757 139.068V136.476H108.761V135.372H109.793L109.973 133.824H111.029V135.372H112.745V136.476H111.029V139.02C111.029 139.632 111.353 139.992 111.905 139.992C112.205 139.992 112.481 139.908 112.709 139.656H112.769ZM116.8 135.252C117.16 135.252 117.46 135.348 117.64 135.468V136.728H117.58C117.34 136.56 117.04 136.464 116.692 136.464C115.684 136.464 115.192 137.136 115.192 138.504V141H113.92V135.372H114.988L115.036 136.236H115.06C115.384 135.588 115.96 135.252 116.8 135.252ZM124.012 141H122.956L122.92 140.196H122.896C122.488 140.772 121.78 141.12 120.868 141.12C119.26 141.12 118.084 139.896 118.084 138.192C118.084 136.488 119.26 135.252 120.868 135.252C121.78 135.252 122.476 135.6 122.884 136.176H122.908L122.956 135.372H124.012V141ZM121.072 139.98C122.08 139.98 122.776 139.236 122.776 138.192C122.776 137.124 122.08 136.392 121.072 136.392C120.064 136.392 119.368 137.124 119.368 138.192C119.368 139.236 120.064 139.98 121.072 139.98ZM131.09 141H130.034L129.998 140.196H129.974C129.566 140.772 128.858 141.12 127.946 141.12C126.338 141.12 125.162 139.896 125.162 138.192C125.162 136.488 126.338 135.252 127.946 135.252C128.75 135.252 129.374 135.516 129.794 135.96H129.818V132.6H131.09V141ZM128.15 139.98C129.158 139.98 129.854 139.236 129.854 138.192C129.854 137.124 129.158 136.392 128.15 136.392C127.142 136.392 126.446 137.124 126.446 138.192C126.446 139.236 127.142 139.98 128.15 139.98ZM133.212 132.804C133.704 132.804 134.028 133.14 134.028 133.62C134.028 134.1 133.704 134.424 133.212 134.424C132.732 134.424 132.408 134.1 132.408 133.62C132.408 133.14 132.732 132.804 133.212 132.804ZM132.576 135.372H133.848V141H132.576V135.372ZM138.761 139.656V140.916C138.497 141.048 138.149 141.12 137.705 141.12C136.433 141.12 135.749 140.4 135.749 139.068V136.476H134.753V135.372H135.785L135.965 133.824H137.021V135.372H138.737V136.476H137.021V139.02C137.021 139.632 137.345 139.992 137.897 139.992C138.197 139.992 138.473 139.908 138.701 139.656H138.761ZM140.548 132.804C141.04 132.804 141.364 133.14 141.364 133.62C141.364 134.1 141.04 134.424 140.548 134.424C140.068 134.424 139.744 134.1 139.744 133.62C139.744 133.14 140.068 132.804 140.548 132.804ZM139.912 135.372H141.184V141H139.912V135.372ZM145.341 135.252C147.093 135.252 148.341 136.464 148.341 138.192C148.341 139.908 147.093 141.12 145.341 141.12C143.589 141.12 142.353 139.908 142.353 138.192C142.353 136.464 143.589 135.252 145.341 135.252ZM145.341 136.392C144.333 136.392 143.637 137.124 143.637 138.192C143.637 139.236 144.333 139.98 145.341 139.98C146.361 139.98 147.057 139.236 147.057 138.192C147.057 137.124 146.361 136.392 145.341 136.392ZM152.534 135.252C153.938 135.252 154.79 136.164 154.79 137.7V141H153.518V137.844C153.518 136.92 153.026 136.392 152.21 136.392C151.31 136.392 150.77 137.004 150.77 138.048V141H149.498V135.372H150.566L150.614 136.236H150.638C150.998 135.6 151.646 135.252 152.534 135.252ZM161.746 141H160.69L160.654 140.196H160.63C160.222 140.772 159.514 141.12 158.602 141.12C156.994 141.12 155.818 139.896 155.818 138.192C155.818 136.488 156.994 135.252 158.602 135.252C159.514 135.252 160.21 135.6 160.618 136.176H160.642L160.69 135.372H161.746V141ZM158.806 139.98C159.814 139.98 160.51 139.236 160.51 138.192C160.51 137.124 159.814 136.392 158.806 136.392C157.798 136.392 157.102 137.124 157.102 138.192C157.102 139.236 157.798 139.98 158.806 139.98ZM163.232 141V132.6H164.504V141H163.232ZM168.791 133.032H171.935C174.623 133.032 176.171 134.508 176.171 137.016C176.171 139.524 174.623 141 171.935 141H168.791V133.032ZM170.231 139.716H171.863C173.699 139.716 174.719 138.744 174.719 137.016C174.719 135.288 173.699 134.316 171.863 134.316H170.231V139.716ZM181.146 132.912C183.594 132.912 185.31 134.616 185.31 137.016C185.31 139.416 183.594 141.12 181.146 141.12C178.698 141.12 176.982 139.416 176.982 137.016C176.982 134.616 178.698 132.912 181.146 132.912ZM181.146 134.196C179.538 134.196 178.434 135.348 178.434 137.016C178.434 138.684 179.538 139.836 181.146 139.836C182.754 139.836 183.858 138.684 183.858 137.016C183.858 135.348 182.754 134.196 181.146 134.196ZM190.176 141H188.784L185.52 133.032H187.068L189.492 139.176H189.516L191.94 133.032H193.44L190.176 141ZM199.057 133.032H200.365C199.177 134.364 198.601 135.9 198.601 137.628C198.601 139.356 199.177 140.892 200.365 142.224H199.057C197.881 140.952 197.257 139.332 197.257 137.628C197.257 135.924 197.881 134.304 199.057 133.032ZM201.814 133.032H204.958C207.646 133.032 209.194 134.508 209.194 137.016C209.194 139.524 207.646 141 204.958 141H201.814V133.032ZM203.254 139.716H204.886C206.722 139.716 207.742 138.744 207.742 137.016C207.742 135.288 206.722 134.316 204.886 134.316H203.254V139.716ZM215.778 138.576H211.302C211.458 139.476 212.226 140.004 213.342 140.004C214.17 140.004 214.866 139.752 215.37 139.272H215.43V140.532C214.95 140.904 214.182 141.12 213.294 141.12C211.326 141.12 210.006 139.944 210.006 138.192C210.006 136.464 211.218 135.252 212.934 135.252C214.674 135.252 215.778 136.308 215.778 137.952V138.576ZM212.97 136.368C212.166 136.368 211.458 136.872 211.302 137.628H214.602C214.494 136.86 213.846 136.368 212.97 136.368ZM218.512 136.476H222.1V137.76H218.512V141H217.072V133.032H222.964V134.316H218.512V136.476ZM224.7 132.804C225.192 132.804 225.516 133.14 225.516 133.62C225.516 134.1 225.192 134.424 224.7 134.424C224.22 134.424 223.896 134.1 223.896 133.62C223.896 133.14 224.22 132.804 224.7 132.804ZM224.064 135.372H225.336V141H224.064V135.372ZM233.306 132.912C235.754 132.912 237.47 134.616 237.47 137.016C237.47 139.416 235.754 141.12 233.306 141.12C230.858 141.12 229.142 139.416 229.142 137.016C229.142 134.616 230.858 132.912 233.306 132.912ZM233.306 134.196C231.698 134.196 230.594 135.348 230.594 137.016C230.594 138.684 231.698 139.836 233.306 139.836C234.914 139.836 236.018 138.684 236.018 137.016C236.018 135.348 234.914 134.196 233.306 134.196ZM241.775 135.252C243.383 135.252 244.559 136.488 244.559 138.192C244.559 139.896 243.383 141.12 241.775 141.12C240.959 141.12 240.335 140.856 239.915 140.4H239.891V143.28H238.619V135.372H239.687L239.723 136.176H239.747C240.155 135.6 240.851 135.252 241.775 135.252ZM241.571 139.98C242.567 139.98 243.275 139.236 243.275 138.192C243.275 137.124 242.567 136.392 241.571 136.392C240.563 136.392 239.855 137.124 239.855 138.192C239.855 139.236 240.563 139.98 241.571 139.98ZM249 139.656V140.916C248.736 141.048 248.388 141.12 247.944 141.12C246.672 141.12 245.988 140.4 245.988 139.068V136.476H244.992V135.372H246.024L246.204 133.824H247.26V135.372H248.976V136.476H247.26V139.02C247.26 139.632 247.584 139.992 248.136 139.992C248.436 139.992 248.712 139.908 248.94 139.656H249ZM250.786 132.804C251.278 132.804 251.602 133.14 251.602 133.62C251.602 134.1 251.278 134.424 250.786 134.424C250.306 134.424 249.982 134.1 249.982 133.62C249.982 133.14 250.306 132.804 250.786 132.804ZM250.15 135.372H251.422V141H250.15V135.372ZM255.58 135.252C257.332 135.252 258.58 136.464 258.58 138.192C258.58 139.908 257.332 141.12 255.58 141.12C253.828 141.12 252.592 139.908 252.592 138.192C252.592 136.464 253.828 135.252 255.58 135.252ZM255.58 136.392C254.572 136.392 253.876 137.124 253.876 138.192C253.876 139.236 254.572 139.98 255.58 139.98C256.6 139.98 257.296 139.236 257.296 138.192C257.296 137.124 256.6 136.392 255.58 136.392ZM262.772 135.252C264.176 135.252 265.028 136.164 265.028 137.7V141H263.756V137.844C263.756 136.92 263.264 136.392 262.448 136.392C261.548 136.392 261.008 137.004 261.008 138.048V141H259.736V135.372H260.804L260.852 136.236H260.876C261.236 135.6 261.884 135.252 262.772 135.252ZM268.372 135.252C269.104 135.252 269.764 135.396 270.172 135.66V136.968H270.112C269.728 136.572 269.14 136.368 268.408 136.368C267.796 136.368 267.364 136.644 267.364 137.04C267.364 137.364 267.616 137.508 268.444 137.556C269.944 137.64 270.532 138.192 270.532 139.332C270.532 140.436 269.68 141.12 268.276 141.12C267.34 141.12 266.608 140.928 266.14 140.568V139.236H266.2C266.668 139.74 267.352 140.004 268.216 140.004C268.876 140.004 269.284 139.74 269.284 139.332C269.284 138.96 269.032 138.792 268.12 138.72C266.656 138.6 266.116 138.144 266.116 137.076C266.116 135.972 267.016 135.252 268.372 135.252ZM278.348 141H276.956L273.692 133.032H275.24L277.664 139.176H277.688L280.112 133.032H281.612L278.348 141ZM287.336 141H286.28L286.244 140.196H286.22C285.812 140.772 285.104 141.12 284.192 141.12C282.584 141.12 281.408 139.896 281.408 138.192C281.408 136.488 282.584 135.252 284.192 135.252C285.104 135.252 285.8 135.6 286.208 136.176H286.232L286.28 135.372H287.336V141ZM284.396 139.98C285.404 139.98 286.1 139.236 286.1 138.192C286.1 137.124 285.404 136.392 284.396 136.392C283.388 136.392 282.692 137.124 282.692 138.192C282.692 139.236 283.388 139.98 284.396 139.98ZM293.982 141H292.914L292.866 140.148H292.842C292.482 140.772 291.846 141.12 290.958 141.12C289.542 141.12 288.702 140.208 288.702 138.672V135.372H289.974V138.528C289.974 139.44 290.454 139.98 291.282 139.98C292.182 139.98 292.71 139.356 292.71 138.324V135.372H293.982V141ZM295.478 141V132.6H296.75V141H295.478ZM301.652 139.656V140.916C301.388 141.048 301.04 141.12 300.596 141.12C299.324 141.12 298.64 140.4 298.64 139.068V136.476H297.644V135.372H298.676L298.856 133.824H299.912V135.372H301.628V136.476H299.912V139.02C299.912 139.632 300.236 139.992 300.788 139.992C301.088 139.992 301.364 139.908 301.592 139.656H301.652ZM304.747 135.252C305.479 135.252 306.139 135.396 306.547 135.66V136.968H306.487C306.103 136.572 305.515 136.368 304.783 136.368C304.171 136.368 303.739 136.644 303.739 137.04C303.739 137.364 303.991 137.508 304.819 137.556C306.319 137.64 306.907 138.192 306.907 139.332C306.907 140.436 306.055 141.12 304.651 141.12C303.715 141.12 302.983 140.928 302.515 140.568V139.236H302.575C303.043 139.74 303.727 140.004 304.591 140.004C305.251 140.004 305.659 139.74 305.659 139.332C305.659 138.96 305.407 138.792 304.495 138.72C303.031 138.6 302.491 138.144 302.491 137.076C302.491 135.972 303.391 135.252 304.747 135.252ZM309.098 142.224H307.79C308.978 140.892 309.554 139.356 309.554 137.628C309.554 135.9 308.978 134.364 307.79 133.032H309.098C310.274 134.304 310.898 135.924 310.898 137.628C310.898 139.332 310.274 140.952 309.098 142.224ZM311.939 142.404L312.959 139.584H314.267L312.983 142.404H311.939ZM62.4671 153.576H57.9911C58.1471 154.476 58.9151 155.004 60.0311 155.004C60.8591 155.004 61.5551 154.752 62.0591 154.272H62.1191V155.532C61.6391 155.904 60.8711 156.12 59.9831 156.12C58.0151 156.12 56.6951 154.944 56.6951 153.192C56.6951 151.464 57.9071 150.252 59.6231 150.252C61.3631 150.252 62.4671 151.308 62.4671 152.952V153.576ZM59.6591 151.368C58.8551 151.368 58.1471 151.872 57.9911 152.628H61.2911C61.1831 151.86 60.5351 151.368 59.6591 151.368ZM66.6413 150.252C68.0453 150.252 68.8973 151.164 68.8973 152.7V156H67.6253V152.844C67.6253 151.92 67.1333 151.392 66.3173 151.392C65.4173 151.392 64.8773 152.004 64.8773 153.048V156H63.6053V150.372H64.6733L64.7213 151.236H64.7453C65.1053 150.6 65.7533 150.252 66.6413 150.252ZM75.8536 156H74.7976L74.7616 155.196H74.7376C74.3296 155.772 73.6216 156.12 72.7096 156.12C71.1016 156.12 69.9256 154.896 69.9256 153.192C69.9256 151.488 71.1016 150.252 72.7096 150.252C73.6216 150.252 74.3176 150.6 74.7256 151.176H74.7496L74.7976 150.372H75.8536V156ZM72.9136 154.98C73.9216 154.98 74.6176 154.236 74.6176 153.192C74.6176 152.124 73.9216 151.392 72.9136 151.392C71.9056 151.392 71.2096 152.124 71.2096 153.192C71.2096 154.236 71.9056 154.98 72.9136 154.98ZM80.4957 150.252C82.1037 150.252 83.2797 151.488 83.2797 153.192C83.2797 154.896 82.1037 156.12 80.4957 156.12C79.5717 156.12 78.8757 155.772 78.4677 155.196H78.4437L78.4077 156H77.3397V147.6H78.6117V150.972H78.6357C79.0557 150.516 79.6797 150.252 80.4957 150.252ZM80.2917 154.98C81.2877 154.98 81.9957 154.236 81.9957 153.192C81.9957 152.124 81.2877 151.392 80.2917 151.392C79.2837 151.392 78.5757 152.124 78.5757 153.192C78.5757 154.236 79.2837 154.98 80.2917 154.98ZM84.4295 156V147.6H85.7015V156H84.4295ZM87.8312 147.804C88.3232 147.804 88.6472 148.14 88.6472 148.62C88.6472 149.1 88.3232 149.424 87.8312 149.424C87.3512 149.424 87.0272 149.1 87.0272 148.62C87.0272 148.14 87.3512 147.804 87.8312 147.804ZM87.1952 150.372H88.4672V156H87.1952V150.372ZM93.0085 150.252C94.4125 150.252 95.2645 151.164 95.2645 152.7V156H93.9925V152.844C93.9925 151.92 93.5005 151.392 92.6845 151.392C91.7845 151.392 91.2445 152.004 91.2445 153.048V156H89.9725V150.372H91.0405L91.0885 151.236H91.1125C91.4725 150.6 92.1205 150.252 93.0085 150.252ZM102.221 150.372V155.544C102.221 157.32 101.069 158.4 99.1488 158.4C98.1768 158.4 97.3488 158.148 96.8328 157.716V156.396H96.8928C97.3368 156.936 98.1048 157.26 98.9928 157.26C100.253 157.26 100.949 156.612 100.949 155.472V155.34H100.925C100.505 155.784 99.8808 156.048 99.0768 156.048C97.4688 156.048 96.2928 154.86 96.2928 153.156C96.2928 151.452 97.4688 150.252 99.0768 150.252C99.9888 150.252 100.697 150.6 101.105 151.176H101.129L101.165 150.372H102.221ZM99.2808 154.908C100.289 154.908 100.985 154.212 100.985 153.156C100.985 152.088 100.289 151.392 99.2808 151.392C98.2728 151.392 97.5768 152.088 97.5768 153.156C97.5768 154.212 98.2728 154.908 99.2808 154.908ZM109.38 150.252C110.784 150.252 111.636 151.164 111.636 152.7V156H110.364V152.844C110.364 151.92 109.872 151.392 109.056 151.392C108.156 151.392 107.616 152.004 107.616 153.048V156H106.344V147.6H107.616V150.984H107.64C108.024 150.516 108.624 150.252 109.38 150.252ZM113.636 147.804C114.128 147.804 114.452 148.14 114.452 148.62C114.452 149.1 114.128 149.424 113.636 149.424C113.156 149.424 112.832 149.1 112.832 148.62C112.832 148.14 113.156 147.804 113.636 147.804ZM113 150.372H114.272V156H113V150.372ZM121.369 150.372V155.544C121.369 157.32 120.217 158.4 118.297 158.4C117.325 158.4 116.497 158.148 115.981 157.716V156.396H116.041C116.485 156.936 117.253 157.26 118.141 157.26C119.401 157.26 120.097 156.612 120.097 155.472V155.34H120.073C119.653 155.784 119.029 156.048 118.225 156.048C116.617 156.048 115.441 154.86 115.441 153.156C115.441 151.452 116.617 150.252 118.225 150.252C119.137 150.252 119.845 150.6 120.253 151.176H120.277L120.313 150.372H121.369ZM118.429 154.908C119.437 154.908 120.133 154.212 120.133 153.156C120.133 152.088 119.437 151.392 118.429 151.392C117.421 151.392 116.725 152.088 116.725 153.156C116.725 154.212 117.421 154.908 118.429 154.908ZM125.891 150.252C127.295 150.252 128.147 151.164 128.147 152.7V156H126.875V152.844C126.875 151.92 126.383 151.392 125.567 151.392C124.667 151.392 124.127 152.004 124.127 153.048V156H122.855V147.6H124.127V150.984H124.151C124.535 150.516 125.135 150.252 125.891 150.252ZM134.948 153.576H130.472C130.628 154.476 131.396 155.004 132.512 155.004C133.34 155.004 134.036 154.752 134.54 154.272H134.6V155.532C134.12 155.904 133.352 156.12 132.464 156.12C130.496 156.12 129.176 154.944 129.176 153.192C129.176 151.464 130.388 150.252 132.104 150.252C133.844 150.252 134.948 151.308 134.948 152.952V153.576ZM132.14 151.368C131.336 151.368 130.628 151.872 130.472 152.628H133.772C133.664 151.86 133.016 151.368 132.14 151.368ZM138.966 150.252C139.326 150.252 139.626 150.348 139.806 150.468V151.728H139.746C139.506 151.56 139.206 151.464 138.858 151.464C137.85 151.464 137.358 152.136 137.358 153.504V156H136.086V150.372H137.154L137.202 151.236H137.226C137.55 150.588 138.126 150.252 138.966 150.252ZM146.196 150.252C146.556 150.252 146.856 150.348 147.036 150.468V151.728H146.976C146.736 151.56 146.436 151.464 146.088 151.464C145.08 151.464 144.588 152.136 144.588 153.504V156H143.316V150.372H144.384L144.432 151.236H144.456C144.78 150.588 145.356 150.252 146.196 150.252ZM153.252 153.576H148.776C148.932 154.476 149.7 155.004 150.816 155.004C151.644 155.004 152.34 154.752 152.844 154.272H152.904V155.532C152.424 155.904 151.656 156.12 150.768 156.12C148.8 156.12 147.48 154.944 147.48 153.192C147.48 151.464 148.692 150.252 150.408 150.252C152.148 150.252 153.252 151.308 153.252 152.952V153.576ZM150.444 151.368C149.64 151.368 148.932 151.872 148.776 152.628H152.076C151.968 151.86 151.32 151.368 150.444 151.368ZM157.763 154.656V155.916C157.499 156.048 157.151 156.12 156.707 156.12C155.435 156.12 154.751 155.4 154.751 154.068V151.476H153.755V150.372H154.787L154.967 148.824H156.023V150.372H157.739V151.476H156.023V154.02C156.023 154.632 156.347 154.992 156.899 154.992C157.199 154.992 157.475 154.908 157.703 154.656H157.763ZM164.074 156H163.006L162.958 155.148H162.934C162.574 155.772 161.938 156.12 161.05 156.12C159.634 156.12 158.794 155.208 158.794 153.672V150.372H160.066V153.528C160.066 154.44 160.546 154.98 161.374 154.98C162.274 154.98 162.802 154.356 162.802 153.324V150.372H164.074V156ZM168.45 150.252C168.81 150.252 169.11 150.348 169.29 150.468V151.728H169.23C168.99 151.56 168.69 151.464 168.342 151.464C167.334 151.464 166.842 152.136 166.842 153.504V156H165.57V150.372H166.638L166.686 151.236H166.71C167.034 150.588 167.61 150.252 168.45 150.252ZM173.2 150.252C174.604 150.252 175.456 151.164 175.456 152.7V156H174.184V152.844C174.184 151.92 173.692 151.392 172.876 151.392C171.976 151.392 171.436 152.004 171.436 153.048V156H170.164V150.372H171.232L171.28 151.236H171.304C171.664 150.6 172.312 150.252 173.2 150.252ZM178.8 150.252C179.532 150.252 180.192 150.396 180.6 150.66V151.968H180.54C180.156 151.572 179.568 151.368 178.836 151.368C178.224 151.368 177.792 151.644 177.792 152.04C177.792 152.364 178.044 152.508 178.872 152.556C180.372 152.64 180.96 153.192 180.96 154.332C180.96 155.436 180.108 156.12 178.704 156.12C177.768 156.12 177.036 155.928 176.568 155.568V154.236H176.628C177.096 154.74 177.78 155.004 178.644 155.004C179.304 155.004 179.712 154.74 179.712 154.332C179.712 153.96 179.46 153.792 178.548 153.72C177.084 153.6 176.544 153.144 176.544 152.076C176.544 150.972 177.444 150.252 178.8 150.252ZM191.056 156H189.808L188.512 152.208H188.488L187.18 156H185.956L184.012 150.372H185.368L186.604 154.368H186.628L188.02 150.372H189.04L190.432 154.368H190.456L191.692 150.372H192.988L191.056 156ZM194.448 147.804C194.94 147.804 195.264 148.14 195.264 148.62C195.264 149.1 194.94 149.424 194.448 149.424C193.968 149.424 193.644 149.1 193.644 148.62C193.644 148.14 193.968 147.804 194.448 147.804ZM193.812 150.372H195.084V156H193.812V150.372ZM199.998 154.656V155.916C199.734 156.048 199.386 156.12 198.942 156.12C197.67 156.12 196.986 155.4 196.986 154.068V151.476H195.99V150.372H197.022L197.202 148.824H198.258V150.372H199.974V151.476H198.258V154.02C198.258 154.632 198.582 154.992 199.134 154.992C199.434 154.992 199.71 154.908 199.938 154.656H199.998ZM204.184 150.252C205.588 150.252 206.44 151.164 206.44 152.7V156H205.168V152.844C205.168 151.92 204.676 151.392 203.86 151.392C202.96 151.392 202.42 152.004 202.42 153.048V156H201.148V147.6H202.42V150.984H202.444C202.828 150.516 203.428 150.252 204.184 150.252ZM210.441 156V147.6H211.713V156H210.441ZM215.859 150.252C217.611 150.252 218.859 151.464 218.859 153.192C218.859 154.908 217.611 156.12 215.859 156.12C214.107 156.12 212.871 154.908 212.871 153.192C212.871 151.464 214.107 150.252 215.859 150.252ZM215.859 151.392C214.851 151.392 214.155 152.124 214.155 153.192C214.155 154.236 214.851 154.98 215.859 154.98C216.879 154.98 217.575 154.236 217.575 153.192C217.575 152.124 216.879 151.392 215.859 151.392ZM226.259 156H225.011L223.715 152.208H223.691L222.383 156H221.159L219.215 150.372H220.571L221.807 154.368H221.831L223.223 150.372H224.243L225.635 154.368H225.659L226.895 150.372H228.191L226.259 156ZM234.311 153.576H229.835C229.991 154.476 230.759 155.004 231.875 155.004C232.703 155.004 233.399 154.752 233.903 154.272H233.963V155.532C233.483 155.904 232.715 156.12 231.827 156.12C229.859 156.12 228.539 154.944 228.539 153.192C228.539 151.464 229.751 150.252 231.467 150.252C233.207 150.252 234.311 151.308 234.311 152.952V153.576ZM231.503 151.368C230.699 151.368 229.991 151.872 229.835 152.628H233.135C233.027 151.86 232.379 151.368 231.503 151.368ZM238.329 150.252C238.689 150.252 238.989 150.348 239.169 150.468V151.728H239.109C238.869 151.56 238.569 151.464 238.221 151.464C237.213 151.464 236.721 152.136 236.721 153.504V156H235.449V150.372H236.517L236.565 151.236H236.589C236.913 150.588 237.489 150.252 238.329 150.252ZM245.392 150.252C246.172 150.252 246.748 150.42 247.192 150.744V152.124H247.132C246.736 151.62 246.196 151.392 245.512 151.392C244.348 151.392 243.628 152.112 243.628 153.192C243.628 154.248 244.348 154.98 245.512 154.98C246.208 154.98 246.748 154.728 247.132 154.236H247.192V155.64C246.772 155.964 246.172 156.12 245.392 156.12C243.556 156.12 242.344 154.908 242.344 153.192C242.344 151.464 243.556 150.252 245.392 150.252ZM251.121 150.252C252.873 150.252 254.121 151.464 254.121 153.192C254.121 154.908 252.873 156.12 251.121 156.12C249.369 156.12 248.133 154.908 248.133 153.192C248.133 151.464 249.369 150.252 251.121 150.252ZM251.121 151.392C250.113 151.392 249.417 152.124 249.417 153.192C249.417 154.236 250.113 154.98 251.121 154.98C252.141 154.98 252.837 154.236 252.837 153.192C252.837 152.124 252.141 151.392 251.121 151.392ZM255.277 156V147.6H256.549V156H255.277ZM258.043 156V147.6H259.315V156H258.043ZM266.4 156H265.344L265.308 155.196H265.284C264.876 155.772 264.168 156.12 263.256 156.12C261.648 156.12 260.472 154.896 260.472 153.192C260.472 151.488 261.648 150.252 263.256 150.252C264.168 150.252 264.864 150.6 265.272 151.176H265.296L265.344 150.372H266.4V156ZM263.46 154.98C264.468 154.98 265.164 154.236 265.164 153.192C265.164 152.124 264.468 151.392 263.46 151.392C262.452 151.392 261.756 152.124 261.756 153.192C261.756 154.236 262.452 154.98 263.46 154.98ZM271.295 154.656V155.916C271.031 156.048 270.683 156.12 270.239 156.12C268.967 156.12 268.283 155.4 268.283 154.068V151.476H267.287V150.372H268.319L268.499 148.824H269.555V150.372H271.271V151.476H269.555V154.02C269.555 154.632 269.879 154.992 270.431 154.992C270.731 154.992 271.007 154.908 271.235 154.656H271.295ZM277.834 153.576H273.358C273.514 154.476 274.282 155.004 275.398 155.004C276.226 155.004 276.922 154.752 277.426 154.272H277.486V155.532C277.006 155.904 276.238 156.12 275.35 156.12C273.382 156.12 272.062 154.944 272.062 153.192C272.062 151.464 273.274 150.252 274.99 150.252C276.73 150.252 277.834 151.308 277.834 152.952V153.576ZM275.026 151.368C274.222 151.368 273.514 151.872 273.358 152.628H276.658C276.55 151.86 275.902 151.368 275.026 151.368ZM281.853 150.252C282.213 150.252 282.513 150.348 282.693 150.468V151.728H282.633C282.393 151.56 282.093 151.464 281.745 151.464C280.737 151.464 280.245 152.136 280.245 153.504V156H278.973V150.372H280.041L280.089 151.236H280.113C280.437 150.588 281.013 150.252 281.853 150.252ZM289.065 156H288.009L287.973 155.196H287.949C287.541 155.772 286.833 156.12 285.921 156.12C284.313 156.12 283.137 154.896 283.137 153.192C283.137 151.488 284.313 150.252 285.921 150.252C286.833 150.252 287.529 150.6 287.937 151.176H287.961L288.009 150.372H289.065V156ZM286.125 154.98C287.133 154.98 287.829 154.236 287.829 153.192C287.829 152.124 287.133 151.392 286.125 151.392C285.117 151.392 284.421 152.124 284.421 153.192C284.421 154.236 285.117 154.98 286.125 154.98ZM290.551 156V147.6H291.823V156H290.551ZM294.144 154.464C294.624 154.464 294.972 154.824 294.972 155.292C294.972 155.76 294.624 156.12 294.144 156.12C293.676 156.12 293.316 155.76 293.316 155.292C293.316 154.824 293.676 154.464 294.144 154.464Z" fill="#808080" />
            </svg>