<svg width="234" height="152" viewBox="0 0 234 152" fill="none" xmlns="http://www.w3.org/2000/svg">
<rect width="234" height="152" rx="6" fill="#171717"/>
<path d="M1 33.3799H233" stroke="#63E073" stroke-width="1.2" stroke-dasharray="3.2 3.2"/>
<path d="M8 120.8H226" stroke="#E03F3F" stroke-width="1.2" stroke-dasharray="3.2 3.2"/>
<path d="M27.62 120H0V82H45.12L27.62 120Z" fill="url(#paint0_linear_8147_1564)"/>
<path d="M206.62 120H234V82H189.12L206.62 120Z" fill="url(#paint1_linear_8147_1564)"/>
<path d="M230.12 120H205.756L188.694 82.375" stroke="#E03F3F" stroke-width="3"/>
<path d="M4.07387 120H28.4375L45.5 82.375" stroke="#E03F3F" stroke-width="3"/>
<path d="M166.757 34H67.4839L45.5464 82.375H188.694L166.757 34Z" fill="url(#paint2_linear_8147_1564)"/>
<path d="M45.5464 82.375L67.4839 34H166.757L188.694 82.375" stroke="#63E073" stroke-width="3"/>
<path d="M1 82.0535H233" stroke="#292929" stroke-width="1.6"/>
<path d="M99.6571 25H98.3371V19.115H98.3151L95.8511 25H94.6521L92.2431 19.225H92.2211V25H90.9451V17.696H92.9251L95.2681 23.273H95.2901L97.6331 17.696H99.6571V25ZM106.294 25H105.326L105.293 24.263H105.271C104.897 24.791 104.248 25.11 103.412 25.11C101.938 25.11 100.86 23.988 100.86 22.426C100.86 20.864 101.938 19.731 103.412 19.731C104.248 19.731 104.886 20.05 105.26 20.578H105.282L105.326 19.841H106.294V25ZM103.599 24.065C104.523 24.065 105.161 23.383 105.161 22.426C105.161 21.447 104.523 20.776 103.599 20.776C102.675 20.776 102.037 21.447 102.037 22.426C102.037 23.383 102.675 24.065 103.599 24.065ZM108.515 25H107.151L109.164 22.349L107.261 19.841H108.68L109.945 21.623L111.199 19.841H112.563L110.671 22.349L112.673 25H111.254L109.89 23.064L108.515 25ZM116.093 17.696H119.272C121.043 17.696 121.956 18.499 121.956 20.061C121.956 21.612 121.043 22.415 119.272 22.415H117.413V25H116.093V17.696ZM117.413 21.238H119.217C120.174 21.238 120.625 20.853 120.625 20.061C120.625 19.258 120.174 18.873 119.217 18.873H117.413V21.238ZM125.593 19.731C125.923 19.731 126.198 19.819 126.363 19.929V21.084H126.308C126.088 20.93 125.813 20.842 125.494 20.842C124.57 20.842 124.119 21.458 124.119 22.712V25H122.953V19.841H123.932L123.976 20.633H123.998C124.295 20.039 124.823 19.731 125.593 19.731ZM129.509 19.731C131.115 19.731 132.259 20.842 132.259 22.426C132.259 23.999 131.115 25.11 129.509 25.11C127.903 25.11 126.77 23.999 126.77 22.426C126.77 20.842 127.903 19.731 129.509 19.731ZM129.509 20.776C128.585 20.776 127.947 21.447 127.947 22.426C127.947 23.383 128.585 24.065 129.509 24.065C130.444 24.065 131.082 23.383 131.082 22.426C131.082 21.447 130.444 20.776 129.509 20.776ZM138.217 25H137.051V20.853H134.763V25H133.597V20.853H132.684V19.841H133.597V19.104C133.597 17.883 134.246 17.19 135.379 17.19C135.775 17.19 136.127 17.256 136.369 17.377V18.466H136.314C136.094 18.312 135.786 18.235 135.555 18.235C135.06 18.235 134.763 18.565 134.763 19.148V19.841H138.217V25ZM137.634 18.972C137.194 18.972 136.897 18.675 136.897 18.235C136.897 17.795 137.194 17.487 137.634 17.487C138.085 17.487 138.382 17.795 138.382 18.235C138.382 18.675 138.085 18.972 137.634 18.972ZM142.717 23.768V24.923C142.475 25.044 142.156 25.11 141.749 25.11C140.583 25.11 139.956 24.45 139.956 23.229V20.853H139.043V19.841H139.989L140.154 18.422H141.122V19.841H142.695V20.853H141.122V23.185C141.122 23.746 141.419 24.076 141.925 24.076C142.2 24.076 142.453 23.999 142.662 23.768H142.717Z" fill="#63E073"/>
<path d="M102.657 135H101.337V129.115H101.315L98.8511 135H97.6521L95.2431 129.225H95.2211V135H93.9451V127.696H95.9251L98.2681 133.273H98.2901L100.633 127.696H102.657V135ZM109.294 135H108.326L108.293 134.263H108.271C107.897 134.791 107.248 135.11 106.412 135.11C104.938 135.11 103.86 133.988 103.86 132.426C103.86 130.864 104.938 129.731 106.412 129.731C107.248 129.731 107.886 130.05 108.26 130.578H108.282L108.326 129.841H109.294V135ZM106.599 134.065C107.523 134.065 108.161 133.383 108.161 132.426C108.161 131.447 107.523 130.776 106.599 130.776C105.675 130.776 105.037 131.447 105.037 132.426C105.037 133.383 105.675 134.065 106.599 134.065ZM111.515 135H110.151L112.164 132.349L110.261 129.841H111.68L112.945 131.623L114.199 129.841H115.563L113.671 132.349L115.673 135H114.254L112.89 133.064L111.515 135ZM124.34 135H119.093V127.696H120.413V133.823H124.34V135ZM127.783 129.731C129.389 129.731 130.533 130.842 130.533 132.426C130.533 133.999 129.389 135.11 127.783 135.11C126.177 135.11 125.044 133.999 125.044 132.426C125.044 130.842 126.177 129.731 127.783 129.731ZM127.783 130.776C126.859 130.776 126.221 131.447 126.221 132.426C126.221 133.383 126.859 134.065 127.783 134.065C128.718 134.065 129.356 133.383 129.356 132.426C129.356 131.447 128.718 130.776 127.783 130.776ZM133.408 129.731C134.079 129.731 134.684 129.863 135.058 130.105V131.304H135.003C134.651 130.941 134.112 130.754 133.441 130.754C132.88 130.754 132.484 131.007 132.484 131.37C132.484 131.667 132.715 131.799 133.474 131.843C134.849 131.92 135.388 132.426 135.388 133.471C135.388 134.483 134.607 135.11 133.32 135.11C132.462 135.11 131.791 134.934 131.362 134.604V133.383H131.417C131.846 133.845 132.473 134.087 133.265 134.087C133.87 134.087 134.244 133.845 134.244 133.471C134.244 133.13 134.013 132.976 133.177 132.91C131.835 132.8 131.34 132.382 131.34 131.403C131.34 130.391 132.165 129.731 133.408 129.731ZM138.145 129.731C138.816 129.731 139.421 129.863 139.795 130.105V131.304H139.74C139.388 130.941 138.849 130.754 138.178 130.754C137.617 130.754 137.221 131.007 137.221 131.37C137.221 131.667 137.452 131.799 138.211 131.843C139.586 131.92 140.125 132.426 140.125 133.471C140.125 134.483 139.344 135.11 138.057 135.11C137.199 135.11 136.528 134.934 136.099 134.604V133.383H136.154C136.583 133.845 137.21 134.087 138.002 134.087C138.607 134.087 138.981 133.845 138.981 133.471C138.981 133.13 138.75 132.976 137.914 132.91C136.572 132.8 136.077 132.382 136.077 131.403C136.077 130.391 136.902 129.731 138.145 129.731Z" fill="#E03F3F"/>
<path d="M0.120117 120L9.12012 114.804L9.12012 125.196L0.120117 120Z" fill="#E03F3F"/>
<path d="M234 120L225 114.804L225 125.196L234 120Z" fill="#E03F3F"/>
<defs>
<linearGradient id="paint0_linear_8147_1564" x1="117.12" y1="120" x2="117.12" y2="82" gradientUnits="userSpaceOnUse">
<stop stop-color="#E03F3F" stop-opacity="0.5"/>
<stop offset="1" stop-color="#E03F3F" stop-opacity="0"/>
</linearGradient>
<linearGradient id="paint1_linear_8147_1564" x1="117.12" y1="120" x2="117.12" y2="82" gradientUnits="userSpaceOnUse">
<stop stop-color="#E03F3F" stop-opacity="0.5"/>
<stop offset="1" stop-color="#E03F3F" stop-opacity="0"/>
</linearGradient>
<linearGradient id="paint2_linear_8147_1564" x1="117.12" y1="34" x2="117.12" y2="82.375" gradientUnits="userSpaceOnUse">
<stop stop-color="#63E073" stop-opacity="0.5"/>
<stop offset="1" stop-color="#63E073" stop-opacity="0"/>
</linearGradient>
</defs>
</svg>
