<svg width="352" height="200" viewBox="0 0 352 200" fill="none" xmlns="http://www.w3.org/2000/svg">
              <rect width="352" height="200" rx="6" fill="#171717" />
              <path d="M226.809 100.809V106H225.191V100.809H220V99.1915H225.191V94H226.809V99.1915H232V100.809H226.809Z" fill="#E0E0E0" />
              <path opacity="0.9" d="M178 100C178 100 113.823 154 64 154C34.1766 154 10 129.823 10 100C10 70.1766 34.1766 46 64 46C113.823 46 178 100 178 100Z" fill="white" fill-opacity="0.04" />
              <path opacity="0.9" d="M46 100C46 100 110.177 154 160 154C189.823 154 214 129.823 214 100C214 70.1766 189.823 46 160 46C110.177 46 46 100 46 100Z" fill="white" fill-opacity="0.04" />
              <circle opacity="0.9" cx="64" cy="100" r="48" fill="#2B1E17" stroke="#DA5D19" stroke-width="0.6" stroke-dasharray="2 2" />
              <circle opacity="0.8" cx="288" cy="100" r="48" fill="#2C2E23" stroke="#E6FC8D" stroke-width="0.6" stroke-dasharray="2 2" />
              <circle opacity="0.9" cx="160" cy="100" r="48" fill="#251A22" stroke="url(#paint0_linear_8147_1526)" stroke-width="0.6" stroke-dasharray="2 2" />
              <path d="M59.964 99.92V99.944C60.864 100.22 61.332 100.844 61.332 101.804C61.332 103.256 60.372 104 58.536 104H54.9V96.032H58.236C60.084 96.032 61.044 96.764 61.044 98.192C61.044 99.02 60.684 99.608 59.964 99.92ZM56.34 99.356H58.128C59.124 99.356 59.604 99.02 59.604 98.324C59.604 97.64 59.148 97.316 58.224 97.316H56.34V99.356ZM56.34 102.716H58.5C59.412 102.716 59.88 102.38 59.88 101.672C59.88 100.964 59.4 100.604 58.416 100.604H56.34V102.716ZM64.0509 99.368H67.6389V100.616H64.0509V102.716H68.5029V104H62.6109V96.032H68.5029V97.316H64.0509V99.368ZM71.422 104H69.982V96.032H73.51C75.442 96.032 76.438 96.896 76.438 98.564C76.438 99.848 75.838 100.652 74.674 100.952L76.678 104H74.974L73.198 101.084H71.422V104ZM71.422 99.8H73.462C74.494 99.8 74.986 99.392 74.986 98.564C74.986 97.724 74.494 97.316 73.462 97.316H71.422V99.8ZM77.9508 96.032H81.4188C83.3508 96.032 84.3468 96.908 84.3468 98.612C84.3468 100.304 83.3508 101.18 81.4188 101.18H79.3908V104H77.9508V96.032ZM79.3908 99.896H81.3588C82.4028 99.896 82.8948 99.476 82.8948 98.612C82.8948 97.736 82.4028 97.316 81.3588 97.316H79.3908V99.896ZM88.3274 95.912C89.3714 95.912 90.3434 96.164 90.8594 96.548V98.072H90.7874C90.2714 97.52 89.3594 97.196 88.3034 97.196C87.2954 97.196 86.6474 97.628 86.6474 98.3C86.6474 98.864 87.0674 99.152 88.4114 99.284C90.5354 99.5 91.3154 100.232 91.3154 101.696C91.3154 103.22 90.1634 104.12 88.1954 104.12C86.8874 104.12 85.8554 103.856 85.2074 103.364V101.828H85.2794C85.9994 102.488 86.9954 102.836 88.1594 102.836C89.2634 102.836 89.8874 102.44 89.8874 101.732C89.8874 101.12 89.4554 100.832 88.0394 100.676C85.9634 100.448 85.2194 99.776 85.2194 98.384C85.2194 96.848 86.4074 95.912 88.3274 95.912Z" fill="white" />
              <mask id="mask0_8147_1526" maskUnits="userSpaceOnUse" x="36" y="92" width="16" height="16">
                <circle cx="44" cy="100" r="8" fill="white" />
              </mask>
              <g mask="url(#mask0_8147_1526)">
                <path d="M48 92H40C37.7909 92 36 93.7909 36 96V104C36 106.209 37.7909 108 40 108H48C50.2091 108 52 106.209 52 104V96C52 93.7909 50.2091 92 48 92Z" fill="#760A0A" />
                <path d="M47.0399 97.6L42.2799 102.36L39.48 99.56L35.84 103.2" stroke="#FFCECE" stroke-width="1.39627" stroke-linecap="round" stroke-linejoin="round" />
                <path d="M43.6799 97.6H47.0399V100.96" stroke="#FFCECE" stroke-width="1.39627" stroke-linecap="round" stroke-linejoin="round" />
              </g>
              <g clip-path="url(#clip0_8147_1526)">
                <path d="M130.942 93.0585C125.266 93.0585 124.05 94.2743 124.05 99.9507C124.05 105.627 125.266 106.843 130.942 106.843C136.619 106.843 137.834 105.627 137.834 99.9507C137.834 94.2743 136.619 93.0585 130.942 93.0585ZM127.958 94.9728C127.958 94.8406 128.011 94.7139 128.104 94.6205C128.198 94.5271 128.324 94.4746 128.456 94.4745H129.453C129.586 94.4746 129.712 94.5271 129.806 94.6205C129.899 94.7139 129.952 94.8406 129.952 94.9728V95.9654C129.952 96.0975 130.004 96.2242 130.098 96.3176C130.191 96.4111 130.318 96.4636 130.45 96.4637H131.436C131.568 96.4636 131.695 96.4111 131.788 96.3177C131.882 96.2242 131.934 96.0975 131.934 95.9654V94.9728C131.935 94.8406 131.987 94.7139 132.08 94.6205C132.174 94.5271 132.301 94.4746 132.433 94.4745H133.429C133.561 94.4746 133.688 94.5271 133.781 94.6205C133.875 94.7139 133.927 94.8406 133.928 94.9728V95.9697C133.927 96.1019 133.875 96.2286 133.781 96.322C133.688 96.4154 133.561 96.4679 133.429 96.468H132.437C132.305 96.468 132.178 96.5205 132.084 96.614C131.991 96.7074 131.938 96.8342 131.938 96.9663V97.9589C131.938 98.091 131.886 98.2177 131.792 98.3112C131.699 98.4046 131.572 98.4571 131.44 98.4572H130.443C130.311 98.4571 130.184 98.4046 130.091 98.3112C129.997 98.2178 129.945 98.0911 129.945 97.959V96.9662C129.945 96.8341 129.892 96.7073 129.799 96.6139C129.705 96.5204 129.579 96.4679 129.447 96.4679H128.454C128.322 96.4678 128.195 96.4153 128.102 96.3219C128.008 96.2284 127.956 96.1018 127.956 95.9696V94.9728H127.958ZM127.46 101.45V102.443C127.46 102.575 127.407 102.701 127.314 102.795C127.22 102.888 127.094 102.941 126.962 102.941H125.965C125.832 102.941 125.706 102.888 125.612 102.795C125.519 102.701 125.466 102.575 125.466 102.443V101.445C125.466 101.313 125.519 101.187 125.612 101.093C125.706 101 125.833 100.947 125.965 100.947H126.957C127.089 100.947 127.216 100.895 127.31 100.801C127.403 100.708 127.456 100.581 127.456 100.449V99.4628C127.456 99.3307 127.403 99.204 127.31 99.1106C127.216 99.0172 127.089 98.9647 126.957 98.9646H125.965C125.833 98.9645 125.706 98.912 125.612 98.8186C125.519 98.7252 125.466 98.5985 125.466 98.4663V97.4693C125.466 97.3371 125.519 97.2104 125.612 97.117C125.706 97.0236 125.833 96.9711 125.965 96.971H126.962C127.094 96.9711 127.22 97.0236 127.314 97.1171C127.407 97.2105 127.46 97.3372 127.46 97.4694V98.4618C127.46 98.594 127.512 98.7207 127.606 98.8141C127.699 98.9076 127.826 98.9601 127.958 98.9602H128.951C129.083 98.9602 129.21 99.0128 129.303 99.1062C129.396 99.1996 129.449 99.3263 129.449 99.4584V100.455C129.449 100.587 129.396 100.714 129.303 100.807C129.21 100.901 129.083 100.953 128.951 100.953H127.958C127.826 100.953 127.699 101.006 127.606 101.099C127.513 101.193 127.46 101.319 127.46 101.452V101.449V101.45ZM133.931 104.934C133.931 105.066 133.878 105.193 133.785 105.287C133.691 105.38 133.564 105.433 133.432 105.433H132.435C132.303 105.433 132.176 105.38 132.083 105.287C131.99 105.193 131.937 105.066 131.937 104.934V103.942C131.937 103.81 131.884 103.683 131.791 103.589C131.698 103.496 131.571 103.443 131.439 103.443H130.453C130.32 103.444 130.194 103.496 130.1 103.589C130.007 103.683 129.954 103.81 129.954 103.942V104.934C129.954 105.066 129.902 105.193 129.808 105.287C129.715 105.38 129.588 105.433 129.456 105.433H128.459C128.327 105.433 128.2 105.38 128.107 105.287C128.013 105.193 127.961 105.066 127.961 104.934V103.937C127.961 103.805 128.013 103.679 128.107 103.585C128.2 103.492 128.327 103.439 128.459 103.439H129.452C129.584 103.439 129.711 103.387 129.804 103.293C129.897 103.2 129.95 103.073 129.95 102.941V101.948C129.95 101.816 130.003 101.689 130.096 101.596C130.189 101.502 130.316 101.45 130.448 101.45H131.445C131.577 101.45 131.704 101.502 131.798 101.596C131.891 101.689 131.943 101.816 131.944 101.948V102.941C131.944 103.073 131.996 103.2 132.09 103.293C132.183 103.387 132.31 103.439 132.442 103.439H133.434C133.567 103.439 133.693 103.492 133.787 103.585C133.88 103.679 133.933 103.805 133.933 103.937V104.934H133.931ZM136.422 98.4637C136.422 98.5959 136.37 98.7226 136.276 98.816C136.183 98.9094 136.056 98.9619 135.924 98.962H134.931C134.799 98.9621 134.673 99.0146 134.579 99.108C134.486 99.2014 134.433 99.3281 134.433 99.4602V100.447C134.433 100.579 134.486 100.706 134.579 100.799C134.673 100.892 134.799 100.945 134.931 100.945H135.924C136.056 100.945 136.183 100.998 136.276 101.091C136.37 101.185 136.422 101.311 136.422 101.443V102.44C136.422 102.573 136.37 102.699 136.276 102.793C136.183 102.886 136.056 102.939 135.924 102.939H134.927C134.795 102.939 134.669 102.886 134.575 102.793C134.482 102.699 134.429 102.572 134.429 102.44V101.448C134.429 101.316 134.377 101.189 134.283 101.095C134.19 101.002 134.063 100.949 133.931 100.949H132.938C132.806 100.949 132.68 100.897 132.586 100.803C132.493 100.71 132.44 100.583 132.44 100.451V99.4541C132.44 99.322 132.493 99.1953 132.586 99.1019C132.68 99.0085 132.806 98.956 132.938 98.956H133.931C134.063 98.9559 134.19 98.9033 134.283 98.8099C134.377 98.7165 134.429 98.5897 134.429 98.4576V97.4649C134.429 97.3328 134.482 97.2061 134.575 97.1127C134.669 97.0193 134.795 96.9668 134.927 96.9667H135.924C136.056 96.9668 136.183 97.0193 136.276 97.1127C136.37 97.2061 136.422 97.3328 136.422 97.4649V98.4637Z" fill="url(#paint1_linear_8147_1526)" />
                <path d="M171.712 96.1258C171.769 95.7839 171.864 95.5297 172.002 95.3606C172.14 95.1916 172.325 95.073 172.561 95.0019L172.515 94.9412H168.584L168.553 95.0019C168.758 95.0435 168.922 95.1353 169.05 95.277C169.177 95.4208 169.248 95.5981 169.265 95.813C169.279 96.0279 169.227 96.2571 169.104 96.501L165.617 103.274C165.423 103.651 165.255 103.948 165.112 104.16C164.969 104.375 164.827 104.54 164.685 104.657C164.541 104.773 164.368 104.878 164.166 104.97L164.212 105.03H166.291L166.322 104.97C165.995 104.838 165.807 104.6 165.757 104.259C165.705 103.917 165.834 103.451 166.139 102.859L166.658 101.85H169.961V102.461C169.961 103.043 169.932 103.504 169.878 103.846C169.822 104.188 169.726 104.442 169.588 104.611C169.45 104.78 169.265 104.899 169.029 104.97L169.075 105.03H172.516L172.562 104.97C172.326 104.899 172.141 104.778 172.003 104.611C171.865 104.442 171.767 104.188 171.713 103.846C171.657 103.504 171.63 103.043 171.63 102.461V97.5066C171.63 96.9247 171.657 96.4642 171.713 96.122V96.1263L171.712 96.1258ZM166.764 101.639L169.783 95.7397C169.821 95.8524 169.852 95.9815 169.877 96.1254C169.934 96.4672 169.961 96.9282 169.961 97.5102V101.639H166.764V101.639ZM164.486 103.23C164.486 103.591 164.53 103.91 164.616 104.19C164.674 104.121 164.732 104.041 164.793 103.952C164.926 103.752 165.089 103.464 165.275 103.103L166.126 101.449C166.061 101.249 165.975 101.067 165.869 100.907C165.64 100.561 165.312 100.298 164.891 100.119C164.468 99.9417 163.936 99.8352 163.294 99.8061V99.7749C163.946 99.7749 164.501 99.6601 164.96 99.4309C165.419 99.2017 165.767 98.895 166.007 98.5132C166.247 98.1314 166.365 97.7164 166.365 97.2662C166.365 96.8593 166.259 96.4781 166.044 96.1275C165.83 95.7753 165.521 95.4915 165.119 95.2704C164.716 95.0517 164.228 94.9412 163.659 94.9412H159.515L159.469 95.0019C159.713 95.0729 159.905 95.1938 160.043 95.3606C160.18 95.5275 160.274 95.7861 160.326 96.1323C160.377 96.4784 160.404 96.9434 160.404 97.5231V102.447C160.404 103.028 160.378 103.489 160.326 103.831C160.274 104.173 160.18 104.43 160.043 104.603C159.905 104.776 159.713 104.899 159.469 104.97L159.515 105.03H162.85L162.896 104.97C162.681 104.899 162.514 104.776 162.391 104.603C162.268 104.43 162.185 104.174 162.139 103.831C162.093 103.489 162.07 103.028 162.07 102.447V99.8919H162.712C163.263 99.8919 163.697 100.063 164.011 100.405C164.326 100.747 164.484 101.239 164.484 101.881V103.226L164.486 103.23ZM162.666 99.683H162.07V95.1557H162.726C163.125 95.1557 163.458 95.2558 163.727 95.4538C163.996 95.6519 164.203 95.9187 164.346 96.2484C164.488 96.5798 164.561 96.9556 164.561 97.3723C164.561 97.7891 164.49 98.1605 164.346 98.511C164.203 98.8633 163.992 99.1449 163.713 99.3598C163.431 99.5747 163.083 99.6809 162.666 99.6809V99.683ZM143.087 96.1254C143.143 95.7835 143.239 95.5292 143.376 95.3602C143.514 95.1911 143.7 95.0725 143.935 95.0014L143.889 94.9408H140.449L140.403 95.0014C140.647 95.0725 140.839 95.1933 140.976 95.3602C141.114 95.5292 141.21 95.7835 141.266 96.1254C141.322 96.4673 141.349 96.9282 141.349 97.5102V102.465C141.349 103.047 141.32 103.507 141.266 103.85C141.21 104.191 141.114 104.446 140.976 104.615C140.838 104.784 140.647 104.902 140.403 104.973L140.449 105.034H143.889L143.935 104.973C143.7 104.902 143.514 104.782 143.376 104.615C143.239 104.448 143.141 104.191 143.087 103.85C143.03 103.508 143.003 103.047 143.003 102.465V97.5101C143.003 96.9282 143.031 96.4677 143.087 96.1254ZM150.295 94.9408L150.25 95.0014C150.494 95.0725 150.686 95.1933 150.823 95.3602C150.961 95.5292 151.056 95.7835 151.113 96.1254C151.169 96.4672 151.196 96.9282 151.196 97.5102V101.975L146.502 94.9408H144.469L144.423 95.0014C144.667 95.0725 144.859 95.1933 144.996 95.3602C145.134 95.527 145.23 95.7753 145.286 96.1024C145.343 96.43 145.369 96.8572 145.369 97.3871V102.755C145.369 103.245 145.336 103.645 145.269 103.956C145.203 104.266 145.103 104.502 144.971 104.658C144.838 104.817 144.655 104.921 144.421 104.971L144.467 105.032H146.546L146.592 104.971C146.367 104.921 146.187 104.817 146.05 104.658C145.912 104.5 145.81 104.266 145.743 103.956C145.676 103.645 145.643 103.245 145.643 102.755V96.8676L151.392 105.232H151.484V97.5102C151.484 96.9282 151.511 96.4677 151.567 96.1254C151.624 95.7835 151.719 95.5292 151.857 95.3602C151.995 95.1911 152.18 95.0725 152.416 95.0014L152.37 94.9408H150.291H150.295ZM152.956 94.9408L152.91 95.0014C153.154 95.0725 153.346 95.1933 153.484 95.3602C153.621 95.5292 153.717 95.7835 153.773 96.1254C153.83 96.4673 153.857 96.9282 153.857 97.5102V102.465C153.857 103.047 153.828 103.507 153.773 103.85C153.717 104.191 153.621 104.446 153.484 104.615C153.346 104.784 153.154 104.902 152.91 104.973L152.956 105.034H156.397L156.443 104.973C156.207 104.902 156.022 104.782 155.884 104.615C155.746 104.448 155.648 104.191 155.594 103.85C155.538 103.508 155.51 103.047 155.51 102.465V100.14H156.368C156.866 100.14 157.241 100.273 157.491 100.538C157.742 100.803 157.938 101.195 158.079 101.716L158.14 101.656V98.4131L158.079 98.3671C157.936 98.8862 157.735 99.2762 157.475 99.537C157.214 99.7978 156.845 99.927 156.365 99.927H155.508V95.1557H156.334C156.832 95.1557 157.266 95.2372 157.634 95.3997C158.001 95.5621 158.32 95.8042 158.589 96.1254C158.858 96.4465 159.096 96.8468 159.3 97.3264L159.377 97.2805L158.918 94.9408H152.954H152.956ZM180.377 104.69C180.254 104.552 180.159 104.346 180.093 104.07C180.026 103.795 179.978 103.434 179.947 102.984L179.886 102.235C179.845 101.695 179.711 101.251 179.481 100.905C179.252 100.559 178.925 100.296 178.503 100.117C178.08 99.9395 177.549 99.833 176.906 99.8039V99.7728C177.558 99.7728 178.114 99.6579 178.572 99.4287C179.031 99.1995 179.38 98.8928 179.619 98.511C179.859 98.1293 179.978 97.7143 179.978 97.2641C179.978 96.8572 179.872 96.4759 179.657 96.1254C179.442 95.7731 179.133 95.4893 178.731 95.2683C178.328 95.0495 177.841 94.9391 177.271 94.9391H173.128L173.082 94.9997C173.326 95.0707 173.518 95.1916 173.656 95.3584C173.793 95.5252 173.887 95.7839 173.939 96.1302C173.99 96.4763 174.016 96.9413 174.016 97.521V102.444C174.016 103.026 173.991 103.487 173.939 103.829C173.887 104.171 173.793 104.427 173.656 104.601C173.518 104.774 173.326 104.897 173.082 104.968L173.128 105.028H176.462L176.508 104.968C176.293 104.897 176.127 104.774 176.003 104.601C175.88 104.427 175.797 104.171 175.751 103.829C175.705 103.487 175.682 103.026 175.682 102.444V99.8897H176.325C176.875 99.8897 177.309 100.061 177.623 100.403C177.939 100.745 178.097 101.237 178.097 101.879V103.224C178.097 103.662 178.16 104.039 178.289 104.356C178.416 104.673 178.598 104.896 178.831 105.03H180.804L180.85 104.969C180.656 104.919 180.497 104.823 180.377 104.685V104.69ZM176.279 99.6809H175.683V95.1536H176.34C176.738 95.1536 177.072 95.2536 177.341 95.4516C177.61 95.6496 177.816 95.9166 177.96 96.2463C178.101 96.5777 178.175 96.9534 178.175 97.3702C178.175 97.787 178.104 98.1583 177.96 98.5089C177.816 98.8611 177.605 99.1428 177.326 99.3576C177.044 99.5726 176.696 99.6787 176.279 99.6787V99.6809ZM186.96 103.772C186.689 104.114 186.372 104.371 186.005 104.544C185.638 104.717 185.211 104.805 184.721 104.805H183.757V100.002H184.66C185.109 100.002 185.449 100.123 185.678 100.361C185.907 100.601 186.093 101.002 186.237 101.562L186.314 101.502V98.2593L186.237 98.2133C186.093 98.7745 185.904 99.1765 185.664 99.4209C185.424 99.6648 185.09 99.7879 184.663 99.7879H183.76V95.1544H184.586C185.341 95.1544 185.95 95.3381 186.413 95.7051C186.875 96.0722 187.255 96.6123 187.551 97.3255L187.628 97.2796L187.17 94.9399H181.205L181.16 95.0005C181.403 95.0716 181.595 95.1925 181.733 95.3593C181.871 95.5261 181.966 95.7827 182.023 96.1245C182.079 96.4663 182.106 96.9274 182.106 97.5093V102.464C182.106 103.046 182.077 103.506 182.023 103.849C181.966 104.19 181.871 104.445 181.733 104.614C181.595 104.783 181.403 104.902 181.16 104.973L181.205 105.033H187.245L187.718 102.541L187.626 102.495C187.453 103.006 187.23 103.431 186.961 103.772V103.774L186.96 103.772ZM195.347 97.2579C194.98 96.5197 194.472 95.9486 193.819 95.5461C193.166 95.1436 192.397 94.9412 191.51 94.9412H188.084L188.038 95.0019C188.282 95.0729 188.474 95.196 188.611 95.3689C188.749 95.5417 188.845 95.8004 188.901 96.1406C188.957 96.4824 188.984 96.9391 188.984 97.5084V102.463C188.984 103.035 188.955 103.491 188.901 103.831C188.845 104.173 188.749 104.429 188.611 104.603C188.473 104.776 188.282 104.899 188.038 104.97L188.084 105.03H191.602C192.427 105.03 193.164 104.807 193.812 104.356C194.459 103.908 194.97 103.297 195.341 102.521C195.712 101.747 195.9 100.866 195.9 99.8746C195.9 98.8837 195.716 97.9916 195.349 97.251L195.347 97.2571L195.347 97.2579ZM193.681 102.542C193.445 103.266 193.12 103.825 192.703 104.217C192.284 104.609 191.8 104.805 191.249 104.805H190.638V95.1561H191.157C191.729 95.1561 192.229 95.346 192.663 95.7211C193.097 96.0985 193.433 96.6448 193.672 97.358C193.912 98.0713 194.031 98.9326 194.031 99.9418C194.031 100.951 193.914 101.819 193.679 102.542H193.681Z" fill="white" />
              </g>
              <path fill-rule="evenodd" clip-rule="evenodd" d="M276.558 104.718V107.414H271.318V107.411L269.535 104.718H267.971L270.649 108.762H277.896V104.718H276.558Z" fill="#E6FC8D" />
              <path fill-rule="evenodd" clip-rule="evenodd" d="M254 104.718V108.762H261.267L263.945 104.718H254Z" fill="#E6FC8D" />
              <path fill-rule="evenodd" clip-rule="evenodd" d="M272.943 93.9342L266.696 103.37H277.896V93.9342H272.943Z" fill="#E6FC8D" />
              <path fill-rule="evenodd" clip-rule="evenodd" d="M271.307 91.2382L265.958 99.3167L260.609 91.2382L260.598 91.2599V91.2382H254V100.68H255.338V92.5921L259.939 92.5862L265.176 100.497L264.164 102.025H254V103.373L264.837 103.37L271.976 92.5862H277.896V91.2382H271.307Z" fill="#E6FC8D" />
              <path d="M322 97.73H319.98L318.348 102.35H318.318L316.672 97.73H314.576L317.285 104.511C317.285 104.511 317.013 105.139 316.921 105.348C316.828 105.556 316.721 105.737 316.544 105.862C316.413 105.956 316.257 106 316.076 105.993C315.897 105.987 315.697 105.948 315.474 105.876L315.046 107.369C315.183 107.428 315.355 107.477 315.563 107.514C315.688 107.538 315.819 107.555 315.954 107.565L315.954 107.566L315.955 107.565C316.048 107.572 316.143 107.575 316.241 107.575C316.71 107.575 317.111 107.495 317.444 107.336C317.777 107.179 318.052 106.956 318.269 106.665C318.525 106.262 318.598 106.036 318.758 105.652L322 97.73Z" fill="#F0EBE5" />
              <path d="M310.95 97.5595C312.942 97.5595 314.394 99.1019 314.394 101.228C314.394 103.355 312.942 104.897 310.95 104.897C309.917 104.897 309.108 104.493 308.659 103.819H308.629L308.554 104.747H306.922V94.265H308.883V98.3232H308.913C309.392 97.829 310.081 97.5595 310.95 97.5595ZM310.62 103.16C311.699 103.16 312.417 102.366 312.417 101.228C312.417 100.09 311.699 99.2966 310.62 99.2966C309.557 99.2966 308.838 100.09 308.838 101.228C308.838 102.366 309.557 103.16 310.62 103.16Z" fill="#F0EBE5" />
              <path d="M302.113 97.5594C304.314 97.5594 305.872 99.0719 305.872 101.228C305.872 103.37 304.314 104.897 302.113 104.897C299.897 104.897 298.339 103.37 298.339 101.228C298.339 99.0719 299.897 97.5594 302.113 97.5594ZM302.113 99.2965C301.05 99.2965 300.316 100.09 300.316 101.228C300.316 102.366 301.05 103.16 302.113 103.16C303.161 103.16 303.895 102.366 303.895 101.228C303.895 100.09 303.161 99.2965 302.113 99.2965Z" fill="#F0EBE5" />
              <path d="M297.149 104.747H294.933V97.2599H294.903L292.028 104.747H290.021L287.236 97.4696H287.206V104.747H285.065V94.8041H288.389L291.055 101.737H291.085L293.75 94.8041H297.149V104.747Z" fill="#F0EBE5" />
              <path d="M70.875 30L70.292 28.625H66.552L65.969 30H64.594L67.806 22.696H69.071L72.294 30H70.875ZM68.433 24.192H68.411L67.036 27.47H69.808L68.433 24.192ZM77.8759 30H76.8969L76.8529 29.219H76.8309C76.5009 29.791 75.9179 30.11 75.1039 30.11C73.8059 30.11 73.0359 29.274 73.0359 27.866V24.841H74.2019V27.734C74.2019 28.57 74.6419 29.065 75.4009 29.065C76.2259 29.065 76.7099 28.493 76.7099 27.547V24.841H77.8759V30ZM82.3714 28.768V29.923C82.1294 30.044 81.8104 30.11 81.4034 30.11C80.2374 30.11 79.6104 29.45 79.6104 28.229V25.853H78.6974V24.841H79.6434L79.8084 23.422H80.7764V24.841H82.3494V25.853H80.7764V28.185C80.7764 28.746 81.0734 29.076 81.5794 29.076C81.8544 29.076 82.1074 28.999 82.3164 28.768H82.3714ZM85.8142 24.731C87.4202 24.731 88.5642 25.842 88.5642 27.426C88.5642 28.999 87.4202 30.11 85.8142 30.11C84.2082 30.11 83.0752 28.999 83.0752 27.426C83.0752 25.842 84.2082 24.731 85.8142 24.731ZM85.8142 25.776C84.8902 25.776 84.2522 26.447 84.2522 27.426C84.2522 28.383 84.8902 29.065 85.8142 29.065C86.7492 29.065 87.3872 28.383 87.3872 27.426C87.3872 26.447 86.7492 25.776 85.8142 25.776ZM92.6143 27.58H89.5123V26.403H92.6143V27.58ZM96.3535 24.731C97.0685 24.731 97.5965 24.885 98.0035 25.182V26.447H97.9485C97.5855 25.985 97.0905 25.776 96.4635 25.776C95.3965 25.776 94.7365 26.436 94.7365 27.426C94.7365 28.394 95.3965 29.065 96.4635 29.065C97.1015 29.065 97.5965 28.834 97.9485 28.383H98.0035V29.67C97.6185 29.967 97.0685 30.11 96.3535 30.11C94.6705 30.11 93.5595 28.999 93.5595 27.426C93.5595 25.842 94.6705 24.731 96.3535 24.731ZM101.605 24.731C103.211 24.731 104.355 25.842 104.355 27.426C104.355 28.999 103.211 30.11 101.605 30.11C99.9992 30.11 98.8662 28.999 98.8662 27.426C98.8662 25.842 99.9992 24.731 101.605 24.731ZM101.605 25.776C100.681 25.776 100.043 26.447 100.043 27.426C100.043 28.383 100.681 29.065 101.605 29.065C102.54 29.065 103.178 28.383 103.178 27.426C103.178 26.447 102.54 25.776 101.605 25.776ZM111.509 24.731C112.752 24.731 113.445 25.534 113.445 26.953V30H112.279V27.074C112.279 26.227 111.905 25.776 111.212 25.776C110.431 25.776 110.024 26.293 110.024 27.338V30H108.858V27.074C108.858 26.227 108.484 25.776 107.78 25.776C107.01 25.776 106.603 26.293 106.603 27.25V30H105.437V24.841H106.405L106.438 25.589H106.46C106.768 25.028 107.307 24.731 108.077 24.731C108.803 24.731 109.375 25.05 109.683 25.655H109.705C110.024 25.039 110.596 24.731 111.509 24.731ZM117.59 24.731C119.064 24.731 120.142 25.864 120.142 27.426C120.142 28.988 119.064 30.11 117.59 30.11C116.842 30.11 116.27 29.868 115.885 29.45H115.863V32.09H114.697V24.841H115.676L115.709 25.578H115.731C116.105 25.05 116.743 24.731 117.59 24.731ZM117.403 29.065C118.316 29.065 118.965 28.383 118.965 27.426C118.965 26.447 118.316 25.776 117.403 25.776C116.479 25.776 115.83 26.447 115.83 27.426C115.83 28.383 116.479 29.065 117.403 29.065ZM123.627 24.731C125.233 24.731 126.377 25.842 126.377 27.426C126.377 28.999 125.233 30.11 123.627 30.11C122.021 30.11 120.888 28.999 120.888 27.426C120.888 25.842 122.021 24.731 123.627 24.731ZM123.627 25.776C122.703 25.776 122.065 26.447 122.065 27.426C122.065 28.383 122.703 29.065 123.627 29.065C124.562 29.065 125.2 28.383 125.2 27.426C125.2 26.447 124.562 25.776 123.627 25.776ZM132.167 30H131.188L131.144 29.219H131.122C130.792 29.791 130.209 30.11 129.395 30.11C128.097 30.11 127.327 29.274 127.327 27.866V24.841H128.493V27.734C128.493 28.57 128.933 29.065 129.692 29.065C130.517 29.065 131.001 28.493 131.001 27.547V24.841H132.167V30ZM136.321 24.731C137.608 24.731 138.389 25.567 138.389 26.975V30H137.223V27.107C137.223 26.26 136.772 25.776 136.024 25.776C135.199 25.776 134.704 26.337 134.704 27.294V30H133.538V24.841H134.517L134.561 25.633H134.583C134.913 25.05 135.507 24.731 136.321 24.731ZM144.766 30H143.798L143.765 29.263H143.743C143.369 29.791 142.72 30.11 141.884 30.11C140.41 30.11 139.332 28.988 139.332 27.426C139.332 25.864 140.41 24.731 141.884 24.731C142.621 24.731 143.193 24.973 143.578 25.38H143.6V22.3H144.766V30ZM142.071 29.065C142.995 29.065 143.633 28.383 143.633 27.426C143.633 26.447 142.995 25.776 142.071 25.776C141.147 25.776 140.509 26.447 140.509 27.426C140.509 28.383 141.147 29.065 142.071 29.065ZM146.711 22.487C147.162 22.487 147.459 22.795 147.459 23.235C147.459 23.675 147.162 23.972 146.711 23.972C146.271 23.972 145.974 23.675 145.974 23.235C145.974 22.795 146.271 22.487 146.711 22.487ZM146.128 24.841H147.294V30H146.128V24.841ZM151.457 24.731C152.744 24.731 153.525 25.567 153.525 26.975V30H152.359V27.107C152.359 26.26 151.908 25.776 151.16 25.776C150.335 25.776 149.84 26.337 149.84 27.294V30H148.674V24.841H149.653L149.697 25.633H149.719C150.049 25.05 150.643 24.731 151.457 24.731ZM159.902 24.841V29.582C159.902 31.21 158.846 32.2 157.086 32.2C156.195 32.2 155.436 31.969 154.963 31.573V30.363H155.018C155.425 30.858 156.129 31.155 156.943 31.155C158.098 31.155 158.736 30.561 158.736 29.516V29.395H158.714C158.329 29.802 157.757 30.044 157.02 30.044C155.546 30.044 154.468 28.955 154.468 27.393C154.468 25.831 155.546 24.731 157.02 24.731C157.856 24.731 158.505 25.05 158.879 25.578H158.901L158.934 24.841H159.902ZM157.207 28.999C158.131 28.999 158.769 28.361 158.769 27.393C158.769 26.414 158.131 25.776 157.207 25.776C156.283 25.776 155.645 26.414 155.645 27.393C155.645 28.361 156.283 28.999 157.207 28.999Z" fill="#B3B3B3" />
              <path d="M250.474 22.586C252.718 22.586 254.291 24.148 254.291 26.348C254.291 28.548 252.718 30.11 250.474 30.11C248.23 30.11 246.657 28.548 246.657 26.348C246.657 24.148 248.23 22.586 250.474 22.586ZM250.474 23.763C249 23.763 247.988 24.819 247.988 26.348C247.988 27.877 249 28.933 250.474 28.933C251.948 28.933 252.96 27.877 252.96 26.348C252.96 24.819 251.948 23.763 250.474 23.763ZM258.237 24.731C259.711 24.731 260.789 25.864 260.789 27.426C260.789 28.988 259.711 30.11 258.237 30.11C257.489 30.11 256.917 29.868 256.532 29.45H256.51V32.09H255.344V24.841H256.323L256.356 25.578H256.378C256.752 25.05 257.39 24.731 258.237 24.731ZM258.05 29.065C258.963 29.065 259.612 28.383 259.612 27.426C259.612 26.447 258.963 25.776 258.05 25.776C257.126 25.776 256.477 26.447 256.477 27.426C256.477 28.383 257.126 29.065 258.05 29.065ZM264.86 28.768V29.923C264.618 30.044 264.299 30.11 263.892 30.11C262.726 30.11 262.099 29.45 262.099 28.229V25.853H261.186V24.841H262.132L262.297 23.422H263.265V24.841H264.838V25.853H263.265V28.185C263.265 28.746 263.562 29.076 264.068 29.076C264.343 29.076 264.596 28.999 264.805 28.768H264.86ZM266.497 22.487C266.948 22.487 267.245 22.795 267.245 23.235C267.245 23.675 266.948 23.972 266.497 23.972C266.057 23.972 265.76 23.675 265.76 23.235C265.76 22.795 266.057 22.487 266.497 22.487ZM265.914 24.841H267.08V30H265.914V24.841ZM270.891 24.731C272.497 24.731 273.641 25.842 273.641 27.426C273.641 28.999 272.497 30.11 270.891 30.11C269.285 30.11 268.152 28.999 268.152 27.426C268.152 25.842 269.285 24.731 270.891 24.731ZM270.891 25.776C269.967 25.776 269.329 26.447 269.329 27.426C269.329 28.383 269.967 29.065 270.891 29.065C271.826 29.065 272.464 28.383 272.464 27.426C272.464 26.447 271.826 25.776 270.891 25.776ZM277.485 24.731C278.772 24.731 279.553 25.567 279.553 26.975V30H278.387V27.107C278.387 26.26 277.936 25.776 277.188 25.776C276.363 25.776 275.868 26.337 275.868 27.294V30H274.702V24.841H275.681L275.725 25.633H275.747C276.077 25.05 276.671 24.731 277.485 24.731ZM282.618 24.731C283.289 24.731 283.894 24.863 284.268 25.105V26.304H284.213C283.861 25.941 283.322 25.754 282.651 25.754C282.09 25.754 281.694 26.007 281.694 26.37C281.694 26.667 281.925 26.799 282.684 26.843C284.059 26.92 284.598 27.426 284.598 28.471C284.598 29.483 283.817 30.11 282.53 30.11C281.672 30.11 281.001 29.934 280.572 29.604V28.383H280.627C281.056 28.845 281.683 29.087 282.475 29.087C283.08 29.087 283.454 28.845 283.454 28.471C283.454 28.13 283.223 27.976 282.387 27.91C281.045 27.8 280.55 27.382 280.55 26.403C280.55 25.391 281.375 24.731 282.618 24.731ZM290.651 22.586C291.608 22.586 292.499 22.817 292.972 23.169V24.566H292.906C292.433 24.06 291.597 23.763 290.629 23.763C289.705 23.763 289.111 24.159 289.111 24.775C289.111 25.292 289.496 25.556 290.728 25.677C292.675 25.875 293.39 26.546 293.39 27.888C293.39 29.285 292.334 30.11 290.53 30.11C289.331 30.11 288.385 29.868 287.791 29.417V28.009H287.857C288.517 28.614 289.43 28.933 290.497 28.933C291.509 28.933 292.081 28.57 292.081 27.921C292.081 27.36 291.685 27.096 290.387 26.953C288.484 26.744 287.802 26.128 287.802 24.852C287.802 23.444 288.891 22.586 290.651 22.586ZM297.559 28.768V29.923C297.317 30.044 296.998 30.11 296.591 30.11C295.425 30.11 294.798 29.45 294.798 28.229V25.853H293.885V24.841H294.831L294.996 23.422H295.964V24.841H297.537V25.853H295.964V28.185C295.964 28.746 296.261 29.076 296.767 29.076C297.042 29.076 297.295 28.999 297.504 28.768H297.559ZM301.254 24.731C301.584 24.731 301.859 24.819 302.024 24.929V26.084H301.969C301.749 25.93 301.474 25.842 301.155 25.842C300.231 25.842 299.78 26.458 299.78 27.712V30H298.614V24.841H299.593L299.637 25.633H299.659C299.956 25.039 300.484 24.731 301.254 24.731ZM307.865 30H306.897L306.864 29.263H306.842C306.468 29.791 305.819 30.11 304.983 30.11C303.509 30.11 302.431 28.988 302.431 27.426C302.431 25.864 303.509 24.731 304.983 24.731C305.819 24.731 306.457 25.05 306.831 25.578H306.853L306.897 24.841H307.865V30ZM305.17 29.065C306.094 29.065 306.732 28.383 306.732 27.426C306.732 26.447 306.094 25.776 305.17 25.776C304.246 25.776 303.608 26.447 303.608 27.426C303.608 28.383 304.246 29.065 305.17 29.065ZM312.351 28.768V29.923C312.109 30.044 311.79 30.11 311.383 30.11C310.217 30.11 309.59 29.45 309.59 28.229V25.853H308.677V24.841H309.623L309.788 23.422H310.756V24.841H312.329V25.853H310.756V28.185C310.756 28.746 311.053 29.076 311.559 29.076C311.834 29.076 312.087 28.999 312.296 28.768H312.351ZM318.346 27.778H314.243C314.386 28.603 315.09 29.087 316.113 29.087C316.872 29.087 317.51 28.856 317.972 28.416H318.027V29.571C317.587 29.912 316.883 30.11 316.069 30.11C314.265 30.11 313.055 29.032 313.055 27.426C313.055 25.842 314.166 24.731 315.739 24.731C317.334 24.731 318.346 25.699 318.346 27.206V27.778ZM315.772 25.754C315.035 25.754 314.386 26.216 314.243 26.909H317.268C317.169 26.205 316.575 25.754 315.772 25.754ZM324.515 24.841V29.582C324.515 31.21 323.459 32.2 321.699 32.2C320.808 32.2 320.049 31.969 319.576 31.573V30.363H319.631C320.038 30.858 320.742 31.155 321.556 31.155C322.711 31.155 323.349 30.561 323.349 29.516V29.395H323.327C322.942 29.802 322.37 30.044 321.633 30.044C320.159 30.044 319.081 28.955 319.081 27.393C319.081 25.831 320.159 24.731 321.633 24.731C322.469 24.731 323.118 25.05 323.492 25.578H323.514L323.547 24.841H324.515ZM321.82 28.999C322.744 28.999 323.382 28.361 323.382 27.393C323.382 26.414 322.744 25.776 321.82 25.776C320.896 25.776 320.258 26.414 320.258 27.393C320.258 28.361 320.896 28.999 321.82 28.999ZM327.549 32.09H326.35L327.351 29.835L325.272 24.841H326.526L327.967 28.581H327.989L329.441 24.841H330.64L327.549 32.09Z" fill="#B3B3B3" />
              <path d="M89.3476 169.586C91.3386 169.586 92.5046 170.884 92.5046 173.15C92.5046 175.614 91.2396 177.11 89.1606 177.11C88.3136 177.11 87.6316 176.934 87.2026 176.615V175.361H87.2686C87.6976 175.779 88.3136 175.999 89.0396 175.999C90.3376 175.999 91.1186 175.185 91.2396 173.744H91.2176C90.7336 174.206 90.0186 174.47 89.1386 174.47C87.6096 174.47 86.6306 173.513 86.6306 172.094C86.6306 170.587 87.7196 169.586 89.3476 169.586ZM89.3476 173.403C90.1286 173.403 90.8216 173.073 91.2066 172.435C91.1076 171.346 90.4256 170.697 89.3806 170.697C88.4786 170.697 87.8846 171.247 87.8846 172.072C87.8846 172.897 88.4566 173.403 89.3476 173.403ZM95.8969 177H94.4449L98.4819 170.807H93.9279V169.696H99.8459V170.862L95.8969 177ZM102.38 169.586C103.425 169.586 104.03 170.312 104.03 171.401C104.03 172.479 103.425 173.205 102.38 173.205C101.335 173.205 100.73 172.479 100.73 171.401C100.73 170.312 101.335 169.586 102.38 169.586ZM101.698 177L106.373 169.696H107.341L102.666 177H101.698ZM102.38 170.345C101.885 170.345 101.577 170.73 101.577 171.401C101.577 172.061 101.885 172.446 102.38 172.446C102.875 172.446 103.183 172.061 103.183 171.401C103.183 170.73 102.875 170.345 102.38 170.345ZM106.659 173.491C107.704 173.491 108.309 174.217 108.309 175.306C108.309 176.384 107.704 177.11 106.659 177.11C105.614 177.11 105.009 176.384 105.009 175.306C105.009 174.217 105.614 173.491 106.659 173.491ZM106.659 174.25C106.164 174.25 105.856 174.635 105.856 175.306C105.856 175.966 106.164 176.351 106.659 176.351C107.154 176.351 107.462 175.966 107.462 175.306C107.462 174.635 107.154 174.25 106.659 174.25ZM117.566 177L116.983 175.625H113.243L112.66 177H111.285L114.497 169.696H115.762L118.985 177H117.566ZM115.124 171.192H115.102L113.727 174.47H116.499L115.124 171.192ZM121.77 171.731C122.441 171.731 123.046 171.863 123.42 172.105V173.304H123.365C123.013 172.941 122.474 172.754 121.803 172.754C121.242 172.754 120.846 173.007 120.846 173.37C120.846 173.667 121.077 173.799 121.836 173.843C123.211 173.92 123.75 174.426 123.75 175.471C123.75 176.483 122.969 177.11 121.682 177.11C120.824 177.11 120.153 176.934 119.724 176.604V175.383H119.779C120.208 175.845 120.835 176.087 121.627 176.087C122.232 176.087 122.606 175.845 122.606 175.471C122.606 175.13 122.375 174.976 121.539 174.91C120.197 174.8 119.702 174.382 119.702 173.403C119.702 172.391 120.527 171.731 121.77 171.731ZM126.507 171.731C127.178 171.731 127.783 171.863 128.157 172.105V173.304H128.102C127.75 172.941 127.211 172.754 126.54 172.754C125.979 172.754 125.583 173.007 125.583 173.37C125.583 173.667 125.814 173.799 126.573 173.843C127.948 173.92 128.487 174.426 128.487 175.471C128.487 176.483 127.706 177.11 126.419 177.11C125.561 177.11 124.89 176.934 124.461 176.604V175.383H124.516C124.945 175.845 125.572 176.087 126.364 176.087C126.969 176.087 127.343 175.845 127.343 175.471C127.343 175.13 127.112 174.976 126.276 174.91C124.934 174.8 124.439 174.382 124.439 173.403C124.439 172.391 125.264 171.731 126.507 171.731ZM134.456 174.778H130.353C130.496 175.603 131.2 176.087 132.223 176.087C132.982 176.087 133.62 175.856 134.082 175.416H134.137V176.571C133.697 176.912 132.993 177.11 132.179 177.11C130.375 177.11 129.165 176.032 129.165 174.426C129.165 172.842 130.276 171.731 131.849 171.731C133.444 171.731 134.456 172.699 134.456 174.206V174.778ZM131.882 172.754C131.145 172.754 130.496 173.216 130.353 173.909H133.378C133.279 173.205 132.685 172.754 131.882 172.754ZM138.591 175.768V176.923C138.349 177.044 138.03 177.11 137.623 177.11C136.457 177.11 135.83 176.45 135.83 175.229V172.853H134.917V171.841H135.863L136.028 170.422H136.996V171.841H138.569V172.853H136.996V175.185C136.996 175.746 137.293 176.076 137.799 176.076C138.074 176.076 138.327 175.999 138.536 175.768H138.591Z" fill="#B3B3B3" />
              <path d="M270.339 173.26V173.282C271.087 173.601 271.505 174.195 271.505 175.02C271.505 176.34 270.416 177.11 268.612 177.11C267.567 177.11 266.621 176.824 266.115 176.362V175.042H266.181C266.676 175.636 267.6 175.999 268.59 175.999C269.646 175.999 270.251 175.592 270.251 174.844C270.251 174.151 269.745 173.843 268.601 173.843H267.534V172.765H268.458C269.613 172.765 270.119 172.468 270.119 171.808C270.119 171.082 269.547 170.697 268.535 170.697C267.71 170.697 266.863 171.038 266.335 171.599H266.269V170.279C266.83 169.839 267.732 169.586 268.656 169.586C270.339 169.586 271.362 170.345 271.362 171.621C271.362 172.38 270.999 172.941 270.339 173.26ZM274.303 169.586C275.348 169.586 275.953 170.312 275.953 171.401C275.953 172.479 275.348 173.205 274.303 173.205C273.258 173.205 272.653 172.479 272.653 171.401C272.653 170.312 273.258 169.586 274.303 169.586ZM273.621 177L278.296 169.696H279.264L274.589 177H273.621ZM274.303 170.345C273.808 170.345 273.5 170.73 273.5 171.401C273.5 172.061 273.808 172.446 274.303 172.446C274.798 172.446 275.106 172.061 275.106 171.401C275.106 170.73 274.798 170.345 274.303 170.345ZM278.582 173.491C279.627 173.491 280.232 174.217 280.232 175.306C280.232 176.384 279.627 177.11 278.582 177.11C277.537 177.11 276.932 176.384 276.932 175.306C276.932 174.217 277.537 173.491 278.582 173.491ZM278.582 174.25C278.087 174.25 277.779 174.635 277.779 175.306C277.779 175.966 278.087 176.351 278.582 176.351C279.077 176.351 279.385 175.966 279.385 175.306C279.385 174.635 279.077 174.25 278.582 174.25ZM289.489 177L288.906 175.625H285.166L284.583 177H283.208L286.42 169.696H287.685L290.908 177H289.489ZM287.047 171.192H287.025L285.65 174.47H288.422L287.047 171.192ZM293.693 171.731C294.364 171.731 294.969 171.863 295.343 172.105V173.304H295.288C294.936 172.941 294.397 172.754 293.726 172.754C293.165 172.754 292.769 173.007 292.769 173.37C292.769 173.667 293 173.799 293.759 173.843C295.134 173.92 295.673 174.426 295.673 175.471C295.673 176.483 294.892 177.11 293.605 177.11C292.747 177.11 292.076 176.934 291.647 176.604V175.383H291.702C292.131 175.845 292.758 176.087 293.55 176.087C294.155 176.087 294.529 175.845 294.529 175.471C294.529 175.13 294.298 174.976 293.462 174.91C292.12 174.8 291.625 174.382 291.625 173.403C291.625 172.391 292.45 171.731 293.693 171.731ZM298.43 171.731C299.101 171.731 299.706 171.863 300.08 172.105V173.304H300.025C299.673 172.941 299.134 172.754 298.463 172.754C297.902 172.754 297.506 173.007 297.506 173.37C297.506 173.667 297.737 173.799 298.496 173.843C299.871 173.92 300.41 174.426 300.41 175.471C300.41 176.483 299.629 177.11 298.342 177.11C297.484 177.11 296.813 176.934 296.384 176.604V175.383H296.439C296.868 175.845 297.495 176.087 298.287 176.087C298.892 176.087 299.266 175.845 299.266 175.471C299.266 175.13 299.035 174.976 298.199 174.91C296.857 174.8 296.362 174.382 296.362 173.403C296.362 172.391 297.187 171.731 298.43 171.731ZM306.378 174.778H302.275C302.418 175.603 303.122 176.087 304.145 176.087C304.904 176.087 305.542 175.856 306.004 175.416H306.059V176.571C305.619 176.912 304.915 177.11 304.101 177.11C302.297 177.11 301.087 176.032 301.087 174.426C301.087 172.842 302.198 171.731 303.771 171.731C305.366 171.731 306.378 172.699 306.378 174.206V174.778ZM303.804 172.754C303.067 172.754 302.418 173.216 302.275 173.909H305.3C305.201 173.205 304.607 172.754 303.804 172.754ZM310.514 175.768V176.923C310.272 177.044 309.953 177.11 309.546 177.11C308.38 177.11 307.753 176.45 307.753 175.229V172.853H306.84V171.841H307.786L307.951 170.422H308.919V171.841H310.492V172.853H308.919V175.185C308.919 175.746 309.216 176.076 309.722 176.076C309.997 176.076 310.25 175.999 310.459 175.768H310.514Z" fill="#B3B3B3" />
              <defs>
                <linearGradient id="paint0_linear_8147_1526" x1="112" y1="100" x2="208" y2="100" gradientUnits="userSpaceOnUse">
                  <stop stop-color="#E85A46" />
                  <stop offset="1" stop-color="#A63380" />
                </linearGradient>
                <linearGradient id="paint1_linear_8147_1526" x1="147.968" y1="100.054" x2="116.516" y2="100.469" gradientUnits="userSpaceOnUse">
                  <stop stop-color="#F8F29C" />
                  <stop offset="0.165" stop-color="#F6DB2A" />
                  <stop offset="0.333" stop-color="#F4A435" />
                  <stop offset="0.55" stop-color="#E85A46" />
                  <stop offset="0.699" stop-color="#B93483" />
                  <stop offset="0.867" stop-color="#502B6E" />
                  <stop offset="1" stop-color="#2A2136" />
                </linearGradient>
                <clipPath id="clip0_8147_1526">
                  <rect width="72" height="13.9973" fill="white" transform="translate(124 93)" />
                </clipPath>
              </defs>
            </svg>