<svg width="352" height="200" viewBox="0 0 352 200" fill="none" xmlns="http://www.w3.org/2000/svg">
<rect width="352" height="200" rx="6" fill="#171717"/>
<path d="M27.455 74.9V74.93C28.58 75.275 29.165 76.055 29.165 77.255C29.165 79.07 27.965 80 25.67 80H21.125V70.04H25.295C27.605 70.04 28.805 70.955 28.805 72.74C28.805 73.775 28.355 74.51 27.455 74.9ZM22.925 74.195H25.16C26.405 74.195 27.005 73.775 27.005 72.905C27.005 72.05 26.435 71.645 25.28 71.645H22.925V74.195ZM22.925 78.395H25.625C26.765 78.395 27.35 77.975 27.35 77.09C27.35 76.205 26.75 75.755 25.52 75.755H22.925V78.395ZM37.3637 76.97H31.7687C31.9637 78.095 32.9237 78.755 34.3187 78.755C35.3537 78.755 36.2237 78.44 36.8537 77.84H36.9287V79.415C36.3287 79.88 35.3687 80.15 34.2587 80.15C31.7987 80.15 30.1487 78.68 30.1487 76.49C30.1487 74.33 31.6637 72.815 33.8087 72.815C35.9837 72.815 37.3637 74.135 37.3637 76.19V76.97ZM33.8537 74.21C32.8487 74.21 31.9637 74.84 31.7687 75.785H35.8937C35.7587 74.825 34.9487 74.21 33.8537 74.21ZM42.3864 72.815C42.8364 72.815 43.2114 72.935 43.4364 73.085V74.66H43.3614C43.0614 74.45 42.6864 74.33 42.2514 74.33C40.9914 74.33 40.3764 75.17 40.3764 76.88V80H38.7864V72.965H40.1214L40.1814 74.045H40.2114C40.6164 73.235 41.3364 72.815 42.3864 72.815ZM51.4014 80H50.0814L50.0364 78.995H50.0064C49.4964 79.715 48.6114 80.15 47.4714 80.15C45.4614 80.15 43.9914 78.62 43.9914 76.49C43.9914 74.36 45.4614 72.815 47.4714 72.815C48.6114 72.815 49.4814 73.25 49.9914 73.97H50.0214L50.0814 72.965H51.4014V80ZM47.7264 78.725C48.9864 78.725 49.8564 77.795 49.8564 76.49C49.8564 75.155 48.9864 74.24 47.7264 74.24C46.4664 74.24 45.5964 75.155 45.5964 76.49C45.5964 77.795 46.4664 78.725 47.7264 78.725ZM62.2291 80H60.4291V75.77H55.2541V80H53.4541V70.04H55.2541V74.165H60.4291V70.04H62.2291V80ZM70.7394 80H69.4044L69.3444 78.935H69.3144C68.8644 79.715 68.0694 80.15 66.9594 80.15C65.1894 80.15 64.1394 79.01 64.1394 77.09V72.965H65.7294V76.91C65.7294 78.05 66.3294 78.725 67.3644 78.725C68.4894 78.725 69.1494 77.945 69.1494 76.655V72.965H70.7394V80ZM76.5547 72.815C78.5647 72.815 80.0347 74.36 80.0347 76.49C80.0347 78.62 78.5647 80.15 76.5547 80.15C75.3997 80.15 74.5297 79.715 74.0197 78.995H73.9897L73.9447 80H72.6097V69.5H74.1997V73.715H74.2297C74.7547 73.145 75.5347 72.815 76.5547 72.815ZM76.2997 78.725C77.5447 78.725 78.4297 77.795 78.4297 76.49C78.4297 75.155 77.5447 74.24 76.2997 74.24C75.0397 74.24 74.1547 75.155 74.1547 76.49C74.1547 77.795 75.0397 78.725 76.2997 78.725ZM86.122 76.205V79.745H84.712V76.205H81.172V74.795H84.712V71.255H86.122V74.795H89.662V76.205H86.122ZM91.4229 80V70.04H93.2229V80H91.4229ZM99.0658 72.815C100.821 72.815 101.886 73.955 101.886 75.875V80H100.296V76.055C100.296 74.9 99.6808 74.24 98.6608 74.24C97.5358 74.24 96.8608 75.005 96.8608 76.31V80H95.2708V72.965H96.6058L96.6658 74.045H96.6958C97.1458 73.25 97.9558 72.815 99.0658 72.815ZM106.591 69.35C107.206 69.35 107.686 69.44 108.016 69.605V71.09H107.941C107.641 70.88 107.221 70.775 106.831 70.775C106.081 70.775 105.676 71.225 105.676 72.035V72.965H107.821V74.345H105.676V80H104.086V74.345H102.841V72.965H104.086V71.96C104.086 70.295 104.971 69.35 106.591 69.35ZM112.552 72.815C113.002 72.815 113.377 72.935 113.602 73.085V74.66H113.527C113.227 74.45 112.852 74.33 112.417 74.33C111.157 74.33 110.542 75.17 110.542 76.88V80H108.952V72.965H110.287L110.347 74.045H110.377C110.782 73.235 111.502 72.815 112.552 72.815ZM121.567 80H120.247L120.202 78.995H120.172C119.662 79.715 118.777 80.15 117.637 80.15C115.627 80.15 114.157 78.62 114.157 76.49C114.157 74.36 115.627 72.815 117.637 72.815C118.777 72.815 119.647 73.25 120.157 73.97H120.187L120.247 72.965H121.567V80ZM117.892 78.725C119.152 78.725 120.022 77.795 120.022 76.49C120.022 75.155 119.152 74.24 117.892 74.24C116.632 74.24 115.762 75.155 115.762 76.49C115.762 77.795 116.632 78.725 117.892 78.725ZM127.025 72.815C127.475 72.815 127.85 72.935 128.075 73.085V74.66H128C127.7 74.45 127.325 74.33 126.89 74.33C125.63 74.33 125.015 75.17 125.015 76.88V80H123.425V72.965H124.76L124.82 74.045H124.85C125.255 73.235 125.975 72.815 127.025 72.815ZM135.845 76.97H130.25C130.445 78.095 131.405 78.755 132.8 78.755C133.835 78.755 134.705 78.44 135.335 77.84H135.41V79.415C134.81 79.88 133.85 80.15 132.74 80.15C130.28 80.15 128.63 78.68 128.63 76.49C128.63 74.33 130.145 72.815 132.29 72.815C134.465 72.815 135.845 74.135 135.845 76.19V76.97ZM132.335 74.21C131.33 74.21 130.445 74.84 130.25 75.785H134.375C134.24 74.825 133.43 74.21 132.335 74.21ZM144.258 80H142.938L142.893 78.995H142.863C142.353 79.715 141.468 80.15 140.328 80.15C138.318 80.15 136.848 78.62 136.848 76.49C136.848 74.36 138.318 72.815 140.328 72.815C141.333 72.815 142.113 73.145 142.638 73.7H142.668V69.5H144.258V80ZM140.583 78.725C141.843 78.725 142.713 77.795 142.713 76.49C142.713 75.155 141.843 74.24 140.583 74.24C139.323 74.24 138.453 75.155 138.453 76.49C138.453 77.795 139.323 78.725 140.583 78.725Z" fill="#B3B3B3"/>
<path d="M153.515 69.89C156.23 69.89 157.82 71.66 157.82 74.75C157.82 78.11 156.095 80.15 153.26 80.15C152.105 80.15 151.175 79.91 150.59 79.475V77.765H150.68C151.265 78.335 152.105 78.635 153.095 78.635C154.865 78.635 155.93 77.525 156.095 75.56H156.065C155.405 76.19 154.43 76.55 153.23 76.55C151.145 76.55 149.81 75.245 149.81 73.31C149.81 71.255 151.295 69.89 153.515 69.89ZM153.515 75.095C154.58 75.095 155.525 74.645 156.05 73.775C155.915 72.29 154.985 71.405 153.56 71.405C152.33 71.405 151.52 72.155 151.52 73.28C151.52 74.405 152.3 75.095 153.515 75.095ZM166.031 74.825V74.855C167.186 75.275 167.771 76.115 167.771 77.315C167.771 79.1 166.226 80.15 163.631 80.15C161.036 80.15 159.491 79.1 159.491 77.315C159.491 76.19 160.091 75.41 161.231 75.02V74.99C160.286 74.555 159.791 73.76 159.791 72.665C159.791 70.925 161.231 69.89 163.631 69.89C166.031 69.89 167.471 70.925 167.471 72.665C167.471 73.685 166.991 74.42 166.031 74.825ZM163.631 71.405C162.266 71.405 161.486 71.9 161.486 72.83C161.486 73.79 162.176 74.225 163.631 74.225C165.086 74.225 165.776 73.79 165.776 72.83C165.776 71.9 164.996 71.405 163.631 71.405ZM163.631 78.635C165.176 78.635 166.061 78.11 166.061 77.15C166.061 76.145 165.281 75.695 163.631 75.695C161.981 75.695 161.201 76.145 161.201 77.15C161.201 78.11 162.086 78.635 163.631 78.635ZM171.287 69.89C172.712 69.89 173.537 70.88 173.537 72.365C173.537 73.835 172.712 74.825 171.287 74.825C169.862 74.825 169.037 73.835 169.037 72.365C169.037 70.88 169.862 69.89 171.287 69.89ZM170.357 80L176.732 70.04H178.052L171.677 80H170.357ZM171.287 70.925C170.612 70.925 170.192 71.45 170.192 72.365C170.192 73.265 170.612 73.79 171.287 73.79C171.962 73.79 172.382 73.265 172.382 72.365C172.382 71.45 171.962 70.925 171.287 70.925ZM177.122 75.215C178.547 75.215 179.372 76.205 179.372 77.69C179.372 79.16 178.547 80.15 177.122 80.15C175.697 80.15 174.872 79.16 174.872 77.69C174.872 76.205 175.697 75.215 177.122 75.215ZM177.122 76.25C176.447 76.25 176.027 76.775 176.027 77.69C176.027 78.59 176.447 79.115 177.122 79.115C177.797 79.115 178.217 78.59 178.217 77.69C178.217 76.775 177.797 76.25 177.122 76.25Z" fill="#F5F5F5"/>
<path d="M319.277 78.485V80H312.242V78.41L314.477 76.64C316.877 74.765 317.582 73.955 317.582 72.98C317.582 71.96 316.847 71.405 315.512 71.405C314.357 71.405 313.247 71.855 312.467 72.635H312.377V70.835C313.187 70.235 314.342 69.89 315.482 69.89C317.927 69.89 319.277 70.955 319.277 72.89C319.277 74.48 318.422 75.62 315.662 77.63L314.522 78.455V78.485H319.277ZM323.393 69.89C324.818 69.89 325.643 70.88 325.643 72.365C325.643 73.835 324.818 74.825 323.393 74.825C321.968 74.825 321.143 73.835 321.143 72.365C321.143 70.88 321.968 69.89 323.393 69.89ZM322.463 80L328.838 70.04H330.158L323.783 80H322.463ZM323.393 70.925C322.718 70.925 322.298 71.45 322.298 72.365C322.298 73.265 322.718 73.79 323.393 73.79C324.068 73.79 324.488 73.265 324.488 72.365C324.488 71.45 324.068 70.925 323.393 70.925ZM329.228 75.215C330.653 75.215 331.478 76.205 331.478 77.69C331.478 79.16 330.653 80.15 329.228 80.15C327.803 80.15 326.978 79.16 326.978 77.69C326.978 76.205 327.803 75.215 329.228 75.215ZM329.228 76.25C328.553 76.25 328.133 76.775 328.133 77.69C328.133 78.59 328.553 79.115 329.228 79.115C329.903 79.115 330.323 78.59 330.323 77.69C330.323 76.775 329.903 76.25 329.228 76.25Z" fill="#F5F5F5"/>
<path d="M281.216 80H279.416V71.975H279.386L276.026 80H274.391L271.106 72.125H271.076V80H269.336V70.04H272.036L275.231 77.645H275.261L278.456 70.04H281.216V80ZM286.592 72.815C288.782 72.815 290.342 74.33 290.342 76.49C290.342 78.635 288.782 80.15 286.592 80.15C284.402 80.15 282.857 78.635 282.857 76.49C282.857 74.33 284.402 72.815 286.592 72.815ZM286.592 74.24C285.332 74.24 284.462 75.155 284.462 76.49C284.462 77.795 285.332 78.725 286.592 78.725C287.867 78.725 288.737 77.795 288.737 76.49C288.737 75.155 287.867 74.24 286.592 74.24ZM295.732 72.815C297.742 72.815 299.212 74.36 299.212 76.49C299.212 78.62 297.742 80.15 295.732 80.15C294.577 80.15 293.707 79.715 293.197 78.995H293.167L293.122 80H291.787V69.5H293.377V73.715H293.407C293.932 73.145 294.712 72.815 295.732 72.815ZM295.477 78.725C296.722 78.725 297.607 77.795 297.607 76.49C297.607 75.155 296.722 74.24 295.477 74.24C294.217 74.24 293.332 75.155 293.332 76.49C293.332 77.795 294.217 78.725 295.477 78.725ZM302.681 82.85H301.046L302.411 79.775L299.576 72.965H301.286L303.251 78.065H303.281L305.261 72.965H306.896L302.681 82.85Z" fill="#B3B3B3"/>
<rect x="20" y="40" width="312" height="18" rx="9" fill="#292929"/>
<path d="M317 46H323C324.657 46 326 47.3431 326 49C326 50.6569 324.657 52 323 52H317V46Z" fill="#E6FC8D"/>
<path d="M26 49C26 47.3431 27.3431 46 29 46H317V52H29C27.3431 52 26 50.6569 26 49Z" fill="#DA5D19"/>
<path d="M34.0778 126H32.6378V119.58H32.6138L29.9258 126H28.6178L25.9898 119.7H25.9658V126H24.5738V118.032H26.7338L29.2898 124.116H29.3138L31.8698 118.032H34.0778V126ZM38.3784 120.252C40.1304 120.252 41.3784 121.464 41.3784 123.192C41.3784 124.908 40.1304 126.12 38.3784 126.12C36.6264 126.12 35.3904 124.908 35.3904 123.192C35.3904 121.464 36.6264 120.252 38.3784 120.252ZM38.3784 121.392C37.3704 121.392 36.6744 122.124 36.6744 123.192C36.6744 124.236 37.3704 124.98 38.3784 124.98C39.3984 124.98 40.0944 124.236 40.0944 123.192C40.0944 122.124 39.3984 121.392 38.3784 121.392ZM45.691 120.252C47.299 120.252 48.475 121.488 48.475 123.192C48.475 124.896 47.299 126.12 45.691 126.12C44.767 126.12 44.071 125.772 43.663 125.196H43.639L43.603 126H42.535V117.6H43.807V120.972H43.831C44.251 120.516 44.875 120.252 45.691 120.252ZM45.487 124.98C46.483 124.98 47.191 124.236 47.191 123.192C47.191 122.124 46.483 121.392 45.487 121.392C44.479 121.392 43.771 122.124 43.771 123.192C43.771 124.236 44.479 124.98 45.487 124.98ZM51.2496 128.28H49.9416L51.0336 125.82L48.7656 120.372H50.1336L51.7056 124.452H51.7296L53.3136 120.372H54.6216L51.2496 128.28ZM55.2063 120.852L56.2263 118.032H57.5343L56.2503 120.852H55.2063ZM59.9486 120.252C60.6806 120.252 61.3406 120.396 61.7486 120.66V121.968H61.6886C61.3046 121.572 60.7166 121.368 59.9846 121.368C59.3726 121.368 58.9406 121.644 58.9406 122.04C58.9406 122.364 59.1926 122.508 60.0206 122.556C61.5206 122.64 62.1086 123.192 62.1086 124.332C62.1086 125.436 61.2566 126.12 59.8526 126.12C58.9166 126.12 58.1846 125.928 57.7166 125.568V124.236H57.7766C58.2446 124.74 58.9286 125.004 59.7926 125.004C60.4526 125.004 60.8606 124.74 60.8606 124.332C60.8606 123.96 60.6086 123.792 59.6966 123.72C58.2326 123.6 57.6926 123.144 57.6926 122.076C57.6926 120.972 58.5926 120.252 59.9486 120.252ZM68.5322 120.252C69.3122 120.252 69.8882 120.42 70.3322 120.744V122.124H70.2722C69.8762 121.62 69.3362 121.392 68.6522 121.392C67.4882 121.392 66.7682 122.112 66.7682 123.192C66.7682 124.248 67.4882 124.98 68.6522 124.98C69.3482 124.98 69.8882 124.728 70.2722 124.236H70.3322V125.64C69.9122 125.964 69.3122 126.12 68.5322 126.12C66.6962 126.12 65.4842 124.908 65.4842 123.192C65.4842 121.464 66.6962 120.252 68.5322 120.252ZM77.2012 126H76.1452L76.1092 125.196H76.0852C75.6772 125.772 74.9692 126.12 74.0572 126.12C72.4492 126.12 71.2732 124.896 71.2732 123.192C71.2732 121.488 72.4492 120.252 74.0572 120.252C74.9692 120.252 75.6652 120.6 76.0732 121.176H76.0972L76.1452 120.372H77.2012V126ZM74.2612 124.98C75.2692 124.98 75.9652 124.236 75.9652 123.192C75.9652 122.124 75.2692 121.392 74.2612 121.392C73.2532 121.392 72.5572 122.124 72.5572 123.192C72.5572 124.236 73.2532 124.98 74.2612 124.98ZM81.8434 120.252C83.4514 120.252 84.6274 121.488 84.6274 123.192C84.6274 124.896 83.4514 126.12 81.8434 126.12C81.0274 126.12 80.4034 125.856 79.9834 125.4H79.9594V128.28H78.6874V120.372H79.7554L79.7914 121.176H79.8154C80.2234 120.6 80.9194 120.252 81.8434 120.252ZM81.6394 124.98C82.6354 124.98 83.3434 124.236 83.3434 123.192C83.3434 122.124 82.6354 121.392 81.6394 121.392C80.6314 121.392 79.9234 122.124 79.9234 123.192C79.9234 124.236 80.6314 124.98 81.6394 124.98ZM86.4132 117.804C86.9052 117.804 87.2292 118.14 87.2292 118.62C87.2292 119.1 86.9052 119.424 86.4132 119.424C85.9332 119.424 85.6092 119.1 85.6092 118.62C85.6092 118.14 85.9332 117.804 86.4132 117.804ZM85.7772 120.372H87.0492V126H85.7772V120.372ZM91.9625 124.656V125.916C91.6985 126.048 91.3505 126.12 90.9065 126.12C89.6345 126.12 88.9505 125.4 88.9505 124.068V121.476H87.9545V120.372H88.9865L89.1665 118.824H90.2225V120.372H91.9385V121.476H90.2225V124.02C90.2225 124.632 90.5465 124.992 91.0985 124.992C91.3985 124.992 91.6745 124.908 91.9025 124.656H91.9625ZM98.6583 126H97.6023L97.5663 125.196H97.5423C97.1343 125.772 96.4263 126.12 95.5143 126.12C93.9063 126.12 92.7303 124.896 92.7303 123.192C92.7303 121.488 93.9063 120.252 95.5143 120.252C96.4263 120.252 97.1223 120.6 97.5303 121.176H97.5543L97.6023 120.372H98.6583V126ZM95.7183 124.98C96.7263 124.98 97.4223 124.236 97.4223 123.192C97.4223 122.124 96.7263 121.392 95.7183 121.392C94.7103 121.392 94.0143 122.124 94.0143 123.192C94.0143 124.236 94.7103 124.98 95.7183 124.98ZM100.144 126V117.6H101.416V126H100.144ZM106.078 123.36H102.694V122.076H106.078V123.36ZM112.881 123.576H108.405C108.561 124.476 109.329 125.004 110.445 125.004C111.273 125.004 111.969 124.752 112.473 124.272H112.533V125.532C112.053 125.904 111.285 126.12 110.397 126.12C108.429 126.12 107.109 124.944 107.109 123.192C107.109 121.464 108.321 120.252 110.037 120.252C111.777 120.252 112.881 121.308 112.881 122.952V123.576ZM110.073 121.368C109.269 121.368 108.561 121.872 108.405 122.628H111.705C111.597 121.86 110.949 121.368 110.073 121.368ZM123.164 120.372V126H121.892V121.476H119.396V126H118.124V121.476H115.664V126H114.392V121.476H113.396V120.372H114.392V119.688C114.392 118.356 115.1 117.6 116.396 117.6C116.888 117.6 117.272 117.672 117.536 117.804V118.992H117.476C117.236 118.824 116.9 118.74 116.588 118.74C115.988 118.74 115.664 119.1 115.664 119.736V120.372H118.124V119.568C118.124 118.236 118.832 117.48 120.068 117.48C120.5 117.48 120.884 117.552 121.148 117.684V118.872H121.088C120.848 118.704 120.512 118.62 120.26 118.62C119.72 118.62 119.396 118.98 119.396 119.616V120.372H123.164ZM122.528 119.424C122.048 119.424 121.724 119.1 121.724 118.62C121.724 118.14 122.048 117.804 122.528 117.804C123.02 117.804 123.344 118.14 123.344 118.62C123.344 119.1 123.02 119.424 122.528 119.424ZM127.372 120.252C128.152 120.252 128.728 120.42 129.172 120.744V122.124H129.112C128.716 121.62 128.176 121.392 127.492 121.392C126.328 121.392 125.608 122.112 125.608 123.192C125.608 124.248 126.328 124.98 127.492 124.98C128.188 124.98 128.728 124.728 129.112 124.236H129.172V125.64C128.752 125.964 128.152 126.12 127.372 126.12C125.536 126.12 124.324 124.908 124.324 123.192C124.324 121.464 125.536 120.252 127.372 120.252ZM131.085 117.804C131.577 117.804 131.901 118.14 131.901 118.62C131.901 119.1 131.577 119.424 131.085 119.424C130.605 119.424 130.281 119.1 130.281 118.62C130.281 118.14 130.605 117.804 131.085 117.804ZM130.449 120.372H131.721V126H130.449V120.372ZM138.662 123.576H134.186C134.342 124.476 135.11 125.004 136.226 125.004C137.054 125.004 137.75 124.752 138.254 124.272H138.314V125.532C137.834 125.904 137.066 126.12 136.178 126.12C134.21 126.12 132.89 124.944 132.89 123.192C132.89 121.464 134.102 120.252 135.818 120.252C137.558 120.252 138.662 121.308 138.662 122.952V123.576ZM135.854 121.368C135.05 121.368 134.342 121.872 134.186 122.628H137.486C137.378 121.86 136.73 121.368 135.854 121.368ZM142.837 120.252C144.241 120.252 145.093 121.164 145.093 122.7V126H143.821V122.844C143.821 121.92 143.329 121.392 142.513 121.392C141.613 121.392 141.073 122.004 141.073 123.048V126H139.801V120.372H140.869L140.917 121.236H140.941C141.301 120.6 141.949 120.252 142.837 120.252ZM149.865 124.656V125.916C149.601 126.048 149.253 126.12 148.809 126.12C147.537 126.12 146.853 125.4 146.853 124.068V121.476H145.857V120.372H146.889L147.069 118.824H148.125V120.372H149.841V121.476H148.125V124.02C148.125 124.632 148.449 124.992 149.001 124.992C149.301 124.992 149.577 124.908 149.805 124.656H149.865ZM155.632 120.252C156.364 120.252 157.024 120.396 157.432 120.66V121.968H157.372C156.988 121.572 156.4 121.368 155.668 121.368C155.056 121.368 154.624 121.644 154.624 122.04C154.624 122.364 154.876 122.508 155.704 122.556C157.204 122.64 157.792 123.192 157.792 124.332C157.792 125.436 156.94 126.12 155.536 126.12C154.6 126.12 153.868 125.928 153.4 125.568V124.236H153.46C153.928 124.74 154.612 125.004 155.476 125.004C156.136 125.004 156.544 124.74 156.544 124.332C156.544 123.96 156.292 123.792 155.38 123.72C153.916 123.6 153.376 123.144 153.376 122.076C153.376 120.972 154.276 120.252 155.632 120.252ZM162.181 124.656V125.916C161.917 126.048 161.569 126.12 161.125 126.12C159.853 126.12 159.169 125.4 159.169 124.068V121.476H158.173V120.372H159.205L159.385 118.824H160.441V120.372H162.157V121.476H160.441V124.02C160.441 124.632 160.765 124.992 161.317 124.992C161.617 124.992 161.893 124.908 162.121 124.656H162.181ZM166.212 120.252C166.572 120.252 166.872 120.348 167.052 120.468V121.728H166.992C166.752 121.56 166.452 121.464 166.104 121.464C165.096 121.464 164.604 122.136 164.604 123.504V126H163.332V120.372H164.4L164.448 121.236H164.472C164.796 120.588 165.372 120.252 166.212 120.252ZM173.086 126H172.018L171.97 125.148H171.946C171.586 125.772 170.95 126.12 170.062 126.12C168.646 126.12 167.806 125.208 167.806 123.672V120.372H169.078V123.528C169.078 124.44 169.558 124.98 170.386 124.98C171.286 124.98 171.814 124.356 171.814 123.324V120.372H173.086V126ZM177.294 120.252C178.074 120.252 178.65 120.42 179.094 120.744V122.124H179.034C178.638 121.62 178.098 121.392 177.414 121.392C176.25 121.392 175.53 122.112 175.53 123.192C175.53 124.248 176.25 124.98 177.414 124.98C178.11 124.98 178.65 124.728 179.034 124.236H179.094V125.64C178.674 125.964 178.074 126.12 177.294 126.12C175.458 126.12 174.246 124.908 174.246 123.192C174.246 121.464 175.458 120.252 177.294 120.252ZM183.779 124.656V125.916C183.515 126.048 183.167 126.12 182.723 126.12C181.451 126.12 180.767 125.4 180.767 124.068V121.476H179.771V120.372H180.803L180.983 118.824H182.039V120.372H183.755V121.476H182.039V124.02C182.039 124.632 182.363 124.992 182.915 124.992C183.215 124.992 183.491 124.908 183.719 124.656H183.779ZM190.09 126H189.022L188.974 125.148H188.95C188.59 125.772 187.954 126.12 187.066 126.12C185.65 126.12 184.81 125.208 184.81 123.672V120.372H186.082V123.528C186.082 124.44 186.562 124.98 187.39 124.98C188.29 124.98 188.818 124.356 188.818 123.324V120.372H190.09V126ZM194.466 120.252C194.826 120.252 195.126 120.348 195.306 120.468V121.728H195.246C195.006 121.56 194.706 121.464 194.358 121.464C193.35 121.464 192.858 122.136 192.858 123.504V126H191.586V120.372H192.654L192.702 121.236H192.726C193.05 120.588 193.626 120.252 194.466 120.252ZM201.522 123.576H197.046C197.202 124.476 197.97 125.004 199.086 125.004C199.914 125.004 200.61 124.752 201.114 124.272H201.174V125.532C200.694 125.904 199.926 126.12 199.038 126.12C197.07 126.12 195.75 124.944 195.75 123.192C195.75 121.464 196.962 120.252 198.678 120.252C200.418 120.252 201.522 121.308 201.522 122.952V123.576ZM198.714 121.368C197.91 121.368 197.202 121.872 197.046 122.628H200.346C200.238 121.86 199.59 121.368 198.714 121.368ZM210.733 123.576H206.257C206.413 124.476 207.181 125.004 208.297 125.004C209.125 125.004 209.821 124.752 210.325 124.272H210.385V125.532C209.905 125.904 209.137 126.12 208.249 126.12C206.281 126.12 204.961 124.944 204.961 123.192C204.961 121.464 206.173 120.252 207.889 120.252C209.629 120.252 210.733 121.308 210.733 122.952V123.576ZM207.925 121.368C207.121 121.368 206.413 121.872 206.257 122.628H209.557C209.449 121.86 208.801 121.368 207.925 121.368ZM214.907 120.252C216.311 120.252 217.163 121.164 217.163 122.7V126H215.891V122.844C215.891 121.92 215.399 121.392 214.583 121.392C213.683 121.392 213.143 122.004 213.143 123.048V126H211.871V120.372H212.939L212.987 121.236H213.011C213.371 120.6 214.019 120.252 214.907 120.252ZM221.563 120.252C222.967 120.252 223.819 121.164 223.819 122.7V126H222.547V122.844C222.547 121.92 222.055 121.392 221.239 121.392C220.339 121.392 219.799 122.004 219.799 123.048V126H218.527V117.6H219.799V120.984H219.823C220.207 120.516 220.807 120.252 221.563 120.252ZM230.775 126H229.719L229.683 125.196H229.659C229.251 125.772 228.543 126.12 227.631 126.12C226.023 126.12 224.847 124.896 224.847 123.192C224.847 121.488 226.023 120.252 227.631 120.252C228.543 120.252 229.239 120.6 229.647 121.176H229.671L229.719 120.372H230.775V126ZM227.835 124.98C228.843 124.98 229.539 124.236 229.539 123.192C229.539 122.124 228.843 121.392 227.835 121.392C226.827 121.392 226.131 122.124 226.131 123.192C226.131 124.236 226.827 124.98 227.835 124.98ZM235.298 120.252C236.702 120.252 237.554 121.164 237.554 122.7V126H236.282V122.844C236.282 121.92 235.79 121.392 234.974 121.392C234.074 121.392 233.534 122.004 233.534 123.048V126H232.262V120.372H233.33L233.378 121.236H233.402C233.762 120.6 234.41 120.252 235.298 120.252ZM241.63 120.252C242.41 120.252 242.986 120.42 243.43 120.744V122.124H243.37C242.974 121.62 242.434 121.392 241.75 121.392C240.586 121.392 239.866 122.112 239.866 123.192C239.866 124.248 240.586 124.98 241.75 124.98C242.446 124.98 242.986 124.728 243.37 124.236H243.43V125.64C243.01 125.964 242.41 126.12 241.63 126.12C239.794 126.12 238.582 124.908 238.582 123.192C238.582 121.464 239.794 120.252 241.63 120.252ZM250.143 123.576H245.667C245.823 124.476 246.591 125.004 247.707 125.004C248.535 125.004 249.231 124.752 249.735 124.272H249.795V125.532C249.315 125.904 248.547 126.12 247.659 126.12C245.691 126.12 244.371 124.944 244.371 123.192C244.371 121.464 245.583 120.252 247.299 120.252C249.039 120.252 250.143 121.308 250.143 122.952V123.576ZM247.335 121.368C246.531 121.368 245.823 121.872 245.667 122.628H248.967C248.859 121.86 248.211 121.368 247.335 121.368ZM253.261 120.252C253.993 120.252 254.653 120.396 255.061 120.66V121.968H255.001C254.617 121.572 254.029 121.368 253.297 121.368C252.685 121.368 252.253 121.644 252.253 122.04C252.253 122.364 252.505 122.508 253.333 122.556C254.833 122.64 255.421 123.192 255.421 124.332C255.421 125.436 254.569 126.12 253.165 126.12C252.229 126.12 251.497 125.928 251.029 125.568V124.236H251.089C251.557 124.74 252.241 125.004 253.105 125.004C253.765 125.004 254.173 124.74 254.173 124.332C254.173 123.96 253.921 123.792 253.009 123.72C251.545 123.6 251.005 123.144 251.005 122.076C251.005 120.972 251.905 120.252 253.261 120.252ZM262.289 120.252C263.897 120.252 265.073 121.488 265.073 123.192C265.073 124.896 263.897 126.12 262.289 126.12C261.473 126.12 260.849 125.856 260.429 125.4H260.405V128.28H259.133V120.372H260.201L260.237 121.176H260.261C260.669 120.6 261.365 120.252 262.289 120.252ZM262.085 124.98C263.081 124.98 263.789 124.236 263.789 123.192C263.789 122.124 263.081 121.392 262.085 121.392C261.077 121.392 260.369 122.124 260.369 123.192C260.369 124.236 261.077 124.98 262.085 124.98ZM271.659 123.576H267.183C267.339 124.476 268.107 125.004 269.223 125.004C270.051 125.004 270.747 124.752 271.251 124.272H271.311V125.532C270.831 125.904 270.063 126.12 269.175 126.12C267.207 126.12 265.887 124.944 265.887 123.192C265.887 121.464 267.099 120.252 268.815 120.252C270.555 120.252 271.659 121.308 271.659 122.952V123.576ZM268.851 121.368C268.047 121.368 267.339 121.872 267.183 122.628H270.483C270.375 121.86 269.727 121.368 268.851 121.368ZM275.677 120.252C276.037 120.252 276.337 120.348 276.517 120.468V121.728H276.457C276.217 121.56 275.917 121.464 275.569 121.464C274.561 121.464 274.069 122.136 274.069 123.504V126H272.797V120.372H273.865L273.913 121.236H273.937C274.261 120.588 274.837 120.252 275.677 120.252ZM279.79 117.48C280.282 117.48 280.666 117.552 280.93 117.684V118.872H280.87C280.63 118.704 280.294 118.62 279.982 118.62C279.382 118.62 279.058 118.98 279.058 119.628V120.372H280.774V121.476H279.058V126H277.786V121.476H276.79V120.372H277.786V119.568C277.786 118.236 278.494 117.48 279.79 117.48ZM284.097 120.252C285.849 120.252 287.097 121.464 287.097 123.192C287.097 124.908 285.849 126.12 284.097 126.12C282.345 126.12 281.109 124.908 281.109 123.192C281.109 121.464 282.345 120.252 284.097 120.252ZM284.097 121.392C283.089 121.392 282.393 122.124 282.393 123.192C282.393 124.236 283.089 124.98 284.097 124.98C285.117 124.98 285.813 124.236 285.813 123.192C285.813 122.124 285.117 121.392 284.097 121.392ZM291.134 120.252C291.494 120.252 291.794 120.348 291.974 120.468V121.728H291.914C291.674 121.56 291.374 121.464 291.026 121.464C290.018 121.464 289.526 122.136 289.526 123.504V126H288.254V120.372H289.322L289.37 121.236H289.394C289.718 120.588 290.294 120.252 291.134 120.252ZM299.496 120.252C300.852 120.252 301.608 121.128 301.608 122.676V126H300.336V122.808C300.336 121.884 299.928 121.392 299.172 121.392C298.32 121.392 297.876 121.956 297.876 123.096V126H296.604V122.808C296.604 121.884 296.196 121.392 295.428 121.392C294.588 121.392 294.144 121.956 294.144 123V126H292.872V120.372H293.928L293.964 121.188H293.988C294.324 120.576 294.912 120.252 295.752 120.252C296.544 120.252 297.168 120.6 297.504 121.26H297.528C297.876 120.588 298.5 120.252 299.496 120.252ZM308.565 126H307.509L307.473 125.196H307.449C307.041 125.772 306.333 126.12 305.421 126.12C303.813 126.12 302.637 124.896 302.637 123.192C302.637 121.488 303.813 120.252 305.421 120.252C306.333 120.252 307.029 120.6 307.437 121.176H307.461L307.509 120.372H308.565V126ZM305.625 124.98C306.633 124.98 307.329 124.236 307.329 123.192C307.329 122.124 306.633 121.392 305.625 121.392C304.617 121.392 303.921 122.124 303.921 123.192C303.921 124.236 304.617 124.98 305.625 124.98ZM313.087 120.252C314.491 120.252 315.343 121.164 315.343 122.7V126H314.071V122.844C314.071 121.92 313.579 121.392 312.763 121.392C311.863 121.392 311.323 122.004 311.323 123.048V126H310.051V120.372H311.119L311.167 121.236H311.191C311.551 120.6 312.199 120.252 313.087 120.252ZM319.419 120.252C320.199 120.252 320.775 120.42 321.219 120.744V122.124H321.159C320.763 121.62 320.223 121.392 319.539 121.392C318.375 121.392 317.655 122.112 317.655 123.192C317.655 124.248 318.375 124.98 319.539 124.98C320.235 124.98 320.775 124.728 321.159 124.236H321.219V125.64C320.799 125.964 320.199 126.12 319.419 126.12C317.583 126.12 316.371 124.908 316.371 123.192C316.371 121.464 317.583 120.252 319.419 120.252ZM327.932 123.576H323.456C323.612 124.476 324.38 125.004 325.496 125.004C326.324 125.004 327.02 124.752 327.524 124.272H327.584V125.532C327.104 125.904 326.336 126.12 325.448 126.12C323.48 126.12 322.16 124.944 322.16 123.192C322.16 121.464 323.372 120.252 325.088 120.252C326.828 120.252 327.932 121.308 327.932 122.952V123.576ZM325.124 121.368C324.32 121.368 323.612 121.872 323.456 122.628H326.756C326.648 121.86 326 121.368 325.124 121.368ZM25.0087 135.252C25.7887 135.252 26.3647 135.42 26.8087 135.744V137.124H26.7487C26.3527 136.62 25.8127 136.392 25.1287 136.392C23.9647 136.392 23.2447 137.112 23.2447 138.192C23.2447 139.248 23.9647 139.98 25.1287 139.98C25.8247 139.98 26.3647 139.728 26.7487 139.236H26.8087V140.64C26.3887 140.964 25.7887 141.12 25.0087 141.12C23.1727 141.12 21.9607 139.908 21.9607 138.192C21.9607 136.464 23.1727 135.252 25.0087 135.252ZM30.7378 135.252C32.4898 135.252 33.7378 136.464 33.7378 138.192C33.7378 139.908 32.4898 141.12 30.7378 141.12C28.9858 141.12 27.7498 139.908 27.7498 138.192C27.7498 136.464 28.9858 135.252 30.7378 135.252ZM30.7378 136.392C29.7298 136.392 29.0338 137.124 29.0338 138.192C29.0338 139.236 29.7298 139.98 30.7378 139.98C31.7578 139.98 32.4538 139.236 32.4538 138.192C32.4538 137.124 31.7578 136.392 30.7378 136.392ZM41.5424 135.252C42.8984 135.252 43.6544 136.128 43.6544 137.676V141H42.3824V137.808C42.3824 136.884 41.9744 136.392 41.2184 136.392C40.3664 136.392 39.9224 136.956 39.9224 138.096V141H38.6504V137.808C38.6504 136.884 38.2424 136.392 37.4744 136.392C36.6344 136.392 36.1904 136.956 36.1904 138V141H34.9184V135.372H35.9744L36.0104 136.188H36.0344C36.3704 135.576 36.9584 135.252 37.7984 135.252C38.5904 135.252 39.2144 135.6 39.5504 136.26H39.5744C39.9224 135.588 40.5464 135.252 41.5424 135.252ZM48.1754 135.252C49.7834 135.252 50.9594 136.488 50.9594 138.192C50.9594 139.896 49.7834 141.12 48.1754 141.12C47.3594 141.12 46.7354 140.856 46.3154 140.4H46.2914V143.28H45.0194V135.372H46.0874L46.1234 136.176H46.1474C46.5554 135.6 47.2514 135.252 48.1754 135.252ZM47.9714 139.98C48.9674 139.98 49.6754 139.236 49.6754 138.192C49.6754 137.124 48.9674 136.392 47.9714 136.392C46.9634 136.392 46.2554 137.124 46.2554 138.192C46.2554 139.236 46.9634 139.98 47.9714 139.98ZM57.7012 141H56.6452L56.6092 140.196H56.5852C56.1772 140.772 55.4692 141.12 54.5572 141.12C52.9492 141.12 51.7732 139.896 51.7732 138.192C51.7732 136.488 52.9492 135.252 54.5572 135.252C55.4692 135.252 56.1652 135.6 56.5732 136.176H56.5972L56.6452 135.372H57.7012V141ZM54.7612 139.98C55.7692 139.98 56.4652 139.236 56.4652 138.192C56.4652 137.124 55.7692 136.392 54.7612 136.392C53.7532 136.392 53.0572 137.124 53.0572 138.192C53.0572 139.236 53.7532 139.98 54.7612 139.98ZM62.0674 135.252C62.4274 135.252 62.7274 135.348 62.9074 135.468V136.728H62.8474C62.6074 136.56 62.3074 136.464 61.9594 136.464C60.9514 136.464 60.4594 137.136 60.4594 138.504V141H59.1874V135.372H60.2554L60.3034 136.236H60.3274C60.6514 135.588 61.2274 135.252 62.0674 135.252ZM69.1234 138.576H64.6474C64.8034 139.476 65.5714 140.004 66.6874 140.004C67.5154 140.004 68.2114 139.752 68.7154 139.272H68.7754V140.532C68.2954 140.904 67.5274 141.12 66.6394 141.12C64.6714 141.12 63.3514 139.944 63.3514 138.192C63.3514 136.464 64.5634 135.252 66.2794 135.252C68.0194 135.252 69.1234 136.308 69.1234 137.952V138.576ZM66.3154 136.368C65.5114 136.368 64.8034 136.872 64.6474 137.628H67.9474C67.8394 136.86 67.1914 136.368 66.3154 136.368ZM75.8536 141H74.7976L74.7616 140.196H74.7376C74.3296 140.772 73.6216 141.12 72.7096 141.12C71.1016 141.12 69.9256 139.896 69.9256 138.192C69.9256 136.488 71.1016 135.252 72.7096 135.252C73.5136 135.252 74.1376 135.516 74.5576 135.96H74.5816V132.6H75.8536V141ZM72.9136 139.98C73.9216 139.98 74.6176 139.236 74.6176 138.192C74.6176 137.124 73.9216 136.392 72.9136 136.392C71.9056 136.392 71.2096 137.124 71.2096 138.192C71.2096 139.236 71.9056 139.98 72.9136 139.98ZM83.3844 139.656V140.916C83.1204 141.048 82.7724 141.12 82.3284 141.12C81.0564 141.12 80.3724 140.4 80.3724 139.068V136.476H79.3764V135.372H80.4084L80.5884 133.824H81.6444V135.372H83.3604V136.476H81.6444V139.02C81.6444 139.632 81.9684 139.992 82.5204 139.992C82.8204 139.992 83.0964 139.908 83.3244 139.656H83.3844ZM87.1401 135.252C88.8921 135.252 90.1401 136.464 90.1401 138.192C90.1401 139.908 88.8921 141.12 87.1401 141.12C85.3881 141.12 84.1521 139.908 84.1521 138.192C84.1521 136.464 85.3881 135.252 87.1401 135.252ZM87.1401 136.392C86.1321 136.392 85.4361 137.124 85.4361 138.192C85.4361 139.236 86.1321 139.98 87.1401 139.98C88.1601 139.98 88.8561 139.236 88.8561 138.192C88.8561 137.124 88.1601 136.392 87.1401 136.392ZM97.3415 139.656V140.916C97.0775 141.048 96.7295 141.12 96.2855 141.12C95.0135 141.12 94.3295 140.4 94.3295 139.068V136.476H93.3335V135.372H94.3655L94.5455 133.824H95.6015V135.372H97.3175V136.476H95.6015V139.02C95.6015 139.632 95.9255 139.992 96.4775 139.992C96.7775 139.992 97.0535 139.908 97.2815 139.656H97.3415ZM101.372 135.252C101.732 135.252 102.032 135.348 102.212 135.468V136.728H102.152C101.912 136.56 101.612 136.464 101.264 136.464C100.256 136.464 99.764 137.136 99.764 138.504V141H98.492V135.372H99.56L99.608 136.236H99.632C99.956 135.588 100.532 135.252 101.372 135.252ZM108.584 141H107.528L107.492 140.196H107.468C107.06 140.772 106.352 141.12 105.44 141.12C103.832 141.12 102.656 139.896 102.656 138.192C102.656 136.488 103.832 135.252 105.44 135.252C106.352 135.252 107.048 135.6 107.456 136.176H107.48L107.528 135.372H108.584V141ZM105.644 139.98C106.652 139.98 107.348 139.236 107.348 138.192C107.348 137.124 106.652 136.392 105.644 136.392C104.636 136.392 103.94 137.124 103.94 138.192C103.94 139.236 104.636 139.98 105.644 139.98ZM115.662 141H114.606L114.57 140.196H114.546C114.138 140.772 113.43 141.12 112.518 141.12C110.91 141.12 109.734 139.896 109.734 138.192C109.734 136.488 110.91 135.252 112.518 135.252C113.322 135.252 113.946 135.516 114.366 135.96H114.39V132.6H115.662V141ZM112.722 139.98C113.73 139.98 114.426 139.236 114.426 138.192C114.426 137.124 113.73 136.392 112.722 136.392C111.714 136.392 111.018 137.124 111.018 138.192C111.018 139.236 111.714 139.98 112.722 139.98ZM117.784 132.804C118.276 132.804 118.6 133.14 118.6 133.62C118.6 134.1 118.276 134.424 117.784 134.424C117.304 134.424 116.98 134.1 116.98 133.62C116.98 133.14 117.304 132.804 117.784 132.804ZM117.148 135.372H118.42V141H117.148V135.372ZM123.334 139.656V140.916C123.07 141.048 122.722 141.12 122.278 141.12C121.006 141.12 120.322 140.4 120.322 139.068V136.476H119.326V135.372H120.358L120.538 133.824H121.594V135.372H123.31V136.476H121.594V139.02C121.594 139.632 121.918 139.992 122.47 139.992C122.77 139.992 123.046 139.908 123.274 139.656H123.334ZM125.12 132.804C125.612 132.804 125.936 133.14 125.936 133.62C125.936 134.1 125.612 134.424 125.12 134.424C124.64 134.424 124.316 134.1 124.316 133.62C124.316 133.14 124.64 132.804 125.12 132.804ZM124.484 135.372H125.756V141H124.484V135.372ZM129.914 135.252C131.666 135.252 132.914 136.464 132.914 138.192C132.914 139.908 131.666 141.12 129.914 141.12C128.162 141.12 126.926 139.908 126.926 138.192C126.926 136.464 128.162 135.252 129.914 135.252ZM129.914 136.392C128.906 136.392 128.21 137.124 128.21 138.192C128.21 139.236 128.906 139.98 129.914 139.98C130.934 139.98 131.63 139.236 131.63 138.192C131.63 137.124 130.934 136.392 129.914 136.392ZM137.106 135.252C138.51 135.252 139.362 136.164 139.362 137.7V141H138.09V137.844C138.09 136.92 137.598 136.392 136.782 136.392C135.882 136.392 135.342 137.004 135.342 138.048V141H134.07V135.372H135.138L135.186 136.236H135.21C135.57 135.6 136.218 135.252 137.106 135.252ZM146.318 141H145.262L145.226 140.196H145.202C144.794 140.772 144.086 141.12 143.174 141.12C141.566 141.12 140.39 139.896 140.39 138.192C140.39 136.488 141.566 135.252 143.174 135.252C144.086 135.252 144.782 135.6 145.19 136.176H145.214L145.262 135.372H146.318V141ZM143.378 139.98C144.386 139.98 145.082 139.236 145.082 138.192C145.082 137.124 144.386 136.392 143.378 136.392C142.37 136.392 141.674 137.124 141.674 138.192C141.674 139.236 142.37 139.98 143.378 139.98ZM147.805 141V132.6H149.077V141H147.805ZM156.099 132.912C157.143 132.912 158.115 133.164 158.631 133.548V135.072H158.559C158.043 134.52 157.131 134.196 156.075 134.196C155.067 134.196 154.419 134.628 154.419 135.3C154.419 135.864 154.839 136.152 156.183 136.284C158.307 136.5 159.087 137.232 159.087 138.696C159.087 140.22 157.935 141.12 155.967 141.12C154.659 141.12 153.627 140.856 152.979 140.364V138.828H153.051C153.771 139.488 154.767 139.836 155.931 139.836C157.035 139.836 157.659 139.44 157.659 138.732C157.659 138.12 157.227 137.832 155.811 137.676C153.735 137.448 152.991 136.776 152.991 135.384C152.991 133.848 154.179 132.912 156.099 132.912ZM160.382 133.032H163.85C165.782 133.032 166.778 133.908 166.778 135.612C166.778 137.304 165.782 138.18 163.85 138.18H161.822V141H160.382V133.032ZM161.822 136.896H163.79C164.834 136.896 165.326 136.476 165.326 135.612C165.326 134.736 164.834 134.316 163.79 134.316H161.822V136.896ZM171.901 141H170.509L167.245 133.032H168.793L171.217 139.176H171.241L173.665 133.032H175.165L171.901 141ZM180.782 133.032H182.09C180.902 134.364 180.326 135.9 180.326 137.628C180.326 139.356 180.902 140.892 182.09 142.224H180.782C179.606 140.952 178.982 139.332 178.982 137.628C178.982 135.924 179.606 134.304 180.782 133.032ZM186.275 132.912C187.319 132.912 188.291 133.164 188.807 133.548V135.072H188.735C188.219 134.52 187.307 134.196 186.251 134.196C185.243 134.196 184.595 134.628 184.595 135.3C184.595 135.864 185.015 136.152 186.359 136.284C188.483 136.5 189.263 137.232 189.263 138.696C189.263 140.22 188.111 141.12 186.143 141.12C184.835 141.12 183.803 140.856 183.155 140.364V138.828H183.227C183.947 139.488 184.943 139.836 186.107 139.836C187.211 139.836 187.835 139.44 187.835 138.732C187.835 138.12 187.403 137.832 185.987 137.676C183.911 137.448 183.167 136.776 183.167 135.384C183.167 133.848 184.355 132.912 186.275 132.912ZM193.81 139.656V140.916C193.546 141.048 193.198 141.12 192.754 141.12C191.482 141.12 190.798 140.4 190.798 139.068V136.476H189.802V135.372H190.834L191.014 133.824H192.07V135.372H193.786V136.476H192.07V139.02C192.07 139.632 192.394 139.992 192.946 139.992C193.246 139.992 193.522 139.908 193.75 139.656H193.81ZM197.841 135.252C198.201 135.252 198.501 135.348 198.681 135.468V136.728H198.621C198.381 136.56 198.081 136.464 197.733 136.464C196.725 136.464 196.233 137.136 196.233 138.504V141H194.961V135.372H196.029L196.077 136.236H196.101C196.425 135.588 197.001 135.252 197.841 135.252ZM204.715 141H203.647L203.599 140.148H203.575C203.215 140.772 202.579 141.12 201.691 141.12C200.275 141.12 199.435 140.208 199.435 138.672V135.372H200.707V138.528C200.707 139.44 201.187 139.98 202.015 139.98C202.915 139.98 203.443 139.356 203.443 138.324V135.372H204.715V141ZM208.923 135.252C209.703 135.252 210.279 135.42 210.723 135.744V137.124H210.663C210.267 136.62 209.727 136.392 209.043 136.392C207.879 136.392 207.159 137.112 207.159 138.192C207.159 139.248 207.879 139.98 209.043 139.98C209.739 139.98 210.279 139.728 210.663 139.236H210.723V140.64C210.303 140.964 209.703 141.12 208.923 141.12C207.087 141.12 205.875 139.908 205.875 138.192C205.875 136.464 207.087 135.252 208.923 135.252ZM215.408 139.656V140.916C215.144 141.048 214.796 141.12 214.352 141.12C213.08 141.12 212.396 140.4 212.396 139.068V136.476H211.4V135.372H212.432L212.612 133.824H213.668V135.372H215.384V136.476H213.668V139.02C213.668 139.632 213.992 139.992 214.544 139.992C214.844 139.992 215.12 139.908 215.348 139.656H215.408ZM221.718 141H220.65L220.602 140.148H220.578C220.218 140.772 219.582 141.12 218.694 141.12C217.278 141.12 216.438 140.208 216.438 138.672V135.372H217.71V138.528C217.71 139.44 218.19 139.98 219.018 139.98C219.918 139.98 220.446 139.356 220.446 138.324V135.372H221.718V141ZM226.095 135.252C226.455 135.252 226.755 135.348 226.935 135.468V136.728H226.875C226.635 136.56 226.335 136.464 225.987 136.464C224.979 136.464 224.487 137.136 224.487 138.504V141H223.215V135.372H224.283L224.331 136.236H224.355C224.679 135.588 225.255 135.252 226.095 135.252ZM233.151 138.576H228.675C228.831 139.476 229.599 140.004 230.715 140.004C231.543 140.004 232.239 139.752 232.743 139.272H232.803V140.532C232.323 140.904 231.555 141.12 230.667 141.12C228.699 141.12 227.379 139.944 227.379 138.192C227.379 136.464 228.591 135.252 230.307 135.252C232.047 135.252 233.151 136.308 233.151 137.952V138.576ZM230.343 136.368C229.539 136.368 228.831 136.872 228.675 137.628H231.975C231.867 136.86 231.219 136.368 230.343 136.368ZM239.881 141H238.825L238.789 140.196H238.765C238.357 140.772 237.649 141.12 236.737 141.12C235.129 141.12 233.953 139.896 233.953 138.192C233.953 136.488 235.129 135.252 236.737 135.252C237.541 135.252 238.165 135.516 238.585 135.96H238.609V132.6H239.881V141ZM236.941 139.98C237.949 139.98 238.645 139.236 238.645 138.192C238.645 137.124 237.949 136.392 236.941 136.392C235.933 136.392 235.237 137.124 235.237 138.192C235.237 139.236 235.933 139.98 236.941 139.98ZM244.16 133.032H247.628C249.56 133.032 250.556 133.908 250.556 135.612C250.556 137.304 249.56 138.18 247.628 138.18H245.6V141H244.16V133.032ZM245.6 136.896H247.568C248.612 136.896 249.104 136.476 249.104 135.612C249.104 134.736 248.612 134.316 247.568 134.316H245.6V136.896ZM254.524 135.252C254.884 135.252 255.184 135.348 255.364 135.468V136.728H255.304C255.064 136.56 254.764 136.464 254.416 136.464C253.408 136.464 252.916 137.136 252.916 138.504V141H251.644V135.372H252.712L252.76 136.236H252.784C253.108 135.588 253.684 135.252 254.524 135.252ZM258.796 135.252C260.548 135.252 261.796 136.464 261.796 138.192C261.796 139.908 260.548 141.12 258.796 141.12C257.044 141.12 255.808 139.908 255.808 138.192C255.808 136.464 257.044 135.252 258.796 135.252ZM258.796 136.392C257.788 136.392 257.092 137.124 257.092 138.192C257.092 139.236 257.788 139.98 258.796 139.98C259.816 139.98 260.512 139.236 260.512 138.192C260.512 137.124 259.816 136.392 258.796 136.392ZM268.545 141H267.489L267.453 140.196H267.429C267.021 140.772 266.313 141.12 265.401 141.12C263.793 141.12 262.617 139.896 262.617 138.192C262.617 136.488 263.793 135.252 265.401 135.252C266.205 135.252 266.829 135.516 267.249 135.96H267.273V132.6H268.545V141ZM265.605 139.98C266.613 139.98 267.309 139.236 267.309 138.192C267.309 137.124 266.613 136.392 265.605 136.392C264.597 136.392 263.901 137.124 263.901 138.192C263.901 139.236 264.597 139.98 265.605 139.98ZM275.191 141H274.123L274.075 140.148H274.051C273.691 140.772 273.055 141.12 272.167 141.12C270.751 141.12 269.911 140.208 269.911 138.672V135.372H271.183V138.528C271.183 139.44 271.663 139.98 272.491 139.98C273.391 139.98 273.919 139.356 273.919 138.324V135.372H275.191V141ZM279.399 135.252C280.179 135.252 280.755 135.42 281.199 135.744V137.124H281.139C280.743 136.62 280.203 136.392 279.519 136.392C278.355 136.392 277.635 137.112 277.635 138.192C277.635 139.248 278.355 139.98 279.519 139.98C280.215 139.98 280.755 139.728 281.139 139.236H281.199V140.64C280.779 140.964 280.179 141.12 279.399 141.12C277.563 141.12 276.351 139.908 276.351 138.192C276.351 136.464 277.563 135.252 279.399 135.252ZM285.884 139.656V140.916C285.62 141.048 285.272 141.12 284.828 141.12C283.556 141.12 282.872 140.4 282.872 139.068V136.476H281.876V135.372H282.908L283.088 133.824H284.144V135.372H285.86V136.476H284.144V139.02C284.144 139.632 284.468 139.992 285.02 139.992C285.32 139.992 285.596 139.908 285.824 139.656H285.884ZM293.776 141H292.384L289.12 133.032H290.668L293.092 139.176H293.116L295.54 133.032H297.04L293.776 141ZM302.764 141H301.708L301.672 140.196H301.648C301.24 140.772 300.532 141.12 299.62 141.12C298.012 141.12 296.836 139.896 296.836 138.192C296.836 136.488 298.012 135.252 299.62 135.252C300.532 135.252 301.228 135.6 301.636 136.176H301.66L301.708 135.372H302.764V141ZM299.824 139.98C300.832 139.98 301.528 139.236 301.528 138.192C301.528 137.124 300.832 136.392 299.824 136.392C298.816 136.392 298.12 137.124 298.12 138.192C298.12 139.236 298.816 139.98 299.824 139.98ZM309.41 141H308.342L308.294 140.148H308.27C307.91 140.772 307.274 141.12 306.386 141.12C304.97 141.12 304.13 140.208 304.13 138.672V135.372H305.402V138.528C305.402 139.44 305.882 139.98 306.71 139.98C307.61 139.98 308.138 139.356 308.138 138.324V135.372H309.41V141ZM310.906 141V132.6H312.178V141H310.906ZM317.08 139.656V140.916C316.816 141.048 316.468 141.12 316.024 141.12C314.752 141.12 314.068 140.4 314.068 139.068V136.476H313.072V135.372H314.104L314.284 133.824H315.34V135.372H317.056V136.476H315.34V139.02C315.34 139.632 315.664 139.992 316.216 139.992C316.516 139.992 316.792 139.908 317.02 139.656H317.08ZM320.175 135.252C320.907 135.252 321.567 135.396 321.975 135.66V136.968H321.915C321.531 136.572 320.943 136.368 320.211 136.368C319.599 136.368 319.167 136.644 319.167 137.04C319.167 137.364 319.419 137.508 320.247 137.556C321.747 137.64 322.335 138.192 322.335 139.332C322.335 140.436 321.483 141.12 320.079 141.12C319.143 141.12 318.411 140.928 317.943 140.568V139.236H318.003C318.471 139.74 319.155 140.004 320.019 140.004C320.679 140.004 321.087 139.74 321.087 139.332C321.087 138.96 320.835 138.792 319.923 138.72C318.459 138.6 317.919 138.144 317.919 137.076C317.919 135.972 318.819 135.252 320.175 135.252ZM324.526 142.224H323.218C324.406 140.892 324.982 139.356 324.982 137.628C324.982 135.9 324.406 134.364 323.218 133.032H324.526C325.702 134.304 326.326 135.924 326.326 137.628C326.326 139.332 325.702 140.952 324.526 142.224ZM327.367 142.404L328.387 139.584H329.695L328.411 142.404H327.367ZM62.4671 153.576H57.9911C58.1471 154.476 58.9151 155.004 60.0311 155.004C60.8591 155.004 61.5551 154.752 62.0591 154.272H62.1191V155.532C61.6391 155.904 60.8711 156.12 59.9831 156.12C58.0151 156.12 56.6951 154.944 56.6951 153.192C56.6951 151.464 57.9071 150.252 59.6231 150.252C61.3631 150.252 62.4671 151.308 62.4671 152.952V153.576ZM59.6591 151.368C58.8551 151.368 58.1471 151.872 57.9911 152.628H61.2911C61.1831 151.86 60.5351 151.368 59.6591 151.368ZM66.6413 150.252C68.0453 150.252 68.8973 151.164 68.8973 152.7V156H67.6253V152.844C67.6253 151.92 67.1333 151.392 66.3173 151.392C65.4173 151.392 64.8773 152.004 64.8773 153.048V156H63.6053V150.372H64.6733L64.7213 151.236H64.7453C65.1053 150.6 65.7533 150.252 66.6413 150.252ZM75.8536 156H74.7976L74.7616 155.196H74.7376C74.3296 155.772 73.6216 156.12 72.7096 156.12C71.1016 156.12 69.9256 154.896 69.9256 153.192C69.9256 151.488 71.1016 150.252 72.7096 150.252C73.6216 150.252 74.3176 150.6 74.7256 151.176H74.7496L74.7976 150.372H75.8536V156ZM72.9136 154.98C73.9216 154.98 74.6176 154.236 74.6176 153.192C74.6176 152.124 73.9216 151.392 72.9136 151.392C71.9056 151.392 71.2096 152.124 71.2096 153.192C71.2096 154.236 71.9056 154.98 72.9136 154.98ZM80.4957 150.252C82.1037 150.252 83.2797 151.488 83.2797 153.192C83.2797 154.896 82.1037 156.12 80.4957 156.12C79.5717 156.12 78.8757 155.772 78.4677 155.196H78.4437L78.4077 156H77.3397V147.6H78.6117V150.972H78.6357C79.0557 150.516 79.6797 150.252 80.4957 150.252ZM80.2917 154.98C81.2877 154.98 81.9957 154.236 81.9957 153.192C81.9957 152.124 81.2877 151.392 80.2917 151.392C79.2837 151.392 78.5757 152.124 78.5757 153.192C78.5757 154.236 79.2837 154.98 80.2917 154.98ZM84.4295 156V147.6H85.7015V156H84.4295ZM87.8312 147.804C88.3232 147.804 88.6472 148.14 88.6472 148.62C88.6472 149.1 88.3232 149.424 87.8312 149.424C87.3512 149.424 87.0272 149.1 87.0272 148.62C87.0272 148.14 87.3512 147.804 87.8312 147.804ZM87.1952 150.372H88.4672V156H87.1952V150.372ZM93.0085 150.252C94.4125 150.252 95.2645 151.164 95.2645 152.7V156H93.9925V152.844C93.9925 151.92 93.5005 151.392 92.6845 151.392C91.7845 151.392 91.2445 152.004 91.2445 153.048V156H89.9725V150.372H91.0405L91.0885 151.236H91.1125C91.4725 150.6 92.1205 150.252 93.0085 150.252ZM102.221 150.372V155.544C102.221 157.32 101.069 158.4 99.1488 158.4C98.1768 158.4 97.3488 158.148 96.8328 157.716V156.396H96.8928C97.3368 156.936 98.1048 157.26 98.9928 157.26C100.253 157.26 100.949 156.612 100.949 155.472V155.34H100.925C100.505 155.784 99.8808 156.048 99.0768 156.048C97.4688 156.048 96.2928 154.86 96.2928 153.156C96.2928 151.452 97.4688 150.252 99.0768 150.252C99.9888 150.252 100.697 150.6 101.105 151.176H101.129L101.165 150.372H102.221ZM99.2808 154.908C100.289 154.908 100.985 154.212 100.985 153.156C100.985 152.088 100.289 151.392 99.2808 151.392C98.2728 151.392 97.5768 152.088 97.5768 153.156C97.5768 154.212 98.2728 154.908 99.2808 154.908ZM109.38 150.252C110.784 150.252 111.636 151.164 111.636 152.7V156H110.364V152.844C110.364 151.92 109.872 151.392 109.056 151.392C108.156 151.392 107.616 152.004 107.616 153.048V156H106.344V147.6H107.616V150.984H107.64C108.024 150.516 108.624 150.252 109.38 150.252ZM113.636 147.804C114.128 147.804 114.452 148.14 114.452 148.62C114.452 149.1 114.128 149.424 113.636 149.424C113.156 149.424 112.832 149.1 112.832 148.62C112.832 148.14 113.156 147.804 113.636 147.804ZM113 150.372H114.272V156H113V150.372ZM121.369 150.372V155.544C121.369 157.32 120.217 158.4 118.297 158.4C117.325 158.4 116.497 158.148 115.981 157.716V156.396H116.041C116.485 156.936 117.253 157.26 118.141 157.26C119.401 157.26 120.097 156.612 120.097 155.472V155.34H120.073C119.653 155.784 119.029 156.048 118.225 156.048C116.617 156.048 115.441 154.86 115.441 153.156C115.441 151.452 116.617 150.252 118.225 150.252C119.137 150.252 119.845 150.6 120.253 151.176H120.277L120.313 150.372H121.369ZM118.429 154.908C119.437 154.908 120.133 154.212 120.133 153.156C120.133 152.088 119.437 151.392 118.429 151.392C117.421 151.392 116.725 152.088 116.725 153.156C116.725 154.212 117.421 154.908 118.429 154.908ZM125.891 150.252C127.295 150.252 128.147 151.164 128.147 152.7V156H126.875V152.844C126.875 151.92 126.383 151.392 125.567 151.392C124.667 151.392 124.127 152.004 124.127 153.048V156H122.855V147.6H124.127V150.984H124.151C124.535 150.516 125.135 150.252 125.891 150.252ZM134.948 153.576H130.472C130.628 154.476 131.396 155.004 132.512 155.004C133.34 155.004 134.036 154.752 134.54 154.272H134.6V155.532C134.12 155.904 133.352 156.12 132.464 156.12C130.496 156.12 129.176 154.944 129.176 153.192C129.176 151.464 130.388 150.252 132.104 150.252C133.844 150.252 134.948 151.308 134.948 152.952V153.576ZM132.14 151.368C131.336 151.368 130.628 151.872 130.472 152.628H133.772C133.664 151.86 133.016 151.368 132.14 151.368ZM138.966 150.252C139.326 150.252 139.626 150.348 139.806 150.468V151.728H139.746C139.506 151.56 139.206 151.464 138.858 151.464C137.85 151.464 137.358 152.136 137.358 153.504V156H136.086V150.372H137.154L137.202 151.236H137.226C137.55 150.588 138.126 150.252 138.966 150.252ZM146.196 150.252C146.556 150.252 146.856 150.348 147.036 150.468V151.728H146.976C146.736 151.56 146.436 151.464 146.088 151.464C145.08 151.464 144.588 152.136 144.588 153.504V156H143.316V150.372H144.384L144.432 151.236H144.456C144.78 150.588 145.356 150.252 146.196 150.252ZM153.252 153.576H148.776C148.932 154.476 149.7 155.004 150.816 155.004C151.644 155.004 152.34 154.752 152.844 154.272H152.904V155.532C152.424 155.904 151.656 156.12 150.768 156.12C148.8 156.12 147.48 154.944 147.48 153.192C147.48 151.464 148.692 150.252 150.408 150.252C152.148 150.252 153.252 151.308 153.252 152.952V153.576ZM150.444 151.368C149.64 151.368 148.932 151.872 148.776 152.628H152.076C151.968 151.86 151.32 151.368 150.444 151.368ZM157.763 154.656V155.916C157.499 156.048 157.151 156.12 156.707 156.12C155.435 156.12 154.751 155.4 154.751 154.068V151.476H153.755V150.372H154.787L154.967 148.824H156.023V150.372H157.739V151.476H156.023V154.02C156.023 154.632 156.347 154.992 156.899 154.992C157.199 154.992 157.475 154.908 157.703 154.656H157.763ZM164.074 156H163.006L162.958 155.148H162.934C162.574 155.772 161.938 156.12 161.05 156.12C159.634 156.12 158.794 155.208 158.794 153.672V150.372H160.066V153.528C160.066 154.44 160.546 154.98 161.374 154.98C162.274 154.98 162.802 154.356 162.802 153.324V150.372H164.074V156ZM168.45 150.252C168.81 150.252 169.11 150.348 169.29 150.468V151.728H169.23C168.99 151.56 168.69 151.464 168.342 151.464C167.334 151.464 166.842 152.136 166.842 153.504V156H165.57V150.372H166.638L166.686 151.236H166.71C167.034 150.588 167.61 150.252 168.45 150.252ZM173.2 150.252C174.604 150.252 175.456 151.164 175.456 152.7V156H174.184V152.844C174.184 151.92 173.692 151.392 172.876 151.392C171.976 151.392 171.436 152.004 171.436 153.048V156H170.164V150.372H171.232L171.28 151.236H171.304C171.664 150.6 172.312 150.252 173.2 150.252ZM178.8 150.252C179.532 150.252 180.192 150.396 180.6 150.66V151.968H180.54C180.156 151.572 179.568 151.368 178.836 151.368C178.224 151.368 177.792 151.644 177.792 152.04C177.792 152.364 178.044 152.508 178.872 152.556C180.372 152.64 180.96 153.192 180.96 154.332C180.96 155.436 180.108 156.12 178.704 156.12C177.768 156.12 177.036 155.928 176.568 155.568V154.236H176.628C177.096 154.74 177.78 155.004 178.644 155.004C179.304 155.004 179.712 154.74 179.712 154.332C179.712 153.96 179.46 153.792 178.548 153.72C177.084 153.6 176.544 153.144 176.544 152.076C176.544 150.972 177.444 150.252 178.8 150.252ZM191.056 156H189.808L188.512 152.208H188.488L187.18 156H185.956L184.012 150.372H185.368L186.604 154.368H186.628L188.02 150.372H189.04L190.432 154.368H190.456L191.692 150.372H192.988L191.056 156ZM194.448 147.804C194.94 147.804 195.264 148.14 195.264 148.62C195.264 149.1 194.94 149.424 194.448 149.424C193.968 149.424 193.644 149.1 193.644 148.62C193.644 148.14 193.968 147.804 194.448 147.804ZM193.812 150.372H195.084V156H193.812V150.372ZM199.998 154.656V155.916C199.734 156.048 199.386 156.12 198.942 156.12C197.67 156.12 196.986 155.4 196.986 154.068V151.476H195.99V150.372H197.022L197.202 148.824H198.258V150.372H199.974V151.476H198.258V154.02C198.258 154.632 198.582 154.992 199.134 154.992C199.434 154.992 199.71 154.908 199.938 154.656H199.998ZM204.184 150.252C205.588 150.252 206.44 151.164 206.44 152.7V156H205.168V152.844C205.168 151.92 204.676 151.392 203.86 151.392C202.96 151.392 202.42 152.004 202.42 153.048V156H201.148V147.6H202.42V150.984H202.444C202.828 150.516 203.428 150.252 204.184 150.252ZM210.441 156V147.6H211.713V156H210.441ZM215.859 150.252C217.611 150.252 218.859 151.464 218.859 153.192C218.859 154.908 217.611 156.12 215.859 156.12C214.107 156.12 212.871 154.908 212.871 153.192C212.871 151.464 214.107 150.252 215.859 150.252ZM215.859 151.392C214.851 151.392 214.155 152.124 214.155 153.192C214.155 154.236 214.851 154.98 215.859 154.98C216.879 154.98 217.575 154.236 217.575 153.192C217.575 152.124 216.879 151.392 215.859 151.392ZM226.259 156H225.011L223.715 152.208H223.691L222.383 156H221.159L219.215 150.372H220.571L221.807 154.368H221.831L223.223 150.372H224.243L225.635 154.368H225.659L226.895 150.372H228.191L226.259 156ZM234.311 153.576H229.835C229.991 154.476 230.759 155.004 231.875 155.004C232.703 155.004 233.399 154.752 233.903 154.272H233.963V155.532C233.483 155.904 232.715 156.12 231.827 156.12C229.859 156.12 228.539 154.944 228.539 153.192C228.539 151.464 229.751 150.252 231.467 150.252C233.207 150.252 234.311 151.308 234.311 152.952V153.576ZM231.503 151.368C230.699 151.368 229.991 151.872 229.835 152.628H233.135C233.027 151.86 232.379 151.368 231.503 151.368ZM238.329 150.252C238.689 150.252 238.989 150.348 239.169 150.468V151.728H239.109C238.869 151.56 238.569 151.464 238.221 151.464C237.213 151.464 236.721 152.136 236.721 153.504V156H235.449V150.372H236.517L236.565 151.236H236.589C236.913 150.588 237.489 150.252 238.329 150.252ZM245.392 150.252C246.172 150.252 246.748 150.42 247.192 150.744V152.124H247.132C246.736 151.62 246.196 151.392 245.512 151.392C244.348 151.392 243.628 152.112 243.628 153.192C243.628 154.248 244.348 154.98 245.512 154.98C246.208 154.98 246.748 154.728 247.132 154.236H247.192V155.64C246.772 155.964 246.172 156.12 245.392 156.12C243.556 156.12 242.344 154.908 242.344 153.192C242.344 151.464 243.556 150.252 245.392 150.252ZM251.121 150.252C252.873 150.252 254.121 151.464 254.121 153.192C254.121 154.908 252.873 156.12 251.121 156.12C249.369 156.12 248.133 154.908 248.133 153.192C248.133 151.464 249.369 150.252 251.121 150.252ZM251.121 151.392C250.113 151.392 249.417 152.124 249.417 153.192C249.417 154.236 250.113 154.98 251.121 154.98C252.141 154.98 252.837 154.236 252.837 153.192C252.837 152.124 252.141 151.392 251.121 151.392ZM255.277 156V147.6H256.549V156H255.277ZM258.043 156V147.6H259.315V156H258.043ZM266.4 156H265.344L265.308 155.196H265.284C264.876 155.772 264.168 156.12 263.256 156.12C261.648 156.12 260.472 154.896 260.472 153.192C260.472 151.488 261.648 150.252 263.256 150.252C264.168 150.252 264.864 150.6 265.272 151.176H265.296L265.344 150.372H266.4V156ZM263.46 154.98C264.468 154.98 265.164 154.236 265.164 153.192C265.164 152.124 264.468 151.392 263.46 151.392C262.452 151.392 261.756 152.124 261.756 153.192C261.756 154.236 262.452 154.98 263.46 154.98ZM271.295 154.656V155.916C271.031 156.048 270.683 156.12 270.239 156.12C268.967 156.12 268.283 155.4 268.283 154.068V151.476H267.287V150.372H268.319L268.499 148.824H269.555V150.372H271.271V151.476H269.555V154.02C269.555 154.632 269.879 154.992 270.431 154.992C270.731 154.992 271.007 154.908 271.235 154.656H271.295ZM277.834 153.576H273.358C273.514 154.476 274.282 155.004 275.398 155.004C276.226 155.004 276.922 154.752 277.426 154.272H277.486V155.532C277.006 155.904 276.238 156.12 275.35 156.12C273.382 156.12 272.062 154.944 272.062 153.192C272.062 151.464 273.274 150.252 274.99 150.252C276.73 150.252 277.834 151.308 277.834 152.952V153.576ZM275.026 151.368C274.222 151.368 273.514 151.872 273.358 152.628H276.658C276.55 151.86 275.902 151.368 275.026 151.368ZM281.853 150.252C282.213 150.252 282.513 150.348 282.693 150.468V151.728H282.633C282.393 151.56 282.093 151.464 281.745 151.464C280.737 151.464 280.245 152.136 280.245 153.504V156H278.973V150.372H280.041L280.089 151.236H280.113C280.437 150.588 281.013 150.252 281.853 150.252ZM289.065 156H288.009L287.973 155.196H287.949C287.541 155.772 286.833 156.12 285.921 156.12C284.313 156.12 283.137 154.896 283.137 153.192C283.137 151.488 284.313 150.252 285.921 150.252C286.833 150.252 287.529 150.6 287.937 151.176H287.961L288.009 150.372H289.065V156ZM286.125 154.98C287.133 154.98 287.829 154.236 287.829 153.192C287.829 152.124 287.133 151.392 286.125 151.392C285.117 151.392 284.421 152.124 284.421 153.192C284.421 154.236 285.117 154.98 286.125 154.98ZM290.551 156V147.6H291.823V156H290.551ZM294.144 154.464C294.624 154.464 294.972 154.824 294.972 155.292C294.972 155.76 294.624 156.12 294.144 156.12C293.676 156.12 293.316 155.76 293.316 155.292C293.316 154.824 293.676 154.464 294.144 154.464Z" fill="#808080"/>
</svg>
