<svg width="18" height="18" viewBox="0 0 18 18" fill="none" xmlns="http://www.w3.org/2000/svg">
<g id="icons/18/dropdown">
<g id="Group 2">
<g id="Group">
<path id="Combined Shape" fill-rule="evenodd" clip-rule="evenodd" d="M11.4084 6.70711C11.799 6.31658 12.4321 6.31658 12.8226 6.70711C13.2132 7.09763 13.2132 7.7308 12.8226 8.12132L9.70133 11.2426C9.3108 11.6332 8.67764 11.6332 8.28711 11.2426C7.89659 10.8521 7.89659 10.219 8.28711 9.82843L11.4084 6.70711Z" fill="#E0E0E0"/>
<path id="Combined Shape_2" fill-rule="evenodd" clip-rule="evenodd" d="M6.59132 6.70711C6.2008 6.31658 5.56763 6.31658 5.17711 6.70711C4.78659 7.09763 4.78659 7.7308 5.17711 8.12132L8.29843 11.2426C8.68895 11.6332 9.32212 11.6332 9.71264 11.2426C10.1032 10.8521 10.1032 10.219 9.71264 9.82843L6.59132 6.70711Z" fill="#E0E0E0"/>
</g>
</g>
</g>
</svg>
