<svg width="16" height="16" viewBox="0 0 16 16" fill="none" xmlns="http://www.w3.org/2000/svg">
<g id="ico-infrared">
<circle id="Ellipse 29" cx="8" cy="8" r="8" fill="#141414"/>
<path id="Vector" d="M8.00001 3.20001C4.04641 3.20001 3.20001 4.04641 3.20001 8.00001C3.20001 11.9536 4.04641 12.8 8.00001 12.8C11.9536 12.8 12.8 11.9536 12.8 8.00001C12.8 4.04641 11.9536 3.20001 8.00001 3.20001ZM5.92321 4.53441C5.92321 4.34337 6.07873 4.18785 6.26945 4.18785H6.96481C7.15585 4.18785 7.31137 4.34337 7.31137 4.53441V5.22497C7.31137 5.41601 7.46689 5.57153 7.65761 5.57153H8.34625C8.53729 5.57153 8.69281 5.41601 8.69281 5.22497V4.53441C8.69281 4.34337 8.84833 4.18785 9.03905 4.18785H9.73473C9.92577 4.18785 10.0816 4.34337 10.0816 4.53441V5.22977C10.0816 5.42081 9.92577 5.57633 9.73473 5.57633H9.04385C8.85313 5.57633 8.69761 5.73217 8.69761 5.92289V6.61377C8.69761 6.80481 8.54209 6.96033 8.35137 6.96033H7.65569C7.56386 6.96016 7.47584 6.92359 7.41094 6.85862C7.34603 6.79366 7.30954 6.7056 7.30945 6.61377V5.92289C7.30945 5.73217 7.15361 5.57633 6.96225 5.57633H6.27201C6.18018 5.57616 6.09216 5.53959 6.02726 5.47462C5.96235 5.40966 5.92586 5.3216 5.92577 5.22977V4.53441H5.92321ZM5.57633 9.04449V9.73505C5.57633 9.92609 5.42049 10.0816 5.22977 10.0816H4.53441C4.44252 10.0815 4.35443 10.045 4.28945 9.98001C4.22448 9.91504 4.18794 9.82694 4.18785 9.73505V9.03937C4.18785 8.84865 4.34369 8.69313 4.53441 8.69313H5.22497C5.41633 8.69313 5.57121 8.53729 5.57121 8.34625V7.65793C5.57121 7.46689 5.41633 7.31137 5.22497 7.31137H4.53441C4.44255 7.3112 4.3545 7.27464 4.28954 7.20968C4.22459 7.14472 4.18802 7.05667 4.18785 6.96481V6.26881C4.18785 6.07809 4.34369 5.92225 4.53441 5.92225H5.22977C5.42081 5.92225 5.57633 6.07809 5.57633 6.26881V6.95969C5.57633 7.15041 5.73185 7.30625 5.92321 7.30625H6.61377C6.80481 7.30625 6.96033 7.46177 6.96033 7.65281V8.34817C6.96033 8.53921 6.80449 8.69473 6.61377 8.69473H5.92321C5.73185 8.69473 5.57633 8.85057 5.57633 9.04129V9.04449ZM10.0839 11.4698C10.0839 11.6608 9.92801 11.8167 9.73729 11.8167H9.04193C8.95013 11.8164 8.86216 11.7798 8.79727 11.7148C8.73238 11.6499 8.69586 11.5619 8.69569 11.4701V10.7792C8.69569 10.5885 8.53985 10.4327 8.34849 10.4327H7.66049C7.46945 10.4327 7.31425 10.5885 7.31425 10.7792V11.4701C7.31425 11.6608 7.15841 11.8167 6.96737 11.8167H6.27169C6.17989 11.8164 6.09192 11.7798 6.02703 11.7148C5.96214 11.6499 5.92562 11.5619 5.92545 11.4701V10.7744C5.92545 10.5837 6.08097 10.4279 6.27169 10.4279H6.96225C7.15361 10.4279 7.30945 10.2723 7.30945 10.0813V9.39073C7.30945 9.19969 7.46497 9.04417 7.65569 9.04417H8.35137C8.54209 9.04417 8.69761 9.19969 8.69761 9.39073V10.0813C8.69761 10.2723 8.85313 10.4279 9.04385 10.4279H9.73473C9.92577 10.4279 10.0816 10.5837 10.0816 10.7744V11.4701L10.0839 11.4698ZM11.8189 6.96225C11.8189 7.15329 11.6634 7.30913 11.4727 7.30913H10.7818C10.5907 7.30913 10.4349 7.46465 10.4349 7.65537V8.34401C10.4349 8.53505 10.5907 8.69057 10.7818 8.69057H11.4727C11.6634 8.69057 11.8189 8.84609 11.8189 9.03713V9.73281C11.8189 9.92353 11.6634 10.0794 11.4727 10.0794H10.777C10.6851 10.0793 10.5969 10.0428 10.5319 9.97779C10.4669 9.91283 10.4303 9.82473 10.4301 9.73281V9.04193C10.4301 8.85121 10.2746 8.69537 10.0839 8.69537H9.39297C9.30117 8.69512 9.2132 8.65851 9.14831 8.59357C9.08342 8.52862 9.0469 8.44062 9.04673 8.34881V7.65345C9.04673 7.46241 9.20225 7.30689 9.39297 7.30689H10.0839C10.2746 7.30689 10.4301 7.15105 10.4301 6.96001V6.27009C10.4301 6.07905 10.5859 5.92353 10.777 5.92353H11.4727C11.6634 5.92353 11.8189 6.07905 11.8189 6.27009V6.96577V6.96225Z" fill="url(#paint0_linear_8048_166)"/>
</g>
<defs>
<linearGradient id="paint0_linear_8048_166" x1="23.6919" y1="9.96225" x2="-3.79551" y2="10.3475" gradientUnits="userSpaceOnUse">
<stop stop-color="#F8F29C"/>
<stop offset="0.165" stop-color="#F6DB2A"/>
<stop offset="0.333" stop-color="#F4A435"/>
<stop offset="0.55" stop-color="#E85A46"/>
<stop offset="0.699" stop-color="#B93483"/>
<stop offset="0.867" stop-color="#502B6E"/>
<stop offset="1" stop-color="#2A2136"/>
</linearGradient>
</defs>
</svg>
