<svg width="16" height="16" viewBox="0 0 16 16" fill="none" xmlns="http://www.w3.org/2000/svg">
<g id="ico-mp">
<circle id="Ellipse 28" cx="8" cy="8" r="8" fill="#3D3D3D"/>
<g id="Group 426">
<path id="Ellipse 38" d="M13.2 8.99999C13.2 11.3196 11.3196 13.2 8.99999 13.2C6.68039 13.2 4.79999 11.3196 4.79999 8.99999C4.79999 6.68039 6.68039 4.79999 8.99999 4.79999C11.3196 4.79999 13.2 6.68039 13.2 8.99999Z" fill="#D6C56F"/>
<path id="Subtract (Stroke)" fill-rule="evenodd" clip-rule="evenodd" d="M12.2667 7.13333C12.2667 9.9684 9.9684 12.2667 7.13333 12.2667C4.29827 12.2667 2 9.9684 2 7.13333C2 4.29827 4.29827 2 7.13333 2C9.9684 2 12.2667 4.29827 12.2667 7.13333Z" fill="#3D3D3D"/>
<path id="Subtract" fill-rule="evenodd" clip-rule="evenodd" d="M7.13332 11.3333C9.45291 11.3333 11.3333 9.45291 11.3333 7.13332C11.3333 4.81372 9.45291 2.93332 7.13332 2.93332C4.81372 2.93332 2.93332 4.81372 2.93332 7.13332C2.93332 9.45291 4.81372 11.3333 7.13332 11.3333ZM7.11522 8.99905L7.13264 8.99997H7.134L7.15142 8.99905C7.22004 8.99204 7.28449 8.94528 7.29765 8.85876C7.29765 8.53331 7.62625 8.05231 7.81465 7.83331C7.99763 7.62061 8.53332 7.29803 8.84795 7.29803C8.94813 7.28321 8.9983 7.20819 8.99999 7.13341C8.9983 7.05843 8.94813 6.98341 8.84795 6.96859C8.53332 6.96859 7.99763 6.646 7.81465 6.43331C7.62625 6.2143 7.29765 5.73332 7.29765 5.40786C7.28449 5.32135 7.22004 5.27458 7.15142 5.26757L7.13264 5.26665L7.11522 5.26757C7.0466 5.27458 6.98215 5.32135 6.96898 5.40786C6.96898 5.73332 6.62172 6.21431 6.43332 6.43332C6.25034 6.64602 5.73332 6.96859 5.41869 6.96859C5.31851 6.98341 5.26833 7.05843 5.26665 7.13321C5.26833 7.20819 5.31851 7.28321 5.41869 7.29803C5.73332 7.29803 6.269 7.62061 6.45199 7.83331C6.64039 8.05231 6.96898 8.53331 6.96898 8.85876C6.98215 8.94528 7.0466 8.99204 7.11522 8.99905Z" fill="#D6C56F"/>
</g>
</g>
</svg>
