<svg width="16" height="16" viewBox="0 0 16 16" fill="none" xmlns="http://www.w3.org/2000/svg">
<g clip-path="url(#clip0_8708_714)">
<circle cx="8" cy="8" r="8" fill="#E6B434"/>
<path d="M11.2808 9.35834C11.6966 9.91374 11.7837 10.5175 11.5423 11.1695C11.3009 11.8216 10.8219 12.2493 10.1052 12.4527C9.76248 12.5499 9.41288 12.5537 9.0564 12.4641C8.69988 12.3745 8.40768 12.2049 8.17976 11.9554C7.35308 12.3247 6.5764 12.3066 5.84976 11.9011C5.12308 11.4957 4.6864 10.8369 4.53976 9.92462C4.17808 9.83646 3.87067 9.66278 3.61755 9.40354C3.36443 9.1443 3.18187 8.81738 3.06987 8.4227C2.89009 7.78914 3.03314 7.19586 3.49905 6.64278C3.96495 6.08974 4.50556 5.84938 5.12084 5.92166L6.20168 6.05262C6.31804 5.6717 6.51884 5.33134 6.80412 5.03154C7.0894 4.73178 7.4264 4.5155 7.8152 4.3827L7.58528 3.57261C7.547 3.4376 7.55944 3.31342 7.62268 3.20008C7.68588 3.08675 7.78504 3.01093 7.92004 2.97261C8.05504 2.9343 8.17924 2.94676 8.29256 3.00998C8.40592 3.07322 8.48172 3.17234 8.52004 3.30736L8.78528 4.2421C9.202 4.2473 9.5696 4.33654 9.88816 4.5099C10.2067 4.68322 10.5161 4.96294 10.8164 5.34906L11.72 5.09266C11.855 5.05434 11.9792 5.06678 12.0926 5.13002C12.2059 5.19326 12.2817 5.29238 12.32 5.42738C12.3584 5.56242 12.3459 5.68658 12.2827 5.79994C12.2194 5.91326 12.1203 5.98906 11.9853 6.02738L11.1752 6.2573C11.2664 6.65786 11.2646 7.05678 11.1697 7.45402C11.0748 7.8513 10.8959 8.19946 10.6328 8.49854L11.2808 9.35834ZM7.52336 10.8287C7.44376 10.5482 7.38976 10.2689 7.36136 9.99086C7.33292 9.71274 7.33008 9.43578 7.35284 9.16002C7.14636 9.34202 6.91216 9.49546 6.6502 9.6203C6.38824 9.74514 6.11928 9.8355 5.84336 9.89138C5.95828 10.2964 6.16576 10.5826 6.46576 10.75C6.76576 10.9174 7.11828 10.9436 7.52336 10.8287ZM5.64544 8.60082C5.9778 8.5065 6.25944 8.3817 6.49032 8.22642C6.7212 8.0711 7.0038 7.81138 7.33812 7.44714L5.24756 7.1987C4.911 7.15954 4.65468 7.2351 4.4786 7.42534C4.30256 7.61558 4.25428 7.8509 4.33388 8.13134C4.41052 8.40138 4.5548 8.57366 4.76672 8.64818C4.97864 8.7227 5.27156 8.70694 5.64544 8.60082ZM9.75156 11.2063C10.0112 11.1327 10.1957 10.9821 10.3052 10.7547C10.4146 10.5272 10.3997 10.3266 10.2606 10.1529L8.81812 8.27286C8.71508 8.66122 8.6562 9.03702 8.64148 9.40034C8.62672 9.76362 8.65768 10.0803 8.73428 10.3503C8.83156 10.6931 8.96568 10.9384 9.13672 11.0862C9.30772 11.2341 9.51268 11.2741 9.75156 11.2063ZM9.79832 7.45602C9.87272 7.32266 9.91676 7.1615 9.93044 6.97242C9.94412 6.78338 9.92444 6.59538 9.8714 6.40842C9.77708 6.07606 9.58844 5.82662 9.30548 5.66002C9.02256 5.49342 8.72008 5.45578 8.39812 5.54714C8.21116 5.60022 8.04344 5.68146 7.89496 5.79094C7.74648 5.90042 7.63132 6.02846 7.54948 6.17514L8.9238 6.39114L9.79832 7.45602Z" fill="#F5F5F5"/>
</g>
<defs>
<clipPath id="clip0_8708_714">
<rect width="16" height="16" fill="white"/>
</clipPath>
</defs>
</svg>
