<svg width="16" height="16" viewBox="0 0 16 16" fill="none" xmlns="http://www.w3.org/2000/svg">
<g id="ico-moy">
<circle id="Ellipse 1" cx="8" cy="8" r="8" fill="#3D3D3D"/>
<g id="Group 427">
<path id="Fill 1" fill-rule="evenodd" clip-rule="evenodd" d="M12.2624 9.89526V10.9784H10.1573V10.9772L9.44092 9.89526H8.81284L9.88843 11.5199H12.8V9.89526H12.2624Z" fill="#E6FC8D"/>
<path id="Fill 2" fill-rule="evenodd" clip-rule="evenodd" d="M3.20001 9.89526V11.5199H6.1195L7.1951 9.89526H3.20001Z" fill="#E6FC8D"/>
<path id="Fill 3" fill-rule="evenodd" clip-rule="evenodd" d="M10.8103 5.56308L8.30057 9.35399H12.8V5.56308H10.8103Z" fill="#E6FC8D"/>
<path id="Fill 4" fill-rule="evenodd" clip-rule="evenodd" d="M10.153 4.47998L8.00395 7.72545L5.85494 4.47998L5.8506 4.48871V4.47998H3.20001V8.27327H3.73761V5.02392L5.58604 5.02154L7.68999 8.19959L7.28342 8.81365H3.20001V9.35521L7.55363 9.35401L10.4219 5.02154H12.8V4.47998H10.153Z" fill="#E6FC8D"/>
</g>
</g>
</svg>
