<svg width="16" height="16" viewBox="0 0 16 16" fill="none" xmlns="http://www.w3.org/2000/svg">
<g id="ico-node">
<g id="Group 421">
<circle id="Ellipse 13" cx="8" cy="8" r="8" fill="#451D06"/>
<g id="BerachainLogo">
<path id="Vector" d="M11.7048 7.23524C11.6904 7.18944 11.68 7.14299 11.6721 7.09589C11.6682 7.0743 11.6643 7.05205 11.6597 7.03047C11.6492 6.98336 11.6381 6.93691 11.6257 6.89046C11.8317 6.57906 12.8157 4.95333 11.6957 3.90985C10.4527 2.75189 9.00029 4.26967 9.00029 4.26967L9.00487 4.27621C8.35196 4.07799 7.6441 4.05443 6.95586 4.26967C6.94736 4.26051 5.50023 2.75516 4.26049 3.90985C3.02075 5.06454 4.35928 6.93299 4.36647 6.9428C4.35208 6.98663 4.34096 7.03177 4.33311 7.07691C4.19899 7.87702 3.28571 8.12366 3.28571 9.51649C3.28571 10.9093 4.24086 12.0549 6.19043 12.0549H6.99054C6.99381 12.0601 7.32353 12.5265 7.99999 12.5265C8.62804 12.5259 9.04216 12.0594 9.04608 12.0549H9.80956C11.7591 12.0549 12.7143 10.9361 12.7143 9.51649C12.7143 8.21983 11.922 7.91628 11.7048 7.23524Z" fill="#DEB69A"/>
</g>
</g>
</g>
</svg>
