<svg width="18" height="18" viewBox="0 0 18 18" fill="none" xmlns="http://www.w3.org/2000/svg">
<g id="icons/18/dropdown">
<g id="Group 2">
<g id="Group">
<path id="Combined Shape" fill-rule="evenodd" clip-rule="evenodd" d="M11.4086 6.70711C11.7991 6.31658 12.4323 6.31658 12.8228 6.70711C13.2134 7.09763 13.2134 7.7308 12.8228 8.12132L9.70151 11.2426C9.31098 11.6332 8.67782 11.6332 8.2873 11.2426C7.89677 10.8521 7.89677 10.219 8.2873 9.82843L11.4086 6.70711Z" fill="#525252"/>
<path id="Combined Shape_2" fill-rule="evenodd" clip-rule="evenodd" d="M6.59138 6.70711C6.20086 6.31658 5.56769 6.31658 5.17717 6.70711C4.78665 7.09763 4.78665 7.7308 5.17717 8.12132L8.29849 11.2426C8.68902 11.6332 9.32218 11.6332 9.7127 11.2426C10.1032 10.8521 10.1032 10.219 9.7127 9.82843L6.59138 6.70711Z" fill="#525252"/>
</g>
</g>
</g>
</svg>
