<svg width="64" height="64" viewBox="0 0 64 64" fill="none" xmlns="http://www.w3.org/2000/svg">
<path d="M20.6968 43.3244C20.9973 43.6249 21.3749 43.8144 21.8161 43.8837C21.9208 43.9021 22.0282 43.912 22.1386 43.9134L40.3126 44.0902C41.3754 44.1008 42.2282 43.248 42.2183 42.2283L42.2133 42.082C42.1803 41.5882 41.9627 41.1249 41.6037 40.7843C41.2447 40.4436 40.7707 40.2506 40.2758 40.2435L30.6571 40.1509L26.6563 40.1127L29.4578 37.3111L43.3503 23.4172C44.0942 22.6733 44.0822 21.455 43.3518 20.7245L43.2542 20.6312C42.4919 19.9368 41.3231 19.9516 40.6039 20.6708L23.8865 37.3882L23.8476 33.3881L23.7536 23.7212C23.7463 23.2085 23.5394 22.7189 23.1768 22.3563C22.8142 21.9937 22.3246 21.7868 21.8119 21.7795C21.5607 21.776 21.3115 21.8229 21.0788 21.9174C20.8461 22.0119 20.6347 22.1521 20.4571 22.3297C20.2795 22.5073 20.1393 22.7187 20.0448 22.9514C19.9503 23.1841 19.9034 23.4333 19.9069 23.6845L20.0837 41.8585C20.0865 42.0989 20.1318 42.3309 20.2329 42.5946C20.3298 42.8654 20.486 43.1136 20.6968 43.3244Z" fill="#525252"/>
</svg>
