<svg width="24" height="24" viewBox="0 0 24 24" fill="none" xmlns="http://www.w3.org/2000/svg">
<g id="icons/24/referral">
<path id="Mask" fill-rule="evenodd" clip-rule="evenodd" d="M10 12C12.206 12 14 10.206 14 8C14 5.794 12.206 4 10 4C7.794 4 6 5.794 6 8C6 10.206 7.794 12 10 12ZM21 7H20V6C20 5.45 19.55 5 19 5C18.45 5 18 5.45 18 6V7H17C16.45 7 16 7.45 16 8C16 8.55 16.45 9 17 9H18V10C18 10.55 18.45 11 19 11C19.55 11 20 10.55 20 10V9H21C21.55 9 22 8.55 22 8C22 7.45 21.55 7 21 7ZM17 20C17 20.552 16.553 21 16 21H4C3.447 21 3 20.552 3 20C3 16.14 6.141 13 10 13C13.859 13 17 16.14 17 20Z" fill="#C1D182"/>
</g>
</svg>
