<svg width="24" height="24" viewBox="0 0 24 24" fill="none" xmlns="http://www.w3.org/2000/svg">
<path d="M12.6363 9.51744C12.4622 9.51744 12.2943 9.49064 12.1203 9.49096C11.2785 9.49255 10.4753 9.67773 9.71068 10.0287C8.50577 10.5819 7.57387 11.4401 6.90118 12.5774C6.33218 13.5395 6.03729 14.5849 6.00384 15.7024C5.99338 16.0495 6.00225 16.3962 6.05616 16.7531C6.07233 16.725 6.08374 16.7082 6.09246 16.6901C6.25719 16.3502 6.4495 16.0266 6.66701 15.7178C7.13978 15.0464 7.71259 14.4756 8.38861 14.0097C8.88151 13.6699 9.41072 13.4014 9.97639 13.2027C10.6405 12.9695 11.3237 12.8408 12.0265 12.8279C12.2111 12.8246 12.4052 12.8488 12.6358 12.8636V15.8C12.6534 15.7886 12.6698 15.8 12.6698 15.8C14.5 14.1 16.1407 12.7259 17.916 11.2495C18.0291 11.1555 18.0269 11.0531 17.916 10.9562C17.916 10.9562 17.8792 10.9254 17.8607 10.9107C16.0635 9.47585 14.4328 8.03607 12.6363 6.59998V9.51744Z" fill="#E6FC8D"/>
</svg>
