<svg width="16" height="16" viewBox="0 0 16 16" fill="none" xmlns="http://www.w3.org/2000/svg">
<g id="Group 15 Copy">
<path id="Shape" fill-rule="evenodd" clip-rule="evenodd" d="M3.51169 7.99294C5.63117 7.99294 7.06494 6.34744 7.06494 4.35658V4.31595C7.06494 2.32509 5.65195 0.720215 3.55325 0.720215C1.43377 0.720215 0 2.34541 0 4.35658V4.39721C0 6.38807 1.41299 7.99294 3.51169 7.99294ZM2.32727 14.27C2.32727 14.7982 2.76363 15.2248 3.30389 15.2248C3.63636 15.2248 3.96883 15.0623 4.15584 14.7982L13.4442 2.36548C13.5896 2.18265 13.6727 1.9795 13.6727 1.71541C13.6727 1.18722 13.2364 0.760609 12.6961 0.760609C12.3636 0.760609 12.0312 0.923128 11.8442 1.18722L2.55584 13.6199C2.43117 13.8028 2.32727 14.0059 2.32727 14.27ZM16 11.6293C16 13.6202 14.5662 15.2657 12.4467 15.2657C10.348 15.2657 8.93505 13.6608 8.93505 11.6699V11.6293C8.93505 9.61813 10.3688 7.99294 12.4883 7.99294C14.587 7.99294 16 9.59782 16 11.5887V11.6293ZM3.55325 6.14405C2.72208 6.14405 2.18182 5.31114 2.18182 4.35634V4.31571C2.18182 3.38123 2.63897 2.56863 3.51169 2.56863C4.34286 2.56863 4.88312 3.40154 4.88312 4.35634V4.39697C4.88312 5.31114 4.42598 6.14405 3.55325 6.14405ZM11.1169 11.6295C11.1169 12.5843 11.6571 13.4172 12.4883 13.4172C13.361 13.4172 13.8182 12.5843 13.8182 11.6701V11.6295C13.8182 10.6747 13.2779 9.84175 12.4468 9.84175C11.574 9.84175 11.1169 10.6543 11.1169 11.5888V11.6295Z" fill="#525252"/>
</g>
</svg>
