<svg width="16" height="16" viewBox="0 0 16 16" fill="none" xmlns="http://www.w3.org/2000/svg">
<g id="Group 83">
<g id="Group 14 Copy">
<path id="Shape" fill-rule="evenodd" clip-rule="evenodd" d="M7.20427 0.958525V1.17972C4.84551 1.41935 3.27301 2.78341 3.27301 4.81106C3.27301 7.00461 4.60215 8.01843 7.29787 8.73733V11.6682C6.43674 11.4839 5.68793 11.1336 4.90167 10.6359C4.67703 10.4885 4.41495 10.3963 4.17158 10.3963C3.44149 10.3963 2.87988 10.9309 2.87988 11.6498C2.87988 12.1475 3.12325 12.5161 3.51637 12.7558C4.62087 13.4194 5.87513 13.8802 7.20427 14.0461V15.0415C7.20427 15.576 7.63484 16 8.17773 16C8.72061 16 9.15118 15.576 9.15118 15.0415V14.0645C11.5099 13.8065 13.1199 12.4793 13.1199 10.4147C13.1199 8.35023 11.9031 7.20737 9.05758 6.45161V3.64977C9.56303 3.7788 10.0872 4 10.6114 4.2765C10.8173 4.3871 11.0419 4.4424 11.2666 4.4424C11.9779 4.4424 12.5396 3.90783 12.5396 3.20737C12.5396 2.65438 12.2213 2.30415 11.8656 2.10138C11.0607 1.65899 10.1621 1.36406 9.15118 1.21659V0.958525C9.15118 0.423963 8.72061 0 8.17773 0C7.63484 0 7.20427 0.423963 7.20427 0.958525ZM10.3868 10.5622C10.3868 11.2258 9.93747 11.6313 9.05762 11.7603V9.19812C10.0685 9.54836 10.3868 9.95389 10.3868 10.5622ZM7.29783 3.48375C6.39926 3.61278 6.00613 4.05518 6.00613 4.64504C6.00613 5.21647 6.26822 5.60357 7.29783 5.97223V3.48375Z" fill="#525252"/>
</g>
</g>
</svg>
