<svg width="18" height="18" viewBox="0 0 18 18" fill="none" xmlns="http://www.w3.org/2000/svg">
<g id="btc-svg-g" clip-path="url(#clip0_4475_112)">
<g id="Group">
<path id="Vector" d="M17.7298 11.1773C16.5278 15.9988 11.6444 18.9331 6.82238 17.7307C2.00232 16.5287 -0.931959 11.645 0.270666 6.82386C1.47217 2.00182 6.35551 -0.932739 11.1761 0.269324C15.9979 1.47139 18.9319 6.35557 17.7298 11.1773Z" fill="#292929"/>
<path id="Vector_2" d="M12.9682 7.71807C13.1474 6.52051 12.2356 5.87673 10.9888 5.44726L11.3932 3.82501L10.4058 3.57892L10.012 5.15842C9.75243 5.09373 9.4858 5.0327 9.22087 4.97223L9.61743 3.38232L8.63052 3.13623L8.2258 4.75792C8.01093 4.70898 7.79999 4.66061 7.59524 4.6097L7.59637 4.60464L6.23455 4.26461L5.97187 5.31929C5.97187 5.31929 6.70452 5.4872 6.68905 5.49761C7.08899 5.59745 7.16127 5.86211 7.14918 6.07192L6.68849 7.92001C6.71605 7.92704 6.75177 7.93717 6.79115 7.95292C6.75824 7.94476 6.72308 7.93576 6.6868 7.92704L6.04105 10.5159C5.99212 10.6374 5.86809 10.8197 5.58852 10.7505C5.59837 10.7649 4.87077 10.5714 4.87077 10.5714L4.38055 11.7017L5.66559 12.022C5.90465 12.0819 6.13893 12.1447 6.36955 12.2037L5.9609 13.8445L6.94724 14.0906L7.35196 12.4673C7.6214 12.5404 7.88296 12.6079 8.1389 12.6714L7.73558 14.2872L8.72305 14.5333L9.13171 12.8956C10.8156 13.2143 12.0817 13.0857 12.6147 11.5628C13.0442 10.3365 12.5933 9.62917 11.7074 9.16792C12.3526 9.01914 12.8386 8.59473 12.9682 7.71807ZM10.7121 10.8819C10.4069 12.1081 8.34224 11.4452 7.67287 11.279L8.21512 9.1052C8.88449 9.27226 11.031 9.60301 10.7121 10.8819ZM11.0175 7.70036C10.7391 8.81579 9.02062 8.24907 8.46318 8.11014L8.9548 6.13857C9.51224 6.27751 11.3075 6.53682 11.0175 7.70036Z" fill="#808080"/>
</g>
</g>
<defs>
<clipPath id="clip0_4475_112">
<rect width="18" height="18" fill="white"/>
</clipPath>
</defs>
</svg>
