<svg width="18" height="18" viewBox="0 0 18 18" fill="none" xmlns="http://www.w3.org/2000/svg">
<g id="ic/token/honey">
<g id="ic/token/honey_2">
<path id="Vector" d="M9 18C13.9706 18 18 13.9706 18 9C18 4.02944 13.9706 0 9 0C4.02944 0 0 4.02944 0 9C0 13.9706 4.02944 18 9 18Z" fill="#292929"/>
<path id="Vector_2" d="M6.43134 13.2019H5.05098C4.8101 13.2019 4.59521 13.148 4.39339 13.04C4.19153 12.9322 4.03527 12.7823 3.91155 12.5905L3.1758 11.3917C3.0586 11.2119 3 11.0201 3 10.8043C3 10.5885 3.0586 10.4027 3.1758 10.2229L3.92457 9.00611L3.1758 7.7953C3.0586 7.61548 3 7.4177 3 7.2079C3 6.99809 3.0586 6.80032 3.1758 6.62049L3.91155 5.42172C4.02875 5.22991 4.19153 5.08002 4.39339 4.97213C4.59521 4.86424 4.8166 4.80433 5.05098 4.80433H6.43134L7.16061 3.6175C7.2778 3.42569 7.44059 3.27584 7.64241 3.16795C7.84427 3.06006 8.06566 3.00012 8.30004 3.00012H9.69993C9.94085 3.00012 10.1557 3.05407 10.3576 3.16795C10.5594 3.27584 10.7157 3.42569 10.8394 3.6175L11.5751 4.80433H12.9555C13.1964 4.80433 13.4113 4.85827 13.6131 4.97213C13.8149 5.08002 13.9712 5.22991 14.0949 5.42172L14.8242 6.62049C14.9414 6.80032 15 6.99213 15 7.2079C15 7.42367 14.9414 7.61548 14.8242 7.7953L14.0754 9.00611L14.8242 10.2229C14.9414 10.4027 15 10.5945 15 10.8043C15 11.0141 14.9414 11.2119 14.8242 11.3917L14.0949 12.5905C13.9777 12.7823 13.8149 12.9322 13.6131 13.04C13.4113 13.148 13.1899 13.2019 12.9555 13.2019H11.5751L10.8394 14.3887C10.7222 14.5805 10.5594 14.7304 10.3576 14.8382C10.1557 14.9461 9.93431 15.0001 9.69993 15.0001H8.30004C8.05912 15.0001 7.84427 14.9461 7.64241 14.8382C7.44059 14.7304 7.28429 14.5805 7.16061 14.3887L6.43134 13.2019ZM11.5751 8.40672H12.975L13.6912 7.2079L12.975 6.00912H11.5751L10.8394 7.2079L11.5751 8.40672ZM8.31957 10.2049H9.68689L10.4162 9.00611L9.68689 7.80729H8.31957L7.59035 9.00611L8.31957 10.2049ZM8.31957 6.60851H9.68689L10.4357 5.39174L9.70643 4.21091H8.30654L7.57732 5.39174L8.32607 6.60851H8.31957ZM7.1671 7.2079L6.43788 6.00912H5.05752L4.32826 7.2079L5.05752 8.40672H6.43788L7.1671 7.2079ZM7.1671 10.8043L6.43788 9.6055H5.03799L4.32176 10.8043L5.05098 12.0031H6.43134L7.16061 10.8043H7.1671ZM8.31957 11.4037L7.57078 12.6145L8.30004 13.8013H9.69993L10.4292 12.6145L9.6804 11.4037H8.31308H8.31957ZM11.5751 12.0031H12.9555L13.6847 10.8043L12.9555 9.6055H11.5751L10.8394 10.8043L11.5751 12.0031Z" fill="#808080"/>
</g>
</g>
</svg>
