<svg width="22" height="22" viewBox="0 0 22 22" fill="none" xmlns="http://www.w3.org/2000/svg">
<path fill-rule="evenodd" clip-rule="evenodd" d="M8.73225 13.4335C8.34173 13.824 8.34173 14.4572 8.73225 14.8477C9.12278 15.2383 9.75594 15.2383 10.1465 14.8477L13.2678 11.7264C13.6583 11.3359 13.6583 10.7027 13.2678 10.3122C12.8773 9.92167 12.2441 9.92167 11.8536 10.3122L8.73225 13.4335Z" fill="#121212"/>
<path fill-rule="evenodd" clip-rule="evenodd" d="M8.73225 8.61677C8.34173 8.22625 8.34173 7.59309 8.73225 7.20256C9.12278 6.81204 9.75594 6.81204 10.1465 7.20256L13.2678 10.3239C13.6583 10.7144 13.6583 11.3476 13.2678 11.7381C12.8773 12.1286 12.2441 12.1286 11.8536 11.7381L8.73225 8.61677Z" fill="#121212"/>
</svg>
