<svg width="18" height="18" viewBox="0 0 18 18" fill="none" xmlns="http://www.w3.org/2000/svg">
<g id="icons/18/dropdown">
<g id="Group 2">
<g id="Group">
<path id="Combined Shape" fill-rule="evenodd" clip-rule="evenodd" d="M11.4086 11.2929C11.7991 11.6834 12.4323 11.6834 12.8228 11.2929C13.2134 10.9024 13.2134 10.2692 12.8228 9.87868L9.70151 6.75736C9.31098 6.36683 8.67782 6.36684 8.2873 6.75736C7.89677 7.14788 7.89677 7.78105 8.2873 8.17157L11.4086 11.2929Z" fill="#525252"/>
<path id="Combined Shape_2" fill-rule="evenodd" clip-rule="evenodd" d="M6.59138 11.2929C6.20086 11.6834 5.56769 11.6834 5.17717 11.2929C4.78665 10.9024 4.78665 10.2692 5.17717 9.87868L8.29849 6.75736C8.68902 6.36683 9.32218 6.36684 9.7127 6.75736C10.1032 7.14788 10.1032 7.78105 9.7127 8.17157L6.59138 11.2929Z" fill="#525252"/>
</g>
</g>
</g>
</svg>
