<svg width="22" height="22" viewBox="0 0 22 22" fill="none" xmlns="http://www.w3.org/2000/svg">
<path fill-rule="evenodd" clip-rule="evenodd" d="M8.73274 13.4316C8.34222 13.8221 8.34222 14.4553 8.73274 14.8458C9.12327 15.2363 9.75643 15.2363 10.147 14.8458L13.2683 11.7245C13.6588 11.3339 13.6588 10.7008 13.2683 10.3102C12.8778 9.91972 12.2446 9.91972 11.8541 10.3102L8.73274 13.4316Z" fill="#808080"/>
<path fill-rule="evenodd" clip-rule="evenodd" d="M8.73274 8.61482C8.34222 8.2243 8.34222 7.59113 8.73274 7.20061C9.12327 6.81008 9.75643 6.81008 10.147 7.20061L13.2683 10.3219C13.6588 10.7125 13.6588 11.3456 13.2683 11.7361C12.8778 12.1267 12.2446 12.1267 11.8541 11.7361L8.73274 8.61482Z" fill="#808080"/>
</svg>
