<svg width="14" height="14" viewBox="0 0 14 14" fill="none" xmlns="http://www.w3.org/2000/svg">
<g id="Group 265">
<circle id="Oval Copy" cx="7" cy="7" r="7" fill="#171717"/>
<path id="Combined Shape Copy" fill-rule="evenodd" clip-rule="evenodd" d="M7 4C6.72386 4 6.5 4.22386 6.5 4.5V6.5H4.5C4.22386 6.5 4 6.72386 4 7C4 7.27614 4.22386 7.5 4.5 7.5H6.5V9.5C6.5 9.77614 6.72386 10 7 10C7.27614 10 7.5 9.77614 7.5 9.5V7.5H9.5C9.77614 7.5 10 7.27614 10 7C10 6.72386 9.77614 6.5 9.5 6.5H7.5V4.5C7.5 4.22386 7.27614 4 7 4Z" fill="#808080"/>
</g>
</svg>
