<svg width="38" height="38" viewBox="0 0 38 38" fill="none" xmlns="http://www.w3.org/2000/svg">
<g id="icon-guide">
<rect id="Rectangle 227" width="38" height="38" rx="5.7" fill="#171717"/>
<g id="Group 9" opacity="0.5">
<path id="Subtract" fill-rule="evenodd" clip-rule="evenodd" d="M26.6 10.45H13.3V27.55H26.6V10.45ZM20.0699 18.2655C19.3092 18.8387 19.0278 19.4118 19.0278 20.4434H20.7472C20.7472 19.8599 20.9869 19.4847 21.7476 18.8908C22.4249 18.3698 22.8 17.7549 22.8 16.9838C22.8 15.5666 21.7788 14.535 19.9761 14.535C18.288 14.535 17.1 15.6604 17.1 17.161H18.9132C18.9132 16.6295 19.2883 16.1398 19.9865 16.1398C20.643 16.1398 21.0181 16.4628 21.0181 16.9838C21.0181 17.484 20.6847 17.7966 20.0699 18.2655ZM18.8403 22.3087C18.8403 22.9443 19.3092 23.4028 19.9448 23.4028C20.5805 23.4028 21.0494 22.9443 21.0494 22.3087C21.0494 21.673 20.5805 21.2041 19.9448 21.2041C19.3092 21.2041 18.8403 21.673 18.8403 22.3087Z" fill="#E6FC8D"/>
<rect id="Rectangle 34" x="10.925" y="13.3" width="2.375" height="1.9" fill="#E6FC8D"/>
<rect id="Rectangle 35" x="10.925" y="18.05" width="2.375" height="1.9" fill="#E6FC8D"/>
<rect id="Rectangle 36" x="10.925" y="22.8" width="2.375" height="1.9" fill="#E6FC8D"/>
</g>
</g>
</svg>
