<svg width="18" height="18" viewBox="0 0 18 18" fill="none" xmlns="http://www.w3.org/2000/svg">
<g id="weth-svg-g">
<path id="Vector" d="M9 18C13.9706 18 18 13.9706 18 9C18 4.02944 13.9706 0 9 0C4.02944 0 0 4.02944 0 9C0 13.9706 4.02944 18 9 18Z" fill="#292929"/>
<path id="Vector_2" d="M3.04705 10.5836L2 7.42893H2.91786L3.46392 9.24137L4.06481 7.41992H4.81217L5.41306 9.24137L5.95912 7.42893H6.86045L5.8134 10.5836H5.06079L4.42985 8.78094L3.80417 10.5836H3.04705ZM7.21122 10.5611V7.42893H9.73121V8.16578H8.06899V8.64048H9.57122V9.3255H8.06899V9.82198H9.75149V10.5603L7.21122 10.5611ZM10.9615 10.5611V8.18981H10.0196V7.42893H12.7702V8.18981H11.8276V10.5611H10.9615ZM13.1495 10.5611V7.42893H14.0163V8.60142H15.131V7.42893H16V10.5611H15.131V9.37131H14.0163V10.5611H13.1495Z" fill="#808080"/>
</g>
</svg>
