<svg width="18" height="18" viewBox="0 0 18 18" fill="none" xmlns="http://www.w3.org/2000/svg">
<g id="Group 82">
<g id="Group 13 Copy">
<g id="Group 12">
<ellipse id="Oval Copy 5" cx="9.27102" cy="14.9823" rx="6.49026" ry="3.01762" fill="#525252"/>
<path id="Oval Copy 3" d="M9.27108 14.7655C11.1865 14.7655 12.9744 14.4066 14.3247 13.7783C15.5843 13.1923 16.8636 12.1618 16.8636 10.6425C16.8636 9.12322 15.5843 8.09275 14.3247 7.50674C12.9744 6.87848 11.1865 6.51955 9.27108 6.51955C7.3557 6.51955 5.5678 6.87848 4.21742 7.50674C2.95784 8.09275 1.67855 9.12322 1.67855 10.6425C1.67855 12.1618 2.95784 13.1923 4.21742 13.7783C5.5678 14.4066 7.3557 14.7655 9.27108 14.7655Z" fill="#525252" stroke="#1A1A1A" stroke-width="2.20882"/>
<path id="Oval" d="M8.41356 10.3368C10.2863 10.7349 12.1092 10.7552 13.5603 10.4209C14.9142 10.109 16.3787 9.36624 16.6945 7.8803C17.0103 6.39436 15.9746 5.12015 14.8646 4.28455C13.6749 3.38895 12.0014 2.66607 10.1286 2.268C8.25586 1.86992 6.43303 1.84964 4.98193 2.18393C3.62803 2.49581 2.16356 3.23858 1.84771 4.72452C1.53186 6.21046 2.56762 7.48467 3.67761 8.32027C4.86729 9.21587 6.54078 9.93876 8.41356 10.3368Z" fill="#525252" stroke="#1A1A1A" stroke-width="2.20882"/>
</g>
</g>
</g>
</svg>
