<svg width="40" height="40" viewBox="0 0 40 40" fill="none" xmlns="http://www.w3.org/2000/svg">
<g id="icon-guide">
<rect id="Rectangle 227" width="40" height="40" rx="6" fill="#171717"/>
<g id="Group 9">
<path id="Subtract" fill-rule="evenodd" clip-rule="evenodd" d="M28 11H14V29H28V11ZM21.1261 19.2269C20.3254 19.8302 20.0293 20.4335 20.0293 21.5194H21.8391C21.8391 20.9051 22.0914 20.5102 22.8921 19.885C23.6051 19.3366 24 18.6894 24 17.8777C24 16.3859 22.925 15.3 21.0274 15.3C19.2505 15.3 18 16.4846 18 18.0642H19.9086C19.9086 17.5048 20.3035 16.9892 21.0384 16.9892C21.7294 16.9892 22.1243 17.3293 22.1243 17.8777C22.1243 18.4042 21.7733 18.7333 21.1261 19.2269ZM19.8318 23.4828C19.8318 24.1519 20.3254 24.6346 20.9945 24.6346C21.6636 24.6346 22.1572 24.1519 22.1572 23.4828C22.1572 22.8137 21.6636 22.3201 20.9945 22.3201C20.3254 22.3201 19.8318 22.8137 19.8318 23.4828Z" fill="#E6FC8D"/>
<rect id="Rectangle 34" x="11.5" y="14" width="2.5" height="2" fill="#E6FC8D"/>
<rect id="Rectangle 35" x="11.5" y="19" width="2.5" height="2" fill="#E6FC8D"/>
<rect id="Rectangle 36" x="11.5" y="24" width="2.5" height="2" fill="#E6FC8D"/>
</g>
</g>
</svg>
