<svg width="18" height="18" viewBox="0 0 18 18" fill="none" xmlns="http://www.w3.org/2000/svg">
<g id="usdc-svg 1" clip-path="url(#clip0_579_6411)">
<g id="Group 258">
<path id="Vector" d="M9 18C13.9875 18 18 13.9875 18 9C18 4.01247 13.9875 0 9 0C4.01247 0 0 4.01247 0 9C0 13.9875 4.01247 18 9 18Z" fill="#121212"/>
<path id="Vector_2" d="M11.4752 10.3332C11.4752 9.02068 10.6877 8.57068 9.11267 8.38321C7.98767 8.23318 7.76267 7.93321 7.76267 7.40815C7.76267 6.88309 8.1377 6.54568 8.88767 6.54568C9.56267 6.54568 9.9377 6.77068 10.1252 7.33318C10.1627 7.44568 10.2752 7.52065 10.3877 7.52065H10.9876C11.1377 7.52065 11.2502 7.40815 11.2502 7.25821V7.22068C11.1001 6.39565 10.4251 5.75818 9.56267 5.68321V4.78321C9.56267 4.63318 9.45017 4.52068 9.2627 4.48315H8.7002C8.55017 4.48315 8.43767 4.59565 8.40014 4.78321V5.64568C7.27514 5.79571 6.5627 6.54568 6.5627 7.48321C6.5627 8.72071 7.31267 9.20816 8.88767 9.39572C9.9377 9.58319 10.2752 9.80819 10.2752 10.4082C10.2752 11.0082 9.75014 11.4207 9.0377 11.4207C8.06264 11.4207 7.72514 11.0082 7.61264 10.4457C7.5752 10.2957 7.4627 10.2207 7.3502 10.2207H6.71264C6.5627 10.2207 6.4502 10.3332 6.4502 10.4832V10.5207C6.60014 11.4582 7.20017 12.1332 8.43767 12.3207V13.2207C8.43767 13.3707 8.55017 13.4832 8.73764 13.5207H9.30013C9.45017 13.5207 9.56267 13.4082 9.6002 13.2207V12.3207C10.7252 12.1332 11.4752 11.3457 11.4752 10.3332Z" fill="#C1D182"/>
<path id="Vector_3" d="M7.0875 14.2518C4.1625 13.2019 2.66247 9.9394 3.75003 7.05184C4.31253 5.47684 5.55003 4.27687 7.0875 3.71437C7.23753 3.6394 7.3125 3.5269 7.3125 3.33934V2.81437C7.3125 2.66434 7.23753 2.55184 7.0875 2.5144C7.04997 2.5144 6.975 2.5144 6.93747 2.55184C3.375 3.67684 1.42497 7.4644 2.54997 11.0269C3.22497 13.1268 4.8375 14.7394 6.93747 15.4144C7.0875 15.4893 7.23753 15.4144 7.27497 15.2643C7.3125 15.2269 7.3125 15.1894 7.3125 15.1144V14.5893C7.3125 14.4768 7.2 14.3269 7.0875 14.2518ZM11.0625 2.55184C10.9125 2.47687 10.7625 2.55184 10.725 2.70187C10.6875 2.7394 10.6875 2.77684 10.6875 2.8519V3.37687C10.6875 3.5269 10.8 3.67684 10.9125 3.7519C13.8375 4.80184 15.3375 8.06434 14.25 10.9519C13.6875 12.5269 12.45 13.7269 10.9125 14.2894C10.7625 14.3643 10.6875 14.4768 10.6875 14.6644V15.1894C10.6875 15.3394 10.7625 15.4519 10.9125 15.4893C10.95 15.4893 11.025 15.4893 11.0625 15.4519C14.625 14.3269 16.575 10.5393 15.45 6.97687C14.775 4.83937 13.125 3.22684 11.0625 2.55184Z" fill="#C1D182"/>
</g>
</g>
<defs>
<clipPath id="clip0_579_6411">
<rect width="18" height="18" fill="white"/>
</clipPath>
</defs>
</svg>
