<svg width="24" height="24" viewBox="0 0 24 24" fill="none" xmlns="http://www.w3.org/2000/svg">
<g id="ic/token/bera">
<g id="Group 423">
<path id="Vector" d="M12 24C18.6274 24 24 18.6274 24 12C24 5.37258 18.6274 0 12 0C5.37258 0 0 5.37258 0 12C0 18.6274 5.37258 24 12 24Z" fill="#78350F"/>
<path id="Vector_2" fill-rule="evenodd" clip-rule="evenodd" d="M8.91034 7.71299C8.70882 7.58658 8.48749 7.49905 8.2563 7.45627C8.02512 7.41348 7.79397 7.41543 7.5687 7.46403C7.34539 7.51267 7.13595 7.60409 6.9522 7.7344C6.76842 7.86472 6.61429 8.03392 6.49969 8.22843C6.38509 8.42294 6.31002 8.64078 6.28035 8.87028C6.25073 9.09978 6.26655 9.33318 6.32779 9.56073C6.42855 9.93809 6.8949 10.0101 7.215 9.78052L8.03108 9.19702L8.8491 8.6116C9.1692 8.38207 9.24428 7.92307 8.91034 7.71299Z" fill="white"/>
<path id="Vector_3" fill-rule="evenodd" clip-rule="evenodd" d="M17.5374 8.22843C17.4228 8.03392 17.2687 7.86667 17.085 7.7344C16.9012 7.60409 16.6917 7.51072 16.4685 7.46403C16.2451 7.41543 16.01 7.41348 15.7808 7.45627C15.5496 7.49905 15.3283 7.58658 15.1268 7.71299C14.7928 7.92307 14.8679 8.38207 15.188 8.6116L16.0061 9.19702L16.8221 9.78052C17.1423 10.0101 17.6086 9.93809 17.7093 9.56073C17.7706 9.33318 17.7864 9.09783 17.7568 8.87028C17.7271 8.64078 17.652 8.42485 17.5374 8.22843Z" fill="white"/>
<path id="Vector_4" fill-rule="evenodd" clip-rule="evenodd" d="M12.6805 14.5494C12.2893 14.4171 11.8585 14.4171 11.4673 14.5494C11.25 14.6233 11.0603 14.7381 11.0721 14.9112C11.0939 15.1757 11.5147 15.6288 11.8191 15.7222C12.0048 15.7786 12.1213 15.7747 12.3288 15.7222C12.6331 15.6444 13.056 15.1757 13.0758 14.9112C13.0896 14.7381 12.8979 14.6233 12.6805 14.5494Z" fill="white"/>
<path id="Vector_5" fill-rule="evenodd" clip-rule="evenodd" d="M10.596 13.6975C10.4874 13.5536 10.351 13.433 10.1969 13.3436C10.0428 13.2541 9.87281 13.1977 9.69697 13.1782C9.5211 13.1588 9.34128 13.1743 9.17137 13.2269C9.00142 13.2794 8.84137 13.3649 8.70108 13.4816C8.5608 13.5983 8.44421 13.7423 8.35728 13.9037C8.21302 14.1741 8.44222 14.458 8.75047 14.4931L9.52901 14.5806L10.3135 14.6701C10.6217 14.705 10.9122 14.4814 10.8331 14.1857C10.7857 14.0068 10.7047 13.8415 10.596 13.6975Z" fill="white"/>
<path id="Vector_6" fill-rule="evenodd" clip-rule="evenodd" d="M15.4213 13.4543C15.2811 13.3376 15.121 13.252 14.9511 13.1995C14.7811 13.147 14.6013 13.1314 14.4255 13.1509C14.2496 13.1704 14.0797 13.2268 13.9255 13.3162C13.7714 13.4057 13.6351 13.5263 13.5264 13.6702C13.4177 13.8142 13.3367 13.9795 13.2893 14.1584C13.2103 14.4541 13.5007 14.6777 13.807 14.6427L14.5914 14.5532L15.372 14.4657C15.6802 14.4307 15.9094 14.1467 15.7651 13.8764C15.6782 13.7149 15.5597 13.571 15.4213 13.4543Z" fill="white"/>
<path id="Vector_7" fill-rule="evenodd" clip-rule="evenodd" d="M19.1283 11.5875C19.7705 10.8815 20.1598 9.94597 20.1479 8.92094C20.142 8.353 20.0096 7.78897 19.7586 7.27353C19.0591 5.82648 17.2887 4.69642 15.4768 5.07374C15.4173 5.08638 15.343 5.10565 15.2578 5.13055C14.9883 5.20972 14.7407 5.34584 14.5224 5.52014C14.0385 5.90662 13.1491 6.16548 12.1317 6.16548C12.1123 6.16548 12.0931 6.16529 12.074 6.1651C12.0548 6.1651 12.0357 6.1651 12.0163 6.1651C10.999 6.1651 10.1095 5.90602 9.62557 5.51973C9.40725 5.34528 9.15963 5.2093 8.89012 5.13014C8.80496 5.10505 8.73067 5.086 8.6712 5.07337C6.85946 4.69604 5.08901 5.82607 4.38952 7.27315C4.13857 7.78855 4.00616 8.35263 4.00023 8.92057C3.98838 9.94555 4.37763 10.8811 5.01982 11.5872C5.07517 11.6494 5.10086 11.733 5.08702 11.8128C4.65033 14.2693 5.29451 16.2901 6.62036 17.7294C8.01341 19.2407 10.0565 19.9934 12.0384 20.0342H12.074C12.0759 20.0344 12.0779 20.0344 12.0799 20.0344H12.1095C14.0914 19.9936 16.1346 19.2409 17.5276 17.7296C18.8535 16.2903 19.4976 14.2695 19.0609 11.8129C19.0471 11.7332 19.073 11.6497 19.1283 11.5875ZM17.9684 11.1616C17.8696 11.2413 17.8261 11.3697 17.8558 11.4922C18.8853 15.7809 16.2395 18.2841 13.2004 18.8209H13.1985C12.906 18.8734 12.6097 18.9065 12.3113 18.9221C12.2935 18.9221 12.2737 18.924 12.256 18.924C12.2006 18.9279 12.1433 18.9279 12.088 18.9299H12.0742C12.0728 18.9297 12.0712 18.9297 12.0702 18.9297H12.0603C12.005 18.9277 11.9477 18.9277 11.8924 18.9238C11.8746 18.9238 11.8548 18.9219 11.8371 18.9219C11.5387 18.9063 11.2423 18.8733 10.9498 18.8208H10.9479C7.90886 18.2839 5.26308 15.7807 6.29253 11.492C6.3222 11.3695 6.27869 11.2411 6.17992 11.1614C5.52389 10.6362 5.10896 9.83099 5.11882 8.93047C5.12279 8.52202 5.21962 8.11747 5.39744 7.7479C5.91513 6.67623 7.21728 5.8963 8.44038 6.15108C8.58367 6.18044 8.96778 6.30513 9.34203 6.48055C9.47778 6.54415 9.60521 6.62373 9.72457 6.71377C10.2148 7.08408 11.0838 7.33053 12.0744 7.3315C13.0649 7.3309 13.9339 7.08449 14.4242 6.71395C14.5435 6.62392 14.6708 6.54438 14.8067 6.48074C15.1807 6.30532 15.5649 6.18085 15.7083 6.15127C16.9314 5.89649 18.2336 6.67642 18.7513 7.74813C18.9291 8.11765 19.026 8.5222 19.0299 8.93065C19.0398 9.83122 18.6248 10.6364 17.9688 11.1616H17.9684Z" fill="white"/>
</g>
</g>
</svg>
