<svg width="18" height="18" viewBox="0 0 18 18" fill="none" xmlns="http://www.w3.org/2000/svg">
<g id="usdc-svg-b" clip-path="url(#clip0_4475_116)">
<g id="Group 258">
<path id="Vector" d="M9 18C13.9875 18 18 13.9875 18 9C18 4.01247 13.9875 0 9 0C4.01247 0 0 4.01247 0 9C0 13.9875 4.01247 18 9 18Z" fill="#121212"/>
<path id="Vector_2" d="M11.475 10.3329C11.475 9.02044 10.6875 8.57044 9.11254 8.38297C7.98754 8.23294 7.76254 7.93297 7.76254 7.40791C7.76254 6.88285 8.13757 6.54544 8.88754 6.54544C9.56254 6.54544 9.93757 6.77044 10.125 7.33294C10.1626 7.44544 10.2751 7.52041 10.3876 7.52041H10.9875C11.1375 7.52041 11.25 7.40791 11.25 7.25797V7.22044C11.1 6.39541 10.425 5.75794 9.56254 5.68297V4.78297C9.56254 4.63294 9.45004 4.52044 9.26257 4.48291H8.70007C8.55004 4.48291 8.43754 4.59541 8.40001 4.78297V5.64544C7.27501 5.79547 6.56257 6.54544 6.56257 7.48297C6.56257 8.72047 7.31254 9.20791 8.88754 9.39547C9.93757 9.58294 10.2751 9.80794 10.2751 10.408C10.2751 11.008 9.75001 11.4205 9.03757 11.4205C8.06251 11.4205 7.72501 11.0079 7.61251 10.4454C7.57507 10.2955 7.46257 10.2204 7.35007 10.2204H6.71251C6.56257 10.2204 6.45007 10.3329 6.45007 10.4829V10.5205C6.60001 11.4579 7.20004 12.1329 8.43754 12.3205V13.2205C8.43754 13.3704 8.55004 13.4829 8.73751 13.5204H9.30001C9.45004 13.5204 9.56254 13.4079 9.60007 13.2205V12.3205C10.7251 12.1329 11.475 11.3454 11.475 10.3329Z" fill="#C1D182"/>
<path id="Vector_3" d="M7.0875 14.2516C4.1625 13.2017 2.66247 9.93916 3.75003 7.0516C4.31253 5.4766 5.55003 4.27663 7.0875 3.71413C7.23753 3.63916 7.3125 3.52666 7.3125 3.3391V2.81413C7.3125 2.6641 7.23753 2.5516 7.0875 2.51416C7.04997 2.51416 6.975 2.51416 6.93747 2.5516C3.375 3.6766 1.42497 7.46416 2.54997 11.0266C3.22497 13.1266 4.8375 14.7391 6.93747 15.4141C7.0875 15.4891 7.23753 15.4141 7.27497 15.2641C7.3125 15.2267 7.3125 15.1891 7.3125 15.1142V14.5891C7.3125 14.4766 7.2 14.3267 7.0875 14.2516ZM11.0625 2.5516C10.9125 2.47663 10.7625 2.5516 10.725 2.70163C10.6875 2.73916 10.6875 2.7766 10.6875 2.85166V3.37663C10.6875 3.52666 10.8 3.6766 10.9125 3.75166C13.8375 4.8016 15.3375 8.0641 14.25 10.9517C13.6875 12.5267 12.45 13.7266 10.9125 14.2891C10.7625 14.3641 10.6875 14.4766 10.6875 14.6642V15.1891C10.6875 15.3392 10.7625 15.4517 10.9125 15.4891C10.95 15.4891 11.025 15.4891 11.0625 15.4517C14.625 14.3267 16.575 10.5391 15.45 6.97663C14.775 4.83913 13.125 3.2266 11.0625 2.5516Z" fill="#C1D182"/>
</g>
</g>
<defs>
<clipPath id="clip0_4475_116">
<rect width="18" height="18" fill="white"/>
</clipPath>
</defs>
</svg>
