<svg width="18" height="16" viewBox="0 0 18 16" fill="none" xmlns="http://www.w3.org/2000/svg">
<g id="Wallet">
<path id="Shape" d="M14.8443 6C14.8443 6.55229 15.292 7 15.8443 7C16.3966 7 16.8443 6.55229 16.8443 6H14.8443ZM16.8443 9.99999C16.8443 9.4477 16.3966 8.99999 15.8443 8.99999C15.292 8.99999 14.8443 9.4477 14.8443 9.99999H16.8443ZM17 6H18C18 5.44772 17.5523 5 17 5V6ZM17 9.99999V11C17.5523 11 18 10.5523 18 9.99999H17ZM16.8443 6V3H14.8443V6H16.8443ZM16.8443 3C16.8443 1.42808 15.6581 0 14.0133 0V2C14.391 2 14.8443 2.36278 14.8443 3H16.8443ZM14.0133 0H2.83102V2H14.0133V0ZM2.83102 0C1.18623 0 0 1.42807 0 3H2C2 2.36279 2.45332 2 2.83102 2V0ZM0 3V13H2V3H0ZM0 13C0 14.572 1.18625 16 2.83102 16V14C2.4533 14 2 13.6372 2 13H0ZM2.83102 16H14.0133V14H2.83102V16ZM14.0133 16C15.6581 16 16.8443 14.572 16.8443 13H14.8443C14.8443 13.6372 14.391 14 14.0133 14V16ZM16.8443 13V9.99999H14.8443V13H16.8443ZM17 5H12.1058V7H17V5ZM12.1058 5C10.4609 5 9.27474 6.42804 9.27474 8H11.2747C11.2747 7.36276 11.728 7 12.1058 7V5ZM9.27474 8C9.27474 9.57197 10.461 11 12.1058 11V8.99999C11.728 8.99999 11.2747 8.63723 11.2747 8H9.27474ZM12.1058 11H17V8.99999H12.1058V11ZM18 9.99999V6H16V9.99999H18Z" fill="#525252"/>
</g>
</svg>
