<svg width="64" height="64" viewBox="0 0 64 64" xmlns="http://www.w3.org/2000/svg">
    <g fill="none" fill-rule="evenodd">
        <circle fill="#171717" cx="32" cy="32" r="32"/>
        <path d="M16 32.015c0 .425.133.826.396 1.187.061.087.13.17.207.249l12.726 12.976c.744.759 1.95.759 2.664.031l.1-.107a1.97 1.97 0 0 0-.07-2.67l-6.736-6.867-2.802-2.856h3.962l19.648-.001c1.052 0 1.905-.87 1.905-1.903l-.003-.135c-.048-1.03-.885-1.846-1.902-1.846H22.453l2.801-2.856 6.769-6.902a1.97 1.97 0 0 0 0-2.746 1.879 1.879 0 0 0-2.694 0L16.603 30.545c-.168.172-.3.368-.415.626-.123.26-.188.546-.188.844z" fill="#2E2E2E" fill-rule="nonzero"/>
    </g>
</svg>
