<svg width="24" height="24" viewBox="0 0 24 24" fill="none" xmlns="http://www.w3.org/2000/svg">
<g id="icons/18/plus copy 2">
<path id="Combined Shape" fill-rule="evenodd" clip-rule="evenodd" d="M5.63612 5.63604C5.05033 6.22183 5.05033 7.17157 5.63612 7.75736L9.87876 12L5.63612 16.2426C5.05033 16.8284 5.05033 17.7782 5.63612 18.364C6.2219 18.9497 7.17165 18.9497 7.75744 18.364L12.0001 14.1213L16.2427 18.364C16.8285 18.9497 17.7783 18.9497 18.364 18.364C18.9498 17.7782 18.9498 16.8284 18.364 16.2426L14.1214 12L18.364 7.75736C18.9498 7.17157 18.9498 6.22183 18.364 5.63604C17.7783 5.05025 16.8285 5.05025 16.2427 5.63604L12.0001 9.87868L7.75744 5.63604C7.17165 5.05025 6.2219 5.05025 5.63612 5.63604Z" fill="#C1D182"/>
</g>
</svg>
