<svg width="18" height="18" viewBox="0 0 18 18" fill="none" xmlns="http://www.w3.org/2000/svg">
<g id="icons/18/dropdown-default">
<g id="Group 2">
<g id="Group">
<path id="Combined Shape" fill-rule="evenodd" clip-rule="evenodd" d="M11.4084 6.70711C11.7989 6.31658 12.4321 6.31658 12.8226 6.70711C13.2131 7.09763 13.2131 7.7308 12.8226 8.12132L9.70126 11.2426C9.31074 11.6332 8.67758 11.6332 8.28705 11.2426C7.89653 10.8521 7.89653 10.219 8.28705 9.82843L11.4084 6.70711Z" fill="#989995"/>
<path id="Combined Shape_2" fill-rule="evenodd" clip-rule="evenodd" d="M6.59126 6.70711C6.20074 6.31658 5.56757 6.31658 5.17705 6.70711C4.78652 7.09763 4.78652 7.7308 5.17705 8.12132L8.29837 11.2426C8.68889 11.6332 9.32206 11.6332 9.71258 11.2426C10.1031 10.8521 10.1031 10.219 9.71258 9.82843L6.59126 6.70711Z" fill="#989995"/>
</g>
</g>
</g>
</svg>
