<svg width="32" height="32" viewBox="0 0 32 32" fill="none" xmlns="http://www.w3.org/2000/svg">
<g id="icons/32/close">
<rect id="Rectangle Copy 21" width="32" height="32" rx="16" fill="#292929"/>
<path id="Union" fill-rule="evenodd" clip-rule="evenodd" d="M12.5252 11.2617C12.1763 10.9128 11.6106 10.9128 11.2617 11.2617C10.9128 11.6106 10.9128 12.1763 11.2617 12.5252L14.7365 16L11.2617 19.4748C10.9128 19.8237 10.9128 20.3894 11.2617 20.7383C11.6106 21.0872 12.1763 21.0872 12.5252 20.7383L16 17.2636L19.4748 20.7383C19.8237 21.0872 20.3894 21.0872 20.7383 20.7383C21.0872 20.3894 21.0872 19.8237 20.7383 19.4748L17.2636 16L20.7383 12.5252C21.0872 12.1763 21.0872 11.6106 20.7383 11.2617C20.3894 10.9128 19.8237 10.9128 19.4748 11.2617L16 14.7365L12.5252 11.2617Z" fill="#808080"/>
</g>
</svg>
