<svg width="18" height="18" viewBox="0 0 18 18" fill="none" xmlns="http://www.w3.org/2000/svg">
<g id="btc-svg 2" clip-path="url(#clip0_579_6585)">
<g id="Group">
<path id="Vector" d="M17.7345 11.1779C16.5323 15.9999 11.6485 18.9345 6.82592 17.732C2.00534 16.5298 -0.929251 11.6457 0.273502 6.82397C1.47513 2.00143 6.35899 -0.933448 11.1801 0.268742C16.0024 1.47093 18.9367 6.35564 17.7345 11.1779Z" fill="#292929"/>
<path id="Vector_2" d="M12.9724 7.71814C13.1516 6.52045 12.2397 5.8766 10.9927 5.44708L11.3972 3.82466L10.4097 3.57854L10.0159 5.15821C9.75624 5.09351 9.48958 5.03247 9.22462 4.972L9.62122 3.38192L8.63421 3.1358L8.22945 4.75766C8.01455 4.70872 7.80359 4.66034 7.59882 4.60943L7.59994 4.60437L6.23799 4.2643L5.97527 5.3191C5.97527 5.3191 6.70801 5.48702 6.69254 5.49743C7.09252 5.59728 7.1648 5.86197 7.15271 6.0718L6.69197 7.92009C6.71954 7.92713 6.75526 7.93725 6.79464 7.953C6.76173 7.94485 6.72657 7.93585 6.69028 7.92713L6.04447 10.5163C5.99552 10.6378 5.87148 10.8201 5.59189 10.7509C5.60173 10.7652 4.87406 10.5717 4.87406 10.5717L4.38379 11.7022L5.66896 12.0226C5.90805 12.0825 6.14235 12.1452 6.373 12.2043L5.9643 13.8453L6.95075 14.0914L7.35551 12.4678C7.62498 12.541 7.88657 12.6085 8.14253 12.672L7.73918 14.288L8.72675 14.5341L9.13545 12.8962C10.8195 13.2149 12.0858 13.0864 12.6188 11.5632C13.0483 10.3369 12.5974 9.62943 11.7114 9.16813C12.3567 9.01934 12.8427 8.59489 12.9724 7.71814ZM10.716 10.8823C10.4108 12.1086 8.3459 11.4457 7.67645 11.2794L8.21876 9.10541C8.88821 9.27249 11.0349 9.60327 10.716 10.8823ZM11.0214 7.70042C10.743 8.81597 9.02435 8.24919 8.46685 8.11024L8.95853 6.13847C9.51602 6.27742 11.3114 6.53676 11.0214 7.70042Z" fill="#808080"/>
</g>
</g>
<defs>
<clipPath id="clip0_579_6585">
<rect width="18" height="18" fill="white"/>
</clipPath>
</defs>
</svg>
