<svg width="36" height="36" viewBox="0 0 36 36" fill="none" xmlns="http://www.w3.org/2000/svg">
<g id="Frame" clip-path="url(#clip0_6082_1312)">
<rect id="Rectangle 206" width="36" height="36" rx="4" fill="#0284C7"/>
<path id="Vector" d="M29.2714 14.9899H28.2486V12.7473C28.2486 7.3964 23.8813 3.02913 18.5304 3.02913C13.1795 3.02913 8.81219 7.3964 8.81219 12.7473V36C6.70004 36 13.1795 36 13.1795 36V12.7473C13.1795 9.79643 15.5795 7.43573 18.491 7.43573C21.4025 7.43573 23.8026 9.83578 23.8026 12.7473V14.9899H22.7403C22.1107 14.9899 21.5993 15.5014 21.5993 16.1309V18.2556C21.5993 18.8851 22.1107 19.3966 22.7403 19.3966H29.232C29.8616 19.3966 30.3732 18.8851 30.3732 18.2556V16.1309C30.4124 15.5014 29.901 14.9899 29.2714 14.9899Z" fill="#B9E2F8"/>
<path id="Vector_2" d="M26.7532 22.7754C26.6351 22.5 26.3203 22.3426 26.0449 22.3426C25.7301 22.3426 25.4547 22.5 25.3368 22.7754C25.3368 22.7754 23.6842 25.9623 23.3303 26.71C22.8974 27.6149 22.8974 28.559 23.3303 29.464C23.8417 30.4871 24.9039 31.1558 26.0449 31.1558C26.5172 31.1558 26.9892 31.0379 27.4221 30.8412C28.1302 30.4871 28.681 29.8575 28.9564 29.0707C29.1927 28.2836 29.1533 27.4574 28.7991 26.7491L26.7532 22.7754Z" fill="#B9E2F8"/>
</g>
<defs>
<clipPath id="clip0_6082_1312">
<rect width="36" height="36" fill="white"/>
</clipPath>
</defs>
</svg>
