<svg width="36" height="36" viewBox="0 0 36 36" fill="none" xmlns="http://www.w3.org/2000/svg">
<g clip-path="url(#clip0_2_692)">
<mask id="mask0_2_692" style="mask-type:luminance" maskUnits="userSpaceOnUse" x="0" y="0" width="36" height="36">
<path d="M36 0H0V36H36V0Z" fill="white"/>
</mask>
<g mask="url(#mask0_2_692)">
<path d="M32 0H4C1.79086 0 0 1.79086 0 4V32C0 34.2091 1.79086 36 4 36H32C34.2091 36 36 34.2091 36 32V4C36 1.79086 34.2091 0 32 0Z" fill="#0284C7"/>
<path fill-rule="evenodd" clip-rule="evenodd" d="M24.6481 15.2064H25.3926C25.8509 15.2064 26.2231 15.5788 26.1946 16.037V17.5836C26.1946 18.0418 25.8222 18.4141 25.3639 18.4141H20.6385C20.1802 18.4141 19.8079 18.0418 19.8079 17.5836V16.037C19.8079 15.5788 20.1802 15.2064 20.6385 15.2064H21.4117V13.574C21.4117 11.4547 19.6647 9.70763 17.5454 9.70763C15.426 9.70763 13.679 11.426 13.679 13.574V27.5H10.5V13.574C10.5 9.679 13.679 6.5 17.574 6.5C21.469 6.5 24.6481 9.679 24.6481 13.574V15.2064ZM23.0439 20.5586C23.2443 20.5586 23.4735 20.6731 23.5595 20.8736L25.0487 23.7661C25.3065 24.2817 25.3352 24.8831 25.1632 25.4561C24.9627 26.0288 24.5618 26.4871 24.0464 26.7448C23.7312 26.888 23.3877 26.9738 23.0439 26.9738C22.2133 26.9738 21.4401 26.4871 21.0679 25.7423C20.7528 25.0836 20.7528 24.3964 21.0679 23.7377C21.3255 23.1934 22.5284 20.8736 22.5284 20.8736C22.6143 20.6731 22.8147 20.5586 23.0439 20.5586Z" fill="#B9E2F8"/>
</g>
</g>
<defs>
<clipPath id="clip0_2_692">
<rect width="36" height="36" fill="white"/>
</clipPath>
</defs>
</svg>
