<svg width="18" height="18" viewBox="0 0 18 18" fill="none" xmlns="http://www.w3.org/2000/svg">
<g id="ic/token/bera">
<g id="Group 423">
<path id="Vector" d="M9 18C13.9706 18 18 13.9706 18 9C18 4.02944 13.9706 0 9 0C4.02944 0 0 4.02944 0 9C0 13.9706 4.02944 18 9 18Z" fill="#121212"/>
<path id="Vector_2" fill-rule="evenodd" clip-rule="evenodd" d="M6.68276 5.78474C6.53161 5.68993 6.36562 5.62429 6.19223 5.5922C6.01884 5.56011 5.84547 5.56157 5.67653 5.59802C5.50904 5.6345 5.35196 5.70307 5.21415 5.8008C5.07631 5.89854 4.96072 6.02544 4.87477 6.17132C4.78882 6.31721 4.73251 6.48058 4.71026 6.65271C4.68805 6.82483 4.69991 6.99988 4.74584 7.17055C4.82141 7.45357 5.17118 7.50754 5.41125 7.33539L6.02331 6.89776L6.63683 6.4587C6.8769 6.28655 6.93321 5.9423 6.68276 5.78474Z" fill="#C1D182"/>
<path id="Vector_3" fill-rule="evenodd" clip-rule="evenodd" d="M13.1531 6.17132C13.0671 6.02544 12.9515 5.9 12.8137 5.8008C12.6759 5.70307 12.5188 5.63304 12.3513 5.59802C12.1839 5.56157 12.0075 5.56011 11.8356 5.5922C11.6622 5.62429 11.4962 5.68993 11.3451 5.78474C11.0946 5.9423 11.1509 6.28655 11.391 6.4587L12.0046 6.89776L12.6166 7.33539C12.8567 7.50754 13.2064 7.45357 13.282 7.17055C13.328 6.99988 13.3398 6.82337 13.3176 6.65271C13.2953 6.48058 13.239 6.31864 13.1531 6.17132Z" fill="#C1D182"/>
<path id="Vector_4" fill-rule="evenodd" clip-rule="evenodd" d="M9.51042 10.912C9.21699 10.8128 8.89392 10.8128 8.60049 10.912C8.43748 10.9675 8.29522 11.0535 8.30411 11.1834C8.32042 11.3818 8.63607 11.7216 8.8643 11.7917C9.0036 11.834 9.09102 11.831 9.24663 11.7917C9.47487 11.7333 9.792 11.3818 9.80682 11.1834C9.8172 11.0535 9.67343 10.9675 9.51042 10.912Z" fill="#C1D182"/>
<path id="Vector_5" fill-rule="evenodd" clip-rule="evenodd" d="M7.94703 10.2732C7.86553 10.1653 7.76326 10.0748 7.64767 10.0077C7.53208 9.94063 7.40461 9.89833 7.27274 9.88374C7.14083 9.86914 7.00597 9.88081 6.87854 9.92022C6.75107 9.95959 6.63104 10.0238 6.52582 10.1113C6.4206 10.1988 6.33316 10.3068 6.26797 10.4278C6.15977 10.6306 6.33167 10.8436 6.56286 10.8699L7.14676 10.9355L7.73511 11.0026C7.9663 11.0288 8.18413 10.8611 8.12487 10.6394C8.08929 10.5052 8.02854 10.3812 7.94703 10.2732Z" fill="#C1D182"/>
<path id="Vector_6" fill-rule="evenodd" clip-rule="evenodd" d="M11.566 10.0908C11.4608 10.0033 11.3408 9.93908 11.2133 9.89971C11.0859 9.8603 10.951 9.84863 10.8191 9.86323C10.6872 9.87783 10.5598 9.92013 10.4442 9.98723C10.3286 10.0543 10.2263 10.1448 10.1448 10.2527C10.0633 10.3607 10.0025 10.4847 9.96696 10.6189C9.90771 10.8406 10.1255 11.0083 10.3553 10.9821L10.9436 10.915L11.529 10.8493C11.7602 10.8231 11.9321 10.6101 11.8239 10.4073C11.7587 10.2863 11.6698 10.1783 11.566 10.0908Z" fill="#C1D182"/>
<path id="Vector_7" fill-rule="evenodd" clip-rule="evenodd" d="M14.3462 8.69065C14.8279 8.16111 15.1198 7.45947 15.1109 6.69071C15.1065 6.26475 15.0072 5.84172 14.819 5.45515C14.2944 4.36986 12.9665 3.52231 11.6076 3.80531C11.563 3.81478 11.5072 3.82924 11.4434 3.84792C11.2412 3.90729 11.0555 4.00938 10.8918 4.14011C10.5289 4.42996 9.86181 4.62411 9.09875 4.62411C9.08424 4.62411 9.06987 4.62397 9.05549 4.62383C9.04112 4.62383 9.02675 4.62383 9.01221 4.62383C8.24929 4.62383 7.58211 4.42951 7.21919 4.1398C7.05544 4.00896 6.86973 3.90698 6.6676 3.84761C6.60373 3.82879 6.54801 3.8145 6.5034 3.80502C5.1446 3.52203 3.81676 4.36955 3.29215 5.45487C3.10394 5.84142 3.00463 6.26447 3.00018 6.69042C2.99129 7.45917 3.28323 8.16083 3.76487 8.69037C3.80639 8.73702 3.82565 8.79977 3.81527 8.85957C3.48776 10.7019 3.97089 12.2176 4.96528 13.2971C6.01006 14.4305 7.5424 14.995 9.0288 15.0257H9.05549C9.05696 15.0258 9.05845 15.0258 9.05994 15.0258H9.08216C10.5686 14.9952 12.1009 14.4307 13.1457 13.2972C14.1401 12.2177 14.6232 10.7021 14.2957 8.85971C14.2853 8.79991 14.3047 8.73731 14.3462 8.69065ZM13.4763 8.37117C13.4022 8.431 13.3696 8.52727 13.3919 8.61915C14.164 11.8357 12.1796 13.7131 9.90034 14.1157H9.89888C9.67953 14.1551 9.45726 14.1799 9.23347 14.1916C9.22014 14.1916 9.20532 14.193 9.19199 14.193C9.15047 14.1959 9.1075 14.1959 9.06601 14.1974H9.05564C9.05459 14.1972 9.05341 14.1972 9.05268 14.1972H9.04526C9.00377 14.1958 8.9608 14.1958 8.91929 14.1929C8.90595 14.1929 8.89113 14.1914 8.8778 14.1914C8.65401 14.1797 8.43174 14.1549 8.21239 14.1156H8.21093C5.93165 13.713 3.94732 11.8356 4.71941 8.61901C4.74165 8.52713 4.70903 8.43083 4.63495 8.37103C4.14293 7.97717 3.83173 7.37324 3.83912 6.69785C3.8421 6.39151 3.91472 6.0881 4.04809 5.81093C4.43636 5.00717 5.41297 4.42223 6.33029 4.61331C6.43776 4.63533 6.72584 4.72885 7.00653 4.86042C7.10834 4.90812 7.20391 4.9678 7.29344 5.03532C7.66111 5.31306 8.31288 5.4979 9.05578 5.49863C9.7987 5.49818 10.4505 5.31337 10.8181 5.03546C10.9076 4.96794 11.0031 4.90828 11.105 4.86056C11.3856 4.72899 11.6737 4.63564 11.7813 4.61345C12.6986 4.42237 13.6752 5.00731 14.0635 5.8111C14.1969 6.08824 14.2695 6.39165 14.2724 6.69799C14.2799 7.37341 13.9686 7.97731 13.4766 8.37117H13.4763Z" fill="#C1D182"/>
</g>
</g>
</svg>
