<svg width="16" height="18" viewBox="0 0 16 18" fill="none" xmlns="http://www.w3.org/2000/svg">
<g id="Group">
<path id="Subtract" fill-rule="evenodd" clip-rule="evenodd" d="M7.25004 0.43301C7.71414 0.165061 8.28594 0.165061 8.75004 0.43301L15.0443 4.06698C15.5084 4.33493 15.7943 4.83012 15.7943 5.36602V12.634C15.7943 13.1699 15.5084 13.6651 15.0443 13.933L14.3316 14.3445L11.3454 6.16439V6.15658C11.2907 6.01589 11.0953 6.01589 11.0406 6.15658L10.0948 8.75153C10.0714 8.82187 10.0714 8.90003 10.0948 8.97819L12.4484 15.4317L11.6993 15.8642L9.75093 10.518C9.69622 10.3773 9.50081 10.3773 9.4461 10.518L8.50035 13.1129C8.4769 13.1833 8.4769 13.2614 8.50035 13.3396L9.81608 16.9515L8.75004 17.567C8.28594 17.8349 7.71414 17.8349 7.25004 17.567L6.19072 16.9554L10.7279 4.50737C10.767 4.39794 10.6888 4.28852 10.5794 4.28852V4.29634H8.75826C8.62538 4.29634 8.50032 4.38231 8.45343 4.50737L4.30767 15.8682L3.55829 15.4356L7.54668 4.50738C7.58576 4.39795 7.5076 4.28853 7.39817 4.28853L7.39035 4.29634H5.5692C5.43633 4.29634 5.31127 4.38232 5.26437 4.50738L1.6748 14.3481L0.95581 13.933C0.491709 13.6651 0.205811 13.1699 0.205811 12.634V5.36602C0.205811 4.83012 0.491709 4.33493 0.955811 4.06698L7.25004 0.43301Z" fill="#C1D182"/>
</g>
</svg>
