<svg width="32" height="32" viewBox="0 0 32 32" xmlns="http://www.w3.org/2000/svg">
    <g fill="none" fill-rule="evenodd">
        <circle fill="#5FADAD" cx="16" cy="16" r="16"/>
        <g fill="#121212" fill-rule="nonzero">
            <path d="M11.54 19.114c-1.492 0-2.54 1.015-2.54 2.443C9 22.986 10.048 24 11.54 24c1.491 0 2.539-1.014 2.539-2.443 0-1.428-1.048-2.443-2.54-2.443zm0 .943c.858 0 1.448.614 1.448 1.5s-.59 1.5-1.448 1.5c-.86 0-1.449-.614-1.449-1.5s.59-1.5 1.449-1.5zM18.336 23.929v-.943h-2.438v-3.8h-1.077v4.743zM19.042 19.186v4.743h1.077v-1.593h1.055c1.207 0 1.826-.536 1.826-1.572 0-1.043-.619-1.578-1.826-1.578h-2.132zm1.077 2.207v-1.264h1.004c.538 0 .786.2.786.635 0 .429-.248.629-.786.629h-1.004z"/>
            <g>
                <path d="M10.489 8h3.358v6.163h7.92v2.473H10.49z"/>
            </g>
        </g>
    </g>
</svg>
