<svg width="18" height="18" viewBox="0 0 18 18" fill="none" xmlns="http://www.w3.org/2000/svg">
<g id="icons/18/dropdown-hov">
<g id="Group 2">
<g id="Group">
<path id="Combined Shape" fill-rule="evenodd" clip-rule="evenodd" d="M11.4084 11.2929C11.7989 11.6834 12.4321 11.6834 12.8226 11.2929C13.2131 10.9024 13.2131 10.2692 12.8226 9.87868L9.70126 6.75736C9.31074 6.36683 8.67758 6.36684 8.28705 6.75736C7.89653 7.14788 7.89653 7.78105 8.28705 8.17157L11.4084 11.2929Z" fill="#E0E0E0"/>
<path id="Combined Shape_2" fill-rule="evenodd" clip-rule="evenodd" d="M6.59126 11.2929C6.20074 11.6834 5.56757 11.6834 5.17705 11.2929C4.78652 10.9024 4.78652 10.2692 5.17705 9.87868L8.29837 6.75736C8.68889 6.36683 9.32206 6.36684 9.71258 6.75736C10.1031 7.14788 10.1031 7.78105 9.71258 8.17157L6.59126 11.2929Z" fill="#E0E0E0"/>
</g>
</g>
</g>
</svg>
