<svg width="28" height="28" viewBox="0 0 28 28" fill="none" xmlns="http://www.w3.org/2000/svg">
<circle cx="14" cy="14" r="14" fill="#FF7A00"/>
<path d="M20.4835 12.6616C20.4583 12.5815 20.4399 12.5002 20.4262 12.4178C20.4193 12.38 20.4125 12.3411 20.4045 12.3033C20.3861 12.2209 20.3667 12.1396 20.3449 12.0583C20.7056 11.5133 22.4275 8.6683 20.4674 6.84222C18.2922 4.81578 15.7505 7.4719 15.7505 7.4719L15.7585 7.48335C14.6159 7.13645 13.3772 7.09524 12.1728 7.4719C12.1579 7.45587 9.62542 4.82151 7.45587 6.84222C5.28632 8.86293 7.62875 12.1327 7.64134 12.1499C7.61615 12.2266 7.59669 12.3056 7.58295 12.3846C7.34825 13.7848 5.75 14.2164 5.75 16.6538C5.75 19.0913 7.42152 21.096 10.8333 21.096H12.2335C12.2392 21.1051 12.8162 21.9214 14 21.9214C15.0991 21.9203 15.8238 21.104 15.8307 21.096H17.1667C20.5785 21.096 22.25 19.1382 22.25 16.6538C22.25 14.3847 20.8636 13.8535 20.4835 12.6616Z" fill="#1F1F1F"/>
</svg>
