<svg width="24" height="24" viewBox="0 0 24 24" fill="none" xmlns="http://www.w3.org/2000/svg">
<path fill-rule="evenodd" clip-rule="evenodd" d="M24 12C24 18.6274 18.6274 24 12 24C5.37258 24 0 18.6274 0 12C0 5.37258 5.37258 0 12 0C18.6274 0 24 5.37258 24 12ZM6.75 12.477V6H10.095L12.0518 9.639L14.0415 6H17.25V12.477H14.8395V8.4375L12.6 12.477H11.3558L9.12525 8.4375V12.477H6.75ZM8.7615 14.3355C7.67925 14.3355 6.91875 15.0968 6.91875 16.1678C6.91875 17.2395 7.67925 18 8.7615 18C9.84375 18 10.6035 17.2395 10.6035 16.1678C10.6035 15.0968 9.84375 14.3355 8.7615 14.3355ZM8.7615 15.0428C9.384 15.0428 9.8115 15.5033 9.8115 16.1678C9.8115 16.8323 9.384 17.2928 8.7615 17.2928C8.139 17.2928 7.71075 16.8323 7.71075 16.1678C7.71075 15.5033 8.13825 15.0428 8.76075 15.0428H8.7615ZM13.692 17.9468V17.2395H11.9235V14.3895H11.142V17.9468H13.692ZM14.2042 14.3895V17.9468H14.985V16.752H15.7507C16.6267 16.752 17.076 16.35 17.076 15.573C17.076 14.7908 16.6267 14.3895 15.7507 14.3895H14.2042ZM14.985 16.0448V15.0968H15.714C16.104 15.0968 16.284 15.2468 16.284 15.573C16.284 15.8948 16.104 16.0448 15.714 16.0448H14.985Z" fill="#85D64D"/>
</svg>
