<svg width="18" height="18" viewBox="0 0 18 18" fill="none" xmlns="http://www.w3.org/2000/svg">
<g id="eth-svg-g" clip-path="url(#clip0_4475_92)">
<g id="Group">
<path id="Vector" d="M9 18C13.9706 18 18 13.9706 18 9C18 4.02944 13.9706 0 9 0C4.02944 0 0 4.02944 0 9C0 13.9706 4.02944 18 9 18Z" fill="#292929"/>
<g id="Group_2">
<path id="Vector_2" d="M9.28015 2.25V7.23938L13.4972 9.12375L9.28015 2.25Z" fill="#808080" fill-opacity="0.5"/>
<path id="Vector_3" d="M9.28012 2.25L5.0625 9.12375L9.28012 7.23938V2.25Z" fill="#808080"/>
<path id="Vector_4" d="M9.28015 12.3572V15.7474L13.5 9.90918L9.28015 12.3572Z" fill="#808080" fill-opacity="0.5"/>
<path id="Vector_5" d="M9.28012 15.7474V12.3566L5.0625 9.90918L9.28012 15.7474Z" fill="#808080"/>
<path id="Vector_6" d="M9.28015 11.5725L13.4972 9.12397L9.28015 7.24072V11.5725Z" fill="#333333"/>
<path id="Vector_7" d="M5.0625 9.12397L9.28012 11.5725V7.24072L5.0625 9.12397Z" fill="#808080" fill-opacity="0.5"/>
</g>
</g>
</g>
<defs>
<clipPath id="clip0_4475_92">
<rect width="18" height="18" fill="white"/>
</clipPath>
</defs>
</svg>
