<svg width="18" height="18" viewBox="0 0 18 18" fill="none" xmlns="http://www.w3.org/2000/svg">
<g id="weth-svg-b" clip-path="url(#clip0_4475_130)">
<path id="Vector" d="M9 18C13.9706 18 18 13.9706 18 9C18 4.02944 13.9706 0 9 0C4.02944 0 0 4.02944 0 9C0 13.9706 4.02944 18 9 18Z" fill="#EC1C79"/>
<path id="Vector_2" d="M6.43363 14.7212C9.36988 14.7212 9.36988 14.6762 9.86803 14.5299C10.5187 14.3369 8.02978 12.6147 6.43363 12.6147C4.83748 12.6147 3.54193 13.0863 3.54193 13.6682C3.54193 14.25 4.83658 14.7212 6.43363 14.7212Z" fill="black"/>
<path id="Vector_3" d="M13.1013 5.76438L13.2363 5.90973L13.1184 6.06903C9.28888 11.2494 7.08253 13.5894 6.14428 13.2771C5.57638 13.0854 5.00488 12.5094 4.43428 11.6733C4.23358 11.379 4.04458 11.0694 3.87313 10.7616C3.75883 10.5564 3.66208 10.3692 3.61168 10.2639C3.55916 10.161 3.52129 10.0511 3.49918 9.93768L3.49648 9.92463C3.48748 9.87963 3.48433 9.86388 3.47758 9.83868C3.2143 8.84811 3.24847 7.80195 3.57582 6.83066C3.90318 5.85938 4.50923 5.00596 5.3184 4.37684C6.12758 3.74772 7.10406 3.37073 8.12606 3.29291C9.14807 3.21508 10.1704 3.43985 11.0655 3.93918L11.0853 3.95178C11.8192 4.48314 12.495 5.09101 13.1013 5.76438ZM10.8211 4.35183C10.0077 3.90181 9.08005 3.70071 8.15333 3.7735C7.22661 3.84629 6.3417 4.18977 5.60855 4.76127C4.8754 5.33276 4.32633 6.10708 4.02955 6.98801C3.73278 7.86894 3.70139 8.81766 3.93928 9.71628C3.94963 9.75543 3.95458 9.77748 3.96538 9.83373V9.84543C3.97994 9.91966 4.00526 9.99137 4.04053 10.0583C4.08553 10.1546 4.17868 10.3323 4.28758 10.529C4.45273 10.8251 4.63363 11.1225 4.82758 11.4042C5.34553 12.1593 5.85718 12.6759 6.29953 12.8244C6.88903 13.0224 9.10798 10.6734 12.6148 5.94618C12.0714 5.35633 11.4708 4.82223 10.8211 4.35183Z" fill="black"/>
<path id="Vector_4" d="M10.8212 4.35198C10.0078 3.90182 9.08001 3.7006 8.15321 3.77333C7.2264 3.84605 6.34139 4.18951 5.60817 4.76103C4.87494 5.33255 4.32581 6.10693 4.02903 6.98794C3.73225 7.86895 3.70089 8.81775 3.93886 9.71643C3.94921 9.75558 3.95416 9.77763 3.96496 9.83388V9.84558C3.97932 9.91945 4.00433 9.99085 4.03921 10.0575C4.08421 10.1538 4.17736 10.3316 4.28626 10.5282C4.45141 10.8243 4.63231 11.1218 4.82626 11.4035C5.34376 12.159 5.85586 12.6752 6.29686 12.8237C6.88636 13.0217 9.10531 10.6727 12.6122 5.94543C12.0692 5.35598 11.4688 4.82219 10.8198 4.35198H10.8212Z" fill="#EC1C79"/>
<path id="Vector_5" d="M9.47836 14.6739C8.44595 14.6739 7.43671 14.3677 6.57829 13.7942C5.71986 13.2206 5.0508 12.4053 4.65571 11.4515C4.26062 10.4977 4.15725 9.4481 4.35867 8.43552C4.56008 7.42294 5.05724 6.49282 5.78727 5.76279C6.5173 5.03276 7.44741 4.5356 8.45999 4.33419C9.47257 4.13278 10.5221 4.23615 11.476 4.63124C12.4298 5.02633 13.2451 5.69539 13.8186 6.55381C14.3922 7.41224 14.6984 8.42147 14.6984 9.45389C14.6984 10.1394 14.5633 10.8182 14.301 11.4515C14.0387 12.0848 13.6542 12.6603 13.1695 13.145C12.6847 13.6297 12.1093 14.0142 11.476 14.2765C10.8427 14.5389 10.1639 14.6739 9.47836 14.6739ZM9.47836 14.1951C10.4159 14.1954 11.3324 13.9176 12.112 13.397C12.8916 12.8763 13.4994 12.1362 13.8583 11.2701C14.2173 10.4041 14.3114 9.45105 14.1287 8.53153C13.946 7.61202 13.4947 6.76733 12.8319 6.1043C12.1691 5.44126 11.3246 4.98967 10.4052 4.80662C9.48574 4.62357 8.53266 4.71729 7.66648 5.07593C6.8003 5.43457 6.05992 6.04202 5.53899 6.82145C5.01805 7.60089 4.73995 8.5173 4.73986 9.45479C4.73974 10.7117 5.23888 11.9172 6.1275 12.8062C7.01611 13.6951 8.22143 14.1947 9.47836 14.1951Z" fill="black"/>
<path id="Vector_6" d="M9.47837 14.195C10.4158 14.195 11.3322 13.9171 12.1116 13.3963C12.8911 12.8755 13.4986 12.1352 13.8574 11.2692C14.2161 10.4031 14.31 9.45008 14.1272 8.53065C13.9443 7.61122 13.493 6.76666 12.8301 6.10376C12.1673 5.44087 11.3228 4.9894 10.4034 4.80646C9.48394 4.62352 8.53093 4.71733 7.66482 5.076C6.79872 5.43468 6.05843 6.04213 5.53755 6.82154C5.01668 7.60094 4.73861 8.5173 4.73853 9.45473C4.73847 10.0772 4.86102 10.6936 5.0992 11.2687C5.33737 11.8439 5.68649 12.3664 6.12664 12.8066C6.56678 13.2468 7.08932 13.596 7.66441 13.8342C8.2395 14.0724 8.85589 14.195 9.47837 14.195Z" fill="white"/>
<path id="Vector_7" d="M5.93278 10.4257L5.30548 8.53567H5.85538L6.18253 9.62152L6.54253 8.53027H6.99028L7.35028 9.62152L7.67743 8.53567H8.21743L7.59013 10.4257H7.13923L6.76123 9.34567L6.38638 10.4257H5.93278ZM8.42758 10.4122V8.53567H9.93733V8.97712H8.94148V9.26152H9.84148V9.67192H8.94148V9.96937H9.94948V10.4117L8.42758 10.4122ZM10.6744 10.4122V8.99152H10.1101V8.53567H11.758V8.99152H11.1933V10.4122H10.6744ZM11.9853 10.4122V8.53567H12.5046V9.23812H13.1724V8.53567H13.693V10.4122H13.1724V9.69937H12.5046V10.4122H11.9853Z" fill="black"/>
<path id="Vector_8" d="M3.61352 7.97109C3.55826 7.9347 3.51829 7.8793 3.50118 7.81538C3.48408 7.75147 3.49104 7.68351 3.52074 7.62439C3.55044 7.56527 3.60081 7.51911 3.66229 7.49467C3.72377 7.47024 3.79209 7.46923 3.85427 7.49184L4.61927 7.87479C4.65509 7.88781 4.68774 7.90827 4.71508 7.93482C4.74243 7.96137 4.76384 7.9934 4.77792 8.02882C4.79199 8.06424 4.79841 8.10224 4.79675 8.14031C4.79509 8.17839 4.78538 8.21568 4.76827 8.24974C4.75117 8.28379 4.72704 8.31384 4.69749 8.33791C4.66793 8.36197 4.63362 8.37951 4.5968 8.38936C4.55999 8.39921 4.5215 8.40116 4.48388 8.39507C4.44626 8.38898 4.41035 8.375 4.37852 8.35404L3.61352 7.97109Z" fill="black"/>
<path id="Vector_9" d="M3.52529 9.24132C3.49009 9.22865 3.45791 9.20881 3.43078 9.18304C3.40366 9.15728 3.38219 9.12615 3.36773 9.09165C3.35327 9.05715 3.34613 9.02002 3.34678 8.98262C3.34743 8.94521 3.35584 8.90835 3.37149 8.87437C3.38713 8.84039 3.40967 8.81003 3.43766 8.78522C3.46566 8.7604 3.49851 8.74168 3.53413 8.73023C3.56974 8.71879 3.60735 8.71487 3.64456 8.71872C3.68177 8.72258 3.71777 8.73412 3.75029 8.75263L4.51529 9.10632C4.57128 9.14108 4.61262 9.19512 4.63153 9.25825C4.65044 9.32138 4.64561 9.38925 4.61794 9.44907C4.59028 9.50888 4.54169 9.55651 4.48133 9.58298C4.42098 9.60945 4.35303 9.61294 4.29029 9.59278L3.52529 9.24132Z" fill="black"/>
<g id="Group 310">
<path id="Vector_10" d="M9 18C13.9706 18 18 13.9706 18 9C18 4.02944 13.9706 0 9 0C4.02944 0 0 4.02944 0 9C0 13.9706 4.02944 18 9 18Z" fill="#121212"/>
<path id="Vector_11" d="M3.04705 10.5836L2 7.42893H2.91786L3.46392 9.24137L4.06481 7.41992H4.81217L5.41306 9.24137L5.95912 7.42893H6.86045L5.8134 10.5836H5.06079L4.42985 8.78094L3.80417 10.5836H3.04705ZM7.21122 10.5611V7.42893H9.73121V8.16578H8.06899V8.64048H9.57122V9.3255H8.06899V9.82198H9.75149V10.5603L7.21122 10.5611ZM10.9615 10.5611V8.18981H10.0196V7.42893H12.7702V8.18981H11.8276V10.5611H10.9615ZM13.1495 10.5611V7.42893H14.0163V8.60142H15.131V7.42893H16V10.5611H15.131V9.37131H14.0163V10.5611H13.1495Z" fill="#C1D182"/>
</g>
</g>
<defs>
<clipPath id="clip0_4475_130">
<rect width="18" height="18" fill="white"/>
</clipPath>
</defs>
</svg>
