<svg width="24" height="24" viewBox="0 0 24 24" xmlns="http://www.w3.org/2000/svg">
    <g fill-rule="nonzero" fill="none">
        <path d="M23.64 14.903c-1.602 6.429-8.114 10.34-14.544 8.738C2.669 22.038-1.244 15.527.359 9.098 1.962 2.67 8.473-1.244 14.902.36c6.43 1.603 10.342 8.115 8.739 14.544z" fill="#F7931A"/>
        <path d="M17.291 10.29c.24-1.596-.977-2.455-2.64-3.027l.54-2.163-1.317-.328-.525 2.106a55.088 55.088 0 0 0-1.055-.249l.53-2.12-1.317-.328-.54 2.163c-.286-.066-.567-.13-.84-.198l.001-.007-1.816-.453-.35 1.406s.977.224.956.238c.534.133.63.486.614.766l-.615 2.464c.037.01.085.023.137.044l-.139-.035-.86 3.452c-.066.162-.231.405-.604.313.013.019-.957-.24-.957-.24l-.654 1.508 1.713.427c.32.08.632.164.94.242l-.546 2.188 1.316.328.54-2.164c.359.097.707.187 1.049.272l-.538 2.154 1.317.328.544-2.183c2.246.425 3.934.253 4.645-1.777.573-1.635-.029-2.578-1.21-3.193.86-.199 1.508-.765 1.681-1.934zm-3.008 4.219c-.407 1.635-3.16.75-4.053.53l.723-2.899c.893.223 3.755.664 3.33 2.369zm.407-4.242c-.371 1.487-2.663.731-3.406.546l.656-2.628c.743.185 3.137.53 2.75 2.082z" fill="#FFF"/>
    </g>
</svg>
