<svg width="18" height="18" viewBox="0 0 18 18" fill="none" xmlns="http://www.w3.org/2000/svg">
<g clip-path="url(#clip0_4794_3431)">
<path fill-rule="evenodd" clip-rule="evenodd" d="M12.8231 6.70733C13.0106 6.89485 13.1159 7.14916 13.1159 7.41433C13.1159 7.67949 13.0106 7.9338 12.8231 8.12133L9.70012 11.2433C9.60721 11.3362 9.49692 11.4098 9.37556 11.46C9.25419 11.5102 9.12412 11.5361 8.99277 11.536C8.86142 11.536 8.73137 11.5101 8.61004 11.4598C8.4887 11.4094 8.37847 11.3357 8.28562 11.2428C8.19278 11.1499 8.11914 11.0396 8.06892 10.9183C8.0187 10.7969 7.99287 10.6668 7.99292 10.5355C7.99297 10.4041 8.01888 10.2741 8.06919 10.1527C8.1195 10.0314 8.19321 9.92117 8.28612 9.82833L11.4071 6.70833C11.5 6.61535 11.6103 6.54159 11.7317 6.49127C11.8531 6.44094 11.9832 6.41504 12.1146 6.41504C12.246 6.41504 12.3762 6.44094 12.4976 6.49127C12.619 6.54159 12.7292 6.61535 12.8221 6.70833L12.8231 6.70733Z" fill="#9D9B98"/>
<path fill-rule="evenodd" clip-rule="evenodd" d="M5.17706 6.7078C4.98959 6.89533 4.88428 7.14964 4.88428 7.4148C4.88428 7.67997 4.98959 7.93427 5.17706 8.1218L8.29806 11.2438C8.39097 11.3367 8.50127 11.4104 8.62267 11.4607C8.74406 11.511 8.87417 11.5369 9.00556 11.5369C9.13696 11.5369 9.26707 11.511 9.38846 11.4607C9.50985 11.4104 9.62015 11.3367 9.71306 11.2438C9.80597 11.1509 9.87967 11.0406 9.92996 10.9192C9.98024 10.7978 10.0061 10.6677 10.0061 10.5363C10.0061 10.4049 9.98024 10.2748 9.92996 10.1534C9.87967 10.032 9.80597 9.92171 9.71306 9.8288L6.59006 6.7088C6.40254 6.52133 6.14823 6.41602 5.88306 6.41602C5.6179 6.41602 5.36359 6.52133 5.17606 6.7088L5.17706 6.7078Z" fill="#9D9B98"/>
</g>
<defs>
<clipPath id="clip0_4794_3431">
<rect width="18" height="18" fill="white"/>
</clipPath>
</defs>
</svg>
