<svg width="8" height="8" viewBox="0 0 8 8" fill="none" xmlns="http://www.w3.org/2000/svg">
<path id="Combined-Shape" d="M3.99856 8L3.96122 7.99801C3.81419 7.983 3.67607 7.88279 3.64786 7.6974C3.58374 6.43127 3.34301 5.573 2.93929 5.10371C2.54719 4.64792 1.67639 4.38868 0.32579 4.35297C0.111118 4.32121 0.00360239 4.16046 0 3.99978C0.00360239 3.83954 0.111118 3.67879 0.32579 3.64703C1.67639 3.61132 2.54719 3.35207 2.93929 2.89629C3.34301 2.427 3.58374 1.56872 3.64786 0.302601C3.67607 0.117206 3.81419 0.016997 3.96122 0.00198257L3.99856 0L4.0388 0.00198257C4.18583 0.016997 4.32395 0.117206 4.35216 0.302601C4.41628 1.56872 4.65701 2.427 5.06073 2.89629C5.45283 3.35207 6.32363 3.61132 7.67423 3.64703C7.8889 3.67879 7.99642 3.83954 8.00002 4.00022C7.99642 4.16046 7.8889 4.32121 7.67423 4.35297C6.32363 4.38868 5.45283 4.64792 5.06073 5.10371C4.65701 5.573 4.41628 6.43127 4.35216 7.6974C4.32395 7.88279 4.18583 7.983 4.0388 7.99801L4.00146 8H3.99856Z" fill="url(#paint0_linear_344_496)"/>
<defs>
<linearGradient id="paint0_linear_344_496" x1="-1" y1="2" x2="10.5" y2="8" gradientUnits="userSpaceOnUse">
<stop stop-color="#C1D182"/>
<stop offset="1" stop-color="#3388B8"/>
</linearGradient>
</defs>
</svg>
