<svg width="22" height="22" viewBox="0 0 22 22" fill="none" xmlns="http://www.w3.org/2000/svg">
<path fill-rule="evenodd" clip-rule="evenodd" d="M13.2677 13.4335C13.6583 13.824 13.6583 14.4572 13.2677 14.8477C12.8772 15.2383 12.2441 15.2383 11.8535 14.8477L8.73221 11.7264C8.34169 11.3359 8.34169 10.7027 8.73221 10.3122C9.12274 9.92167 9.7559 9.92167 10.1464 10.3122L13.2677 13.4335Z" fill="#E0E0E0"/>
<path fill-rule="evenodd" clip-rule="evenodd" d="M13.2677 8.61677C13.6583 8.22625 13.6583 7.59309 13.2677 7.20256C12.8772 6.81204 12.2441 6.81204 11.8535 7.20256L8.73221 10.3239C8.34169 10.7144 8.34169 11.3476 8.73221 11.7381C9.12274 12.1286 9.7559 12.1286 10.1464 11.7381L13.2677 8.61677Z" fill="#E0E0E0"/>
</svg>
