<svg width="24" height="24" viewBox="0 0 24 24" fill="none" xmlns="http://www.w3.org/2000/svg">
<path fill-rule="evenodd" clip-rule="evenodd" d="M24 12C24 18.6274 18.6274 24 12 24C5.37258 24 0 18.6274 0 12C0 5.37258 5.37258 0 12 0C18.6274 0 24 5.37258 24 12ZM6.75 16.1841C6.75 15.1221 7.53586 14.3681 8.65463 14.3681C9.77339 14.3681 10.5593 15.1221 10.5593 16.1841C10.5593 17.246 9.77339 18 8.65463 18C7.53586 18 6.75 17.246 6.75 16.1841ZM9.7407 16.1841C9.7407 15.5257 9.29865 15.069 8.65468 15.069C8.01071 15.069 7.56866 15.5257 7.56866 16.1841C7.56866 16.8425 8.01071 17.2991 8.65468 17.2991C9.29865 17.2991 9.7407 16.8425 9.7407 16.1841ZM13.7519 17.246V17.9469H11.116V14.4212H11.9237V17.246H13.7519ZM14.2811 17.9469V14.4212H15.8801C16.7861 14.4212 17.2499 14.8195 17.2499 15.5947C17.2499 16.3646 16.7861 16.7628 15.8801 16.7628H15.0888V17.9469H14.2811ZM15.0887 15.1221V16.0619H15.8418C16.2456 16.0619 16.4312 15.9133 16.4312 15.5947C16.4312 15.2708 16.2456 15.1221 15.8418 15.1221H15.0887ZM11.5676 12.6524H12.3746C13.0426 12.6524 13.6265 12.6107 14.1261 12.5273C14.6256 12.4439 15.0217 12.3346 15.3144 12.1994C15.607 12.0643 15.8421 11.8975 16.0194 11.699C16.1968 11.5006 16.315 11.305 16.3742 11.1123C16.4333 10.9196 16.4628 10.7053 16.4628 10.4695V10.3487C16.4628 9.69867 16.1938 9.22268 15.6558 8.92069C15.1178 8.61869 14.2251 8.45044 12.9776 8.41593L11.7893 8.39004C11.3932 8.38429 11.0857 8.35697 10.867 8.30807C10.6482 8.25918 10.5078 8.2031 10.4457 8.13982C10.3837 8.07655 10.3526 7.99602 10.3526 7.89823V7.8896C10.3526 7.79181 10.3792 7.71272 10.4324 7.65232C10.4856 7.59192 10.6246 7.53728 10.8492 7.48839C11.0739 7.43949 11.3932 7.41504 11.807 7.41504H11.8957C12.9067 7.41504 13.4388 7.64226 13.492 8.09668H16.2323V8.02765C16.2323 6.67588 14.8961 6 12.2238 6H11.4345C10.8374 6 10.3127 6.03595 9.86043 6.10785C9.40815 6.17976 9.04307 6.27323 8.7652 6.38827C8.48733 6.50332 8.26267 6.64712 8.09121 6.81969C7.91976 6.99226 7.80152 7.16914 7.73648 7.35033C7.67145 7.53153 7.63893 7.73429 7.63893 7.95863V8.03628C7.63893 9.26726 8.7179 9.9115 10.8758 9.96903L12.0997 10.0035C12.5431 10.015 12.8815 10.0481 13.1151 10.1028C13.3486 10.1574 13.4964 10.2207 13.5585 10.2926C13.6206 10.3645 13.6516 10.4608 13.6516 10.5816V10.5903C13.6516 10.6765 13.6324 10.7528 13.594 10.8189C13.5555 10.8851 13.4831 10.9483 13.3767 11.0087C13.2703 11.0691 13.1047 11.1152 12.8801 11.1468C12.6554 11.1784 12.3746 11.1942 12.0376 11.1942H11.9578C10.9054 11.1942 10.3556 10.8923 10.3083 10.2883H7.54138V10.3746C7.54138 11.8931 8.88344 12.6524 11.5676 12.6524Z" fill="#D6BD5A"/>
</svg>
