<svg width="151" height="28" viewBox="0 0 151 28" fill="none" xmlns="http://www.w3.org/2000/svg">
<g id="moby-logo">
<g id="Group 364">
<g id="Moby">
<path id="Path" d="M67.4291 21.0913V6.16992H62.2452L58.1803 16.5744H58.1346L54.0697 6.16992H49V21.0913H52.2656V10.1699H52.3113L56.5589 21.0913H59.619L64.0036 9.85532H64.0493V21.0913H67.4291Z" fill="white"/>
<path id="Shape" fill-rule="evenodd" clip-rule="evenodd" d="M69.58 15.8104C69.58 12.5744 71.955 10.3048 75.3348 10.3048C78.6917 10.3048 81.0667 12.5744 81.0667 15.8104C81.0667 19.0239 78.6917 21.316 75.3348 21.316C71.955 21.316 69.58 19.0239 69.58 15.8104ZM78.0523 15.8104C78.0523 14.1025 76.9333 12.9115 75.3348 12.9115C73.7134 12.9115 72.5944 14.1025 72.5944 15.8104C72.5944 17.5182 73.7134 18.7093 75.3348 18.7093C76.9333 18.7093 78.0523 17.5182 78.0523 15.8104Z" fill="white"/>
<path id="Shape_2" fill-rule="evenodd" clip-rule="evenodd" d="M85.9173 11.4508C86.648 10.7092 87.6985 10.3048 89.023 10.3048C92.0603 10.3048 94.2754 12.6194 94.2754 15.8104C94.2754 19.0014 92.0603 21.316 89.023 21.316C87.4473 21.316 86.2141 20.7092 85.529 19.698H85.4834L85.3692 21.0913H82.88V6.16992H85.8716V11.4508H85.9173ZM85.8031 15.8104C85.8031 17.5182 86.8992 18.7092 88.5206 18.7092C90.1649 18.7092 91.261 17.5182 91.261 15.8104C91.261 14.1025 90.1649 12.9115 88.5206 12.9115C86.8992 12.9115 85.8031 14.1025 85.8031 15.8104Z" fill="white"/>
<path id="Path_2" d="M99.93 25.4014L106.08 10.5699H102.882L100.335 17.5362H100.289L97.7771 10.5699H94.58L98.7134 20.7946L96.6809 25.4014H99.93Z" fill="white"/>
</g>
<g id="Group 5">
<path id="Fill 1" fill-rule="evenodd" clip-rule="evenodd" d="M33.1667 20.4615V24.1538H25.8481V24.1497L23.4059 20.4615H21.2648L24.9314 26H35V20.4615H33.1667Z" fill="#C1D182"/>
<path id="Fill 2" fill-rule="evenodd" clip-rule="evenodd" d="M2 20.4615V26H12.0833L15.75 20.4615H2Z" fill="#C1D182"/>
<path id="Fill 3" fill-rule="evenodd" clip-rule="evenodd" d="M28.074 5.69231L19.5184 18.6154H34.9999V5.69231H28.074Z" fill="#C1D182"/>
<path id="Fill 4" fill-rule="evenodd" clip-rule="evenodd" d="M25.8333 2L18.5073 13.0637L11.1814 2L11.1667 2.02974V2H2V14.9312H3.83333V3.85426L10.2648 3.84615L17.4371 14.68L16.0511 16.7733H2V18.6195L16.9722 18.6154L26.75 3.84615H35V2H25.8333Z" fill="#C1D182"/>
</g>
</g>
<g id="Group 365">
<rect id="Rectangle 76" x="113.5" y="5.5" width="37" height="17" rx="2.5" fill="#171717" stroke="url(#paint0_linear_4496_1265)"/>
<g id="Alpha">
<path id="Vector" d="M145 17.0786H144.272L144.241 16.3303H144.221C143.867 16.8561 143.22 17.1797 142.391 17.1797C141.016 17.1797 140.025 16.1482 140.025 14.7123C140.025 13.2763 141.016 12.2449 142.391 12.2449C143.22 12.2449 143.867 12.5685 144.221 13.1044H144.241L144.272 12.346H145V17.0786ZM142.532 16.4112C143.493 16.4112 144.171 15.7134 144.171 14.7123C144.171 13.7112 143.493 13.0134 142.532 13.0134C141.562 13.0134 140.894 13.7112 140.894 14.7123C140.894 15.7134 141.562 16.4112 142.532 16.4112Z" fill="url(#paint1_linear_4496_1265)"/>
<path id="Vector_2" d="M137.176 12.2449C138.38 12.2449 139.118 13.0337 139.118 14.3281V17.0787H138.258V14.4292C138.258 13.5393 137.773 13.0135 136.974 13.0135C136.094 13.0135 135.569 13.6202 135.569 14.6213V17.0787H134.709V10H135.569V12.9326H135.589C135.922 12.4876 136.479 12.2449 137.176 12.2449Z" fill="url(#paint2_linear_4496_1265)"/>
<path id="Vector_3" d="M131.304 12.2449C132.679 12.2449 133.68 13.2763 133.68 14.7123C133.68 16.1482 132.679 17.1797 131.304 17.1797C130.545 17.1797 129.959 16.9168 129.585 16.4718H129.564V18.9999H128.705V12.346H129.433L129.453 13.0943H129.473C129.837 12.5685 130.474 12.2449 131.304 12.2449ZM131.172 16.4111C132.133 16.4111 132.81 15.7134 132.81 14.7123C132.81 13.7112 132.133 13.0134 131.172 13.0134C130.201 13.0134 129.534 13.7112 129.534 14.7123C129.534 15.7134 130.201 16.4111 131.172 16.4111Z" fill="url(#paint3_linear_4496_1265)"/>
<path id="Vector_4" d="M126.512 17.0787V10H127.372V17.0787H126.512Z" fill="url(#paint4_linear_4496_1265)"/>
<path id="Vector_5" d="M124.626 17.0786L124.009 15.6831H120.298L119.681 17.0786H118.67L121.704 10.364H122.624L125.668 17.0786H124.626ZM122.169 11.4662H122.149L120.672 14.8235H123.635L122.169 11.4662Z" fill="url(#paint5_linear_4496_1265)"/>
</g>
</g>
</g>
<defs>
<linearGradient id="paint0_linear_4496_1265" x1="113" y1="5" x2="150.151" y2="24.6077" gradientUnits="userSpaceOnUse">
<stop stop-color="#B2CC7A"/>
<stop offset="1" stop-color="#268071"/>
</linearGradient>
<linearGradient id="paint1_linear_4496_1265" x1="118.463" y1="10.0777" x2="145.689" y2="17.4675" gradientUnits="userSpaceOnUse">
<stop stop-color="#E6FC8D"/>
<stop offset="1" stop-color="#33B897"/>
</linearGradient>
<linearGradient id="paint2_linear_4496_1265" x1="118.464" y1="10.0778" x2="145.689" y2="17.4676" gradientUnits="userSpaceOnUse">
<stop stop-color="#E6FC8D"/>
<stop offset="1" stop-color="#33B897"/>
</linearGradient>
<linearGradient id="paint3_linear_4496_1265" x1="118.464" y1="10.0777" x2="145.689" y2="17.4675" gradientUnits="userSpaceOnUse">
<stop stop-color="#E6FC8D"/>
<stop offset="1" stop-color="#33B897"/>
</linearGradient>
<linearGradient id="paint4_linear_4496_1265" x1="118.463" y1="10.0778" x2="145.689" y2="17.4676" gradientUnits="userSpaceOnUse">
<stop stop-color="#E6FC8D"/>
<stop offset="1" stop-color="#33B897"/>
</linearGradient>
<linearGradient id="paint5_linear_4496_1265" x1="118.464" y1="10.0777" x2="145.689" y2="17.4675" gradientUnits="userSpaceOnUse">
<stop stop-color="#E6FC8D"/>
<stop offset="1" stop-color="#33B897"/>
</linearGradient>
</defs>
</svg>
