<svg width="24" height="24" viewBox="0 0 24 24" fill="none" xmlns="http://www.w3.org/2000/svg">
<g id="icon-arb">
<g id="Group">
<path id="Vector" d="M2.16507 7.29475V16.7053C2.16507 17.3042 2.48415 17.8589 3.00451 18.1583L11.1534 22.8611C11.6738 23.1606 12.3119 23.1606 12.8323 22.8611L20.9812 18.1583C21.5015 17.8589 21.8206 17.3042 21.8206 16.7053V7.29475C21.8206 6.69586 21.5015 6.14114 20.9812 5.84169L12.8323 1.13889C12.3119 0.839445 11.6738 0.839445 11.1534 1.13889L3.00451 5.84169C2.48906 6.14114 2.16507 6.69586 2.16507 7.29475Z" fill="#213147"/>
<g id="Group_2">
<g id="Group_3">
<g id="Group_4">
<path id="Vector_2" d="M13.7748 13.8237L12.6114 17.0096C12.577 17.098 12.577 17.1962 12.6114 17.2845L14.6093 22.7679L16.9215 21.4326L14.1479 13.8237C14.0841 13.647 13.8386 13.647 13.7748 13.8237Z" fill="#12AAFF"/>
</g>
<g id="Group_5">
<path id="Vector_3" d="M16.1017 8.46311C16.0378 8.28639 15.7924 8.28639 15.7286 8.46311L14.5652 11.649C14.5308 11.7374 14.5308 11.8356 14.5652 11.9239L17.8394 20.9025L20.1516 19.5672L16.1017 8.46311Z" fill="#12AAFF"/>
</g>
</g>
</g>
<path id="Vector_4" d="M11.9929 1.48742C12.0518 1.48742 12.1058 1.50215 12.1598 1.5316L20.9763 6.62221C21.0794 6.68112 21.1432 6.78912 21.1432 6.90693V17.0882C21.1432 17.206 21.0794 17.314 20.9763 17.3729L12.1598 22.4684C12.1107 22.4979 12.0518 22.5126 11.9929 22.5126C11.9339 22.5126 11.8799 22.4979 11.8259 22.4684L3.01433 17.3778C2.91124 17.3189 2.84742 17.2109 2.84742 17.0931V6.90693C2.84742 6.78912 2.91124 6.68112 3.01433 6.62221L11.8309 1.5316C11.8799 1.50215 11.9389 1.48742 11.9929 1.48742ZM11.9929 0C11.6787 0 11.3645 0.0834526 11.0847 0.245449L2.26816 5.33606C1.70854 5.66005 1.36 6.25895 1.36 6.90693V17.0882C1.36 17.7361 1.70854 18.3399 2.26816 18.6639L11.0847 23.7546C11.3645 23.9165 11.6787 24 11.9929 24C12.307 24 12.6212 23.9165 12.901 23.7546L21.7175 18.6639C22.2821 18.3399 22.6257 17.7411 22.6257 17.0882V6.90693C22.6257 6.25895 22.2772 5.65514 21.7175 5.33115L12.9059 0.245449C12.6212 0.0834526 12.307 0 11.9929 0Z" fill="#9DCCED"/>
<path id="Vector_5" d="M6.16589 20.9123L6.97588 18.6934L8.60566 20.0483L7.08387 21.4424L6.16589 20.9123Z" fill="#213147"/>
<g id="Group_6">
<path id="Vector_6" d="M11.2516 6.18042H9.01801C8.8511 6.18042 8.69892 6.28351 8.64492 6.4406L3.85376 19.577L6.16589 20.9123L11.443 6.4455C11.4872 6.31787 11.394 6.18042 11.2516 6.18042Z" fill="white"/>
<path id="Vector_7" d="M15.1641 6.18042H12.9305C12.7636 6.18042 12.6115 6.28351 12.5575 6.4406L7.08395 21.4424L9.39608 22.7777L15.3507 6.45041C15.3998 6.31787 15.3016 6.18042 15.1641 6.18042Z" fill="white"/>
</g>
</g>
</g>
</svg>
