<svg width="108" height="28" viewBox="0 0 108 28" xmlns="http://www.w3.org/2000/svg">
    <g fill="none" fill-rule="evenodd">
        <path d="M0 0h108v28H0z"/>
        <g fill="#FFF" fill-rule="nonzero">
            <path d="M67.43 21.091V6.17h-5.185L58.18 16.574h-.045L54.07 6.17H49v14.921h3.266V10.17h.045l4.248 10.921h3.06l4.385-11.236h.045v11.236zM75.335 10.305c-3.38 0-5.755 2.27-5.755 5.505 0 3.214 2.375 5.506 5.755 5.506 3.357 0 5.732-2.292 5.732-5.506 0-3.236-2.375-5.505-5.732-5.505zm0 2.607c1.598 0 2.717 1.19 2.717 2.898 0 1.708-1.119 2.9-2.717 2.9-1.622 0-2.74-1.192-2.74-2.9 0-1.707 1.118-2.898 2.74-2.898zM89.023 10.305c-1.324 0-2.375.404-3.106 1.146h-.045V6.17H82.88v14.921h2.49l.113-1.393h.046c.685 1.011 1.918 1.618 3.494 1.618 3.037 0 5.252-2.315 5.252-5.506 0-3.19-2.215-5.505-5.252-5.505zm-.502 8.404c-1.622 0-2.718-1.19-2.718-2.899 0-1.707 1.096-2.898 2.718-2.898 1.644 0 2.74 1.19 2.74 2.898 0 1.708-1.096 2.9-2.74 2.9zM99.93 25.401l6.15-14.831h-3.198l-2.547 6.966h-.046l-2.512-6.966H94.58l4.133 10.225-2.032 4.606z"/>
        </g>
        <g fill="#C1D182">
            <path d="M33.167 20.462v3.692h-7.319v-.004l-2.442-3.688h-2.141L24.93 26H35v-5.538zM2 20.462V26h10.083l3.667-5.538zM28.074 5.692l-8.556 12.923H35V5.692z"/>
            <path d="m25.833 2-7.326 11.064L11.181 2l-.014.03V2H2v12.931h1.833V3.854l6.432-.008 7.172 10.834-1.386 2.093H2v1.846l14.972-.004L26.75 3.846H35V2z"/>
        </g>
    </g>
</svg>
