<svg width="24" height="24" viewBox="0 0 24 24" fill="none" xmlns="http://www.w3.org/2000/svg">
<circle cx="12" cy="12" r="7.5" stroke="#3D3D3D"/>
<path d="M12.055 8.19995C13.639 8.19995 14.596 8.96995 14.596 10.246C14.596 11.39 13.914 12.072 12.275 12.589V13.568H11.362V11.995C12.968 11.61 13.606 11.126 13.606 10.301C13.606 9.53095 13.034 9.07995 12.055 9.07995C11.197 9.07995 10.405 9.40995 9.85499 9.99295H9.79999V8.93695C10.394 8.47495 11.219 8.19995 12.055 8.19995ZM11.813 14.448C12.176 14.448 12.451 14.723 12.451 15.086C12.451 15.449 12.176 15.724 11.813 15.724C11.461 15.724 11.186 15.449 11.186 15.086C11.186 14.723 11.461 14.448 11.813 14.448Z" fill="#808080"/>
</svg>
