<svg width="20" height="16" viewBox="0 0 20 16" fill="none" xmlns="http://www.w3.org/2000/svg">
<path d="M12.6158 8.63594V9.99994H7.41284V8.56994L9.18384 7.17294C10.6468 6.01794 11.0648 5.52294 11.0648 4.90694C11.0648 4.29094 10.6028 3.94994 9.77784 3.94994C8.94184 3.94994 8.13884 4.27994 7.57784 4.85194H7.50084V3.22394C8.08384 2.81694 8.93084 2.58594 9.76684 2.58594C11.5928 2.58594 12.6158 3.38894 12.6158 4.82994C12.6158 5.99594 12.0438 6.78794 10.2508 8.06394L9.46984 8.61394V8.63594H12.6158Z" fill="#C9D6D6"/>
<path d="M20 5.02008V6.58719C19.9874 6.6097 19.9686 6.63069 19.9639 6.65526C19.7168 7.8851 18.8343 8.66404 17.6352 8.71317C17.4672 8.72034 17.2526 8.63999 17.1437 8.74747C17.0317 8.8575 17.0207 9.08167 16.9652 9.25619C16.9631 9.26233 16.961 9.26898 16.9584 9.27512C16.9165 9.38618 16.939 9.42814 17.0641 9.42507C17.4342 9.4174 17.7885 9.50594 18.1125 9.69377C18.5454 9.94404 18.9694 10.2122 19.3996 10.4686C19.4839 10.5188 19.5085 10.5607 19.4525 10.6585C19.2541 11.005 19.0772 11.3653 18.8684 11.7046C18.312 12.6069 17.2594 13.0153 16.2732 12.7323C15.955 12.6412 15.6771 12.4656 15.3981 12.2901C15.3316 12.2486 15.2703 12.201 15.1924 12.2865C15.0578 12.4334 14.9123 12.5695 14.76 12.7215C15.1295 12.935 15.4384 13.2067 15.6535 13.5767C15.9147 14.0271 16.1555 14.4903 16.4114 14.9448C16.4643 15.0389 16.4522 15.0829 16.3622 15.1357C16.0387 15.325 15.7247 15.5338 15.396 15.714C14.76 16.0635 14.1 16.0871 13.4352 15.8153C12.8139 15.5625 12.3983 15.0748 12.1089 14.4575C12.0445 14.3199 11.978 14.281 11.822 14.3229C10.6956 14.6269 9.56138 14.6535 8.4245 14.3854C8.13766 14.3178 7.91834 14.4191 7.76708 14.6899C7.7341 14.7487 7.69799 14.8066 7.66292 14.8639C7.00027 15.9376 5.68228 16.3082 4.60508 15.7155C4.27689 15.5349 3.96389 15.3245 3.63884 15.1372C3.53101 15.0748 3.54619 15.0185 3.59801 14.9279C3.71945 14.717 3.83512 14.5026 3.94975 14.2866C4.27428 13.673 4.58938 13.0516 5.24994 12.7266C5.06988 12.5521 4.9296 12.3259 4.74012 12.2594C4.57734 12.2026 4.40775 12.4324 4.23293 12.5178C4.22717 12.5204 4.22089 12.523 4.21513 12.526C3.09291 13.1494 1.74143 12.7604 1.07878 11.6196C0.89872 11.31 0.735411 10.9891 0.556924 10.6785C0.49359 10.5684 0.514002 10.5193 0.617116 10.4584C1.01439 10.2245 1.40487 9.97832 1.80058 9.74187C2.13347 9.54228 2.49254 9.4174 2.87726 9.4302C3.08977 9.43685 3.07982 9.35394 3.01492 9.19835C2.95263 9.0484 2.97619 8.83805 2.86103 8.7444C2.74483 8.65074 2.55902 8.71829 2.40461 8.7142C1.18922 8.684 0.285789 7.89891 0.0361163 6.65577C0.0308821 6.6312 0.0125622 6.60971 0 6.58668C0 6.06414 0 5.54211 0 5.01957C0.501439 5.02008 1.00236 5.02111 1.5038 5.0206C1.88851 5.0206 2.25491 5.10862 2.58728 5.30975C2.75111 5.40904 2.80816 5.39062 2.82177 5.19051C2.83434 5.02213 2.97252 4.8343 2.90029 4.70175C2.83015 4.57226 2.63701 4.51699 2.49778 4.42896C1.57498 3.84398 1.13531 2.7856 1.36928 1.69958C1.50223 1.08389 1.87804 0.5941 2.15075 0.0500649C2.19576 -0.0400106 2.24601 0.0132161 2.29364 0.0423883C2.72651 0.307497 3.16881 0.556737 3.58859 0.843852C4.22717 1.28041 4.57472 1.9135 4.65323 2.71599C4.70819 3.27896 4.54017 3.78359 4.3329 4.28464C3.80738 5.55286 3.70636 6.86867 3.9843 8.21315C4.65114 11.4354 7.56294 13.7467 10.8752 13.2553C12.4323 13.0245 13.7289 12.2543 14.7312 10.9738C15.8702 9.51873 16.3188 7.83954 16.1078 5.9628C16.0267 5.24578 15.7896 4.58301 15.5294 3.92228C15.0516 2.70934 15.4687 1.42474 16.5423 0.755318C16.917 0.521429 17.2986 0.299305 17.6718 0.0628565C17.777 -0.00367646 17.8283 -0.0067469 17.8917 0.119154C18.0345 0.403711 18.1968 0.678031 18.347 0.958493C19.0359 2.24258 18.6695 3.69505 17.4682 4.44892C17.34 4.52927 17.1599 4.58097 17.0987 4.70072C17.0317 4.83226 17.1505 5.00984 17.1767 5.17003C17.1808 5.19716 17.184 5.22429 17.1871 5.25192C17.2018 5.37885 17.2405 5.40955 17.3604 5.33739C17.7226 5.11834 18.1157 5.01599 18.5355 5.01957C19.0238 5.02418 19.5116 5.02008 20 5.02008Z" fill="#C9D6D6"/>
</svg>
