<svg width="18" height="18" viewBox="0 0 18 18" fill="none" xmlns="http://www.w3.org/2000/svg">
<g id="symbol-ethereum 1" clip-path="url(#clip0_205_354)">
<g id="Group">
<path id="Vector" d="M9 18C13.9706 18 18 13.9706 18 9C18 4.02944 13.9706 0 9 0C4.02944 0 0 4.02944 0 9C0 13.9706 4.02944 18 9 18Z" fill="#333333"/>
<path id="Vector_2" opacity="0.42" d="M9.28052 2.24847V7.23822L13.4978 9.12297L9.28052 2.24847Z" fill="white"/>
<path id="Vector_3" opacity="0.7" d="M9.28048 2.24847L5.06323 9.12297L9.28048 7.23822V2.24847Z" fill="white"/>
<path id="Vector_4" opacity="0.42" d="M9.28052 12.3562V15.7462L13.5 9.90747L9.28052 12.3562Z" fill="white"/>
<path id="Vector_5" opacity="0.7" d="M9.28048 15.7462V12.3562L5.06323 9.90747L9.28048 15.7462Z" fill="white"/>
<path id="Vector_6" opacity="0.14" d="M9.28052 11.571L13.4978 9.12297L9.28052 7.23822V11.571Z" fill="white"/>
<path id="Vector_7" opacity="0.42" d="M5.06323 9.12297L9.28048 11.571V7.23822L5.06323 9.12297Z" fill="white"/>
</g>
</g>
<defs>
<clipPath id="clip0_205_354">
<rect width="18" height="18" fill="white"/>
</clipPath>
</defs>
</svg>
