<svg width="18" height="18" viewBox="0 0 18 18" fill="none" xmlns="http://www.w3.org/2000/svg">
<g id="symbol-bitcoin 1" clip-path="url(#clip0_205_350)">
<g id="Group">
<path id="Vector" d="M17.7299 11.1774C16.5284 15.9991 11.6444 18.9324 6.8219 17.7309C2.00165 16.5286 -0.933103 11.6454 0.269147 6.82362C1.4714 2.00262 6.35465 -0.932877 11.1764 0.270123C15.9989 1.47237 18.9329 6.35637 17.7306 11.1781L17.7299 11.1774Z" fill="#333333"/>
<path id="Vector_2" opacity="0.7" d="M12.9683 7.71749C13.1483 6.52049 12.2355 5.87624 10.9883 5.44724L11.3933 3.82499L10.4055 3.57899L10.0118 5.15849C9.74862 5.09365 9.48486 5.0314 9.2205 4.97174L9.618 3.38174L8.63025 3.13574L8.22525 4.75799C8.01075 4.70849 7.8 4.66049 7.59525 4.60949L7.596 4.60424L6.234 4.26449L5.9715 5.31899C5.9715 5.31899 6.70425 5.48699 6.6885 5.49749C7.089 5.59724 7.161 5.86199 7.149 6.07199L6.68775 7.91999C6.7155 7.92749 6.7515 7.93724 6.7905 7.95299L6.68625 7.92674L6.04125 10.5157C5.99176 10.6372 5.868 10.8195 5.58825 10.7505C5.598 10.7647 4.8705 10.5705 4.8705 10.5705L4.38 11.7015L5.66475 12.0217C5.90475 12.0817 6.13875 12.1447 6.36975 12.2032L5.96025 13.8442L6.94725 14.0902L7.35226 12.4672C7.62151 12.54 7.8825 12.6075 8.139 12.6712L7.7355 14.2867L8.72325 14.5327L9.13126 12.8955C10.8158 13.2142 12.0818 13.0852 12.615 11.5627C13.0448 10.3365 12.5933 9.62924 11.7075 9.16799C12.3525 9.01874 12.8385 8.59424 12.9683 7.71749ZM10.7123 10.8817C10.407 12.108 8.34225 11.4442 7.6725 11.2792L8.21475 9.10499C8.8845 9.27224 11.031 9.60299 10.7123 10.8817ZM11.0175 7.70024C10.7393 8.81549 9.02026 8.24849 8.46301 8.10974L8.955 6.13874C9.51225 6.27749 11.3078 6.53624 11.0175 7.70024Z" fill="white"/>
</g>
</g>
<defs>
<clipPath id="clip0_205_350">
<rect width="18" height="18" fill="white"/>
</clipPath>
</defs>
</svg>
