<svg width="89" height="22" viewBox="0 0 89 22" fill="none" xmlns="http://www.w3.org/2000/svg">
<path fill-rule="evenodd" clip-rule="evenodd" d="M4 0.5H85C86.933 0.5 88.5 2.067 88.5 4V18C88.5 19.933 86.933 21.5 85 21.5H4C2.06701 21.5 0.5 19.933 0.5 18V4C0.5 2.067 2.067 0.5 4 0.5ZM4 1C2.34315 1 1 2.34315 1 4V18C1 19.6569 2.34315 21 4 21H85C86.6569 21 88 19.6569 88 18V4C88 2.34315 86.6569 1 85 1H4Z" fill="url(#paint0_linear_4671_17850)" fill-opacity="0.5"/>
<path d="M1 4C1 2.34315 2.29837 1 3.9 1H85.1C86.7016 1 88 2.34315 88 4V18C88 19.6569 86.7016 21 85.1 21H3.9C2.29838 21 1 19.6569 1 18V4Z" fill="url(#paint1_linear_4671_17850)"/>
<path d="M62.935 9.25195C63.667 9.25195 64.327 9.39595 64.735 9.65995V10.968H64.675C64.291 10.572 63.703 10.368 62.971 10.368C62.359 10.368 61.927 10.644 61.927 11.04C61.927 11.364 62.179 11.508 63.007 11.556C64.507 11.64 65.095 12.192 65.095 13.332C65.095 14.436 64.243 15.12 62.839 15.12C61.903 15.12 61.171 14.928 60.703 14.568V13.236H60.763C61.231 13.74 61.915 14.004 62.779 14.004C63.439 14.004 63.847 13.74 63.847 13.332C63.847 12.96 63.595 12.792 62.683 12.72C61.219 12.6 60.679 12.144 60.679 11.076C60.679 9.97195 61.579 9.25195 62.935 9.25195Z" fill="url(#paint2_linear_4671_17850)"/>
<path d="M59.4587 15.0001H58.3907L58.3427 14.1481H58.3187C57.9587 14.7721 57.3227 15.1201 56.4347 15.1201C55.0187 15.1201 54.1787 14.2081 54.1787 12.6721V9.37207H55.4507V12.5281C55.4507 13.4401 55.9307 13.9801 56.7587 13.9801C57.6587 13.9801 58.1867 13.3561 58.1867 12.3241V9.37207H59.4587V15.0001Z" fill="url(#paint3_linear_4671_17850)"/>
<path d="M50.6785 9.25195C52.0825 9.25195 52.9345 10.164 52.9345 11.7V15H51.6625V11.844C51.6625 10.92 51.1705 10.392 50.3545 10.392C49.4545 10.392 48.9145 11.004 48.9145 12.048V15H47.6425V9.37195H48.7105L48.7585 10.236H48.7825C49.1425 9.59995 49.7905 9.25195 50.6785 9.25195Z" fill="url(#paint4_linear_4671_17850)"/>
<path d="M43.4858 9.25195C45.2378 9.25195 46.4858 10.464 46.4858 12.192C46.4858 13.908 45.2378 15.12 43.4858 15.12C41.7338 15.12 40.4978 13.908 40.4978 12.192C40.4978 10.464 41.7338 9.25195 43.4858 9.25195ZM43.4858 10.392C42.4778 10.392 41.7818 11.124 41.7818 12.192C41.7818 13.236 42.4778 13.98 43.4858 13.98C44.5058 13.98 45.2018 13.236 45.2018 12.192C45.2018 11.124 44.5058 10.392 43.4858 10.392Z" fill="url(#paint5_linear_4671_17850)"/>
<path d="M36.9 9.2521C38.508 9.2521 39.684 10.4881 39.684 12.1921C39.684 13.8961 38.508 15.1201 36.9 15.1201C35.976 15.1201 35.28 14.7721 34.872 14.1961H34.848L34.812 15.0001H33.744V6.6001H35.016V9.9721H35.04C35.46 9.5161 36.084 9.2521 36.9 9.2521ZM36.696 13.9801C37.692 13.9801 38.4 13.2361 38.4 12.1921C38.4 11.1241 37.692 10.3921 36.696 10.3921C35.688 10.3921 34.98 11.1241 34.98 12.1921C34.98 13.2361 35.688 13.9801 36.696 13.9801Z" fill="url(#paint6_linear_4671_17850)"/>
<path d="M22.8294 6.91211C23.9694 6.91211 24.6294 7.70411 24.6294 8.89211C24.6294 10.0681 23.9694 10.8601 22.8294 10.8601C21.6894 10.8601 21.0294 10.0681 21.0294 8.89211C21.0294 7.70411 21.6894 6.91211 22.8294 6.91211ZM22.0854 15.0001L27.1854 7.03211H28.2414L23.1414 15.0001H22.0854ZM22.8294 7.74011C22.2894 7.74011 21.9534 8.16011 21.9534 8.89211C21.9534 9.61211 22.2894 10.0321 22.8294 10.0321C23.3694 10.0321 23.7054 9.61211 23.7054 8.89211C23.7054 8.16011 23.3694 7.74011 22.8294 7.74011ZM27.4974 11.1721C28.6374 11.1721 29.2974 11.9641 29.2974 13.1521C29.2974 14.3281 28.6374 15.1201 27.4974 15.1201C26.3574 15.1201 25.6974 14.3281 25.6974 13.1521C25.6974 11.9641 26.3574 11.1721 27.4974 11.1721ZM27.4974 12.0001C26.9574 12.0001 26.6214 12.4201 26.6214 13.1521C26.6214 13.8721 26.9574 14.2921 27.4974 14.2921C28.0374 14.2921 28.3734 13.8721 28.3734 13.1521C28.3734 12.4201 28.0374 12.0001 27.4974 12.0001Z" fill="url(#paint7_linear_4671_17850)"/>
<path d="M16.7047 6.91211C18.7927 6.91211 19.9927 8.41211 19.9927 11.0161C19.9927 13.6201 18.7927 15.1201 16.7047 15.1201C14.6167 15.1201 13.4167 13.6201 13.4167 11.0161C13.4167 8.41211 14.6167 6.91211 16.7047 6.91211ZM16.7047 8.12411C15.4687 8.12411 14.7727 9.16811 14.7727 11.0161C14.7727 12.8641 15.4687 13.9081 16.7047 13.9081C17.9407 13.9081 18.6367 12.8641 18.6367 11.0161C18.6367 9.16811 17.9407 8.12411 16.7047 8.12411Z" fill="url(#paint8_linear_4671_17850)"/>
<path d="M11.732 13.7881V15.0001H6.104V13.7281L7.892 12.3121C9.812 10.8121 10.376 10.1641 10.376 9.38411C10.376 8.56811 9.788 8.12411 8.72 8.12411C7.796 8.12411 6.908 8.48411 6.284 9.10811H6.212V7.66811C6.86 7.18811 7.784 6.91211 8.696 6.91211C10.652 6.91211 11.732 7.76411 11.732 9.31211C11.732 10.5841 11.048 11.4961 8.84 13.1041L7.928 13.7641V13.7881H11.732Z" fill="url(#paint9_linear_4671_17850)"/>
<path d="M82 11C82 14.866 78.866 18 75 18C71.134 18 68 14.866 68 11C68 7.13401 71.134 4 75 4C78.866 4 82 7.13401 82 11Z" fill="#3D3D3D"/>
<path d="M72.375 7.5H75.4639C77.2139 7.5 78.1099 8.29066 78.1099 9.82982C78.1099 11.3584 77.2139 12.1491 75.4639 12.1491H73.9352V14.5H72.375V7.5ZM73.9352 10.7575H75.3901C76.1702 10.7575 76.5286 10.4623 76.5286 9.82982C76.5286 9.18675 76.1702 8.89157 75.3901 8.89157H73.9352V10.7575Z" fill="#FFC54B"/>
<defs>
<linearGradient id="paint0_linear_4671_17850" x1="1" y1="1" x2="87.8281" y2="30.3756" gradientUnits="userSpaceOnUse">
<stop stop-color="#808080"/>
<stop offset="1" stop-color="#3D3D3D"/>
</linearGradient>
<linearGradient id="paint1_linear_4671_17850" x1="1" y1="1" x2="85.5027" y2="28.636" gradientUnits="userSpaceOnUse">
<stop stop-color="#292929"/>
<stop offset="1" stop-color="#141414"/>
</linearGradient>
<linearGradient id="paint2_linear_4671_17850" x1="33" y1="11" x2="66" y2="11" gradientUnits="userSpaceOnUse">
<stop stop-color="#FFE270"/>
<stop offset="1" stop-color="#FFC349"/>
</linearGradient>
<linearGradient id="paint3_linear_4671_17850" x1="33" y1="11.0001" x2="66" y2="11.0001" gradientUnits="userSpaceOnUse">
<stop stop-color="#FFE270"/>
<stop offset="1" stop-color="#FFC349"/>
</linearGradient>
<linearGradient id="paint4_linear_4671_17850" x1="33" y1="11" x2="66" y2="11" gradientUnits="userSpaceOnUse">
<stop stop-color="#FFE270"/>
<stop offset="1" stop-color="#FFC349"/>
</linearGradient>
<linearGradient id="paint5_linear_4671_17850" x1="33" y1="11" x2="66" y2="11" gradientUnits="userSpaceOnUse">
<stop stop-color="#FFE270"/>
<stop offset="1" stop-color="#FFC349"/>
</linearGradient>
<linearGradient id="paint6_linear_4671_17850" x1="33" y1="11.0001" x2="66" y2="11.0001" gradientUnits="userSpaceOnUse">
<stop stop-color="#FFE270"/>
<stop offset="1" stop-color="#FFC349"/>
</linearGradient>
<linearGradient id="paint7_linear_4671_17850" x1="5.00004" y1="7.50011" x2="29.8967" y2="8.80497" gradientUnits="userSpaceOnUse">
<stop stop-color="#FFF385"/>
<stop offset="1" stop-color="#FFE270"/>
</linearGradient>
<linearGradient id="paint8_linear_4671_17850" x1="5.00006" y1="7.50011" x2="29.8967" y2="8.80497" gradientUnits="userSpaceOnUse">
<stop stop-color="#FFF385"/>
<stop offset="1" stop-color="#FFE270"/>
</linearGradient>
<linearGradient id="paint9_linear_4671_17850" x1="5" y1="7.50011" x2="29.8967" y2="8.80497" gradientUnits="userSpaceOnUse">
<stop stop-color="#FFF385"/>
<stop offset="1" stop-color="#FFE270"/>
</linearGradient>
</defs>
</svg>
