<svg width="87" height="20" viewBox="0 0 87 20" fill="none" xmlns="http://www.w3.org/2000/svg">
<path d="M0 3C0 1.34315 1.29837 0 2.9 0H84.1C85.7016 0 87 1.34315 87 3V17C87 18.6569 85.7016 20 84.1 20H2.9C1.29838 20 0 18.6569 0 17V3Z" fill="#2E2E2E"/>
<path d="M61.935 8.25195C62.667 8.25195 63.327 8.39595 63.735 8.65995V9.96795H63.675C63.291 9.57195 62.703 9.36795 61.971 9.36795C61.359 9.36795 60.927 9.64395 60.927 10.04C60.927 10.364 61.179 10.508 62.007 10.556C63.507 10.64 64.095 11.192 64.095 12.332C64.095 13.436 63.243 14.12 61.839 14.12C60.903 14.12 60.171 13.928 59.703 13.568V12.236H59.763C60.231 12.74 60.915 13.004 61.779 13.004C62.439 13.004 62.847 12.74 62.847 12.332C62.847 11.96 62.595 11.792 61.683 11.72C60.219 11.6 59.679 11.144 59.679 10.076C59.679 8.97195 60.579 8.25195 61.935 8.25195Z" fill="url(#paint0_linear_4671_17798)"/>
<path d="M58.4587 14.0001H57.3907L57.3427 13.1481H57.3187C56.9587 13.7721 56.3227 14.1201 55.4347 14.1201C54.0187 14.1201 53.1787 13.2081 53.1787 11.6721V8.37207H54.4507V11.5281C54.4507 12.4401 54.9307 12.9801 55.7587 12.9801C56.6587 12.9801 57.1867 12.3561 57.1867 11.3241V8.37207H58.4587V14.0001Z" fill="url(#paint1_linear_4671_17798)"/>
<path d="M49.6785 8.25195C51.0825 8.25195 51.9345 9.16395 51.9345 10.7V14H50.6625V10.844C50.6625 9.91995 50.1705 9.39195 49.3545 9.39195C48.4545 9.39195 47.9145 10.004 47.9145 11.048V14H46.6425V8.37195H47.7105L47.7585 9.23595H47.7825C48.1425 8.59995 48.7905 8.25195 49.6785 8.25195Z" fill="url(#paint2_linear_4671_17798)"/>
<path d="M42.4858 8.25195C44.2378 8.25195 45.4858 9.46395 45.4858 11.192C45.4858 12.908 44.2378 14.12 42.4858 14.12C40.7338 14.12 39.4978 12.908 39.4978 11.192C39.4978 9.46395 40.7338 8.25195 42.4858 8.25195ZM42.4858 9.39195C41.4778 9.39195 40.7818 10.124 40.7818 11.192C40.7818 12.236 41.4778 12.98 42.4858 12.98C43.5058 12.98 44.2018 12.236 44.2018 11.192C44.2018 10.124 43.5058 9.39195 42.4858 9.39195Z" fill="url(#paint3_linear_4671_17798)"/>
<path d="M35.9 8.2521C37.508 8.2521 38.684 9.4881 38.684 11.1921C38.684 12.8961 37.508 14.1201 35.9 14.1201C34.976 14.1201 34.28 13.7721 33.872 13.1961H33.848L33.812 14.0001H32.744V5.6001H34.016V8.9721H34.04C34.46 8.5161 35.084 8.2521 35.9 8.2521ZM35.696 12.9801C36.692 12.9801 37.4 12.2361 37.4 11.1921C37.4 10.1241 36.692 9.3921 35.696 9.3921C34.688 9.3921 33.98 10.1241 33.98 11.1921C33.98 12.2361 34.688 12.9801 35.696 12.9801Z" fill="url(#paint4_linear_4671_17798)"/>
<path d="M21.8294 5.91211C22.9694 5.91211 23.6294 6.70411 23.6294 7.89211C23.6294 9.06811 22.9694 9.86011 21.8294 9.86011C20.6894 9.86011 20.0294 9.06811 20.0294 7.89211C20.0294 6.70411 20.6894 5.91211 21.8294 5.91211ZM21.0854 14.0001L26.1854 6.03211H27.2414L22.1414 14.0001H21.0854ZM21.8294 6.74011C21.2894 6.74011 20.9534 7.16011 20.9534 7.89211C20.9534 8.61211 21.2894 9.03211 21.8294 9.03211C22.3694 9.03211 22.7054 8.61211 22.7054 7.89211C22.7054 7.16011 22.3694 6.74011 21.8294 6.74011ZM26.4974 10.1721C27.6374 10.1721 28.2974 10.9641 28.2974 12.1521C28.2974 13.3281 27.6374 14.1201 26.4974 14.1201C25.3574 14.1201 24.6974 13.3281 24.6974 12.1521C24.6974 10.9641 25.3574 10.1721 26.4974 10.1721ZM26.4974 11.0001C25.9574 11.0001 25.6214 11.4201 25.6214 12.1521C25.6214 12.8721 25.9574 13.2921 26.4974 13.2921C27.0374 13.2921 27.3734 12.8721 27.3734 12.1521C27.3734 11.4201 27.0374 11.0001 26.4974 11.0001Z" fill="url(#paint5_linear_4671_17798)"/>
<path d="M15.7047 5.91211C17.7927 5.91211 18.9927 7.41211 18.9927 10.0161C18.9927 12.6201 17.7927 14.1201 15.7047 14.1201C13.6167 14.1201 12.4167 12.6201 12.4167 10.0161C12.4167 7.41211 13.6167 5.91211 15.7047 5.91211ZM15.7047 7.12411C14.4687 7.12411 13.7727 8.16811 13.7727 10.0161C13.7727 11.8641 14.4687 12.9081 15.7047 12.9081C16.9407 12.9081 17.6367 11.8641 17.6367 10.0161C17.6367 8.16811 16.9407 7.12411 15.7047 7.12411Z" fill="url(#paint6_linear_4671_17798)"/>
<path d="M9.736 14.0002H8.392V7.56823L5.776 8.99623V7.60423L8.644 6.03223H9.736V14.0002Z" fill="url(#paint7_linear_4671_17798)"/>
<path d="M81 10C81 13.866 77.866 17 74 17C70.134 17 67 13.866 67 10C67 6.13401 70.134 3 74 3C77.866 3 81 6.13401 81 10Z" fill="#3D3D3D"/>
<path d="M71.375 6.5H74.4639C76.2139 6.5 77.1099 7.29066 77.1099 8.82982C77.1099 10.3584 76.2139 11.1491 74.4639 11.1491H72.9352V13.5H71.375V6.5ZM72.9352 9.75753H74.3901C75.1702 9.75753 75.5286 9.46235 75.5286 8.82982C75.5286 8.18675 75.1702 7.89157 74.3901 7.89157H72.9352V9.75753Z" fill="#5D89FE"/>
<defs>
<linearGradient id="paint0_linear_4671_17798" x1="32" y1="9.99995" x2="65" y2="9.99995" gradientUnits="userSpaceOnUse">
<stop stop-color="#66A9CE"/>
<stop offset="1" stop-color="#5D89FE"/>
</linearGradient>
<linearGradient id="paint1_linear_4671_17798" x1="32" y1="10.0001" x2="65" y2="10.0001" gradientUnits="userSpaceOnUse">
<stop stop-color="#66A9CE"/>
<stop offset="1" stop-color="#5D89FE"/>
</linearGradient>
<linearGradient id="paint2_linear_4671_17798" x1="32" y1="9.99995" x2="65" y2="9.99995" gradientUnits="userSpaceOnUse">
<stop stop-color="#66A9CE"/>
<stop offset="1" stop-color="#5D89FE"/>
</linearGradient>
<linearGradient id="paint3_linear_4671_17798" x1="32" y1="9.99995" x2="65" y2="9.99995" gradientUnits="userSpaceOnUse">
<stop stop-color="#66A9CE"/>
<stop offset="1" stop-color="#5D89FE"/>
</linearGradient>
<linearGradient id="paint4_linear_4671_17798" x1="32" y1="10.0001" x2="65" y2="10.0001" gradientUnits="userSpaceOnUse">
<stop stop-color="#66A9CE"/>
<stop offset="1" stop-color="#5D89FE"/>
</linearGradient>
<linearGradient id="paint5_linear_4671_17798" x1="4.00004" y1="10.0001" x2="29" y2="10.0001" gradientUnits="userSpaceOnUse">
<stop stop-color="#6EB8AE"/>
<stop offset="1" stop-color="#66AACC"/>
</linearGradient>
<linearGradient id="paint6_linear_4671_17798" x1="4.00006" y1="10.0001" x2="29.0001" y2="10.0001" gradientUnits="userSpaceOnUse">
<stop stop-color="#6EB8AE"/>
<stop offset="1" stop-color="#66AACC"/>
</linearGradient>
<linearGradient id="paint7_linear_4671_17798" x1="4" y1="10.0002" x2="29" y2="10.0002" gradientUnits="userSpaceOnUse">
<stop stop-color="#6EB8AE"/>
<stop offset="1" stop-color="#66AACC"/>
</linearGradient>
</defs>
</svg>
