<svg width="41" height="40" viewBox="0 0 41 40" fill="none" xmlns="http://www.w3.org/2000/svg">
<path d="M25.9104 13.49V14.23L22.3704 12.18C21.0304 11.41 19.1604 11.41 17.8304 12.18L14.2904 14.24V13.49C14.2904 11.24 15.5204 10 17.7704 10H22.4304C24.6804 10 25.9104 11.24 25.9104 13.49Z" fill="#F5F5F5"/>
<path d="M25.94 15.97L25.8 15.9L24.44 15.12L21.62 13.49C20.76 12.99 19.44 12.99 18.58 13.49L15.76 15.11L14.4 15.91L14.22 16C12.47 17.18 12.35 17.4 12.35 19.29V23.81C12.35 25.7 12.47 25.92 14.26 27.13L18.58 29.62C19.01 29.88 19.55 29.99 20.1 29.99C20.64 29.99 21.19 29.87 21.62 29.62L25.98 27.1C27.74 25.92 27.85 25.71 27.85 23.81V19.29C27.85 17.4 27.73 17.18 25.94 15.97ZM22.89 21.5L22.28 22.25C22.18 22.36 22.11 22.57 22.12 22.72L22.18 23.68C22.22 24.27 21.8 24.57 21.25 24.36L20.36 24C20.22 23.95 19.99 23.95 19.85 24L18.96 24.35C18.41 24.57 17.99 24.26 18.03 23.67L18.09 22.71C18.1 22.56 18.03 22.35 17.93 22.24L17.31 21.5C16.93 21.05 17.1 20.55 17.67 20.4L18.6 20.16C18.75 20.12 18.92 19.98 19 19.86L19.52 19.06C19.84 18.56 20.35 18.56 20.68 19.06L21.2 19.86C21.28 19.99 21.46 20.12 21.6 20.16L22.53 20.4C23.1 20.55 23.27 21.05 22.89 21.5Z" fill="#F5F5F5"/>
</svg>
