<svg width="41" height="40" viewBox="0 0 41 40" fill="none" xmlns="http://www.w3.org/2000/svg">
<path d="M26.1104 13.49V14.23L22.5704 12.18C21.2304 11.41 19.3604 11.41 18.0304 12.18L14.4904 14.24V13.49C14.4904 11.24 15.7204 10 17.9704 10H22.6304C24.8804 10 26.1104 11.24 26.1104 13.49Z" fill="#525252"/>
<path d="M26.14 15.97L26 15.9L24.64 15.12L21.82 13.49C20.96 12.99 19.64 12.99 18.78 13.49L15.96 15.11L14.6 15.91L14.42 16C12.67 17.18 12.55 17.4 12.55 19.29V23.81C12.55 25.7 12.67 25.92 14.46 27.13L18.78 29.62C19.21 29.88 19.75 29.99 20.3 29.99C20.84 29.99 21.39 29.87 21.82 29.62L26.18 27.1C27.94 25.92 28.05 25.71 28.05 23.81V19.29C28.05 17.4 27.93 17.18 26.14 15.97ZM23.09 21.5L22.48 22.25C22.38 22.36 22.31 22.57 22.32 22.72L22.38 23.68C22.42 24.27 22 24.57 21.45 24.36L20.56 24C20.42 23.95 20.19 23.95 20.05 24L19.16 24.35C18.61 24.57 18.19 24.26 18.23 23.67L18.29 22.71C18.3 22.56 18.23 22.35 18.13 22.24L17.51 21.5C17.13 21.05 17.3 20.55 17.87 20.4L18.8 20.16C18.95 20.12 19.12 19.98 19.2 19.86L19.72 19.06C20.04 18.56 20.55 18.56 20.88 19.06L21.4 19.86C21.48 19.99 21.66 20.12 21.8 20.16L22.73 20.4C23.3 20.55 23.47 21.05 23.09 21.5Z" fill="#525252"/>
</svg>
