<svg width="24" height="24" viewBox="0 0 24 24" fill="none" xmlns="http://www.w3.org/2000/svg">
<path fill-rule="evenodd" clip-rule="evenodd" d="M24 12C24 18.6274 18.6274 24 12 24C5.37258 24 0 18.6274 0 12C0 5.37258 5.37258 0 12 0C18.6274 0 24 5.37258 24 12ZM3.15002 10.0114L4.47386 14H5.43113L6.2222 11.7208L7.01992 14H7.97149L9.29532 10.0114H8.15572L7.46531 12.3029L6.70558 10H5.76066L5.00093 12.3029L4.31052 10.0114H3.15002ZM9.73882 10.0114V13.9715L12.9506 13.9706V13.037H10.8233V12.4093H12.7227V11.5432H10.8233V10.943H12.925V10.0114H9.73882ZM14.4805 10.9734V13.9715H15.5755V10.9734H16.7673V10.0114H13.2896V10.9734H14.4805ZM17.2469 10.0114V13.9715H18.3428V12.4672H19.7521V13.9715H20.8509V10.0114H19.7521V11.4938H18.3428V10.0114H17.2469Z" fill="#E8418C"/>
</svg>
