<svg xmlns="http://www.w3.org/2000/svg" width="12" height="12" viewBox="0 0 12 12" fill="none">
<path fill-rule="evenodd" clip-rule="evenodd" d="M11.9999 0H1.81812V12H11.9999V0ZM7.00073 5.4846C6.41841 5.8868 6.20306 6.289 6.20306 7.01293H7.51928C7.51928 6.6034 7.70277 6.34013 8.2851 5.92333C8.80364 5.55773 9.09084 5.12627 9.09084 4.58513C9.09084 3.5906 8.30902 2.86667 6.92895 2.86667C5.63666 2.86667 4.72721 3.6564 4.72721 4.70947H6.11528C6.11528 4.33653 6.40248 3.9928 6.93695 3.9928C7.4395 3.9928 7.7267 4.21953 7.7267 4.58513C7.7267 4.93613 7.47143 5.15553 7.00073 5.4846ZM6.05943 8.32187C6.05943 8.76793 6.41841 9.08973 6.90502 9.08973C7.39164 9.08973 7.75062 8.76793 7.75062 8.32187C7.75062 7.8758 7.39164 7.54673 6.90502 7.54673C6.41841 7.54673 6.05943 7.8758 6.05943 8.32187Z" fill="#D9D9D9"/>
<path d="M1.81818 2.00049H0V3.33382H1.81818V2.00049Z" fill="#D9D9D9"/>
<path d="M1.81818 5.33301H0V6.66634H1.81818V5.33301Z" fill="#D9D9D9"/>
<path d="M1.81818 8.6665H0V9.99984H1.81818V8.6665Z" fill="#D9D9D9"/>
</svg>