<svg width="734" height="296" viewBox="0 0 734 296" fill="none" xmlns="http://www.w3.org/2000/svg">
<rect width="734" height="296" rx="6" fill="#1A1A1A"/>
<path fill-rule="evenodd" clip-rule="evenodd" d="M209 80.6786L195 80.6786L195 79.2786L209 79.2786L209 80.6786Z" fill="#808080"/>
<path fill-rule="evenodd" clip-rule="evenodd" d="M203.249 87L202.223 85.9861L208.135 80L202.223 74.0139L203.249 73L210.163 80L203.249 87Z" fill="#808080"/>
<path fill-rule="evenodd" clip-rule="evenodd" d="M454 63.6667C452.067 63.6667 450.5 65.2338 450.5 67.1667V77.6667H521.667V67.1667C521.667 65.2338 520.1 63.6667 518.167 63.6667H454ZM518.167 77.6668H454V113.833C454 115.766 455.567 117.333 457.5 117.333H514.667C516.6 117.333 518.167 115.766 518.167 113.833V77.6668Z" fill="url(#paint0_linear_2094_1520)"/>
<rect x="480.833" y="63.6665" width="10.5" height="53.6667" fill="#CC6039"/>
<mask id="path-6-inside-1_2094_1520" fill="white">
<path fill-rule="evenodd" clip-rule="evenodd" d="M484.57 52.7895C484.57 52.7602 484.57 52.7309 484.57 52.7015C484.57 46.6456 489.479 41.7363 495.535 41.7363C501.591 41.7363 506.5 46.6456 506.5 52.7015C506.5 58.7574 501.591 63.6667 495.535 63.6667C495.517 63.6667 495.5 63.6667 495.483 63.6666H484.57V52.7895Z"/>
</mask>
<path d="M484.57 52.7895L491.57 52.7343L491.57 52.7619V52.7895H484.57ZM495.483 63.6666V56.6666H495.499L495.515 56.6667L495.483 63.6666ZM484.57 63.6666V70.6666H477.57V63.6666H484.57ZM491.57 52.7015C491.57 52.7127 491.57 52.7236 491.57 52.7343L477.57 52.8446C477.57 52.7968 477.57 52.7491 477.57 52.7015H491.57ZM495.535 48.7363C493.345 48.7363 491.57 50.5116 491.57 52.7015H477.57C477.57 42.7796 485.613 34.7363 495.535 34.7363V48.7363ZM499.5 52.7015C499.5 50.5116 497.725 48.7363 495.535 48.7363V34.7363C505.457 34.7363 513.5 42.7796 513.5 52.7015H499.5ZM495.535 56.6667C497.725 56.6667 499.5 54.8914 499.5 52.7015H513.5C513.5 62.6234 505.457 70.6667 495.535 70.6667V56.6667ZM495.515 56.6667C495.522 56.6667 495.528 56.6667 495.535 56.6667V70.6667C495.507 70.6667 495.478 70.6666 495.45 70.6665L495.515 56.6667ZM484.57 56.6666H495.483V70.6666H484.57V56.6666ZM491.57 52.7895V63.6666H477.57V52.7895H491.57Z" fill="#CC6039" mask="url(#path-6-inside-1_2094_1520)"/>
<mask id="path-8-inside-2_2094_1520" fill="white">
<path fill-rule="evenodd" clip-rule="evenodd" d="M487.596 52.7895C487.596 52.7602 487.596 52.7309 487.596 52.7015C487.596 46.6456 482.687 41.7363 476.631 41.7363C470.575 41.7363 465.666 46.6456 465.666 52.7015C465.666 58.7574 470.575 63.6667 476.631 63.6667C476.644 63.6667 476.656 63.6667 476.668 63.6666H487.596V52.7895Z"/>
</mask>
<path d="M487.596 52.7895L480.596 52.7343L480.596 52.7619V52.7895H487.596ZM476.668 63.6666V56.6666H476.657L476.645 56.6667L476.668 63.6666ZM487.596 63.6666V70.6666H494.596V63.6666H487.596ZM480.596 52.7015C480.596 52.7127 480.596 52.7236 480.596 52.7343L494.596 52.8446C494.596 52.7968 494.596 52.7491 494.596 52.7015H480.596ZM476.631 48.7363C478.821 48.7363 480.596 50.5116 480.596 52.7015H494.596C494.596 42.7796 486.553 34.7363 476.631 34.7363V48.7363ZM472.666 52.7015C472.666 50.5116 474.441 48.7363 476.631 48.7363V34.7363C466.709 34.7363 458.666 42.7796 458.666 52.7015H472.666ZM476.631 56.6667C474.441 56.6667 472.666 54.8914 472.666 52.7015H458.666C458.666 62.6234 466.709 70.6667 476.631 70.6667V56.6667ZM476.645 56.6667C476.64 56.6667 476.636 56.6667 476.631 56.6667V70.6667C476.651 70.6667 476.671 70.6667 476.691 70.6666L476.645 56.6667ZM487.596 56.6666H476.668V70.6666H487.596V56.6666ZM480.596 52.7895V63.6666H494.596V52.7895H480.596Z" fill="#CC6039" mask="url(#path-8-inside-2_2094_1520)"/>
<rect x="454" y="77.6667" width="64.1667" height="4.66667" fill="black" fill-opacity="0.05"/>
<circle cx="519.334" cy="96.3333" r="21" fill="#D8E617"/>
<path d="M511.983 86.7083H520.466C525.272 86.7083 527.733 88.8797 527.733 93.1067C527.733 97.3048 525.272 99.4762 520.466 99.4762H516.268V105.933H511.983V86.7083ZM516.268 95.6545H520.264C522.406 95.6545 523.391 94.8438 523.391 93.1067C523.391 91.3406 522.406 90.5299 520.264 90.5299H516.268V95.6545Z" fill="#A8B312"/>
<g filter="url(#filter0_d_2094_1520)">
<circle cx="547.334" cy="96.3333" r="21" fill="#FDD101"/>
<path d="M546.619 108.146V84.51H548.133V108.146H546.619ZM550.266 92.5427C550.204 91.8656 549.93 91.3393 549.444 90.9638C548.964 90.5822 548.277 90.3914 547.385 90.3914C546.794 90.3914 546.302 90.4683 545.908 90.6222C545.514 90.7761 545.218 90.9885 545.021 91.2593C544.824 91.524 544.723 91.8287 544.717 92.1734C544.704 92.4565 544.76 92.7058 544.883 92.9212C545.012 93.1367 545.197 93.3275 545.437 93.4937C545.683 93.6537 545.978 93.7953 546.323 93.9184C546.668 94.0415 547.056 94.1492 547.487 94.2415L549.112 94.6109C550.047 94.814 550.872 95.0848 551.586 95.4234C552.306 95.7619 552.909 96.1651 553.396 96.6329C553.888 97.1007 554.26 97.6393 554.513 98.2486C554.765 98.858 554.894 99.5413 554.901 100.298C554.894 101.492 554.593 102.517 553.996 103.373C553.399 104.229 552.54 104.884 551.42 105.34C550.306 105.795 548.961 106.023 547.385 106.023C545.803 106.023 544.424 105.786 543.249 105.312C542.073 104.838 541.159 104.118 540.506 103.151C539.854 102.185 539.518 100.963 539.5 99.4859H543.876C543.913 100.095 544.076 100.603 544.366 101.009C544.655 101.416 545.052 101.723 545.557 101.933C546.068 102.142 546.659 102.247 547.33 102.247C547.945 102.247 548.468 102.163 548.899 101.997C549.336 101.831 549.672 101.6 549.906 101.305C550.139 101.009 550.259 100.671 550.266 100.289C550.259 99.9321 550.149 99.6274 549.933 99.3751C549.718 99.1165 549.385 98.895 548.936 98.7103C548.493 98.5195 547.927 98.3441 547.237 98.184L545.261 97.7224C543.624 97.3469 542.335 96.7406 541.393 95.9035C540.451 95.0602 539.983 93.9215 539.989 92.4873C539.983 91.3178 540.297 90.2929 540.931 89.4127C541.565 88.5325 542.442 87.8462 543.563 87.3538C544.683 86.8613 545.96 86.6151 547.394 86.6151C548.859 86.6151 550.13 86.8644 551.207 87.363C552.291 87.8554 553.131 88.5479 553.728 89.4404C554.325 90.3329 554.63 91.367 554.642 92.5427H550.266Z" fill="#D1953B"/>
</g>
<path fill-rule="evenodd" clip-rule="evenodd" d="M49 49.6667C49 47.0893 51.0893 45 53.6667 45L137.667 45C140.244 45 142.333 47.0893 142.333 49.6667V71.8333C142.333 74.4107 140.244 76.5 137.667 76.5H53.6667C51.0893 76.5 49 74.4107 49 71.8333V49.6667Z" fill="#292929" stroke="#3D4228" stroke-opacity="0.7" stroke-width="0.583333"/>
<path d="M124.022 64.3885V56.4487H125.229V64.3885H124.022Z" fill="#E0E0E0"/>
<path d="M122.612 64.3887H121.609L121.575 63.6287H121.552C121.165 64.1731 120.493 64.5021 119.627 64.5021C118.101 64.5021 116.984 63.3451 116.984 61.7345C116.984 60.1238 118.101 58.9556 119.627 58.9556C120.493 58.9556 121.154 59.2845 121.541 59.8289H121.564L121.609 59.069H122.612V64.3887ZM119.821 63.4245C120.778 63.4245 121.439 62.7213 121.439 61.7345C121.439 60.725 120.778 60.0331 119.821 60.0331C118.864 60.0331 118.203 60.725 118.203 61.7345C118.203 62.7213 118.864 63.4245 119.821 63.4245Z" fill="#E0E0E0"/>
<path d="M115.764 58.9556C116.106 58.9556 116.391 59.0463 116.562 59.1597V60.3507H116.505C116.277 60.1919 115.992 60.1012 115.662 60.1012C114.705 60.1012 114.238 60.7363 114.238 62.0294V64.3887H113.03V59.069H114.044L114.09 59.8857H114.112C114.42 59.2732 114.967 58.9556 115.764 58.9556Z" fill="#E0E0E0"/>
<path d="M111.404 58.9556C111.746 58.9556 112.03 59.0463 112.201 59.1597V60.3507H112.144C111.917 60.1919 111.632 60.1012 111.301 60.1012C110.345 60.1012 109.877 60.7363 109.877 62.0294V64.3887H108.67V59.069H109.684L109.729 59.8857H109.752C110.06 59.2732 110.607 58.9556 111.404 58.9556Z" fill="#E0E0E0"/>
<path d="M107.59 62.0975H103.34C103.489 62.9481 104.218 63.4472 105.277 63.4472C106.063 63.4472 106.724 63.209 107.202 62.7553H107.259V63.9463C106.804 64.2979 106.074 64.5021 105.231 64.5021C103.363 64.5021 102.11 63.3905 102.11 61.7345C102.11 60.1012 103.261 58.9556 104.89 58.9556C106.542 58.9556 107.59 59.9537 107.59 61.5076V62.0975ZM104.924 60.0104C104.161 60.0104 103.489 60.4868 103.34 61.2014H106.473C106.371 60.4755 105.755 60.0104 104.924 60.0104Z" fill="#E0E0E0"/>
<path d="M100.859 56.3354C101.326 56.3354 101.691 56.4035 101.941 56.5283V57.6512H101.884C101.656 57.4924 101.337 57.413 101.041 57.413C100.472 57.413 100.164 57.7533 100.164 58.3658V59.069H101.793V60.1125H100.164V64.3887H98.9565V60.1125H98.011V59.069H98.9565V58.3091C98.9565 57.05 99.6286 56.3354 100.859 56.3354Z" fill="#E0E0E0"/>
<path d="M97.5214 62.0975H93.2723C93.4204 62.9481 94.1495 63.4472 95.2089 63.4472C95.9949 63.4472 96.6557 63.209 97.1341 62.7553H97.1911V63.9463C96.7354 64.2979 96.0063 64.5021 95.1633 64.5021C93.2951 64.5021 92.042 63.3905 92.042 61.7345C92.042 60.1012 93.1926 58.9556 94.8216 58.9556C96.4734 58.9556 97.5214 59.9537 97.5214 61.5076V62.0975ZM94.8558 60.0104C94.0925 60.0104 93.4204 60.4868 93.2723 61.2014H96.405C96.3025 60.4755 95.6874 60.0104 94.8558 60.0104Z" fill="#E0E0E0"/>
<path d="M86.3338 64.3886H84.9668V56.8572H88.316C90.1501 56.8572 91.0956 57.6738 91.0956 59.2505C91.0956 60.4641 90.526 61.2241 89.421 61.5076L91.3234 64.3886H89.7058L88.0198 61.6324H86.3338V64.3886ZM86.3338 60.4187H88.2704C89.2501 60.4187 89.7172 60.0331 89.7172 59.2505C89.7172 58.4565 89.2501 58.0708 88.2704 58.0708H86.3338V60.4187Z" fill="#E0E0E0"/>
<path fill-rule="evenodd" clip-rule="evenodd" d="M64.75 60.1214C66.6803 60.1214 68.25 58.5584 68.25 56.6365C68.25 54.7146 66.6803 53.1516 64.75 53.1516C62.8198 53.1516 61.25 54.7146 61.25 56.6365C61.25 58.5584 62.8198 60.1214 64.75 60.1214ZM74.375 55.7653H73.5V54.894C73.5 54.4149 73.1063 54.0228 72.625 54.0228C72.1438 54.0228 71.75 54.4149 71.75 54.894V55.7653H70.875C70.3938 55.7653 70 56.1573 70 56.6365C70 57.1157 70.3938 57.5077 70.875 57.5077H71.75V58.3789C71.75 58.8581 72.1438 59.2501 72.625 59.2501C73.1063 59.2501 73.5 58.8581 73.5 58.3789V57.5077H74.375C74.8563 57.5077 75.25 57.1157 75.25 56.6365C75.25 56.1573 74.8563 55.7653 74.375 55.7653ZM70.875 67.0911C70.875 67.572 70.4839 67.9623 70 67.9623H59.5C59.0161 67.9623 58.625 67.572 58.625 67.0911C58.625 63.7282 61.3734 60.9926 64.75 60.9926C68.1266 60.9926 70.875 63.7282 70.875 67.0911Z" fill="#C1D182"/>
<path fill-rule="evenodd" clip-rule="evenodd" d="M67.666 88.7052C67.666 86.1279 69.7554 84.0386 72.3327 84.0386H156.333C158.91 84.0386 160.999 86.1279 160.999 88.7052V110.872C160.999 113.449 158.91 115.539 156.333 115.539H72.3327C69.7554 115.539 67.666 113.449 67.666 110.872V88.7052Z" fill="#292929" stroke="#3D4228" stroke-opacity="0.7" stroke-width="0.583333"/>
<path d="M142.43 97.781C143.815 97.781 144.655 98.6766 144.655 100.185V103.426H143.4V100.326C143.4 99.4191 142.915 98.9005 142.11 98.9005C141.223 98.9005 140.69 99.5015 140.69 100.527V103.426H139.436V97.8989H140.489L140.536 98.7473H140.56C140.915 98.1228 141.554 97.781 142.43 97.781Z" fill="#E0E0E0"/>
<path d="M135.336 97.781C137.064 97.781 138.295 98.9712 138.295 100.668C138.295 102.353 137.064 103.544 135.336 103.544C133.608 103.544 132.389 102.353 132.389 100.668C132.389 98.9712 133.608 97.781 135.336 97.781ZM135.336 98.9005C134.342 98.9005 133.655 99.6194 133.655 100.668C133.655 101.693 134.342 102.424 135.336 102.424C136.342 102.424 137.028 101.693 137.028 100.668C137.028 99.6194 136.342 98.9005 135.336 98.9005Z" fill="#E0E0E0"/>
<path d="M130.608 95.377C131.094 95.377 131.413 95.7069 131.413 96.1783C131.413 96.6497 131.094 96.9679 130.608 96.9679C130.135 96.9679 129.815 96.6497 129.815 96.1783C129.815 95.7069 130.135 95.377 130.608 95.377ZM129.981 97.8988H131.236V103.426H129.981V97.8988Z" fill="#E0E0E0"/>
<path d="M128.847 102.106V103.343C128.586 103.473 128.243 103.544 127.805 103.544C126.551 103.544 125.876 102.837 125.876 101.528V98.983H124.894V97.8989H125.911L126.089 96.3787H127.13V97.8989H128.823V98.983H127.13V101.481C127.13 102.082 127.45 102.436 127.994 102.436C128.29 102.436 128.563 102.353 128.787 102.106H128.847Z" fill="#E0E0E0"/>
<path d="M123.373 95.377C123.858 95.377 124.178 95.7069 124.178 96.1783C124.178 96.6497 123.858 96.9679 123.373 96.9679C122.899 96.9679 122.58 96.6497 122.58 96.1783C122.58 95.7069 122.899 95.377 123.373 95.377ZM122.746 97.8988H124V103.426H122.746V97.8988Z" fill="#E0E0E0"/>
<path d="M119.555 97.781C120.277 97.781 120.928 97.9224 121.33 98.1817V99.4662H121.271C120.892 99.0773 120.312 98.877 119.59 98.877C118.987 98.877 118.561 99.148 118.561 99.5369C118.561 99.8551 118.809 99.9965 119.626 100.044C121.105 100.126 121.685 100.668 121.685 101.788C121.685 102.872 120.845 103.544 119.46 103.544C118.537 103.544 117.815 103.355 117.354 103.002V101.693H117.413C117.874 102.188 118.549 102.448 119.401 102.448C120.052 102.448 120.454 102.188 120.454 101.788C120.454 101.422 120.206 101.257 119.306 101.187C117.862 101.069 117.33 100.621 117.33 99.5723C117.33 98.4881 118.218 97.781 119.555 97.781Z" fill="#E0E0E0"/>
<path d="M113.502 97.781C115.231 97.781 116.461 98.9712 116.461 100.668C116.461 102.353 115.231 103.544 113.502 103.544C111.774 103.544 110.555 102.353 110.555 100.668C110.555 98.9712 111.774 97.781 113.502 97.781ZM113.502 98.9005C112.508 98.9005 111.822 99.6194 111.822 100.668C111.822 101.693 112.508 102.424 113.502 102.424C114.509 102.424 115.195 101.693 115.195 100.668C115.195 99.6194 114.509 98.9005 113.502 98.9005Z" fill="#E0E0E0"/>
<path d="M103.632 95.6008H107.052C108.958 95.6008 109.94 96.4611 109.94 98.1345C109.94 99.7961 108.958 100.656 107.052 100.656H105.052V103.426H103.632V95.6008ZM105.052 99.3954H106.993C108.023 99.3954 108.508 98.983 108.508 98.1345C108.508 97.2742 108.023 96.8618 106.993 96.8618H105.052V99.3954Z" fill="#E0E0E0"/>
<path d="M86.967 96.7713C86.7578 96.7713 86.556 96.7392 86.347 96.7396C85.3353 96.7415 84.37 96.9631 83.4511 97.3831C82.0031 98.0449 80.8831 99.0718 80.0747 100.433C79.3909 101.584 79.0365 102.835 78.9963 104.172C78.9837 104.587 78.9944 105.002 79.0592 105.429C79.0786 105.396 79.0923 105.376 79.1028 105.354C79.3008 104.947 79.5319 104.56 79.7933 104.19C80.3615 103.387 81.0498 102.704 81.8623 102.147C82.4546 101.74 83.0906 101.419 83.7704 101.181C84.5686 100.902 85.3896 100.748 86.2342 100.733C86.4561 100.729 86.6894 100.757 86.9665 100.775V104.289C86.9876 104.275 87.0072 104.289 87.0072 104.289C89.2068 102.255 91.1785 100.61 93.3121 98.8438C93.448 98.7313 93.4453 98.6088 93.3121 98.4928C93.3121 98.4928 93.2678 98.456 93.2456 98.4384C91.0858 96.7215 89.1261 94.9987 86.967 93.2803V96.7713Z" fill="#C1D182"/>
<path fill-rule="evenodd" clip-rule="evenodd" d="M414.334 80.6786L400.334 80.6786L400.334 79.2786L414.334 79.2786L414.334 80.6786Z" fill="#808080"/>
<path fill-rule="evenodd" clip-rule="evenodd" d="M408.583 87L407.557 85.9861L413.469 80L407.557 74.0139L408.583 73L415.497 80L408.583 87Z" fill="#808080"/>
<path fill-rule="evenodd" clip-rule="evenodd" d="M270.833 73.0001C270.833 78.1474 266.647 82.3334 261.499 82.3334C256.352 82.3334 252.166 78.1474 252.166 73.0001C252.166 67.8527 256.352 63.6667 261.499 63.6667C266.647 63.6667 270.833 67.8527 270.833 73.0001ZM277.833 98.6667C277.833 99.9548 276.79 101 275.499 101H247.499C246.209 101 245.166 99.9548 245.166 98.6667C245.166 89.6601 252.495 84.6667 261.499 84.6667C270.504 84.6667 277.833 89.6601 277.833 98.6667Z" fill="url(#paint1_linear_2094_1520)"/>
<path d="M289.644 75.3332L280.992 79.2792" stroke="#808080" stroke-width="1.16667" stroke-linecap="round" stroke-linejoin="round" stroke-dasharray="1.17 2.33"/>
<path d="M325.758 61.162L334.41 57.5651" stroke="#808080" stroke-width="1.16667" stroke-linecap="round" stroke-linejoin="round" stroke-dasharray="1.17 2.33"/>
<path d="M325.758 99.3874L334.41 102.983" stroke="#808080" stroke-width="1.16667" stroke-linecap="round" stroke-linejoin="round" stroke-dasharray="1.17 2.33"/>
<path d="M280.992 80.7208L289.644 84.6668" stroke="#808080" stroke-width="1.16667" stroke-linecap="round" stroke-linejoin="round" stroke-dasharray="1.17 2.33"/>
<path fill-rule="evenodd" clip-rule="evenodd" d="M315.75 56.6665C315.75 60.527 312.611 63.6665 308.75 63.6665C304.89 63.6665 301.75 60.527 301.75 56.6665C301.75 52.806 304.89 49.6665 308.75 49.6665C312.611 49.6665 315.75 52.806 315.75 56.6665ZM321 75.9168C321 76.8828 320.218 77.6668 319.25 77.6668H298.25C297.282 77.6668 296.5 76.8828 296.5 75.9168C296.5 69.1618 301.997 65.4168 308.75 65.4168C315.503 65.4168 321 69.1618 321 75.9168Z" fill="url(#paint2_linear_2094_1520)"/>
<path fill-rule="evenodd" clip-rule="evenodd" d="M360.666 40.9167C360.666 44.4555 357.788 47.3333 354.25 47.3333C350.711 47.3333 347.833 44.4555 347.833 40.9167C347.833 37.3779 350.711 34.5 354.25 34.5C357.788 34.5 360.666 37.3779 360.666 40.9167ZM365.479 58.5628C365.479 59.4483 364.762 60.167 363.875 60.167H344.625C343.738 60.167 343.021 59.4483 343.021 58.5628C343.021 52.3707 348.059 48.9378 354.25 48.9378C360.44 48.9378 365.479 52.3707 365.479 58.5628Z" fill="url(#paint3_linear_2094_1520)"/>
<path fill-rule="evenodd" clip-rule="evenodd" d="M360.666 106.25C360.666 109.789 357.788 112.667 354.25 112.667C350.711 112.667 347.833 109.789 347.833 106.25C347.833 102.711 350.711 99.8333 354.25 99.8333C357.788 99.8333 360.666 102.711 360.666 106.25ZM365.479 123.896C365.479 124.782 364.762 125.5 363.875 125.5H344.625C343.738 125.5 343.021 124.782 343.021 123.896C343.021 117.704 348.059 114.271 354.25 114.271C360.44 114.271 365.479 117.704 365.479 123.896Z" fill="url(#paint4_linear_2094_1520)"/>
<path fill-rule="evenodd" clip-rule="evenodd" d="M360.666 73.5834C360.666 77.1222 357.788 80.0001 354.25 80.0001C350.711 80.0001 347.833 77.1222 347.833 73.5834C347.833 70.0446 350.711 67.1667 354.25 67.1667C357.788 67.1667 360.666 70.0446 360.666 73.5834ZM365.479 91.2295C365.479 92.115 364.762 92.8337 363.875 92.8337H344.625C343.738 92.8337 343.021 92.115 343.021 91.2295C343.021 85.0374 348.059 81.6045 354.25 81.6045C360.44 81.6045 365.479 85.0374 365.479 91.2295Z" fill="url(#paint5_linear_2094_1520)"/>
<path fill-rule="evenodd" clip-rule="evenodd" d="M315.75 91.6665C315.75 95.527 312.611 98.6665 308.75 98.6665C304.89 98.6665 301.75 95.527 301.75 91.6665C301.75 87.806 304.89 84.6665 308.75 84.6665C312.611 84.6665 315.75 87.806 315.75 91.6665ZM321 110.917C321 111.883 320.218 112.667 319.25 112.667H298.25C297.282 112.667 296.5 111.883 296.5 110.917C296.5 104.162 301.997 100.417 308.75 100.417C315.503 100.417 321 104.162 321 110.917Z" fill="url(#paint6_linear_2094_1520)"/>
<path d="M57.6345 164V155.585L54.2145 157.415V156.02L57.8895 154.04H58.9695V164H57.6345ZM63.6254 162.41C64.1204 162.41 64.4804 162.785 64.4804 163.28C64.4804 163.775 64.1204 164.15 63.6254 164.15C63.1304 164.15 62.7554 163.775 62.7554 163.28C62.7554 162.785 63.1304 162.41 63.6254 162.41ZM76.305 153.89C77.715 153.89 78.735 154.205 79.53 154.85V156.44H79.455C78.735 155.615 77.655 155.165 76.365 155.165C74.055 155.165 72.495 156.74 72.495 159.02C72.495 161.3 74.055 162.875 76.365 162.875C77.64 162.875 78.72 162.44 79.455 161.6H79.53V163.19C78.735 163.82 77.67 164.15 76.305 164.15C73.17 164.15 71.04 162.02 71.04 159.02C71.04 156.02 73.17 153.89 76.305 153.89ZM81.2752 164V153.5H82.5502V164H81.2752ZM85.1571 153.935C85.6521 153.935 85.9971 154.28 85.9971 154.775C85.9971 155.27 85.6521 155.615 85.1571 155.615C84.6621 155.615 84.3171 155.27 84.3171 154.775C84.3171 154.28 84.6621 153.935 85.1571 153.935ZM84.5271 164V156.98H85.8021V164H84.5271ZM91.0944 156.83C92.0694 156.83 92.8494 157.055 93.3894 157.52V158.915H93.3294C92.7894 158.27 92.0994 157.97 91.2144 157.97C89.6094 157.97 88.6044 158.99 88.6044 160.49C88.6044 161.975 89.6094 163.01 91.2144 163.01C92.1144 163.01 92.8194 162.695 93.3294 162.065H93.3894V163.475C92.8494 163.925 92.0844 164.15 91.0944 164.15C88.8144 164.15 87.3144 162.62 87.3144 160.49C87.3144 158.345 88.8144 156.83 91.0944 156.83ZM96.3636 160.865V164H95.0886V153.5H96.3636V160.04L99.5136 156.98H101.179L97.5786 160.415L101.329 164H99.5886L96.3636 160.865ZM241.987 156.83C244.162 156.83 245.707 158.345 245.707 160.49C245.707 162.635 244.162 164.15 241.987 164.15C239.812 164.15 238.267 162.635 238.267 160.49C238.267 158.345 239.812 156.83 241.987 156.83ZM241.987 157.97C240.547 157.97 239.557 159.005 239.557 160.49C239.557 161.975 240.547 163.01 241.987 163.01C243.412 163.01 244.417 161.975 244.417 160.49C244.417 159.005 243.412 157.97 241.987 157.97ZM250.602 156.83C251.067 156.83 251.427 156.95 251.667 157.1V158.375H251.607C251.307 158.165 250.932 158.045 250.512 158.045C249.162 158.045 248.517 158.975 248.517 160.805V164H247.242V156.98H248.322L248.352 158.105H248.382C248.802 157.265 249.537 156.83 250.602 156.83ZM360.452 162.605V163.895C360.137 164.06 359.717 164.15 359.177 164.15C357.707 164.15 356.882 163.28 356.882 161.705V158.09H355.592V156.98H356.912L357.107 155.075H358.157V156.98H360.422V158.09H358.157V161.675C358.157 162.515 358.607 163.01 359.357 163.01C359.747 163.01 360.107 162.905 360.392 162.605H360.452ZM365.165 156.83C367.34 156.83 368.885 158.345 368.885 160.49C368.885 162.635 367.34 164.15 365.165 164.15C362.99 164.15 361.445 162.635 361.445 160.49C361.445 158.345 362.99 156.83 365.165 156.83ZM365.165 157.97C363.725 157.97 362.735 159.005 362.735 160.49C362.735 161.975 363.725 163.01 365.165 163.01C366.59 163.01 367.595 161.975 367.595 160.49C367.595 159.005 366.59 157.97 365.165 157.97ZM376.057 156.83C376.987 156.83 377.827 157.025 378.352 157.37V158.72H378.292C377.812 158.225 377.062 157.97 376.087 157.97C375.187 157.97 374.602 158.39 374.602 159.02C374.602 159.53 374.977 159.77 376.147 159.83C378.067 159.935 378.772 160.58 378.772 161.96C378.772 163.31 377.707 164.15 375.997 164.15C374.827 164.15 373.912 163.895 373.327 163.415V162.035H373.387C373.957 162.68 374.827 163.01 375.952 163.01C376.912 163.01 377.512 162.605 377.512 161.96C377.512 161.39 377.122 161.12 375.862 161.045C374.017 160.925 373.342 160.34 373.342 159.065C373.342 157.73 374.422 156.83 376.057 156.83ZM383.851 156.83C385.636 156.83 386.731 158 386.731 159.92V164H385.456V160.07C385.456 158.75 384.736 157.97 383.551 157.97C382.246 157.97 381.466 158.87 381.466 160.355V164H380.191V153.5H381.466V157.85H381.496C381.991 157.19 382.816 156.83 383.851 156.83ZM395.456 164H394.376L394.331 162.89H394.301C393.776 163.67 392.816 164.15 391.586 164.15C389.546 164.15 388.076 162.62 388.076 160.49C388.076 158.36 389.546 156.83 391.586 156.83C392.816 156.83 393.776 157.31 394.301 158.105H394.331L394.376 156.98H395.456V164ZM391.796 163.01C393.221 163.01 394.226 161.975 394.226 160.49C394.226 159.005 393.221 157.97 391.796 157.97C390.356 157.97 389.366 159.005 389.366 160.49C389.366 161.975 390.356 163.01 391.796 163.01ZM400.792 156.83C401.257 156.83 401.617 156.95 401.857 157.1V158.375H401.797C401.497 158.165 401.122 158.045 400.702 158.045C399.352 158.045 398.707 158.975 398.707 160.805V164H397.432V156.98H398.512L398.542 158.105H398.572C398.992 157.265 399.727 156.83 400.792 156.83ZM409.632 160.91H403.707C403.887 162.215 404.937 163.01 406.527 163.01C407.562 163.01 408.462 162.68 409.122 162.05H409.182V163.34C408.552 163.85 407.592 164.15 406.497 164.15C404.022 164.15 402.417 162.695 402.417 160.49C402.417 158.345 403.932 156.83 406.077 156.83C408.237 156.83 409.632 158.165 409.632 160.205V160.91ZM406.092 157.97C404.892 157.97 403.947 158.72 403.707 159.845H408.447C408.267 158.705 407.367 157.97 406.092 157.97ZM421.369 164H420.289L420.244 162.89H420.214C419.689 163.67 418.729 164.15 417.499 164.15C415.459 164.15 413.989 162.62 413.989 160.49C413.989 158.36 415.459 156.83 417.499 156.83C418.729 156.83 419.689 157.31 420.214 158.105H420.244L420.289 156.98H421.369V164ZM417.709 163.01C419.134 163.01 420.139 161.975 420.139 160.49C420.139 159.005 419.134 157.97 417.709 157.97C416.269 157.97 415.279 159.005 415.279 160.49C415.279 161.975 416.269 163.01 417.709 163.01ZM426.675 156.83C427.65 156.83 428.43 157.055 428.97 157.52V158.915H428.91C428.37 158.27 427.68 157.97 426.795 157.97C425.19 157.97 424.185 158.99 424.185 160.49C424.185 161.975 425.19 163.01 426.795 163.01C427.695 163.01 428.4 162.695 428.91 162.065H428.97V163.475C428.43 163.925 427.665 164.15 426.675 164.15C424.395 164.15 422.895 162.62 422.895 160.49C422.895 158.345 424.395 156.83 426.675 156.83ZM434.03 156.83C434.495 156.83 434.855 156.95 435.095 157.1V158.375H435.035C434.735 158.165 434.36 158.045 433.94 158.045C432.59 158.045 431.945 158.975 431.945 160.805V164H430.67V156.98H431.75L431.78 158.105H431.81C432.23 157.265 432.965 156.83 434.03 156.83ZM439.374 156.83C441.549 156.83 443.094 158.345 443.094 160.49C443.094 162.635 441.549 164.15 439.374 164.15C437.199 164.15 435.654 162.635 435.654 160.49C435.654 158.345 437.199 156.83 439.374 156.83ZM439.374 157.97C437.934 157.97 436.944 159.005 436.944 160.49C436.944 161.975 437.934 163.01 439.374 163.01C440.799 163.01 441.804 161.975 441.804 160.49C441.804 159.005 440.799 157.97 439.374 157.97ZM446.97 156.83C447.9 156.83 448.74 157.025 449.265 157.37V158.72H449.205C448.725 158.225 447.975 157.97 447 157.97C446.1 157.97 445.515 158.39 445.515 159.02C445.515 159.53 445.89 159.77 447.06 159.83C448.98 159.935 449.685 160.58 449.685 161.96C449.685 163.31 448.62 164.15 446.91 164.15C445.74 164.15 444.825 163.895 444.24 163.415V162.035H444.3C444.87 162.68 445.74 163.01 446.865 163.01C447.825 163.01 448.425 162.605 448.425 161.96C448.425 161.39 448.035 161.12 446.775 161.045C444.93 160.925 444.255 160.34 444.255 159.065C444.255 157.73 445.335 156.83 446.97 156.83ZM453.4 156.83C454.33 156.83 455.17 157.025 455.695 157.37V158.72H455.635C455.155 158.225 454.405 157.97 453.43 157.97C452.53 157.97 451.945 158.39 451.945 159.02C451.945 159.53 452.32 159.77 453.49 159.83C455.41 159.935 456.115 160.58 456.115 161.96C456.115 163.31 455.05 164.15 453.34 164.15C452.17 164.15 451.255 163.895 450.67 163.415V162.035H450.73C451.3 162.68 452.17 163.01 453.295 163.01C454.255 163.01 454.855 162.605 454.855 161.96C454.855 161.39 454.465 161.12 453.205 161.045C451.36 160.925 450.685 160.34 450.685 159.065C450.685 157.73 451.765 156.83 453.4 156.83ZM463.171 156.83C464.101 156.83 464.941 157.025 465.466 157.37V158.72H465.406C464.926 158.225 464.176 157.97 463.201 157.97C462.301 157.97 461.716 158.39 461.716 159.02C461.716 159.53 462.091 159.77 463.261 159.83C465.181 159.935 465.886 160.58 465.886 161.96C465.886 163.31 464.821 164.15 463.111 164.15C461.941 164.15 461.026 163.895 460.441 163.415V162.035H460.501C461.071 162.68 461.941 163.01 463.066 163.01C464.026 163.01 464.626 162.605 464.626 161.96C464.626 161.39 464.236 161.12 462.976 161.045C461.131 160.925 460.456 160.34 460.456 159.065C460.456 157.73 461.536 156.83 463.171 156.83ZM470.575 156.83C472.75 156.83 474.295 158.345 474.295 160.49C474.295 162.635 472.75 164.15 470.575 164.15C468.4 164.15 466.855 162.635 466.855 160.49C466.855 158.345 468.4 156.83 470.575 156.83ZM470.575 157.97C469.135 157.97 468.145 159.005 468.145 160.49C468.145 161.975 469.135 163.01 470.575 163.01C472 163.01 473.005 161.975 473.005 160.49C473.005 159.005 472 157.97 470.575 157.97ZM479.161 156.83C480.136 156.83 480.916 157.055 481.456 157.52V158.915H481.396C480.856 158.27 480.166 157.97 479.281 157.97C477.676 157.97 476.671 158.99 476.671 160.49C476.671 161.975 477.676 163.01 479.281 163.01C480.181 163.01 480.886 162.695 481.396 162.065H481.456V163.475C480.916 163.925 480.151 164.15 479.161 164.15C476.881 164.15 475.381 162.62 475.381 160.49C475.381 158.345 476.881 156.83 479.161 156.83ZM483.785 153.935C484.28 153.935 484.625 154.28 484.625 154.775C484.625 155.27 484.28 155.615 483.785 155.615C483.29 155.615 482.945 155.27 482.945 154.775C482.945 154.28 483.29 153.935 483.785 153.935ZM483.155 164V156.98H484.43V164H483.155ZM493.322 164H492.242L492.197 162.89H492.167C491.642 163.67 490.682 164.15 489.452 164.15C487.412 164.15 485.942 162.62 485.942 160.49C485.942 158.36 487.412 156.83 489.452 156.83C490.682 156.83 491.642 157.31 492.167 158.105H492.197L492.242 156.98H493.322V164ZM489.662 163.01C491.087 163.01 492.092 161.975 492.092 160.49C492.092 159.005 491.087 157.97 489.662 157.97C488.222 157.97 487.232 159.005 487.232 160.49C487.232 161.975 488.222 163.01 489.662 163.01ZM495.299 164V153.5H496.574V164H495.299ZM510.126 156.83C511.836 156.83 512.796 157.925 512.796 159.875V164H511.521V160.01C511.521 158.675 510.921 157.97 509.811 157.97C508.611 157.97 507.966 158.795 507.966 160.355V164H506.691V160.01C506.691 158.675 506.106 157.97 504.981 157.97C503.766 157.97 503.121 158.795 503.121 160.28V164H501.846V156.98H502.911L502.956 158H502.986C503.421 157.25 504.186 156.83 505.296 156.83C506.346 156.83 507.141 157.295 507.561 158.18H507.591C508.026 157.28 508.836 156.83 510.126 156.83ZM521.356 160.91H515.431C515.611 162.215 516.661 163.01 518.251 163.01C519.286 163.01 520.186 162.68 520.846 162.05H520.906V163.34C520.276 163.85 519.316 164.15 518.221 164.15C515.746 164.15 514.141 162.695 514.141 160.49C514.141 158.345 515.656 156.83 517.801 156.83C519.961 156.83 521.356 158.165 521.356 160.205V160.91ZM517.816 157.97C516.616 157.97 515.671 158.72 515.431 159.845H520.171C519.991 158.705 519.091 157.97 517.816 157.97ZM529.797 164H528.717L528.672 162.89H528.642C528.117 163.67 527.157 164.15 525.927 164.15C523.887 164.15 522.417 162.62 522.417 160.49C522.417 158.36 523.887 156.83 525.927 156.83C527.067 156.83 527.937 157.22 528.492 157.895H528.522V153.5H529.797V164ZM526.137 163.01C527.562 163.01 528.567 161.975 528.567 160.49C528.567 159.005 527.562 157.97 526.137 157.97C524.697 157.97 523.707 159.005 523.707 160.49C523.707 161.975 524.697 163.01 526.137 163.01ZM532.403 153.935C532.898 153.935 533.243 154.28 533.243 154.775C533.243 155.27 532.898 155.615 532.403 155.615C531.908 155.615 531.563 155.27 531.563 154.775C531.563 154.28 531.908 153.935 532.403 153.935ZM531.773 164V156.98H533.048V164H531.773ZM541.941 164H540.861L540.816 162.89H540.786C540.261 163.67 539.301 164.15 538.071 164.15C536.031 164.15 534.561 162.62 534.561 160.49C534.561 158.36 536.031 156.83 538.071 156.83C539.301 156.83 540.261 157.31 540.786 158.105H540.816L540.861 156.98H541.941V164ZM538.281 163.01C539.706 163.01 540.711 161.975 540.711 160.49C540.711 159.005 539.706 157.97 538.281 157.97C536.841 157.97 535.851 159.005 535.851 160.49C535.851 161.975 536.841 163.01 538.281 163.01ZM60.3645 184.8V186H53.3895V184.725L55.4745 183.075C58.1895 180.915 59.0145 180.015 59.0145 178.905C59.0145 177.72 58.2045 177.09 56.6745 177.09C55.5345 177.09 54.3945 177.555 53.5995 178.335H53.5245V176.895C54.3345 176.265 55.5195 175.89 56.6595 175.89C59.0445 175.89 60.3645 176.94 60.3645 178.83C60.3645 180.42 59.4345 181.62 56.4045 183.87L55.1895 184.77V184.8H60.3645ZM63.6254 184.41C64.1204 184.41 64.4804 184.785 64.4804 185.28C64.4804 185.775 64.1204 186.15 63.6254 186.15C63.1304 186.15 62.7554 185.775 62.7554 185.28C62.7554 184.785 63.1304 184.41 63.6254 184.41ZM73.11 180.33H77.88V181.605H73.11V184.725H78.96V186H71.67V176.04H78.96V177.315H73.11V180.33ZM87.4874 186H86.4074L86.3624 184.89H86.3324C85.8074 185.67 84.8474 186.15 83.6174 186.15C81.5774 186.15 80.1074 184.62 80.1074 182.49C80.1074 180.36 81.5774 178.83 83.6174 178.83C84.8474 178.83 85.8074 179.31 86.3324 180.105H86.3624L86.4074 178.98H87.4874V186ZM83.8274 185.01C85.2524 185.01 86.2574 183.975 86.2574 182.49C86.2574 181.005 85.2524 179.97 83.8274 179.97C82.3874 179.97 81.3974 181.005 81.3974 182.49C81.3974 183.975 82.3874 185.01 83.8274 185.01ZM92.8236 178.83C93.2886 178.83 93.6486 178.95 93.8886 179.1V180.375H93.8286C93.5286 180.165 93.1536 180.045 92.7336 180.045C91.3836 180.045 90.7386 180.975 90.7386 182.805V186H89.4636V178.98H90.5436L90.5736 180.105H90.6036C91.0236 179.265 91.7586 178.83 92.8236 178.83ZM98.7193 178.83C100.504 178.83 101.599 180 101.599 181.92V186H100.324V182.07C100.324 180.75 99.6043 179.97 98.4193 179.97C97.1143 179.97 96.3343 180.87 96.3343 182.355V186H95.0593V178.98H96.1393L96.1693 180.09H96.1993C96.6793 179.295 97.5343 178.83 98.7193 178.83ZM113.05 186H111.97L111.94 184.89H111.91C111.43 185.685 110.575 186.15 109.39 186.15C107.605 186.15 106.51 184.995 106.51 183.06V178.98H107.785V182.925C107.785 184.245 108.505 185.01 109.69 185.01C110.995 185.01 111.775 184.11 111.775 182.625V178.98H113.05V186ZM118.88 178.83C120.92 178.83 122.405 180.36 122.405 182.49C122.405 184.62 120.92 186.15 118.88 186.15C117.755 186.15 116.885 185.76 116.33 185.1H116.3V188.85H115.025V178.98H116.105L116.135 180.09H116.165C116.705 179.31 117.65 178.83 118.88 178.83ZM118.685 185.01C120.11 185.01 121.115 183.975 121.115 182.49C121.115 181.005 120.11 179.97 118.685 179.97C117.245 179.97 116.255 181.005 116.255 182.49C116.255 183.975 117.245 185.01 118.685 185.01ZM131.277 184.605V185.895C130.962 186.06 130.542 186.15 130.002 186.15C128.532 186.15 127.707 185.28 127.707 183.705V180.09H126.417V178.98H127.737L127.932 177.075H128.982V178.98H131.247V180.09H128.982V183.675C128.982 184.515 129.432 185.01 130.182 185.01C130.572 185.01 130.932 184.905 131.217 184.605H131.277ZM135.99 178.83C138.165 178.83 139.71 180.345 139.71 182.49C139.71 184.635 138.165 186.15 135.99 186.15C133.815 186.15 132.27 184.635 132.27 182.49C132.27 180.345 133.815 178.83 135.99 178.83ZM135.99 179.97C134.55 179.97 133.56 181.005 133.56 182.49C133.56 183.975 134.55 185.01 135.99 185.01C137.415 185.01 138.42 183.975 138.42 182.49C138.42 181.005 137.415 179.97 135.99 179.97ZM182.586 178.83C184.626 178.83 186.111 180.36 186.111 182.49C186.111 184.62 184.626 186.15 182.586 186.15C181.356 186.15 180.411 185.685 179.871 184.89H179.841L179.811 186H178.731V175.5H180.006V179.88H180.036C180.591 179.22 181.461 178.83 182.586 178.83ZM182.391 185.01C183.816 185.01 184.821 183.975 184.821 182.49C184.821 181.005 183.816 179.97 182.391 179.97C180.951 179.97 179.961 181.005 179.961 182.49C179.961 183.975 180.951 185.01 182.391 185.01ZM190.907 178.83C193.082 178.83 194.627 180.345 194.627 182.49C194.627 184.635 193.082 186.15 190.907 186.15C188.732 186.15 187.187 184.635 187.187 182.49C187.187 180.345 188.732 178.83 190.907 178.83ZM190.907 179.97C189.467 179.97 188.477 181.005 188.477 182.49C188.477 183.975 189.467 185.01 190.907 185.01C192.332 185.01 193.337 183.975 193.337 182.49C193.337 181.005 192.332 179.97 190.907 179.97ZM199.823 178.83C201.608 178.83 202.703 180 202.703 181.92V186H201.428V182.07C201.428 180.75 200.708 179.97 199.523 179.97C198.218 179.97 197.438 180.87 197.438 182.355V186H196.163V178.98H197.243L197.273 180.09H197.303C197.783 179.295 198.638 178.83 199.823 178.83ZM210.858 186H209.778L209.748 184.89H209.718C209.238 185.685 208.383 186.15 207.198 186.15C205.413 186.15 204.318 184.995 204.318 183.06V178.98H205.593V182.925C205.593 184.245 206.313 185.01 207.498 185.01C208.803 185.01 209.583 184.11 209.583 182.625V178.98H210.858V186ZM215.173 178.83C216.103 178.83 216.943 179.025 217.468 179.37V180.72H217.408C216.928 180.225 216.178 179.97 215.203 179.97C214.303 179.97 213.718 180.39 213.718 181.02C213.718 181.53 214.093 181.77 215.263 181.83C217.183 181.935 217.888 182.58 217.888 183.96C217.888 185.31 216.823 186.15 215.113 186.15C213.943 186.15 213.028 185.895 212.443 185.415V184.035H212.503C213.073 184.68 213.943 185.01 215.068 185.01C216.028 185.01 216.628 184.605 216.628 183.96C216.628 183.39 216.238 183.12 214.978 183.045C213.133 182.925 212.458 182.34 212.458 181.065C212.458 179.73 213.538 178.83 215.173 178.83ZM226.458 178.83C228.498 178.83 229.983 180.36 229.983 182.49C229.983 184.62 228.498 186.15 226.458 186.15C225.333 186.15 224.463 185.76 223.908 185.1H223.878V188.85H222.603V178.98H223.683L223.713 180.09H223.743C224.283 179.31 225.228 178.83 226.458 178.83ZM226.263 185.01C227.688 185.01 228.693 183.975 228.693 182.49C228.693 181.005 227.688 179.97 226.263 179.97C224.823 179.97 223.833 181.005 223.833 182.49C223.833 183.975 224.823 185.01 226.263 185.01ZM234.78 178.83C236.955 178.83 238.5 180.345 238.5 182.49C238.5 184.635 236.955 186.15 234.78 186.15C232.605 186.15 231.06 184.635 231.06 182.49C231.06 180.345 232.605 178.83 234.78 178.83ZM234.78 179.97C233.34 179.97 232.35 181.005 232.35 182.49C232.35 183.975 233.34 185.01 234.78 185.01C236.205 185.01 237.21 183.975 237.21 182.49C237.21 181.005 236.205 179.97 234.78 179.97ZM240.665 175.935C241.16 175.935 241.505 176.28 241.505 176.775C241.505 177.27 241.16 177.615 240.665 177.615C240.17 177.615 239.825 177.27 239.825 176.775C239.825 176.28 240.17 175.935 240.665 175.935ZM240.035 186V178.98H241.31V186H240.035ZM246.932 178.83C248.717 178.83 249.812 180 249.812 181.92V186H248.537V182.07C248.537 180.75 247.817 179.97 246.632 179.97C245.327 179.97 244.547 180.87 244.547 182.355V186H243.272V178.98H244.352L244.382 180.09H244.412C244.892 179.295 245.747 178.83 246.932 178.83ZM255.643 184.605V185.895C255.328 186.06 254.908 186.15 254.368 186.15C252.898 186.15 252.073 185.28 252.073 183.705V180.09H250.783V178.98H252.103L252.298 177.075H253.348V178.98H255.613V180.09H253.348V183.675C253.348 184.515 253.798 185.01 254.548 185.01C254.938 185.01 255.298 184.905 255.583 184.605H255.643ZM259.455 178.83C260.385 178.83 261.225 179.025 261.75 179.37V180.72H261.69C261.21 180.225 260.46 179.97 259.485 179.97C258.585 179.97 258 180.39 258 181.02C258 181.53 258.375 181.77 259.545 181.83C261.465 181.935 262.17 182.58 262.17 183.96C262.17 185.31 261.105 186.15 259.395 186.15C258.225 186.15 257.31 185.895 256.725 185.415V184.035H256.785C257.355 184.68 258.225 185.01 259.35 185.01C260.31 185.01 260.91 184.605 260.91 183.96C260.91 183.39 260.52 183.12 259.26 183.045C257.415 182.925 256.74 182.34 256.74 181.065C256.74 179.73 257.82 178.83 259.455 178.83ZM273.816 186H272.736L272.691 184.89H272.661C272.136 185.67 271.176 186.15 269.946 186.15C267.906 186.15 266.436 184.62 266.436 182.49C266.436 180.36 267.906 178.83 269.946 178.83C271.176 178.83 272.136 179.31 272.661 180.105H272.691L272.736 178.98H273.816V186ZM270.156 185.01C271.581 185.01 272.586 183.975 272.586 182.49C272.586 181.005 271.581 179.97 270.156 179.97C268.716 179.97 267.726 181.005 267.726 182.49C267.726 183.975 268.716 185.01 270.156 185.01ZM279.452 178.83C281.237 178.83 282.332 180 282.332 181.92V186H281.057V182.07C281.057 180.75 280.337 179.97 279.152 179.97C277.847 179.97 277.067 180.87 277.067 182.355V186H275.792V178.98H276.872L276.902 180.09H276.932C277.412 179.295 278.267 178.83 279.452 178.83ZM291.057 186H289.977L289.932 184.89H289.902C289.377 185.67 288.417 186.15 287.187 186.15C285.147 186.15 283.677 184.62 283.677 182.49C283.677 180.36 285.147 178.83 287.187 178.83C288.327 178.83 289.197 179.22 289.752 179.895H289.782V175.5H291.057V186ZM287.397 185.01C288.822 185.01 289.827 183.975 289.827 182.49C289.827 181.005 288.822 179.97 287.397 179.97C285.957 179.97 284.967 181.005 284.967 182.49C284.967 183.975 285.957 185.01 287.397 185.01ZM332.138 180.465H336.908V181.74H332.138V186H330.698V176.04H337.988V177.315H332.138V180.465ZM345.574 182.91H339.649C339.829 184.215 340.879 185.01 342.469 185.01C343.504 185.01 344.404 184.68 345.064 184.05H345.124V185.34C344.494 185.85 343.534 186.15 342.439 186.15C339.964 186.15 338.359 184.695 338.359 182.49C338.359 180.345 339.874 178.83 342.019 178.83C344.179 178.83 345.574 180.165 345.574 182.205V182.91ZM342.034 179.97C340.834 179.97 339.889 180.72 339.649 181.845H344.389C344.209 180.705 343.309 179.97 342.034 179.97ZM353.851 182.91H347.926C348.106 184.215 349.156 185.01 350.746 185.01C351.781 185.01 352.681 184.68 353.341 184.05H353.401V185.34C352.771 185.85 351.811 186.15 350.716 186.15C348.241 186.15 346.636 184.695 346.636 182.49C346.636 180.345 348.151 178.83 350.296 178.83C352.456 178.83 353.851 180.165 353.851 182.205V182.91ZM350.311 179.97C349.111 179.97 348.166 180.72 347.926 181.845H352.666C352.486 180.705 351.586 179.97 350.311 179.97ZM360.278 186H358.838V176.04H363.218C365.558 176.04 366.773 177.09 366.773 179.115C366.773 180.75 365.993 181.755 364.463 182.085L367.073 186H365.363L362.963 182.205H360.278V186ZM360.278 180.93H363.158C364.598 180.93 365.318 180.33 365.318 179.115C365.318 177.915 364.598 177.315 363.158 177.315H360.278V180.93ZM375.296 182.91H369.371C369.551 184.215 370.601 185.01 372.191 185.01C373.226 185.01 374.126 184.68 374.786 184.05H374.846V185.34C374.216 185.85 373.256 186.15 372.161 186.15C369.686 186.15 368.081 184.695 368.081 182.49C368.081 180.345 369.596 178.83 371.741 178.83C373.901 178.83 375.296 180.165 375.296 182.205V182.91ZM371.756 179.97C370.556 179.97 369.611 180.72 369.371 181.845H374.111C373.931 180.705 373.031 179.97 371.756 179.97ZM380.662 178.83C382.702 178.83 384.187 180.36 384.187 182.49C384.187 184.62 382.702 186.15 380.662 186.15C379.432 186.15 378.487 185.685 377.947 184.89H377.917L377.887 186H376.807V175.5H378.082V179.88H378.112C378.667 179.22 379.537 178.83 380.662 178.83ZM380.467 185.01C381.892 185.01 382.897 183.975 382.897 182.49C382.897 181.005 381.892 179.97 380.467 179.97C379.027 179.97 378.037 181.005 378.037 182.49C378.037 183.975 379.027 185.01 380.467 185.01ZM392.644 186H391.564L391.519 184.89H391.489C390.964 185.67 390.004 186.15 388.774 186.15C386.734 186.15 385.264 184.62 385.264 182.49C385.264 180.36 386.734 178.83 388.774 178.83C390.004 178.83 390.964 179.31 391.489 180.105H391.519L391.564 178.98H392.644V186ZM388.984 185.01C390.409 185.01 391.414 183.975 391.414 182.49C391.414 181.005 390.409 179.97 388.984 179.97C387.544 179.97 386.554 181.005 386.554 182.49C386.554 183.975 387.544 185.01 388.984 185.01ZM398.67 184.605V185.895C398.355 186.06 397.935 186.15 397.395 186.15C395.925 186.15 395.1 185.28 395.1 183.705V180.09H393.81V178.98H395.13L395.325 177.075H396.375V178.98H398.64V180.09H396.375V183.675C396.375 184.515 396.825 185.01 397.575 185.01C397.965 185.01 398.325 184.905 398.61 184.605H398.67ZM406.878 182.91H400.953C401.133 184.215 402.183 185.01 403.773 185.01C404.808 185.01 405.708 184.68 406.368 184.05H406.428V185.34C405.798 185.85 404.838 186.15 403.743 186.15C401.268 186.15 399.663 184.695 399.663 182.49C399.663 180.345 401.178 178.83 403.323 178.83C405.483 178.83 406.878 180.165 406.878 182.205V182.91ZM403.338 179.97C402.138 179.97 401.193 180.72 400.953 181.845H405.693C405.513 180.705 404.613 179.97 403.338 179.97ZM410.729 178.83C411.659 178.83 412.499 179.025 413.024 179.37V180.72H412.964C412.484 180.225 411.734 179.97 410.759 179.97C409.859 179.97 409.274 180.39 409.274 181.02C409.274 181.53 409.649 181.77 410.819 181.83C412.739 181.935 413.444 182.58 413.444 183.96C413.444 185.31 412.379 186.15 410.669 186.15C409.499 186.15 408.584 185.895 407.999 185.415V184.035H408.059C408.629 184.68 409.499 185.01 410.624 185.01C411.584 185.01 412.184 184.605 412.184 183.96C412.184 183.39 411.794 183.12 410.534 183.045C408.689 182.925 408.014 182.34 408.014 181.065C408.014 179.73 409.094 178.83 410.729 178.83ZM58.9995 202.885V202.915C60.0795 203.32 60.6795 204.16 60.6795 205.315C60.6795 207.1 59.2095 208.15 56.7795 208.15C55.3395 208.15 54.0345 207.745 53.3445 207.085V205.615H53.4195C54.0795 206.455 55.3695 206.95 56.7495 206.95C58.3695 206.95 59.3145 206.305 59.3145 205.135C59.3145 204.055 58.5045 203.53 56.8395 203.53H55.3095V202.345H56.6295C58.3095 202.345 59.1195 201.85 59.1195 200.8C59.1195 199.69 58.2345 199.09 56.6895 199.09C55.5345 199.09 54.3795 199.555 53.6445 200.35H53.5695V198.88C54.3345 198.265 55.5645 197.89 56.8095 197.89C59.0895 197.89 60.4695 198.91 60.4695 200.62C60.4695 201.685 59.9595 202.465 58.9995 202.885ZM63.6254 206.41C64.1204 206.41 64.4804 206.785 64.4804 207.28C64.4804 207.775 64.1204 208.15 63.6254 208.15C63.1304 208.15 62.7554 207.775 62.7554 207.28C62.7554 206.785 63.1304 206.41 63.6254 206.41ZM73.11 202.33H77.88V203.605H73.11V206.725H78.96V208H71.67V198.04H78.96V199.315H73.11V202.33ZM84.3492 200.83C86.1342 200.83 87.2292 202 87.2292 203.92V208H85.9542V204.07C85.9542 202.75 85.2342 201.97 84.0492 201.97C82.7442 201.97 81.9642 202.87 81.9642 204.355V208H80.6892V200.98H81.7692L81.7992 202.09H81.8292C82.3092 201.295 83.1642 200.83 84.3492 200.83ZM89.6542 197.935C90.1492 197.935 90.4942 198.28 90.4942 198.775C90.4942 199.27 90.1492 199.615 89.6542 199.615C89.1592 199.615 88.8142 199.27 88.8142 198.775C88.8142 198.28 89.1592 197.935 89.6542 197.935ZM90.2992 200.98V208.99C90.2992 210.355 89.6842 211 88.5292 211C88.1692 211 87.9142 210.955 87.6442 210.85V209.68H87.7042C87.8842 209.815 88.0642 209.86 88.3042 209.86C88.8142 209.86 89.0242 209.59 89.0242 208.9V200.98H90.2992ZM95.5315 200.83C97.7065 200.83 99.2515 202.345 99.2515 204.49C99.2515 206.635 97.7065 208.15 95.5315 208.15C93.3565 208.15 91.8115 206.635 91.8115 204.49C91.8115 202.345 93.3565 200.83 95.5315 200.83ZM95.5315 201.97C94.0915 201.97 93.1015 203.005 93.1015 204.49C93.1015 205.975 94.0915 207.01 95.5315 207.01C96.9565 207.01 97.9615 205.975 97.9615 204.49C97.9615 203.005 96.9565 201.97 95.5315 201.97ZM102.518 210.85H101.198L102.623 207.745L99.6825 200.98H101.063L103.298 206.41H103.328L105.578 200.98H106.898L102.518 210.85ZM119.419 208L118.504 205.93H112.999L112.084 208H110.584L115.084 198.04H116.449L120.964 208H119.419ZM115.774 199.675H115.744L113.554 204.655H117.949L115.774 199.675ZM128.563 208H127.483L127.453 206.89H127.423C126.943 207.685 126.088 208.15 124.903 208.15C123.118 208.15 122.023 206.995 122.023 205.06V200.98H123.298V204.925C123.298 206.245 124.018 207.01 125.203 207.01C126.508 207.01 127.288 206.11 127.288 204.625V200.98H128.563V208ZM134.588 206.605V207.895C134.273 208.06 133.853 208.15 133.313 208.15C131.843 208.15 131.018 207.28 131.018 205.705V202.09H129.728V200.98H131.048L131.243 199.075H132.293V200.98H134.558V202.09H132.293V205.675C132.293 206.515 132.743 207.01 133.493 207.01C133.883 207.01 134.243 206.905 134.528 206.605H134.588ZM139.301 200.83C141.476 200.83 143.021 202.345 143.021 204.49C143.021 206.635 141.476 208.15 139.301 208.15C137.126 208.15 135.581 206.635 135.581 204.49C135.581 202.345 137.126 200.83 139.301 200.83ZM139.301 201.97C137.861 201.97 136.871 203.005 136.871 204.49C136.871 205.975 137.861 207.01 139.301 207.01C140.726 207.01 141.731 205.975 141.731 204.49C141.731 203.005 140.726 201.97 139.301 201.97ZM144.359 204.55V203.26H148.529V204.55H144.359ZM151.831 202.33H156.601V203.605H151.831V206.725H157.681V208H150.391V198.04H157.681V199.315H151.831V202.33ZM166.208 208H165.128L165.083 206.89H165.053C164.528 207.67 163.568 208.15 162.338 208.15C160.298 208.15 158.828 206.62 158.828 204.49C158.828 202.36 160.298 200.83 162.338 200.83C163.568 200.83 164.528 201.31 165.053 202.105H165.083L165.128 200.98H166.208V208ZM162.548 207.01C163.973 207.01 164.978 205.975 164.978 204.49C164.978 203.005 163.973 201.97 162.548 201.97C161.108 201.97 160.118 203.005 160.118 204.49C160.118 205.975 161.108 207.01 162.548 207.01ZM171.544 200.83C172.009 200.83 172.369 200.95 172.609 201.1V202.375H172.549C172.249 202.165 171.874 202.045 171.454 202.045C170.104 202.045 169.459 202.975 169.459 204.805V208H168.184V200.98H169.264L169.294 202.105H169.324C169.744 201.265 170.479 200.83 171.544 200.83ZM177.44 200.83C179.225 200.83 180.32 202 180.32 203.92V208H179.045V204.07C179.045 202.75 178.325 201.97 177.14 201.97C175.835 201.97 175.055 202.87 175.055 204.355V208H173.78V200.98H174.86L174.89 202.09H174.92C175.4 201.295 176.255 200.83 177.44 200.83ZM192.341 208H191.261L191.216 206.89H191.186C190.661 207.67 189.701 208.15 188.471 208.15C186.431 208.15 184.961 206.62 184.961 204.49C184.961 202.36 186.431 200.83 188.471 200.83C189.701 200.83 190.661 201.31 191.186 202.105H191.216L191.261 200.98H192.341V208ZM188.681 207.01C190.106 207.01 191.111 205.975 191.111 204.49C191.111 203.005 190.106 201.97 188.681 201.97C187.241 201.97 186.251 203.005 186.251 204.49C186.251 205.975 187.241 207.01 188.681 207.01ZM197.977 200.83C199.762 200.83 200.857 202 200.857 203.92V208H199.582V204.07C199.582 202.75 198.862 201.97 197.677 201.97C196.372 201.97 195.592 202.87 195.592 204.355V208H194.317V200.98H195.397L195.427 202.09H195.457C195.937 201.295 196.792 200.83 197.977 200.83ZM209.582 208H208.502L208.457 206.89H208.427C207.902 207.67 206.942 208.15 205.712 208.15C203.672 208.15 202.202 206.62 202.202 204.49C202.202 202.36 203.672 200.83 205.712 200.83C206.852 200.83 207.722 201.22 208.277 201.895H208.307V197.5H209.582V208ZM205.922 207.01C207.347 207.01 208.352 205.975 208.352 204.49C208.352 203.005 207.347 201.97 205.922 201.97C204.482 201.97 203.492 203.005 203.492 204.49C203.492 205.975 204.482 207.01 205.922 207.01ZM218.214 200.83C218.679 200.83 219.039 200.95 219.279 201.1V202.375H219.219C218.919 202.165 218.544 202.045 218.124 202.045C216.774 202.045 216.129 202.975 216.129 204.805V208H214.854V200.98H215.934L215.964 202.105H215.994C216.414 201.265 217.149 200.83 218.214 200.83ZM227.054 204.91H221.129C221.309 206.215 222.359 207.01 223.949 207.01C224.984 207.01 225.884 206.68 226.544 206.05H226.604V207.34C225.974 207.85 225.014 208.15 223.919 208.15C221.444 208.15 219.839 206.695 219.839 204.49C219.839 202.345 221.354 200.83 223.499 200.83C225.659 200.83 227.054 202.165 227.054 204.205V204.91ZM223.514 201.97C222.314 201.97 221.369 202.72 221.129 203.845H225.869C225.689 202.705 224.789 201.97 223.514 201.97ZM231.895 200.83C232.87 200.83 233.65 201.055 234.19 201.52V202.915H234.13C233.59 202.27 232.9 201.97 232.015 201.97C230.41 201.97 229.405 202.99 229.405 204.49C229.405 205.975 230.41 207.01 232.015 207.01C232.915 207.01 233.62 206.695 234.13 206.065H234.19V207.475C233.65 207.925 232.885 208.15 231.895 208.15C229.615 208.15 228.115 206.62 228.115 204.49C228.115 202.345 229.615 200.83 231.895 200.83ZM239.249 200.83C239.714 200.83 240.074 200.95 240.314 201.1V202.375H240.254C239.954 202.165 239.579 202.045 239.159 202.045C237.809 202.045 237.164 202.975 237.164 204.805V208H235.889V200.98H236.969L236.999 202.105H237.029C237.449 201.265 238.184 200.83 239.249 200.83ZM247.845 208H246.765L246.735 206.89H246.705C246.225 207.685 245.37 208.15 244.185 208.15C242.4 208.15 241.305 206.995 241.305 205.06V200.98H242.58V204.925C242.58 206.245 243.3 207.01 244.485 207.01C245.79 207.01 246.57 206.11 246.57 204.625V200.98H247.845V208ZM250.45 197.935C250.945 197.935 251.29 198.28 251.29 198.775C251.29 199.27 250.945 199.615 250.45 199.615C249.955 199.615 249.61 199.27 249.61 198.775C249.61 198.28 249.955 197.935 250.45 197.935ZM249.82 208V200.98H251.095V208H249.82ZM257.107 206.605V207.895C256.792 208.06 256.372 208.15 255.832 208.15C254.362 208.15 253.537 207.28 253.537 205.705V202.09H252.247V200.98H253.567L253.762 199.075H254.812V200.98H257.077V202.09H254.812V205.675C254.812 206.515 255.262 207.01 256.012 207.01C256.402 207.01 256.762 206.905 257.047 206.605H257.107ZM270.2 200.83C271.91 200.83 272.87 201.925 272.87 203.875V208H271.595V204.01C271.595 202.675 270.995 201.97 269.885 201.97C268.685 201.97 268.04 202.795 268.04 204.355V208H266.765V204.01C266.765 202.675 266.18 201.97 265.055 201.97C263.84 201.97 263.195 202.795 263.195 204.28V208H261.92V200.98H262.985L263.03 202H263.06C263.495 201.25 264.26 200.83 265.37 200.83C266.42 200.83 267.215 201.295 267.635 202.18H267.665C268.1 201.28 268.91 200.83 270.2 200.83ZM277.934 200.83C280.109 200.83 281.654 202.345 281.654 204.49C281.654 206.635 280.109 208.15 277.934 208.15C275.759 208.15 274.214 206.635 274.214 204.49C274.214 202.345 275.759 200.83 277.934 200.83ZM277.934 201.97C276.494 201.97 275.504 203.005 275.504 204.49C275.504 205.975 276.494 207.01 277.934 207.01C279.359 207.01 280.364 205.975 280.364 204.49C280.364 203.005 279.359 201.97 277.934 201.97ZM286.549 200.83C287.014 200.83 287.374 200.95 287.614 201.1V202.375H287.554C287.254 202.165 286.879 202.045 286.459 202.045C285.109 202.045 284.464 202.975 284.464 204.805V208H283.189V200.98H284.269L284.299 202.105H284.329C284.749 201.265 285.484 200.83 286.549 200.83ZM295.389 204.91H289.464C289.644 206.215 290.694 207.01 292.284 207.01C293.319 207.01 294.219 206.68 294.879 206.05H294.939V207.34C294.309 207.85 293.349 208.15 292.254 208.15C289.779 208.15 288.174 206.695 288.174 204.49C288.174 202.345 289.689 200.83 291.834 200.83C293.994 200.83 295.389 202.165 295.389 204.205V204.91ZM291.849 201.97C290.649 201.97 289.704 202.72 289.464 203.845H294.204C294.024 202.705 293.124 201.97 291.849 201.97ZM310.711 208H309.271L306.751 200.41H306.721L304.201 208H302.761L299.521 198.04H301.036L303.511 205.825H303.541L306.121 198.04H307.381L309.976 205.855H310.006L312.496 198.04H313.966L310.711 208ZM318.929 200.83C320.714 200.83 321.809 202 321.809 203.92V208H320.534V204.07C320.534 202.75 319.814 201.97 318.629 201.97C317.324 201.97 316.544 202.87 316.544 204.355V208H315.269V197.5H316.544V201.85H316.574C317.069 201.19 317.894 200.83 318.929 200.83ZM330.534 208H329.454L329.409 206.89H329.379C328.854 207.67 327.894 208.15 326.664 208.15C324.624 208.15 323.154 206.62 323.154 204.49C323.154 202.36 324.624 200.83 326.664 200.83C327.894 200.83 328.854 201.31 329.379 202.105H329.409L329.454 200.98H330.534V208ZM326.874 207.01C328.299 207.01 329.304 205.975 329.304 204.49C329.304 203.005 328.299 201.97 326.874 201.97C325.434 201.97 324.444 203.005 324.444 204.49C324.444 205.975 325.434 207.01 326.874 207.01ZM332.511 208V197.5H333.786V208H332.511ZM342.527 204.91H336.602C336.782 206.215 337.832 207.01 339.422 207.01C340.457 207.01 341.357 206.68 342.017 206.05H342.077V207.34C341.447 207.85 340.487 208.15 339.392 208.15C336.917 208.15 335.312 206.695 335.312 204.49C335.312 202.345 336.827 200.83 338.972 200.83C341.132 200.83 342.527 202.165 342.527 204.205V204.91ZM338.987 201.97C337.787 201.97 336.842 202.72 336.602 203.845H341.342C341.162 202.705 340.262 201.97 338.987 201.97ZM346.379 200.83C347.309 200.83 348.149 201.025 348.674 201.37V202.72H348.614C348.134 202.225 347.384 201.97 346.409 201.97C345.509 201.97 344.924 202.39 344.924 203.02C344.924 203.53 345.299 203.77 346.469 203.83C348.389 203.935 349.094 204.58 349.094 205.96C349.094 207.31 348.029 208.15 346.319 208.15C345.149 208.15 344.234 207.895 343.649 207.415V206.035H343.709C344.279 206.68 345.149 207.01 346.274 207.01C347.234 207.01 347.834 206.605 347.834 205.96C347.834 205.39 347.444 205.12 346.184 205.045C344.339 204.925 343.664 204.34 343.664 203.065C343.664 201.73 344.744 200.83 346.379 200.83ZM356.644 197.35C357.229 197.35 357.724 197.455 358.024 197.605V198.805H357.964C357.664 198.61 357.229 198.49 356.824 198.49C356.029 198.49 355.579 198.97 355.579 199.87V200.98H357.829V202.09H355.579V208H354.289V202.09H352.999V200.98H354.289V199.84C354.289 198.25 355.129 197.35 356.644 197.35ZM361.913 200.83C364.088 200.83 365.633 202.345 365.633 204.49C365.633 206.635 364.088 208.15 361.913 208.15C359.738 208.15 358.193 206.635 358.193 204.49C358.193 202.345 359.738 200.83 361.913 200.83ZM361.913 201.97C360.473 201.97 359.483 203.005 359.483 204.49C359.483 205.975 360.473 207.01 361.913 207.01C363.338 207.01 364.343 205.975 364.343 204.49C364.343 203.005 363.338 201.97 361.913 201.97ZM370.529 200.83C370.994 200.83 371.354 200.95 371.594 201.1V202.375H371.534C371.234 202.165 370.859 202.045 370.439 202.045C369.089 202.045 368.444 202.975 368.444 204.805V208H367.169V200.98H368.249L368.279 202.105H368.309C368.729 201.265 369.464 200.83 370.529 200.83ZM384.34 200.83C386.05 200.83 387.01 201.925 387.01 203.875V208H385.735V204.01C385.735 202.675 385.135 201.97 384.025 201.97C382.825 201.97 382.18 202.795 382.18 204.355V208H380.905V204.01C380.905 202.675 380.32 201.97 379.195 201.97C377.98 201.97 377.335 202.795 377.335 204.28V208H376.06V200.98H377.125L377.17 202H377.2C377.635 201.25 378.4 200.83 379.51 200.83C380.56 200.83 381.355 201.295 381.775 202.18H381.805C382.24 201.28 383.05 200.83 384.34 200.83ZM395.734 208H394.654L394.609 206.89H394.579C394.054 207.67 393.094 208.15 391.864 208.15C389.824 208.15 388.354 206.62 388.354 204.49C388.354 202.36 389.824 200.83 391.864 200.83C393.094 200.83 394.054 201.31 394.579 202.105H394.609L394.654 200.98H395.734V208ZM392.074 207.01C393.499 207.01 394.504 205.975 394.504 204.49C394.504 203.005 393.499 201.97 392.074 201.97C390.634 201.97 389.644 203.005 389.644 204.49C389.644 205.975 390.634 207.01 392.074 207.01ZM398.521 208H397.006L399.811 204.4L397.156 200.98H398.731L400.681 203.605L402.601 200.98H404.131L401.491 204.4L404.281 208H402.691L400.606 205.165L398.521 208ZM413.842 200.83C415.552 200.83 416.512 201.925 416.512 203.875V208H415.237V204.01C415.237 202.675 414.637 201.97 413.527 201.97C412.327 201.97 411.682 202.795 411.682 204.355V208H410.407V204.01C410.407 202.675 409.822 201.97 408.697 201.97C407.482 201.97 406.837 202.795 406.837 204.28V208H405.562V200.98H406.627L406.672 202H406.702C407.137 201.25 407.902 200.83 409.012 200.83C410.062 200.83 410.857 201.295 411.277 202.18H411.307C411.742 201.28 412.552 200.83 413.842 200.83ZM418.936 197.935C419.431 197.935 419.776 198.28 419.776 198.775C419.776 199.27 419.431 199.615 418.936 199.615C418.441 199.615 418.096 199.27 418.096 198.775C418.096 198.28 418.441 197.935 418.936 197.935ZM418.306 208V200.98H419.581V208H418.306ZM421.184 208V206.98L425.504 202.09H421.409V200.98H427.214V202.015L422.909 206.89H427.289V208H421.184ZM435.428 204.91H429.503C429.683 206.215 430.733 207.01 432.323 207.01C433.358 207.01 434.258 206.68 434.918 206.05H434.978V207.34C434.348 207.85 433.388 208.15 432.293 208.15C429.818 208.15 428.213 206.695 428.213 204.49C428.213 202.345 429.728 200.83 431.873 200.83C434.033 200.83 435.428 202.165 435.428 204.205V204.91ZM431.888 201.97C430.688 201.97 429.743 202.72 429.503 203.845H434.243C434.063 202.705 433.163 201.97 431.888 201.97ZM443.595 200.83C444.06 200.83 444.42 200.95 444.66 201.1V202.375H444.6C444.3 202.165 443.925 202.045 443.505 202.045C442.155 202.045 441.51 202.975 441.51 204.805V208H440.235V200.98H441.315L441.345 202.105H441.375C441.795 201.265 442.53 200.83 443.595 200.83ZM452.435 204.91H446.51C446.69 206.215 447.74 207.01 449.33 207.01C450.365 207.01 451.265 206.68 451.925 206.05H451.985V207.34C451.355 207.85 450.395 208.15 449.3 208.15C446.825 208.15 445.22 206.695 445.22 204.49C445.22 202.345 446.735 200.83 448.88 200.83C451.04 200.83 452.435 202.165 452.435 204.205V204.91ZM448.895 201.97C447.695 201.97 446.75 202.72 446.51 203.845H451.25C451.07 202.705 450.17 201.97 448.895 201.97ZM461.584 208H460.339L458.524 202.855H458.494L456.664 208H455.419L452.944 200.98H454.309L456.064 206.395H456.094L458.014 200.98H459.049L460.969 206.38H460.999L462.769 200.98H464.059L461.584 208ZM471.921 208H470.841L470.796 206.89H470.766C470.241 207.67 469.281 208.15 468.051 208.15C466.011 208.15 464.541 206.62 464.541 204.49C464.541 202.36 466.011 200.83 468.051 200.83C469.281 200.83 470.241 201.31 470.766 202.105H470.796L470.841 200.98H471.921V208ZM468.261 207.01C469.686 207.01 470.691 205.975 470.691 204.49C470.691 203.005 469.686 201.97 468.261 201.97C466.821 201.97 465.831 203.005 465.831 204.49C465.831 205.975 466.821 207.01 468.261 207.01ZM477.257 200.83C477.722 200.83 478.082 200.95 478.322 201.1V202.375H478.262C477.962 202.165 477.587 202.045 477.167 202.045C475.817 202.045 475.172 202.975 475.172 204.805V208H473.897V200.98H474.977L475.007 202.105H475.037C475.457 201.265 476.192 200.83 477.257 200.83ZM486.262 208H485.182L485.137 206.89H485.107C484.582 207.67 483.622 208.15 482.392 208.15C480.352 208.15 478.882 206.62 478.882 204.49C478.882 202.36 480.352 200.83 482.392 200.83C483.532 200.83 484.402 201.22 484.957 201.895H484.987V197.5H486.262V208ZM482.602 207.01C484.027 207.01 485.032 205.975 485.032 204.49C485.032 203.005 484.027 201.97 482.602 201.97C481.162 201.97 480.172 203.005 480.172 204.49C480.172 205.975 481.162 207.01 482.602 207.01ZM488.553 205.21L488.373 198.04H489.888L489.723 205.21H488.553ZM489.138 206.41C489.633 206.41 489.993 206.785 489.993 207.28C489.993 207.775 489.633 208.15 489.138 208.15C488.643 208.15 488.268 207.775 488.268 207.28C488.268 206.785 488.643 206.41 489.138 206.41Z" fill="#E0E0E0"/>
<path d="M109.366 153.89C110.671 153.89 111.886 154.205 112.531 154.685V156.59H112.441C111.796 155.9 110.656 155.495 109.336 155.495C108.076 155.495 107.266 156.035 107.266 156.875C107.266 157.58 107.791 157.94 109.471 158.105C112.126 158.375 113.101 159.29 113.101 161.12C113.101 163.025 111.661 164.15 109.201 164.15C107.566 164.15 106.276 163.82 105.466 163.205V161.285H105.556C106.456 162.11 107.701 162.545 109.156 162.545C110.536 162.545 111.316 162.05 111.316 161.165C111.316 160.4 110.776 160.04 109.006 159.845C106.411 159.56 105.481 158.72 105.481 156.98C105.481 155.06 106.966 153.89 109.366 153.89ZM118.321 156.815C120.076 156.815 121.141 157.955 121.141 159.875V164H119.551V160.055C119.551 158.9 118.936 158.24 117.916 158.24C116.791 158.24 116.116 159.005 116.116 160.31V164H114.526V153.5H116.116V157.73H116.146C116.626 157.145 117.376 156.815 118.321 156.815ZM129.836 164H128.516L128.471 162.995H128.441C127.931 163.715 127.046 164.15 125.906 164.15C123.896 164.15 122.426 162.62 122.426 160.49C122.426 158.36 123.896 156.815 125.906 156.815C127.046 156.815 127.916 157.25 128.426 157.97H128.456L128.516 156.965H129.836V164ZM126.161 162.725C127.421 162.725 128.291 161.795 128.291 160.49C128.291 159.155 127.421 158.24 126.161 158.24C124.901 158.24 124.031 159.155 124.031 160.49C124.031 161.795 124.901 162.725 126.161 162.725ZM135.294 156.815C135.744 156.815 136.119 156.935 136.344 157.085V158.66H136.269C135.969 158.45 135.594 158.33 135.159 158.33C133.899 158.33 133.284 159.17 133.284 160.88V164H131.694V156.965H133.029L133.089 158.045H133.119C133.524 157.235 134.244 156.815 135.294 156.815ZM144.114 160.97H138.519C138.714 162.095 139.674 162.755 141.069 162.755C142.104 162.755 142.974 162.44 143.604 161.84H143.679V163.415C143.079 163.88 142.119 164.15 141.009 164.15C138.549 164.15 136.899 162.68 136.899 160.49C136.899 158.33 138.414 156.815 140.559 156.815C142.734 156.815 144.114 158.135 144.114 160.19V160.97ZM140.604 158.21C139.599 158.21 138.714 158.84 138.519 159.785H142.644C142.509 158.825 141.699 158.21 140.604 158.21ZM150.827 164H149.027V154.04H153.437C155.852 154.04 157.097 155.12 157.097 157.205C157.097 158.81 156.347 159.815 154.892 160.19L157.397 164H155.267L153.047 160.355H150.827V164ZM150.827 158.75H153.377C154.667 158.75 155.282 158.24 155.282 157.205C155.282 156.155 154.667 155.645 153.377 155.645H150.827V158.75ZM165.559 160.97H159.964C160.159 162.095 161.119 162.755 162.514 162.755C163.549 162.755 164.419 162.44 165.049 161.84H165.124V163.415C164.524 163.88 163.564 164.15 162.454 164.15C159.994 164.15 158.344 162.68 158.344 160.49C158.344 158.33 159.859 156.815 162.004 156.815C164.179 156.815 165.559 158.135 165.559 160.19V160.97ZM162.049 158.21C161.044 158.21 160.159 158.84 159.964 159.785H164.089C163.954 158.825 163.144 158.21 162.049 158.21ZM169.952 153.35C170.567 153.35 171.047 153.44 171.377 153.605V155.09H171.302C171.002 154.88 170.582 154.775 170.192 154.775C169.442 154.775 169.037 155.225 169.037 156.035V156.965H171.182V158.345H169.037V164H167.447V158.345H166.202V156.965H167.447V155.96C167.447 154.295 168.332 153.35 169.952 153.35ZM178.816 160.97H173.221C173.416 162.095 174.376 162.755 175.771 162.755C176.806 162.755 177.676 162.44 178.306 161.84H178.381V163.415C177.781 163.88 176.821 164.15 175.711 164.15C173.251 164.15 171.601 162.68 171.601 160.49C171.601 158.33 173.116 156.815 175.261 156.815C177.436 156.815 178.816 158.135 178.816 160.19V160.97ZM175.306 158.21C174.301 158.21 173.416 158.84 173.221 159.785H177.346C177.211 158.825 176.401 158.21 175.306 158.21ZM183.839 156.815C184.289 156.815 184.664 156.935 184.889 157.085V158.66H184.814C184.514 158.45 184.139 158.33 183.704 158.33C182.444 158.33 181.829 159.17 181.829 160.88V164H180.239V156.965H181.574L181.634 158.045H181.664C182.069 157.235 182.789 156.815 183.839 156.815ZM189.581 156.815C190.031 156.815 190.406 156.935 190.631 157.085V158.66H190.556C190.256 158.45 189.881 158.33 189.446 158.33C188.186 158.33 187.571 159.17 187.571 160.88V164H185.981V156.965H187.316L187.376 158.045H187.406C187.811 157.235 188.531 156.815 189.581 156.815ZM198.596 164H197.276L197.231 162.995H197.201C196.691 163.715 195.806 164.15 194.666 164.15C192.656 164.15 191.186 162.62 191.186 160.49C191.186 158.36 192.656 156.815 194.666 156.815C195.806 156.815 196.676 157.25 197.186 157.97H197.216L197.276 156.965H198.596V164ZM194.921 162.725C196.181 162.725 197.051 161.795 197.051 160.49C197.051 159.155 196.181 158.24 194.921 158.24C193.661 158.24 192.791 159.155 192.791 160.49C192.791 161.795 193.661 162.725 194.921 162.725ZM200.453 164V153.5H202.043V164H200.453ZM214.556 164H207.401V154.04H209.201V162.395H214.556V164ZM216.673 153.755C217.288 153.755 217.693 154.175 217.693 154.775C217.693 155.375 217.288 155.78 216.673 155.78C216.073 155.78 215.668 155.375 215.668 154.775C215.668 154.175 216.073 153.755 216.673 153.755ZM215.878 156.965H217.468V164H215.878V156.965ZM223.145 156.815C224.9 156.815 225.965 157.955 225.965 159.875V164H224.375V160.055C224.375 158.9 223.76 158.24 222.74 158.24C221.615 158.24 220.94 159.005 220.94 160.31V164H219.35V156.965H220.685L220.745 158.045H220.775C221.225 157.25 222.035 156.815 223.145 156.815ZM229.26 160.925V164H227.67V153.5H229.26V159.98L232.11 156.965H234.105L230.76 160.4L234.255 164H232.155L229.26 160.925ZM259.689 153.89C260.994 153.89 262.209 154.205 262.854 154.685V156.59H262.764C262.119 155.9 260.979 155.495 259.659 155.495C258.399 155.495 257.589 156.035 257.589 156.875C257.589 157.58 258.114 157.94 259.794 158.105C262.449 158.375 263.424 159.29 263.424 161.12C263.424 163.025 261.984 164.15 259.524 164.15C257.889 164.15 256.599 163.82 255.789 163.205V161.285H255.879C256.779 162.11 258.024 162.545 259.479 162.545C260.859 162.545 261.639 162.05 261.639 161.165C261.639 160.4 261.099 160.04 259.329 159.845C256.734 159.56 255.804 158.72 255.804 156.98C255.804 155.06 257.289 153.89 259.689 153.89ZM268.643 156.815C270.398 156.815 271.463 157.955 271.463 159.875V164H269.873V160.055C269.873 158.9 269.258 158.24 268.238 158.24C267.113 158.24 266.438 159.005 266.438 160.31V164H264.848V153.5H266.438V157.73H266.468C266.948 157.145 267.698 156.815 268.643 156.815ZM280.158 164H278.838L278.793 162.995H278.763C278.253 163.715 277.368 164.15 276.228 164.15C274.218 164.15 272.748 162.62 272.748 160.49C272.748 158.36 274.218 156.815 276.228 156.815C277.368 156.815 278.238 157.25 278.748 157.97H278.778L278.838 156.965H280.158V164ZM276.483 162.725C277.743 162.725 278.613 161.795 278.613 160.49C278.613 159.155 277.743 158.24 276.483 158.24C275.223 158.24 274.353 159.155 274.353 160.49C274.353 161.795 275.223 162.725 276.483 162.725ZM285.616 156.815C286.066 156.815 286.441 156.935 286.666 157.085V158.66H286.591C286.291 158.45 285.916 158.33 285.481 158.33C284.221 158.33 283.606 159.17 283.606 160.88V164H282.016V156.965H283.351L283.411 158.045H283.441C283.846 157.235 284.566 156.815 285.616 156.815ZM294.436 160.97H288.841C289.036 162.095 289.996 162.755 291.391 162.755C292.426 162.755 293.296 162.44 293.926 161.84H294.001V163.415C293.401 163.88 292.441 164.15 291.331 164.15C288.871 164.15 287.221 162.68 287.221 160.49C287.221 158.33 288.736 156.815 290.881 156.815C293.056 156.815 294.436 158.135 294.436 160.19V160.97ZM290.926 158.21C289.921 158.21 289.036 158.84 288.841 159.785H292.966C292.831 158.825 292.021 158.21 290.926 158.21ZM299.35 154.04H303.685C306.1 154.04 307.345 155.135 307.345 157.265C307.345 159.38 306.1 160.475 303.685 160.475H301.15V164H299.35V154.04ZM301.15 158.87H303.61C304.915 158.87 305.53 158.345 305.53 157.265C305.53 156.17 304.915 155.645 303.61 155.645H301.15V158.87ZM311.859 156.815C314.049 156.815 315.609 158.33 315.609 160.49C315.609 162.635 314.049 164.15 311.859 164.15C309.669 164.15 308.124 162.635 308.124 160.49C308.124 158.33 309.669 156.815 311.859 156.815ZM311.859 158.24C310.599 158.24 309.729 159.155 309.729 160.49C309.729 161.795 310.599 162.725 311.859 162.725C313.134 162.725 314.004 161.795 314.004 160.49C314.004 159.155 313.134 158.24 311.859 158.24ZM319.53 156.815C320.445 156.815 321.27 156.995 321.78 157.325V158.96H321.705C321.225 158.465 320.49 158.21 319.575 158.21C318.81 158.21 318.27 158.555 318.27 159.05C318.27 159.455 318.585 159.635 319.62 159.695C321.495 159.8 322.23 160.49 322.23 161.915C322.23 163.295 321.165 164.15 319.41 164.15C318.24 164.15 317.325 163.91 316.74 163.46V161.795H316.815C317.4 162.425 318.255 162.755 319.335 162.755C320.16 162.755 320.67 162.425 320.67 161.915C320.67 161.45 320.355 161.24 319.215 161.15C317.385 161 316.71 160.43 316.71 159.095C316.71 157.715 317.835 156.815 319.53 156.815ZM324.369 153.755C324.984 153.755 325.389 154.175 325.389 154.775C325.389 155.375 324.984 155.78 324.369 155.78C323.769 155.78 323.364 155.375 323.364 154.775C323.364 154.175 323.769 153.755 324.369 153.755ZM323.574 156.965H325.164V164H323.574V156.965ZM331.305 162.32V163.895C330.975 164.06 330.54 164.15 329.985 164.15C328.395 164.15 327.54 163.25 327.54 161.585V158.345H326.295V156.965H327.585L327.81 155.03H329.13V156.965H331.275V158.345H329.13V161.525C329.13 162.29 329.535 162.74 330.225 162.74C330.6 162.74 330.945 162.635 331.23 162.32H331.305ZM333.538 153.755C334.153 153.755 334.558 154.175 334.558 154.775C334.558 155.375 334.153 155.78 333.538 155.78C332.938 155.78 332.533 155.375 332.533 154.775C332.533 154.175 332.938 153.755 333.538 153.755ZM332.743 156.965H334.333V164H332.743V156.965ZM339.53 156.815C341.72 156.815 343.28 158.33 343.28 160.49C343.28 162.635 341.72 164.15 339.53 164.15C337.34 164.15 335.795 162.635 335.795 160.49C335.795 158.33 337.34 156.815 339.53 156.815ZM339.53 158.24C338.27 158.24 337.4 159.155 337.4 160.49C337.4 161.795 338.27 162.725 339.53 162.725C340.805 162.725 341.675 161.795 341.675 160.49C341.675 159.155 340.805 158.24 339.53 158.24ZM348.521 156.815C350.276 156.815 351.341 157.955 351.341 159.875V164H349.751V160.055C349.751 158.9 349.136 158.24 348.116 158.24C346.991 158.24 346.316 159.005 346.316 160.31V164H344.726V156.965H346.061L346.121 158.045H346.151C346.601 157.25 347.411 156.815 348.521 156.815ZM150.677 180.9V180.93C151.697 181.365 152.267 182.175 152.267 183.3C152.267 185.1 150.782 186.15 148.322 186.15C146.897 186.15 145.607 185.76 144.917 185.13V183.33H145.007C145.682 184.14 146.942 184.635 148.292 184.635C149.732 184.635 150.557 184.08 150.557 183.06C150.557 182.115 149.867 181.695 148.307 181.695H146.852V180.225H148.112C149.687 180.225 150.377 179.82 150.377 178.92C150.377 177.93 149.597 177.405 148.217 177.405C147.092 177.405 145.937 177.87 145.217 178.635H145.127V176.835C145.892 176.235 147.122 175.89 148.382 175.89C150.677 175.89 152.072 176.925 152.072 178.665C152.072 179.7 151.577 180.465 150.677 180.9ZM158.333 179.58C160.643 179.58 162.023 180.78 162.023 182.805C162.023 184.905 160.523 186.15 158.018 186.15C156.548 186.15 155.273 185.805 154.553 185.235V183.51H154.643C155.348 184.23 156.533 184.635 157.943 184.635C159.458 184.635 160.313 183.975 160.313 182.82C160.313 181.635 159.443 181.05 157.643 181.05C156.698 181.05 155.708 181.26 154.958 181.605H154.868V176.04H161.363V177.555H156.368V179.805C156.968 179.625 157.658 179.58 158.333 179.58ZM165.838 175.89C167.263 175.89 168.088 176.88 168.088 178.365C168.088 179.835 167.263 180.825 165.838 180.825C164.413 180.825 163.588 179.835 163.588 178.365C163.588 176.88 164.413 175.89 165.838 175.89ZM164.908 186L171.283 176.04H172.603L166.228 186H164.908ZM165.838 176.925C165.163 176.925 164.743 177.45 164.743 178.365C164.743 179.265 165.163 179.79 165.838 179.79C166.513 179.79 166.933 179.265 166.933 178.365C166.933 177.45 166.513 176.925 165.838 176.925ZM171.673 181.215C173.098 181.215 173.923 182.205 173.923 183.69C173.923 185.16 173.098 186.15 171.673 186.15C170.248 186.15 169.423 185.16 169.423 183.69C169.423 182.205 170.248 181.215 171.673 181.215ZM171.673 182.25C170.998 182.25 170.578 182.775 170.578 183.69C170.578 184.59 170.998 185.115 171.673 185.115C172.348 185.115 172.768 184.59 172.768 183.69C172.768 182.775 172.348 182.25 171.673 182.25ZM302.464 180.9V180.93C303.484 181.365 304.054 182.175 304.054 183.3C304.054 185.1 302.569 186.15 300.109 186.15C298.684 186.15 297.394 185.76 296.704 185.13V183.33H296.794C297.469 184.14 298.729 184.635 300.079 184.635C301.519 184.635 302.344 184.08 302.344 183.06C302.344 182.115 301.654 181.695 300.094 181.695H298.639V180.225H299.899C301.474 180.225 302.164 179.82 302.164 178.92C302.164 177.93 301.384 177.405 300.004 177.405C298.879 177.405 297.724 177.87 297.004 178.635H296.914V176.835C297.679 176.235 298.909 175.89 300.169 175.89C302.464 175.89 303.859 176.925 303.859 178.665C303.859 179.7 303.364 180.465 302.464 180.9ZM309.97 175.89C312.58 175.89 314.08 177.765 314.08 181.02C314.08 184.275 312.58 186.15 309.97 186.15C307.36 186.15 305.86 184.275 305.86 181.02C305.86 177.765 307.36 175.89 309.97 175.89ZM309.97 177.405C308.425 177.405 307.555 178.71 307.555 181.02C307.555 183.33 308.425 184.635 309.97 184.635C311.515 184.635 312.385 183.33 312.385 181.02C312.385 178.71 311.515 177.405 309.97 177.405ZM317.626 175.89C319.051 175.89 319.876 176.88 319.876 178.365C319.876 179.835 319.051 180.825 317.626 180.825C316.201 180.825 315.376 179.835 315.376 178.365C315.376 176.88 316.201 175.89 317.626 175.89ZM316.696 186L323.071 176.04H324.391L318.016 186H316.696ZM317.626 176.925C316.951 176.925 316.531 177.45 316.531 178.365C316.531 179.265 316.951 179.79 317.626 179.79C318.301 179.79 318.721 179.265 318.721 178.365C318.721 177.45 318.301 176.925 317.626 176.925ZM323.461 181.215C324.886 181.215 325.711 182.205 325.711 183.69C325.711 185.16 324.886 186.15 323.461 186.15C322.036 186.15 321.211 185.16 321.211 183.69C321.211 182.205 322.036 181.215 323.461 181.215ZM323.461 182.25C322.786 182.25 322.366 182.775 322.366 183.69C322.366 184.59 322.786 185.115 323.461 185.115C324.136 185.115 324.556 184.59 324.556 183.69C324.556 182.775 324.136 182.25 323.461 182.25Z" fill="#E6FC8D"/>
<path d="M64.354 232.436L63.192 230.434L62.044 232.436L61.162 231.792L62.716 230.07L60.448 229.58L60.798 228.572L62.898 229.482L62.66 227.2H63.738L63.5 229.482L65.6 228.572L65.936 229.58L63.668 230.07L65.222 231.792L64.354 232.436ZM70.5666 227.704H74.5846C76.7686 227.704 77.9026 228.698 77.9026 230.63C77.9026 232.562 76.7686 233.57 74.5846 233.57H71.9106V237H70.5666V227.704ZM71.9106 232.38H74.5286C75.8726 232.38 76.5446 231.792 76.5446 230.63C76.5446 229.468 75.8726 228.894 74.5286 228.894H71.9106V232.38ZM82.1459 230.308C84.1759 230.308 85.6179 231.722 85.6179 233.724C85.6179 235.726 84.1759 237.14 82.1459 237.14C80.1159 237.14 78.6739 235.726 78.6739 233.724C78.6739 231.722 80.1159 230.308 82.1459 230.308ZM82.1459 231.372C80.8019 231.372 79.8779 232.338 79.8779 233.724C79.8779 235.11 80.8019 236.076 82.1459 236.076C83.4759 236.076 84.4139 235.11 84.4139 233.724C84.4139 232.338 83.4759 231.372 82.1459 231.372ZM87.639 227.606C88.101 227.606 88.423 227.928 88.423 228.39C88.423 228.852 88.101 229.174 87.639 229.174C87.177 229.174 86.855 228.852 86.855 228.39C86.855 227.928 87.177 227.606 87.639 227.606ZM87.051 237V230.448H88.241V237H87.051ZM93.4884 230.308C95.1544 230.308 96.1764 231.4 96.1764 233.192V237H94.9864V233.332C94.9864 232.1 94.3144 231.372 93.2084 231.372C91.9904 231.372 91.2624 232.212 91.2624 233.598V237H90.0724V230.448H91.0804L91.1084 231.484H91.1364C91.5844 230.742 92.3824 230.308 93.4884 230.308ZM101.618 235.698V236.902C101.324 237.056 100.932 237.14 100.428 237.14C99.0561 237.14 98.2861 236.328 98.2861 234.858V231.484H97.0821V230.448H98.3141L98.4961 228.67H99.4761V230.448H101.59V231.484H99.4761V234.83C99.4761 235.614 99.8961 236.076 100.596 236.076C100.96 236.076 101.296 235.978 101.562 235.698H101.618ZM105.176 230.308C106.044 230.308 106.828 230.49 107.318 230.812V232.072H107.262C106.814 231.61 106.114 231.372 105.204 231.372C104.364 231.372 103.818 231.764 103.818 232.352C103.818 232.828 104.168 233.052 105.26 233.108C107.052 233.206 107.71 233.808 107.71 235.096C107.71 236.356 106.716 237.14 105.12 237.14C104.028 237.14 103.174 236.902 102.628 236.454V235.166H102.684C103.216 235.768 104.028 236.076 105.078 236.076C105.974 236.076 106.534 235.698 106.534 235.096C106.534 234.564 106.17 234.312 104.994 234.242C103.272 234.13 102.642 233.584 102.642 232.394C102.642 231.148 103.65 230.308 105.176 230.308ZM118.579 237H117.572L117.53 235.964H117.502C117.012 236.692 116.116 237.14 114.968 237.14C113.064 237.14 111.692 235.712 111.692 233.724C111.692 231.736 113.064 230.308 114.968 230.308C116.116 230.308 117.012 230.756 117.502 231.498H117.53L117.572 230.448H118.579V237ZM115.164 236.076C116.494 236.076 117.432 235.11 117.432 233.724C117.432 232.338 116.494 231.372 115.164 231.372C113.82 231.372 112.896 232.338 112.896 233.724C112.896 235.11 113.82 236.076 115.164 236.076ZM123.84 230.308C125.506 230.308 126.528 231.4 126.528 233.192V237H125.338V233.332C125.338 232.1 124.666 231.372 123.56 231.372C122.342 231.372 121.614 232.212 121.614 233.598V237H120.424V230.448H121.432L121.46 231.484H121.488C121.936 230.742 122.734 230.308 123.84 230.308ZM134.671 237H133.663L133.621 235.964H133.593C133.103 236.692 132.207 237.14 131.059 237.14C129.155 237.14 127.783 235.712 127.783 233.724C127.783 231.736 129.155 230.308 131.059 230.308C132.123 230.308 132.935 230.672 133.453 231.302H133.481V227.2H134.671V237ZM131.255 236.076C132.585 236.076 133.523 235.11 133.523 233.724C133.523 232.338 132.585 231.372 131.255 231.372C129.911 231.372 128.987 232.338 128.987 233.724C128.987 235.11 129.911 236.076 131.255 236.076ZM142.238 227.06C142.784 227.06 143.246 227.158 143.526 227.298V228.418H143.47C143.19 228.236 142.784 228.124 142.406 228.124C141.664 228.124 141.244 228.572 141.244 229.412V230.448H143.344V231.484H141.244V237H140.04V231.484H138.836V230.448H140.04V229.384C140.04 227.9 140.824 227.06 142.238 227.06ZM150.418 234.116H144.888C145.056 235.334 146.036 236.076 147.52 236.076C148.486 236.076 149.326 235.768 149.942 235.18H149.998V236.384C149.41 236.86 148.514 237.14 147.492 237.14C145.182 237.14 143.684 235.782 143.684 233.724C143.684 231.722 145.098 230.308 147.1 230.308C149.116 230.308 150.418 231.554 150.418 233.458V234.116ZM147.114 231.372C145.994 231.372 145.112 232.072 144.888 233.122H149.312C149.144 232.058 148.304 231.372 147.114 231.372ZM158.142 234.116H152.612C152.78 235.334 153.76 236.076 155.244 236.076C156.21 236.076 157.05 235.768 157.666 235.18H157.722V236.384C157.134 236.86 156.238 237.14 155.216 237.14C152.906 237.14 151.408 235.782 151.408 233.724C151.408 231.722 152.822 230.308 154.824 230.308C156.84 230.308 158.142 231.554 158.142 233.458V234.116ZM154.838 231.372C153.718 231.372 152.836 232.072 152.612 233.122H157.036C156.868 232.058 156.028 231.372 154.838 231.372ZM165.765 230.308C166.199 230.308 166.535 230.42 166.759 230.56V231.75H166.703C166.423 231.554 166.073 231.442 165.681 231.442C164.421 231.442 163.819 232.31 163.819 234.018V237H162.629V230.448H163.637L163.665 231.498H163.693C164.085 230.714 164.771 230.308 165.765 230.308ZM174.015 234.116H168.485C168.653 235.334 169.633 236.076 171.117 236.076C172.083 236.076 172.923 235.768 173.539 235.18H173.595V236.384C173.007 236.86 172.111 237.14 171.089 237.14C168.779 237.14 167.281 235.782 167.281 233.724C167.281 231.722 168.695 230.308 170.697 230.308C172.713 230.308 174.015 231.554 174.015 233.458V234.116ZM170.711 231.372C169.591 231.372 168.709 232.072 168.485 233.122H172.909C172.741 232.058 171.901 231.372 170.711 231.372ZM179.024 230.308C180.928 230.308 182.314 231.736 182.314 233.724C182.314 235.712 180.928 237.14 179.024 237.14C177.876 237.14 176.994 236.706 176.49 235.964H176.462L176.434 237H175.426V227.2H176.616V231.288H176.644C177.162 230.672 177.974 230.308 179.024 230.308ZM178.842 236.076C180.172 236.076 181.11 235.11 181.11 233.724C181.11 232.338 180.172 231.372 178.842 231.372C177.498 231.372 176.574 232.338 176.574 233.724C176.574 235.11 177.498 236.076 178.842 236.076ZM190.206 237H189.198L189.156 235.964H189.128C188.638 236.692 187.742 237.14 186.594 237.14C184.69 237.14 183.318 235.712 183.318 233.724C183.318 231.736 184.69 230.308 186.594 230.308C187.742 230.308 188.638 230.756 189.128 231.498H189.156L189.198 230.448H190.206V237ZM186.79 236.076C188.12 236.076 189.058 235.11 189.058 233.724C189.058 232.338 188.12 231.372 186.79 231.372C185.446 231.372 184.522 232.338 184.522 233.724C184.522 235.11 185.446 236.076 186.79 236.076ZM195.831 235.698V236.902C195.537 237.056 195.145 237.14 194.641 237.14C193.269 237.14 192.499 236.328 192.499 234.858V231.484H191.295V230.448H192.527L192.709 228.67H193.689V230.448H195.803V231.484H193.689V234.83C193.689 235.614 194.109 236.076 194.809 236.076C195.173 236.076 195.509 235.978 195.775 235.698H195.831ZM203.492 234.116H197.962C198.13 235.334 199.11 236.076 200.594 236.076C201.56 236.076 202.4 235.768 203.016 235.18H203.072V236.384C202.484 236.86 201.588 237.14 200.566 237.14C198.256 237.14 196.758 235.782 196.758 233.724C196.758 231.722 198.172 230.308 200.174 230.308C202.19 230.308 203.492 231.554 203.492 233.458V234.116ZM200.188 231.372C199.068 231.372 198.186 232.072 197.962 233.122H202.386C202.218 232.058 201.378 231.372 200.188 231.372ZM207.087 230.308C207.955 230.308 208.739 230.49 209.229 230.812V232.072H209.173C208.725 231.61 208.025 231.372 207.115 231.372C206.275 231.372 205.729 231.764 205.729 232.352C205.729 232.828 206.079 233.052 207.171 233.108C208.963 233.206 209.621 233.808 209.621 235.096C209.621 236.356 208.627 237.14 207.031 237.14C205.939 237.14 205.085 236.902 204.539 236.454V235.166H204.595C205.127 235.768 205.939 236.076 206.989 236.076C207.885 236.076 208.445 235.698 208.445 235.096C208.445 234.564 208.081 234.312 206.905 234.242C205.183 234.13 204.553 233.584 204.553 232.394C204.553 231.148 205.561 230.308 207.087 230.308ZM220.49 237H219.482L219.44 235.964H219.412C218.922 236.692 218.026 237.14 216.878 237.14C214.974 237.14 213.602 235.712 213.602 233.724C213.602 231.736 214.974 230.308 216.878 230.308C218.026 230.308 218.922 230.756 219.412 231.498H219.44L219.482 230.448H220.49V237ZM217.074 236.076C218.404 236.076 219.342 235.11 219.342 233.724C219.342 232.338 218.404 231.372 217.074 231.372C215.73 231.372 214.806 232.338 214.806 233.724C214.806 235.11 215.73 236.076 217.074 236.076ZM225.47 230.308C225.904 230.308 226.24 230.42 226.464 230.56V231.75H226.408C226.128 231.554 225.778 231.442 225.386 231.442C224.126 231.442 223.524 232.31 223.524 234.018V237H222.334V230.448H223.342L223.37 231.498H223.398C223.79 230.714 224.476 230.308 225.47 230.308ZM233.72 234.116H228.19C228.358 235.334 229.338 236.076 230.822 236.076C231.788 236.076 232.628 235.768 233.244 235.18H233.3V236.384C232.712 236.86 231.816 237.14 230.794 237.14C228.484 237.14 226.986 235.782 226.986 233.724C226.986 231.722 228.4 230.308 230.402 230.308C232.418 230.308 233.72 231.554 233.72 233.458V234.116ZM230.416 231.372C229.296 231.372 228.414 232.072 228.19 233.122H232.614C232.446 232.058 231.606 231.372 230.416 231.372ZM244.675 230.448V236.482C244.675 238.554 243.359 239.8 241.133 239.8C239.985 239.8 239.005 239.478 238.403 238.932V237.686H238.459C238.991 238.344 239.929 238.736 241.007 238.736C242.589 238.736 243.485 237.91 243.485 236.412V236.09H243.457C242.939 236.72 242.127 237.084 241.063 237.084C239.159 237.084 237.787 235.684 237.787 233.696C237.787 231.708 239.159 230.308 241.063 230.308C242.211 230.308 243.107 230.756 243.597 231.498H243.625L243.667 230.448H244.675ZM241.259 236.02C242.589 236.02 243.527 235.082 243.527 233.696C243.527 232.31 242.589 231.372 241.259 231.372C239.915 231.372 238.991 232.31 238.991 233.696C238.991 235.082 239.915 236.02 241.259 236.02ZM249.656 230.308C250.09 230.308 250.426 230.42 250.65 230.56V231.75H250.594C250.314 231.554 249.964 231.442 249.572 231.442C248.312 231.442 247.71 232.31 247.71 234.018V237H246.52V230.448H247.528L247.556 231.498H247.584C247.976 230.714 248.662 230.308 249.656 230.308ZM258.06 237H257.052L257.01 235.964H256.982C256.492 236.692 255.596 237.14 254.448 237.14C252.544 237.14 251.172 235.712 251.172 233.724C251.172 231.736 252.544 230.308 254.448 230.308C255.596 230.308 256.492 230.756 256.982 231.498H257.01L257.052 230.448H258.06V237ZM254.644 236.076C255.974 236.076 256.912 235.11 256.912 233.724C256.912 232.338 255.974 231.372 254.644 231.372C253.3 231.372 252.376 232.338 252.376 233.724C252.376 235.11 253.3 236.076 254.644 236.076ZM263.32 230.308C264.986 230.308 266.008 231.4 266.008 233.192V237H264.818V233.332C264.818 232.1 264.146 231.372 263.04 231.372C261.822 231.372 261.094 232.212 261.094 233.598V237H259.904V230.448H260.912L260.94 231.484H260.968C261.416 230.742 262.214 230.308 263.32 230.308ZM271.45 235.698V236.902C271.156 237.056 270.764 237.14 270.26 237.14C268.888 237.14 268.118 236.328 268.118 234.858V231.484H266.914V230.448H268.146L268.328 228.67H269.308V230.448H271.422V231.484H269.308V234.83C269.308 235.614 269.728 236.076 270.428 236.076C270.792 236.076 271.128 235.978 271.394 235.698H271.45ZM279.111 234.116H273.581C273.749 235.334 274.729 236.076 276.213 236.076C277.179 236.076 278.019 235.768 278.635 235.18H278.691V236.384C278.103 236.86 277.207 237.14 276.185 237.14C273.875 237.14 272.377 235.782 272.377 233.724C272.377 231.722 273.791 230.308 275.793 230.308C277.809 230.308 279.111 231.554 279.111 233.458V234.116ZM275.807 231.372C274.687 231.372 273.805 232.072 273.581 233.122H278.005C277.837 232.058 276.997 231.372 275.807 231.372ZM286.99 237H285.982L285.94 235.964H285.912C285.422 236.692 284.526 237.14 283.378 237.14C281.474 237.14 280.102 235.712 280.102 233.724C280.102 231.736 281.474 230.308 283.378 230.308C284.442 230.308 285.254 230.672 285.772 231.302H285.8V227.2H286.99V237ZM283.574 236.076C284.904 236.076 285.842 235.11 285.842 233.724C285.842 232.338 284.904 231.372 283.574 231.372C282.23 231.372 281.306 232.338 281.306 233.724C281.306 235.11 282.23 236.076 283.574 236.076ZM292.722 227.256C293.38 227.256 293.856 227.718 293.856 228.376C293.856 229.048 293.38 229.51 292.722 229.51C292.064 229.51 291.588 229.048 291.588 228.376C291.588 227.718 292.064 227.256 292.722 227.256ZM291.798 237V230.42H293.632V237H291.798ZM298.953 230.28C300.563 230.28 301.515 231.316 301.515 233.094V237H299.681V233.318C299.681 232.408 299.233 231.904 298.463 231.904C297.609 231.904 297.105 232.478 297.105 233.5V237H295.271V230.42H296.797L296.867 231.358H296.895C297.287 230.672 298.001 230.28 298.953 230.28ZM309.683 230.28C310.103 230.28 310.453 230.378 310.649 230.532V232.324H310.579C310.299 232.128 309.949 232.016 309.543 232.016C308.423 232.016 307.919 232.702 307.919 234.172V237H306.085V230.42H307.611L307.695 231.442H307.723C308.087 230.672 308.731 230.28 309.683 230.28ZM317.897 234.172H312.997C313.193 235.068 314.005 235.558 315.139 235.558C316.091 235.558 316.903 235.278 317.435 234.76H317.505V236.524C316.959 236.916 316.077 237.14 315.055 237.14C312.731 237.14 311.149 235.74 311.149 233.71C311.149 231.694 312.577 230.28 314.579 230.28C316.623 230.28 317.897 231.498 317.897 233.43V234.172ZM314.635 231.862C313.851 231.862 313.179 232.296 312.997 233.066H316.245C316.119 232.268 315.503 231.862 314.635 231.862ZM325.736 237H324.21L324.154 236.118H324.126C323.692 236.762 322.964 237.14 321.984 237.14C320.122 237.14 318.764 235.698 318.764 233.71C318.764 231.722 320.122 230.28 321.984 230.28C322.95 230.28 323.692 230.644 324.112 231.274H324.14L324.21 230.42H325.736V237ZM322.292 235.516C323.272 235.516 323.958 234.774 323.958 233.71C323.958 232.646 323.272 231.904 322.292 231.904C321.298 231.904 320.612 232.646 320.612 233.71C320.612 234.774 321.298 235.516 322.292 235.516ZM327.359 237V227.2H329.193V237H327.359ZM330.594 234.088V232.24H334.598V234.088H330.594ZM340.309 235.138V236.916C339.987 237.07 339.581 237.14 339.021 237.14C337.425 237.14 336.571 236.272 336.571 234.606V231.974H335.479V230.42H336.627L336.865 228.572H338.405V230.42H340.295V231.974H338.405V234.536C338.405 235.166 338.741 235.516 339.315 235.516C339.651 235.516 339.959 235.432 340.239 235.138H340.309ZM342.502 227.256C343.16 227.256 343.636 227.718 343.636 228.376C343.636 229.048 343.16 229.51 342.502 229.51C341.844 229.51 341.368 229.048 341.368 228.376C341.368 227.718 341.844 227.256 342.502 227.256ZM341.578 237V230.42H343.412V237H341.578ZM352.82 230.28C354.388 230.28 355.27 231.288 355.27 233.08V237H353.436V233.29C353.436 232.38 353.044 231.904 352.33 231.904C351.518 231.904 351.098 232.45 351.098 233.612V237H349.264V233.29C349.264 232.38 348.872 231.904 348.144 231.904C347.332 231.904 346.912 232.45 346.912 233.472V237H345.078V230.42H346.604L346.674 231.302H346.702C347.08 230.644 347.738 230.28 348.634 230.28C349.516 230.28 350.23 230.658 350.636 231.358H350.664C351.07 230.63 351.756 230.28 352.82 230.28ZM363.137 234.172H358.237C358.433 235.068 359.245 235.558 360.379 235.558C361.331 235.558 362.143 235.278 362.675 234.76H362.745V236.524C362.199 236.916 361.317 237.14 360.295 237.14C357.971 237.14 356.389 235.74 356.389 233.71C356.389 231.694 357.817 230.28 359.819 230.28C361.863 230.28 363.137 231.498 363.137 233.43V234.172ZM359.875 231.862C359.091 231.862 358.419 232.296 358.237 233.066H361.485C361.359 232.268 360.743 231.862 359.875 231.862ZM371.168 230.308C373.072 230.308 374.458 231.736 374.458 233.724C374.458 235.712 373.072 237.14 371.168 237.14C370.02 237.14 369.138 236.706 368.634 235.964H368.606L368.578 237H367.57V227.2H368.76V231.288H368.788C369.306 230.672 370.118 230.308 371.168 230.308ZM370.986 236.076C372.316 236.076 373.254 235.11 373.254 233.724C373.254 232.338 372.316 231.372 370.986 231.372C369.642 231.372 368.718 232.338 368.718 233.724C368.718 235.11 369.642 236.076 370.986 236.076ZM382.351 237H381.343L381.301 235.964H381.273C380.783 236.692 379.887 237.14 378.739 237.14C376.835 237.14 375.463 235.712 375.463 233.724C375.463 231.736 376.835 230.308 378.739 230.308C379.887 230.308 380.783 230.756 381.273 231.498H381.301L381.343 230.448H382.351V237ZM378.935 236.076C380.265 236.076 381.203 235.11 381.203 233.724C381.203 232.338 380.265 231.372 378.935 231.372C377.591 231.372 376.667 232.338 376.667 233.724C376.667 235.11 377.591 236.076 378.935 236.076ZM386.379 230.308C387.247 230.308 388.031 230.49 388.521 230.812V232.072H388.465C388.017 231.61 387.317 231.372 386.407 231.372C385.567 231.372 385.021 231.764 385.021 232.352C385.021 232.828 385.371 233.052 386.463 233.108C388.255 233.206 388.913 233.808 388.913 235.096C388.913 236.356 387.919 237.14 386.323 237.14C385.231 237.14 384.377 236.902 383.831 236.454V235.166H383.887C384.419 235.768 385.231 236.076 386.281 236.076C387.177 236.076 387.737 235.698 387.737 235.096C387.737 234.564 387.373 234.312 386.197 234.242C384.475 234.13 383.845 233.584 383.845 232.394C383.845 231.148 384.853 230.308 386.379 230.308ZM396.552 234.116H391.022C391.19 235.334 392.17 236.076 393.654 236.076C394.62 236.076 395.46 235.768 396.076 235.18H396.132V236.384C395.544 236.86 394.648 237.14 393.626 237.14C391.316 237.14 389.818 235.782 389.818 233.724C389.818 231.722 391.232 230.308 393.234 230.308C395.25 230.308 396.552 231.554 396.552 233.458V234.116ZM393.248 231.372C392.128 231.372 391.246 232.072 391.022 233.122H395.446C395.278 232.058 394.438 231.372 393.248 231.372ZM404.431 237H403.423L403.381 235.964H403.353C402.863 236.692 401.967 237.14 400.819 237.14C398.915 237.14 397.543 235.712 397.543 233.724C397.543 231.736 398.915 230.308 400.819 230.308C401.883 230.308 402.695 230.672 403.213 231.302H403.241V227.2H404.431V237ZM401.015 236.076C402.345 236.076 403.283 235.11 403.283 233.724C403.283 232.338 402.345 231.372 401.015 231.372C399.671 231.372 398.747 232.338 398.747 233.724C398.747 235.11 399.671 236.076 401.015 236.076ZM412.404 230.308C414.434 230.308 415.876 231.722 415.876 233.724C415.876 235.726 414.434 237.14 412.404 237.14C410.374 237.14 408.932 235.726 408.932 233.724C408.932 231.722 410.374 230.308 412.404 230.308ZM412.404 231.372C411.06 231.372 410.136 232.338 410.136 233.724C410.136 235.11 411.06 236.076 412.404 236.076C413.734 236.076 414.672 235.11 414.672 233.724C414.672 232.338 413.734 231.372 412.404 231.372ZM420.725 230.308C422.391 230.308 423.413 231.4 423.413 233.192V237H422.223V233.332C422.223 232.1 421.551 231.372 420.445 231.372C419.227 231.372 418.499 232.212 418.499 233.598V237H417.309V230.448H418.317L418.345 231.484H418.373C418.821 230.742 419.619 230.308 420.725 230.308ZM431.3 230.308C431.734 230.308 432.07 230.42 432.294 230.56V231.75H432.238C431.958 231.554 431.608 231.442 431.216 231.442C429.956 231.442 429.354 232.31 429.354 234.018V237H428.164V230.448H429.172L429.2 231.498H429.228C429.62 230.714 430.306 230.308 431.3 230.308ZM439.551 234.116H434.021C434.189 235.334 435.169 236.076 436.653 236.076C437.619 236.076 438.459 235.768 439.075 235.18H439.131V236.384C438.543 236.86 437.647 237.14 436.625 237.14C434.315 237.14 432.817 235.782 432.817 233.724C432.817 231.722 434.231 230.308 436.233 230.308C438.249 230.308 439.551 231.554 439.551 233.458V234.116ZM436.247 231.372C435.127 231.372 434.245 232.072 434.021 233.122H438.445C438.277 232.058 437.437 231.372 436.247 231.372ZM443.566 227.06C444.112 227.06 444.574 227.158 444.854 227.298V228.418H444.798C444.518 228.236 444.112 228.124 443.734 228.124C442.992 228.124 442.572 228.572 442.572 229.412V230.448H444.672V231.484H442.572V237H441.368V231.484H440.164V230.448H441.368V229.384C441.368 227.9 442.152 227.06 443.566 227.06ZM451.746 234.116H446.216C446.384 235.334 447.364 236.076 448.848 236.076C449.814 236.076 450.654 235.768 451.27 235.18H451.326V236.384C450.738 236.86 449.842 237.14 448.82 237.14C446.51 237.14 445.012 235.782 445.012 233.724C445.012 231.722 446.426 230.308 448.428 230.308C450.444 230.308 451.746 231.554 451.746 233.458V234.116ZM448.442 231.372C447.322 231.372 446.44 232.072 446.216 233.122H450.64C450.472 232.058 449.632 231.372 448.442 231.372ZM456.292 230.308C456.726 230.308 457.062 230.42 457.286 230.56V231.75H457.23C456.95 231.554 456.6 231.442 456.208 231.442C454.948 231.442 454.346 232.31 454.346 234.018V237H453.156V230.448H454.164L454.192 231.498H454.22C454.612 230.714 455.298 230.308 456.292 230.308ZM464.543 234.116H459.013C459.181 235.334 460.161 236.076 461.645 236.076C462.611 236.076 463.451 235.768 464.067 235.18H464.123V236.384C463.535 236.86 462.639 237.14 461.617 237.14C459.307 237.14 457.809 235.782 457.809 233.724C457.809 231.722 459.223 230.308 461.225 230.308C463.241 230.308 464.543 231.554 464.543 233.458V234.116ZM461.239 231.372C460.119 231.372 459.237 232.072 459.013 233.122H463.437C463.269 232.058 462.429 231.372 461.239 231.372ZM472.267 234.116H466.737C466.905 235.334 467.885 236.076 469.369 236.076C470.335 236.076 471.175 235.768 471.791 235.18H471.847V236.384C471.259 236.86 470.363 237.14 469.341 237.14C467.031 237.14 465.533 235.782 465.533 233.724C465.533 231.722 466.947 230.308 468.949 230.308C470.965 230.308 472.267 231.554 472.267 233.458V234.116ZM468.963 231.372C467.843 231.372 466.961 232.072 466.737 233.122H471.161C470.993 232.058 470.153 231.372 468.963 231.372ZM473.095 230.812L474.187 227.704H475.419L474.061 230.812H473.095ZM478.323 230.308C479.191 230.308 479.975 230.49 480.465 230.812V232.072H480.409C479.961 231.61 479.261 231.372 478.351 231.372C477.511 231.372 476.965 231.764 476.965 232.352C476.965 232.828 477.315 233.052 478.407 233.108C480.199 233.206 480.857 233.808 480.857 235.096C480.857 236.356 479.863 237.14 478.267 237.14C477.175 237.14 476.321 236.902 475.775 236.454V235.166H475.831C476.363 235.768 477.175 236.076 478.225 236.076C479.121 236.076 479.681 235.698 479.681 235.096C479.681 234.564 479.317 234.312 478.141 234.242C476.419 234.13 475.789 233.584 475.789 232.394C475.789 231.148 476.797 230.308 478.323 230.308ZM491.726 237H490.718L490.676 235.964H490.648C490.158 236.692 489.262 237.14 488.114 237.14C486.21 237.14 484.838 235.712 484.838 233.724C484.838 231.736 486.21 230.308 488.114 230.308C489.262 230.308 490.158 230.756 490.648 231.498H490.676L490.718 230.448H491.726V237ZM488.31 236.076C489.64 236.076 490.578 235.11 490.578 233.724C490.578 232.338 489.64 231.372 488.31 231.372C486.966 231.372 486.042 232.338 486.042 233.724C486.042 235.11 486.966 236.076 488.31 236.076ZM496.678 230.308C497.588 230.308 498.316 230.518 498.82 230.952V232.254H498.764C498.26 231.652 497.616 231.372 496.79 231.372C495.292 231.372 494.354 232.324 494.354 233.724C494.354 235.11 495.292 236.076 496.79 236.076C497.63 236.076 498.288 235.782 498.764 235.194H498.82V236.51C498.316 236.93 497.602 237.14 496.678 237.14C494.55 237.14 493.15 235.712 493.15 233.724C493.15 231.722 494.55 230.308 496.678 230.308ZM504.186 235.698V236.902C503.892 237.056 503.5 237.14 502.996 237.14C501.624 237.14 500.854 236.328 500.854 234.858V231.484H499.65V230.448H500.882L501.064 228.67H502.044V230.448H504.158V231.484H502.044V234.83C502.044 235.614 502.464 236.076 503.164 236.076C503.528 236.076 503.864 235.978 504.13 235.698H504.186ZM506.19 227.606C506.652 227.606 506.974 227.928 506.974 228.39C506.974 228.852 506.652 229.174 506.19 229.174C505.728 229.174 505.406 228.852 505.406 228.39C505.406 227.928 505.728 227.606 506.19 227.606ZM505.602 237V230.448H506.792V237H505.602ZM511.787 237H510.569L507.811 230.448H509.099L511.185 235.754H511.213L513.313 230.448H514.545L511.787 237ZM516.17 227.606C516.632 227.606 516.954 227.928 516.954 228.39C516.954 228.852 516.632 229.174 516.17 229.174C515.708 229.174 515.386 228.852 515.386 228.39C515.386 227.928 515.708 227.606 516.17 227.606ZM515.582 237V230.448H516.772V237H515.582ZM522.384 235.698V236.902C522.09 237.056 521.698 237.14 521.194 237.14C519.822 237.14 519.052 236.328 519.052 234.858V231.484H517.848V230.448H519.08L519.262 228.67H520.242V230.448H522.356V231.484H520.242V234.83C520.242 235.614 520.662 236.076 521.362 236.076C521.726 236.076 522.062 235.978 522.328 235.698H522.384ZM525.633 239.66H524.401L525.731 236.762L522.987 230.448H524.275L526.361 235.516H526.389L528.489 230.448H529.721L525.633 239.66ZM530.586 235.516C531.048 235.516 531.384 235.866 531.384 236.328C531.384 236.79 531.048 237.14 530.586 237.14C530.124 237.14 529.774 236.79 529.774 236.328C529.774 235.866 530.124 235.516 530.586 235.516Z" fill="#808080"/>
<defs>
<filter id="filter0_d_2094_1520" x="507.334" y="59.3333" width="74" height="74" filterUnits="userSpaceOnUse" color-interpolation-filters="sRGB">
<feFlood flood-opacity="0" result="BackgroundImageFix"/>
<feColorMatrix in="SourceAlpha" type="matrix" values="0 0 0 0 0 0 0 0 0 0 0 0 0 0 0 0 0 0 127 0" result="hardAlpha"/>
<feOffset dx="-3"/>
<feGaussianBlur stdDeviation="8"/>
<feComposite in2="hardAlpha" operator="out"/>
<feColorMatrix type="matrix" values="0 0 0 0 0 0 0 0 0 0 0 0 0 0 0 0 0 0 0.25 0"/>
<feBlend mode="normal" in2="BackgroundImageFix" result="effect1_dropShadow_2094_1520"/>
<feBlend mode="normal" in="SourceGraphic" in2="effect1_dropShadow_2094_1520" result="shape"/>
</filter>
<linearGradient id="paint0_linear_2094_1520" x1="486.083" y1="64.8334" x2="486.083" y2="117.333" gradientUnits="userSpaceOnUse">
<stop stop-color="#CCCCCC"/>
<stop offset="1" stop-color="#8C8C8C"/>
</linearGradient>
<linearGradient id="paint1_linear_2094_1520" x1="245.166" y1="63.6667" x2="277.833" y2="101" gradientUnits="userSpaceOnUse">
<stop stop-color="#E6FC8D"/>
<stop offset="1" stop-color="#A9B86E"/>
</linearGradient>
<linearGradient id="paint2_linear_2094_1520" x1="296.5" y1="49.6665" x2="321" y2="77.6665" gradientUnits="userSpaceOnUse">
<stop stop-color="#CCCCCC"/>
<stop offset="1" stop-color="#8C8C8C"/>
</linearGradient>
<linearGradient id="paint3_linear_2094_1520" x1="343.166" y1="34.5" x2="365.333" y2="58.4167" gradientUnits="userSpaceOnUse">
<stop stop-color="#CCCCCC"/>
<stop offset="1" stop-color="#8C8C8C"/>
</linearGradient>
<linearGradient id="paint4_linear_2094_1520" x1="343.166" y1="99.8333" x2="365.333" y2="125.5" gradientUnits="userSpaceOnUse">
<stop stop-color="#CCCCCC"/>
<stop offset="1" stop-color="#8C8C8C"/>
</linearGradient>
<linearGradient id="paint5_linear_2094_1520" x1="343.166" y1="67.1667" x2="365.333" y2="92.8334" gradientUnits="userSpaceOnUse">
<stop stop-color="#CCCCCC"/>
<stop offset="1" stop-color="#8C8C8C"/>
</linearGradient>
<linearGradient id="paint6_linear_2094_1520" x1="296.5" y1="84.6665" x2="321" y2="112.667" gradientUnits="userSpaceOnUse">
<stop stop-color="#CCCCCC"/>
<stop offset="1" stop-color="#8C8C8C"/>
</linearGradient>
</defs>
</svg>
